<?xml version="1.0" encoding="utf-8"?>
<!-- Generator: Adobe Illustrator 22.0.1, SVG Export Plug-In . SVG Version: 6.00 Build 0)  -->
<svg version="1.1" id="Capa_1" xmlns="http://www.w3.org/2000/svg" xmlns:xlink="http://www.w3.org/1999/xlink" x="0px" y="0px"
	 viewBox="0 0 47.9 47.9" style="enable-background:new 0 0 47.9 47.9;" xml:space="preserve">
<style type="text/css">
	.st0{fill:#003366;}
</style>
<g id="Background_xA0_Imagen_1_">
</g>
<g id="LaptopBook_Pro_2_">
	<g id="Shadows_xA0_Imagen_1_">
	</g>
	<g id="LaptopBook_Pro_xA0_Imagen_1_">
	</g>
	<g id="Screen_xA0_Imagen_1_">
		<g>
			<g>
				<rect x="21.1" y="2.5" class="st0" width="2.2" height="2.2"/>
			</g>
			<g>
				<rect x="21.1" y="31.4" class="st0" width="2.2" height="14.1"/>
			</g>
			<g>
				<rect x="21.1" y="16.6" class="st0" width="2.2" height="3"/>
			</g>
			<path class="st0" d="M36.9,16.6H8.4c-1,0-1.8-0.8-1.8-1.8V6.5c0-1,0.8-1.8,1.8-1.8h28.5l6.5,5.8c0.1,0.1,0.1,0.2,0,0.2L36.9,16.6
				z"/>
			<path class="st0" d="M9.5,31.4h28.8c1,0,1.8-0.8,1.8-1.8v-8.3c0-1-0.8-1.8-1.8-1.8H9.5L3,25.3c-0.1,0.1-0.1,0.2,0,0.2L9.5,31.4z"
				/>
		</g>
	</g>
	<g id="Reflection_xA0_Imagen_1_">
	</g>
</g>
</svg>
