<?xml version="1.0" encoding="utf-8"?>
<!-- Generator: Adobe Illustrator 22.0.1, SVG Export Plug-In . SVG Version: 6.00 Build 0)  -->
<svg version="1.1" id="Capa_1" xmlns="http://www.w3.org/2000/svg" xmlns:xlink="http://www.w3.org/1999/xlink" x="0px" y="0px"
	 viewBox="0 0 47.9 47.9" style="enable-background:new 0 0 47.9 47.9;" xml:space="preserve">
<style type="text/css">
	.st0{fill:#003366;}
</style>
<g id="Background_xA0_Imagen_1_">
</g>
<g id="LaptopBook_Pro_2_">
	<g id="Shadows_xA0_Imagen_1_">
	</g>
	<g id="LaptopBook_Pro_xA0_Imagen_1_">
	</g>
	<g id="Screen_xA0_Imagen_1_">
		<g>
			<g>
				<rect x="4" y="36.6" class="st0" width="40.2" height="1.9"/>
				<polygon class="st0" points="41.1,10.6 41.8,11.5 28.3,20.8 20.2,9.4 1.9,22.2 1.9,24.2 19.8,11.8 27.9,23.1 42.8,12.9 
					43.5,13.9 45.8,9.7 				"/>
				<polygon class="st0" points="4.3,35 11,35 11,19.3 4.3,24.1 				"/>
				<polygon class="st0" points="42.4,15.1 36.4,19.4 36.4,35 43.1,35 43.1,16.1 				"/>
				<polygon class="st0" points="28.4,24.6 28.4,35 35.1,35 35.1,19.8 				"/>
				<polygon class="st0" points="12.3,18.8 12.3,35 19,35 19,14 				"/>
				<polygon class="st0" points="20.4,15 20.4,35 27.1,35 27.1,24.7 				"/>
			</g>
		</g>
	</g>
	<g id="Reflection_xA0_Imagen_1_">
	</g>
</g>
</svg>
