<?xml version="1.0" encoding="utf-8"?>
<!-- Generator: Adobe Illustrator 22.0.1, SVG Export Plug-In . SVG Version: 6.00 Build 0)  -->
<svg version="1.1" id="Capa_1" xmlns="http://www.w3.org/2000/svg" xmlns:xlink="http://www.w3.org/1999/xlink" x="0px" y="0px"
	 viewBox="0 0 47.9 47.9" style="enable-background:new 0 0 47.9 47.9;" xml:space="preserve">
<style type="text/css">
	.st0{fill:#003366;}
</style>
<g id="Background_xA0_Imagen_1_">
</g>
<g id="LaptopBook_Pro_2_">
	<g id="Shadows_xA0_Imagen_1_">
	</g>
	<g id="LaptopBook_Pro_xA0_Imagen_1_">
	</g>
	<g id="Screen_xA0_Imagen_1_">
		<g>
			<path class="st0" d="M4.4,7.4L4.4,7.4C4.4,7.5,4.4,7.5,4.4,7.4L4.4,7.4l10.7,10.2v26.7h28.5V4.6H15.1v4.6L8.6,3.1l0,0
				C8.3,3,7.1,2.6,5.4,4.3S4.3,7.2,4.4,7.4L4.4,7.4z M33.9,32.3H40v8.6h-6.1V32.3z M33.9,16.2h1.7h0.9h2.4h1H40v15.4h-6.1V16.2z
				 M33.9,8.2h1v7.3h-1V8.2z M37.2,8.2h1v7.3h-1V8.2z M40,15.5h-0.2h-1V8.2H40V15.5z M36.5,15.5h-0.9V8.2h0.9V15.5z M33.2,15.5h-0.9
				V8.2h0.9V15.5z M30.7,8.2h1v7.3h-1V8.2z M18.6,8.2H30v7.3h-3.7v0.7H30h2.4h0.9v15.4v0.7v8.6h-4.7v-1.6h-1.4v1.6h-8.5V27.7h1.1
				v-1.4h-1.1V21l0.6,0.6c0.2-0.8,0.7-1.7,1.4-2.6c0.9-1,1.9-1.7,2.6-1.9l-4.7-4.5L18.6,8.2L18.6,8.2z"/>
			<path class="st0" d="M21,19.3c-1,1.2-1.4,2.2-1.4,2.7c0,0.2,0.3,0.3,0.4,0.3l0,0l0.8,0.1l0.6,0.1l2.8,0.3l0,0
				c0-0.2,0.1-0.4,0.3-0.7c0.1-0.1,0.3-0.3,0.6-0.4L24.3,19l-0.2-0.6l-0.2-0.7c0-0.2-0.2-0.4-0.2-0.4C23.1,17.4,22,18.1,21,19.3z
				 M23.3,18.3l0.1,0.4l0.2,0.6l0.6,2.1c-0.1,0.1-0.2,0.2-0.3,0.3c-0.1,0.1-0.2,0.2-0.2,0.3l-2.1-0.3L21,21.6l-0.5-0.1
				c0.1-0.4,0.5-1.1,1.2-1.9C22.2,18.9,22.9,18.5,23.3,18.3z"/>
			<path class="st0" d="M24.6,22.8L24.6,22.8l0.6,0.6c0,0,0.2,0.1,0.3,0.1c0.1,0,0.2,0,0.2-0.1c0.1-0.2,0-0.5-0.1-0.6L25,22.3
				c0,0,0,0-0.1,0l0,0c-0.1,0-0.2,0.1-0.3,0.2C24.6,22.6,24.6,22.7,24.6,22.8z"/>
			<polygon class="st0" points="27.1,28.5 28.5,28.5 28.5,26.3 26.1,26.3 26.1,27.7 27.1,27.7 			"/>
			<rect x="21.9" y="26.3" class="st0" width="2" height="1.4"/>
			<rect x="27.1" y="30.7" class="st0" width="1.4" height="2"/>
			<rect x="27.1" y="35" class="st0" width="1.4" height="2"/>
		</g>
	</g>
	<g id="Reflection_xA0_Imagen_1_">
	</g>
</g>
</svg>
