<?xml version="1.0" encoding="utf-8"?>
<!-- Generator: Adobe Illustrator 22.0.1, SVG Export Plug-In . SVG Version: 6.00 Build 0)  -->
<svg version="1.1" id="Capa_1" xmlns="http://www.w3.org/2000/svg" xmlns:xlink="http://www.w3.org/1999/xlink" x="0px" y="0px"
	 viewBox="0 0 47.9 47.9" style="enable-background:new 0 0 47.9 47.9;" xml:space="preserve">
<style type="text/css">
	.st0{fill:#003366;}
</style>
<g id="Background_xA0_Imagen_1_">
</g>
<g id="LaptopBook_Pro_2_">
	<g id="Shadows_xA0_Imagen_1_">
	</g>
	<g id="LaptopBook_Pro_xA0_Imagen_1_">
	</g>
	<g id="Screen_xA0_Imagen_1_">
		<g id="u2jaV5.tif">
			<g>
				<path class="st0" d="M3,28.6c0-5.7,0-11.3,0-17c0.2-0.1,0.1-0.3,0.1-0.4c0.6-3.7,3.7-6.6,7.4-7.1c1-0.1,2.1,0,3.1-0.1
					c0.5,0,1,0,1.6,0c2,0,3.9,0,5.9,0c0.5,0,1,0,1.6,0c2,0,3.9,0,5.9,0c0.5,0,1,0,1.6,0c2,0,3.9,0,5.9,0c0.5,0,1,0,1.5,0
					c1.5,0.2,2.9,0.7,4.2,1.6c0.3,0.3,0.6,0.5,0.9,0.8c1.3,1.3,2.1,2.7,2.5,4.5c0.1,0.3,0,0.6,0.2,0.9c0,5.6,0,11.3,0,16.9
					c-0.2,0.1-0.1,0.3-0.1,0.4c-0.6,3.7-3.7,6.6-7.4,7.1c-1,0.1-2,0-3,0.1c-0.5,0-1,0-1.6,0c-2,0-3.9,0-5.9,0c-0.5,0-1,0-1.6,0
					c-1.9,0-3.8,0-5.6,0c-0.3,0-0.5,0.1-0.6,0.3c-2.2,2.3-4.4,4.6-6.5,6.9c-0.1,0.1-0.3,0.3-0.5,0.3c-0.5,0-1,0-1.6,0
					c-0.4,0.1-0.5-0.1-0.5-0.5c0-1.5,0-3.1,0-4.6c0-0.5,0-1,0-1.6c0-0.2,0-0.4,0-0.6c0-0.2,0-0.3-0.2-0.3C9,36,7.8,35.5,6.7,34.7
					c-0.3-0.2-0.5-0.4-0.8-0.7c-1.3-1.3-2.2-2.8-2.6-4.6C3.1,29.2,3.2,28.9,3,28.6z M25.1,31.3c0.8,0,1.6,0,2.5,0
					c0.2,0,0.3-0.1,0.3-0.3c0-0.8,0-1.6,0-2.5c0.1-0.2-0.1-0.5,0.1-0.6c0.4-0.2,0.7-0.5,1.2-0.6c0.9,0.5,1.7,1,2.6,1.5
					c0.2,0.2,0.3,0.1,0.5-0.1c0.7-1.2,1.4-2.4,2-3.6c0.5-0.8,0.9-1.6,1.4-2.3c0.1-0.2,0.1-0.3-0.1-0.4c-0.4-0.2-0.7-0.4-1-0.6
					s-0.6-0.4-1-0.6c-0.5-0.2-0.7-0.6-0.6-1.1c0-0.1,0-0.2,0-0.4c0-0.2,0.1-0.3,0.3-0.4c0.8-0.4,1.6-0.9,2.3-1.4
					c0.1-0.1,0.3-0.1,0.1-0.4c-0.5-0.9-1-1.8-1.6-2.6c-0.2-0.4-0.3-0.7-0.6-1c-0.4-0.8-0.9-1.5-1.3-2.3c-0.1-0.3-0.2-0.2-0.5-0.1
					c-0.7,0.4-1.4,0.8-2.1,1.2c-0.3,0.2-0.6,0.3-0.9,0c-0.1-0.1-0.3-0.2-0.4-0.3c-0.2-0.1-0.4-0.1-0.3-0.4c0-1,0-1.9,0-2.9
					c0-0.2-0.1-0.3-0.3-0.3c-0.9,0-1.8,0-2.7,0c-0.5,0-1,0-1.6,0c-0.9,0-1.8,0-2.6,0c-0.2,0-0.3,0.1-0.3,0.3c0,0.9,0,1.8,0,2.6
					c0.1,0.4-0.1,0.6-0.4,0.7c-0.3,0.1-0.5,0.3-0.7,0.4c-0.9-0.5-1.8-1-2.6-1.5c-0.2-0.1-0.3-0.2-0.4,0.1c-1.1,2-2.3,4-3.4,5.9
					c-0.1,0.2-0.1,0.3,0.1,0.4c0.4,0.2,0.7,0.4,1,0.6c0.4,0.2,0.7,0.4,1.1,0.6c0.5,0.2,0.6,0.5,0.5,1c0,0.1,0,0.2,0,0.3
					c0.1,0.3-0.1,0.5-0.4,0.7c-0.8,0.4-1.5,0.9-2.2,1.3c-0.2,0.1-0.2,0.2-0.1,0.4c0.5,0.9,1.1,1.8,1.6,2.7c0.2,0.4,0.4,0.7,0.6,1.1
					c0.4,0.7,0.9,1.5,1.3,2.2c0.1,0.2,0.2,0.1,0.4,0c0.7-0.4,1.5-0.8,2.2-1.3c0.3-0.2,0.6-0.3,0.9,0c0.1,0.1,0.3,0.2,0.4,0.2
					c0.3,0.1,0.4,0.3,0.4,0.6c0,0.9,0,1.8,0,2.7c0,0.2,0.1,0.3,0.3,0.3c1,0,1.9,0,2.9,0C24.1,31.3,24.6,31.3,25.1,31.3z"/>
				<path class="st0" d="M31.6,15.7c0.1,0.3,0.3,0.6,0.5,0.9c0.2,0.2,0.1,0.3-0.2,0.5c-0.3,0.1-0.5,0.3-0.7,0.4
					c-0.3,0.2-0.6,0.3-0.9,0.5c-0.3,0.1-0.4,0.3-0.2,0.6c0.2,1.1,0.2,2.2-0.1,3.3c0,0.2,0,0.2,0.2,0.3c0.5,0.3,1,0.5,1.5,0.8
					c0.5,0.4,0.5,0.4,0.2,0.9c-0.1,0.2-0.2,0.4-0.3,0.5c-0.2,0.3-0.3,0.5-0.5,0.8c-0.1,0.1-0.1,0.3-0.3,0.2
					c-0.4-0.2-0.7-0.5-1.1-0.6l0,0c-0.3-0.2-0.6-0.5-0.9-0.5s-0.5,0.4-0.8,0.6c-0.7,0.5-1.4,0.9-2.2,1.2c-0.4,0.1-0.5,0.3-0.4,0.6
					c0,0.6,0,1.2,0,1.8c0,0.3-0.1,0.3-0.3,0.3c-0.6,0-1.3,0-1.9,0c-0.2,0-0.3-0.1-0.3-0.3c0-0.7,0-1.3,0-2c0-0.3-0.1-0.4-0.3-0.4
					c-0.4-0.1-0.7-0.3-1.1-0.4c-0.7-0.4-1.3-0.8-1.8-1.3c-0.2-0.2-0.3-0.1-0.5,0c-0.5,0.3-1.1,0.6-1.7,1c-0.2,0.1-0.4,0.2-0.5-0.1
					c-0.1-0.2-0.2-0.3-0.3-0.5c-0.2-0.4-0.4-0.8-0.6-1.1c-0.1-0.2-0.1-0.3,0.1-0.4c0.6-0.3,1.1-0.6,1.7-1c0.2-0.1,0.3-0.2,0.2-0.5
					c-0.3-1.1-0.3-2.3,0-3.4c0-0.2,0-0.3-0.2-0.4c-0.4-0.2-0.9-0.5-1.3-0.7l0,0c-0.2-0.1-0.6-0.2-0.6-0.4c-0.1-0.2,0.2-0.5,0.3-0.7
					c0.2-0.4,0.5-0.8,0.7-1.2c0.1-0.2,0.2-0.2,0.4-0.1c0.4,0.2,0.7,0.4,1.1,0.6c0.8,0.5,0.8,0.5,1.5-0.1s1.5-1,2.4-1.3
					c0.3-0.1,0.4-0.2,0.4-0.5c0-0.6,0-1.3,0-1.9c0-0.2,0-0.3,0.3-0.3c0.6,0,1.3,0,1.9,0c0.2,0,0.3,0.1,0.3,0.3c0,0.7,0,1.3,0,2
					c0,0.2,0.1,0.4,0.3,0.4c0.4,0.1,0.7,0.3,1.1,0.4c0.7,0.4,1.3,0.8,1.8,1.3c0.2,0.2,0.3,0.1,0.5,0c0.6-0.3,1.1-0.6,1.7-1
					c0.2-0.1,0.3-0.1,0.4,0.1C31.3,15.3,31.5,15.5,31.6,15.7z M23.1,16.6c-1.2,0.2-2.3,1.4-2.5,2.5c-0.2,0.5-0.2,1.1-0.1,1.7
					c0,0.5,0.2,0.9,0.5,1.3c0.6,1,1.5,1.6,2.6,1.7c1.2,0.2,2.2-0.2,3.1-1s1.3-1.9,1-3.1c0-1.4-1.4-2.9-3-3.1
					C24.2,16.4,23.7,16.4,23.1,16.6z"/>
				<path class="st0" d="M24.1,18.9c0.7,0,1.2,0.6,1.2,1.2c0,0.7-0.6,1.3-1.3,1.2c-0.7,0-1.2-0.6-1.2-1.2
					C22.9,19.5,23.5,18.9,24.1,18.9z"/>
			</g>
		</g>
	</g>
	<g id="Reflection_xA0_Imagen_1_">
	</g>
</g>
</svg>
