<?xml version="1.0" encoding="utf-8"?>
<!-- Generator: Adobe Illustrator 22.0.1, SVG Export Plug-In . SVG Version: 6.00 Build 0)  -->
<svg version="1.1" id="Capa_1" xmlns="http://www.w3.org/2000/svg" xmlns:xlink="http://www.w3.org/1999/xlink" x="0px" y="0px"
	 viewBox="0 0 47.9 47.9" style="enable-background:new 0 0 47.9 47.9;" xml:space="preserve">
<style type="text/css">
	.st0{fill:#003366;}
</style>
<g id="Background_xA0_Imagen_1_">
</g>
<g id="LaptopBook_Pro_2_">
	<g id="Shadows_xA0_Imagen_1_">
	</g>
	<g id="LaptopBook_Pro_xA0_Imagen_1_">
	</g>
	<g id="Screen_xA0_Imagen_1_">
		<g>
			<path class="st0" d="M33.4,42.9c-1.5-0.2-2.9-0.4-4.4-0.5c-1.3-0.1-1.3-0.1-1.1-1.4c0-0.1,0-0.2,0.1-0.3c0.3-1.6,0.6-3.2,0.9-4.9
				c-0.3,0.1-0.5,0.2-0.7,0.2c-2.6,0.8-5.3,0.7-7.8-0.3c-0.4-0.2-0.5-0.3-0.2-0.7c0.5-0.6,0.9-1.2,1.4-2c-0.9,0.1-1.7,0.2-2.5,0.3
				c-2.6,0.3-5.1,0.7-7.7,1c-0.6,0.1-0.6,0.3-0.5,0.7c0.4,2.3,0.8,4.5,1.3,6.8c0.2,1,0.4,2.1,0.6,3.2c0.5-0.7,1-1.4,1.4-2
				c0.2-0.4,0.4-0.4,0.9-0.2c0.6,0.4,1.3,0.7,1.9,0.9l0,0c0,0,3.4,2,8.8,1.6c0.1,0,0.1,0,0.2,0l0,0c1.6-0.1,3.4-0.5,5.3-1.2
				c0.3-0.1,0.7-0.3,1-0.4c0,0,0,0,0.1,0l0,0c0.4-0.2,0.9-0.4,1.3-0.6C33.6,42.9,33.5,42.9,33.4,42.9z"/>
			<path class="st0" d="M31.3,10.6c-1.3,1.3-2.7,2.5-4,3.8c0.1,0.1,0.1,0.1,0.1,0.1c0.2,0.1,0.4,0.1,0.6,0.2
				c2.6,0.8,4.6,2.4,6.1,4.7c0.3,0.5,0.2,0.6-0.3,0.7c-0.7,0.2-1.5,0.5-2.3,0.7c0.1,0.1,0.2,0.1,0.2,0.2c3,1.6,5.9,3.2,8.9,4.9
				c0.4,0.2,0.5,0,0.6-0.3c0.7-1.6,1.5-3.1,2.2-4.7c0.7-1.5,1.4-3,2.2-4.7c-0.8,0.3-1.5,0.4-2.2,0.7c-0.5,0.2-0.8,0.1-1.1-0.4
				c-2.4-4.9-6.2-8.2-11.4-10c-1.1-0.4-2.2-0.7-3.4-0.8c1.3,1.2,2.5,2.4,3.7,3.5C32,9.9,32,9.9,31.3,10.6z"/>
			<path class="st0" d="M7.6,15.9c1.3-0.7,2.7-1.4,4-2.2c0.4-0.2,0.6-0.2,0.8,0.3c0.8,1.8,1.7,3.6,2.6,5.5c1.8-2.8,4.2-4.5,7.4-5.1
				c0,1,0,1.9,0,2.9c0.1-0.1,0.2-0.1,0.3-0.2c2.4-2.3,4.9-4.6,7.3-6.9c0.3-0.3,0.2-0.4-0.1-0.6c-1.4-1.3-2.7-2.6-4.1-3.9
				c-1.1-1.1-2.2-2.1-3.5-3.3c0,0.9,0,1.8,0,2.6c0,0.5-0.1,0.6-0.6,0.7c-3.7,0.5-7,1.9-9.9,4.3c-2.1,1.7-3.8,3.8-5,6.2
				C7.3,16.2,7.5,16,7.6,15.9z"/>
			<path class="st0" d="M43.9,22.7c-0.7,1.5-1.4,3-2.1,4.5c-0.2,0.4-0.3,0.4-0.7,0.2c-1.6-0.9-3.2-1.8-4.8-2.6
				c-0.2-0.1-0.3-0.3-0.5-0.1c0.2,3-0.7,5.7-2.7,8c-0.3,0.3-0.4,0.4-0.7,0C32,32,31.5,31.4,31,30.8c-0.1,0.1-0.1,0.1-0.1,0.1
				c-0.6,3.3-1.2,6.6-1.9,10c-0.1,0.5,0.1,0.5,0.5,0.6c1.9,0.2,3.8,0.5,5.6,0.7c1.5,0.2,2.9,0.4,4.5,0.6c-0.5-0.8-1-1.4-1.5-2.1
				c-0.2-0.3-0.2-0.4,0.1-0.7c0.8-0.8,1.6-1.6,2.3-2.5c3.4-4.5,4.6-9.6,3.7-15.2C44.1,22.3,44,22.5,43.9,22.7z"/>
			<path class="st0" d="M10.2,33.3c0.4,0,0.9-0.1,1.3-0.2c1.5-0.2,3-0.4,4.5-0.6c0-0.3-0.2-0.4-0.3-0.6c-1.6-2.3-2.3-4.8-2.1-7.5
				c0-0.5,0.2-0.5,0.6-0.4c0.7,0.3,1.4,0.5,2.3,0.7c-1.5-3.2-3-6.3-4.5-9.4c-0.2-0.4-0.3-0.4-0.6-0.2c-2.1,1.2-4.2,2.3-6.3,3.4
				c-0.9,0.5-1.8,1-2.8,1.5c0.9,0.3,1.7,0.6,2.5,0.8c0.4,0.1,0.5,0.2,0.4,0.7c-1.1,6.5,0.5,12.3,5,17.2c0.1,0.2,0.3,0.4,0.5,0.4
				c-0.3-1.8-0.6-3.5-1-5.2C9.5,33.5,9.6,33.3,10.2,33.3z"/>
		</g>
	</g>
	<g id="Reflection_xA0_Imagen_1_">
	</g>
</g>
</svg>
