<?xml version="1.0" encoding="utf-8"?>
<!-- Generator: Adobe Illustrator 22.0.1, SVG Export Plug-In . SVG Version: 6.00 Build 0)  -->
<svg version="1.1" id="Capa_1" xmlns="http://www.w3.org/2000/svg" xmlns:xlink="http://www.w3.org/1999/xlink" x="0px" y="0px"
	 viewBox="0 0 47.9 47.9" style="enable-background:new 0 0 47.9 47.9;" xml:space="preserve">
<style type="text/css">
	.st0{fill:#003366;}
</style>
<g id="Background_xA0_Imagen_1_">
</g>
<g id="LaptopBook_Pro_2_">
	<g id="Shadows_xA0_Imagen_1_">
	</g>
	<g id="LaptopBook_Pro_xA0_Imagen_1_">
	</g>
	<g id="Screen_xA0_Imagen_1_">
		<g id="fE7VAC.tif">
			<g>
				<path class="st0" d="M24,13.1c1.9,0,3.7,0,5.6,0c0.9,0,1.2,0.3,1.2,1.2c0,1.8,0,3.5,0,5.3c0,0.8-0.4,1.2-1.2,1.2
					c-0.9,0-1.9,0-2.8,0c-2.7,0-5.4,0-8.1,0c-1.1,0-1.4-0.3-1.4-1.4c0-1.7,0-3.4,0-5.1c0-0.9,0.3-1.2,1.2-1.2
					C20.2,13.1,22.1,13.1,24,13.1L24,13.1z"/>
				<path class="st0" d="M24,23.2c1.9,0,3.7,0,5.6,0c0.9,0,1.2,0.3,1.2,1.2c0,1.8,0,3.5,0,5.3c0,0.8-0.4,1.2-1.2,1.2
					c-0.9,0-1.9,0-2.8,0c-2.7,0-5.4,0-8.1,0c-1.1,0-1.4-0.3-1.4-1.4c0-1.7,0-3.4,0-5.1c0-0.9,0.3-1.2,1.2-1.2
					C20.2,23.2,22.1,23.2,24,23.2L24,23.2z"/>
				<path class="st0" d="M10.4,35.7c1.9,0,3.7,0,5.6,0c0.9,0,1.2,0.2,1.2,0.6c0,0.9,0,1.8,0,2.6c0,0.4-0.4,0.6-1.2,0.6
					c-0.9,0-1.9,0-2.8,0c-2.7,0-5.4,0-8.1,0c-1.1,0-1.4-0.2-1.4-0.7c0-0.8,0-1.7,0-2.5c0-0.5,0.3-0.6,1.2-0.6
					C6.7,35.7,8.6,35.7,10.4,35.7L10.4,35.7z"/>
				<path class="st0" d="M37.5,35.7c1.9,0,3.7,0,5.6,0c0.9,0,1.2,0.2,1.2,0.6c0,0.9,0,1.8,0,2.6c0,0.4-0.4,0.6-1.2,0.6
					c-0.9,0-1.9,0-2.8,0c-2.7,0-5.4,0-8.1,0c-1.1,0-1.4-0.2-1.4-0.7c0-0.8,0-1.7,0-2.5c0-0.5,0.3-0.6,1.2-0.6
					C33.8,35.7,35.7,35.7,37.5,35.7L37.5,35.7z"/>
				<path class="st0" d="M34.5,7.2c0.1-0.6,0.4-1,1.1-1c2,0,4,0,6,0c0.8,0,1.5,0.4,2.1,1C44.3,8,44.3,9,44.3,9.9c0,2.3,0,4.5,0,6.8
					c0,1.4-0.8,2.6-2.1,2.9c-0.4,0.1-0.9,0.1-1.4,0.1c-0.9,0-1.8,0-2.7,0c0,0,0,0.1-0.1,0.1c0.3,0.3,0.7,0.7,1,1s0.5,0.5,0.4,0.9
					c-0.1,0.8-1,1.1-1.6,0.6c-1-1-2-2-3-3c-0.4-0.4-0.3-0.9,0.1-1.4c0.9-0.9,1.9-1.9,2.8-2.8c0.4-0.4,1-0.4,1.4,0s0.4,1,0,1.4
					c-0.2,0.2-0.4,0.4-0.6,0.6c-0.2,0.2-0.4,0.3-0.6,0.5c0,0,0,0.1,0.1,0.1c1.2,0,2.4,0,3.5,0c0.4,0,0.7-0.4,0.7-1
					c0-1.4,0-2.7,0-4.1c0-1.1,0-2.3,0-3.4c0-0.8-0.3-1.1-1.1-1.1c-1.8,0-3.6,0-5.3,0C35,8.2,34.8,8,34.5,7.2z"/>
				<path class="st0" d="M10,27.5c-0.4-0.4-0.9-0.8-1.2-1.2c-0.5-0.6-0.3-1.4,0.5-1.6c0.4-0.1,0.7,0,0.9,0.3c1,0.9,1.9,1.9,2.9,2.9
					c0.4,0.4,0.4,0.9,0,1.4c-1,1-1.9,2-2.9,2.9c-0.4,0.4-1,0.3-1.3,0c-0.4-0.4-0.4-0.9,0-1.4c0.4-0.4,0.8-0.7,1.2-1.1
					c0,0,0-0.1-0.1-0.1c-1,0-2.1,0-3.1,0c-0.6,0-1.1-0.1-1.6-0.4c-1-0.5-1.5-1.5-1.5-2.6c-0.1-2.5,0-5.1,0-7.6c0-1.9,1.2-3,3.1-3
					c1.8,0,3.7,0,5.5,0c0.4,0,0.8,0.2,1,0.6s0.1,0.7-0.1,1c-0.2,0.3-0.5,0.4-0.9,0.4c-1.8,0-3.6,0-5.4,0c-0.9,0-1.2,0.3-1.2,1.2
					c0,2.5,0,4.9,0,7.4c0,0.7,0.2,1,0.9,1.1C6.9,27.6,9.6,27.6,10,27.5z"/>
				<path class="st0" d="M24,34.3c0.7,0,1.5,0,2.2,0c0.8,0,1.3,0.6,1.1,1.3c-0.2,0.5-0.6,0.7-1,0.7c-1.5,0-3,0-4.6,0
					c-0.4,0-0.8-0.1-1-0.6c-0.2-0.3-0.1-0.7,0.1-1c0.2-0.4,0.6-0.4,1-0.4C22.5,34.3,23.2,34.3,24,34.3L24,34.3z"/>
				<path class="st0" d="M22,40.1c-0.3,0-0.5,0-0.8,0c-0.4-0.1-0.7-0.5-0.7-1s0.4-0.9,0.9-0.9c0.3,0,0.7,0,1,0c0.6,0,0.9,0.4,0.9,1
					c0,0.5-0.4,0.9-1,0.9C22.3,40.1,22.2,40.1,22,40.1L22,40.1z"/>
				<path class="st0" d="M25.9,40.1c-0.2,0-0.4,0-0.6,0c-0.5,0-0.8-0.4-0.9-0.9c0-0.4,0.2-0.8,0.6-1c0.5-0.1,1-0.1,1.5,0
					s0.8,0.5,0.8,1s-0.4,0.8-1,0.9C26.2,40.1,26,40.1,25.9,40.1L25.9,40.1z"/>
			</g>
		</g>
	</g>
	<g id="Reflection_xA0_Imagen_1_">
	</g>
</g>
</svg>
