<?xml version="1.0" encoding="utf-8"?>
<!-- Generator: Adobe Illustrator 22.0.1, SVG Export Plug-In . SVG Version: 6.00 Build 0)  -->
<svg version="1.1" id="Capa_1" xmlns="http://www.w3.org/2000/svg" xmlns:xlink="http://www.w3.org/1999/xlink" x="0px" y="0px"
	 viewBox="0 0 47.9 47.9" style="enable-background:new 0 0 47.9 47.9;" xml:space="preserve">
<style type="text/css">
	.st0{fill:#003366;}
</style>
<g id="Background_xA0_Imagen_1_">
</g>
<g id="LaptopBook_Pro_2_">
	<g id="Shadows_xA0_Imagen_1_">
	</g>
	<g id="LaptopBook_Pro_xA0_Imagen_1_">
	</g>
	<g id="Screen_xA0_Imagen_1_">
		<g>
			<path class="st0" d="M36.5,41.4h-4.1L31.5,39H16.4l-0.8,2.5h-4.1c-0.7,0-1.2,0.6-1.2,1.2c0,0.7,0.6,1.2,1.2,1.2h25
				c0.7,0,1.2-0.6,1.2-1.2C37.7,42,37.1,41.4,36.5,41.4z"/>
			<circle class="st0" cx="36.5" cy="12.7" r="1.2"/>
			<path class="st0" d="M41.4,4h-35C4.3,4,2.6,5.6,2.6,7.7V29h7.6v-3.7c0-0.7,0.6-1.2,1.2-1.2h1.9c0.1-0.4,0.3-0.7,0.4-1.1l-1.4-1.4
				c-0.5-0.5-0.5-1.3,0-1.8l3.5-3.5c0.5-0.5,1.3-0.5,1.8,0l1.4,1.4c0.4-0.2,0.7-0.3,1.1-0.4v-1.9c0-0.7,0.6-1.2,1.2-1.2h5
				c0.7,0,1.2,0.6,1.2,1.2v1.9c0.4,0.1,0.7,0.3,1.1,0.4l1.4-1.4c0.5-0.5,1.3-0.5,1.8,0l3.5,3.5c0.5,0.5,0.5,1.3,0,1.8L33.9,23
				c0.2,0.4,0.3,0.7,0.4,1.1h1.9c0.7,0,1.2,0.6,1.2,1.2V29H45V7.7C45.3,5.6,43.5,4,41.4,4z M36.5,16.5c-2.1,0-3.7-1.7-3.7-3.7
				S34.4,9,36.5,9s3.7,1.7,3.7,3.7S38.5,16.5,36.5,16.5z"/>
			<path class="st0" d="M20.2,27.7c0,0.4,0.1,0.8,0.2,1.2h7c0.1-0.4,0.2-0.8,0.2-1.2c0-2.1-1.7-3.7-3.7-3.7S20.2,25.6,20.2,27.7z"/>
			<path class="st0" d="M15.5,25.5c-0.1,0.6-0.6,0.9-1.2,0.9h-1.6V29h5.2c-0.1-0.4-0.2-0.8-0.2-1.2c0-3.4,2.8-6.2,6.2-6.2
				s6.2,2.8,6.2,6.2c0,0.4-0.1,0.8-0.2,1.2h5.2v-2.5h-1.6c-0.6,0-1.1-0.4-1.2-0.9c-0.2-0.8-0.5-1.5-0.9-2.2
				c-0.3-0.5-0.2-1.1,0.2-1.5l1.1-1.1L31,18.9L29.9,20c-0.4,0.4-1,0.5-1.5,0.2c-0.7-0.4-1.4-0.7-2.2-0.9c-0.6-0.1-0.9-0.6-0.9-1.2
				v-1.6h-2.5v1.6c0,0.6-0.4,1.1-0.9,1.2c-0.8,0.2-1.5,0.5-2.2,0.9c-0.5,0.3-1.1,0.2-1.5-0.2l-1.1-1.1l-1.8,1.8l1.1,1.1
				c0.4,0.4,0.5,1,0.2,1.5C16,24,15.7,24.7,15.5,25.5z"/>
			<path class="st0" d="M2.6,32.7c0,2.1,1.7,3.7,3.7,3.7h35.1c2.1,0,3.8-1.7,3.8-3.7v-1.2H2.6V32.7z"/>
		</g>
	</g>
	<g id="Reflection_xA0_Imagen_1_">
	</g>
</g>
</svg>
