<?xml version="1.0" encoding="utf-8"?>
<!-- Generator: Adobe Illustrator 22.0.1, SVG Export Plug-In . SVG Version: 6.00 Build 0)  -->
<svg version="1.1" id="Capa_1" xmlns="http://www.w3.org/2000/svg" xmlns:xlink="http://www.w3.org/1999/xlink" x="0px" y="0px"
	 viewBox="0 0 47.9 47.9" style="enable-background:new 0 0 47.9 47.9;" xml:space="preserve">
<style type="text/css">
	.st0{fill:#003366;}
</style>
<g id="Background_xA0_Imagen_1_">
</g>
<g id="LaptopBook_Pro_2_">
	<g id="Shadows_xA0_Imagen_1_">
	</g>
	<g id="LaptopBook_Pro_xA0_Imagen_1_">
	</g>
	<g id="Screen_xA0_Imagen_1_">
		<g>
			<g>
				<g>
					<path class="st0" d="M36.4,27.2c-4.7,0-8.5,3.8-8.5,8.5s3.8,8.5,8.5,8.5s8.7-3.8,8.7-8.5S41.1,27.2,36.4,27.2z M38.8,37h-2.4
						c-0.7,0-1.2-0.5-1.2-1.2v-2.4c0-0.7,0.5-1.2,1.2-1.2s1.2,0.5,1.2,1.2v1.2h1.2c0.7,0,1.2,0.5,1.2,1.2C40,36.4,39.5,37,38.8,37z"
						/>
				</g>
			</g>
			<g>
				<g>
					<path class="st0" d="M8.4,33.3H5.9c-1.3,0-2.4,1.1-2.4,2.4c0,1.3,1.1,2.4,2.4,2.4h2.4c1.3,0,2.4-1.1,2.4-2.4
						C10.8,34.4,9.7,33.3,8.4,33.3z"/>
				</g>
			</g>
			<g>
				<g>
					<path class="st0" d="M8.4,21.1H5.9c-1.3,0-2.4,1.1-2.4,2.4s1.1,2.4,2.4,2.4h2.4c1.3,0,2.4-1.1,2.4-2.4
						C10.8,22.2,9.7,21.1,8.4,21.1z"/>
				</g>
			</g>
			<g>
				<g>
					<path class="st0" d="M8.4,8.8H5.9c-1.3,0-2.4,1.1-2.4,2.4s1.1,2.4,2.4,2.4h2.4c1.3,0,2.4-1.1,2.4-2.4C10.8,9.9,9.7,8.8,8.4,8.8
						z"/>
				</g>
			</g>
			<g>
				<g>
					<path class="st0" d="M38.8,2.7H12c-2,0-3.7,1.6-3.7,3.7c2.7,0,4.9,2.2,4.9,4.9s-2.2,4.9-4.9,4.9v2.6c2.7,0,4.9,2.2,4.9,4.9
						s-2.2,4.9-4.9,4.9V31c2.7,0,4.9,2.2,4.9,4.9s-2.2,4.9-4.9,4.9c0,2,1.6,3.7,3.7,3.7h17.6c-2.5-2-4.2-5.1-4.2-8.5
						c0-6,4.9-11,11-11c2.3,0,4.5,0.7,6.3,1.9V6.4C42.6,4.3,40.8,2.7,38.8,2.7z M25.1,29.3l-4.9,4.9c-0.2,0.2-0.5,0.4-0.9,0.4
						s-0.6-0.1-0.9-0.4l-2.8-2.8c-0.5-0.5-0.5-1.2,0-1.7c0.5-0.5,1.2-0.5,1.7,0l1.9,1.9l4-4c0.5-0.5,1.2-0.5,1.7,0
						C25.5,28.1,25.5,28.8,25.1,29.3z M25.1,19.6l-4.9,4.9c-0.2,0.2-0.5,0.4-0.9,0.4s-0.6-0.1-0.9-0.4l-2.8-2.8
						c-0.5-0.5-0.5-1.2,0-1.7c0.5-0.5,1.2-0.5,1.7,0l1.9,1.9l4-4c0.5-0.5,1.2-0.5,1.7,0C25.5,18.3,25.5,19.1,25.1,19.6z M25.1,9.7
						l-4.9,4.9C20,14.8,19.7,15,19.3,15s-0.6-0.1-0.9-0.4l-2.8-2.8c-0.5-0.5-0.5-1.2,0-1.7c0.5-0.5,1.2-0.5,1.7,0l1.9,1.9l4-4
						c0.5-0.5,1.2-0.5,1.7,0C25.5,8.4,25.5,9.2,25.1,9.7z M36.4,22.4h-7.3c-0.7,0-1.2-0.5-1.2-1.2s0.5-1.2,1.2-1.2h7.3
						c0.7,0,1.2,0.5,1.2,1.2S37.1,22.4,36.4,22.4z M36.4,12.4h-7.3c-0.7,0-1.2-0.5-1.2-1.2s0.5-1.2,1.2-1.2h7.3
						c0.7,0,1.2,0.5,1.2,1.2S37.1,12.4,36.4,12.4z"/>
				</g>
			</g>
		</g>
	</g>
	<g id="Reflection_xA0_Imagen_1_">
	</g>
</g>
</svg>
