<?xml version="1.0" encoding="utf-8"?>
<!-- Generator: Adobe Illustrator 22.0.1, SVG Export Plug-In . SVG Version: 6.00 Build 0)  -->
<svg version="1.1" id="Capa_1" xmlns="http://www.w3.org/2000/svg" xmlns:xlink="http://www.w3.org/1999/xlink" x="0px" y="0px"
	 viewBox="0 0 47.9 47.9" style="enable-background:new 0 0 47.9 47.9;" xml:space="preserve">
<style type="text/css">
	.st0{fill:#003366;}
</style>
<g id="Background_xA0_Imagen_1_">
</g>
<g id="LaptopBook_Pro_2_">
	<g id="Shadows_xA0_Imagen_1_">
	</g>
	<g id="LaptopBook_Pro_xA0_Imagen_1_">
	</g>
	<g id="Screen_xA0_Imagen_1_">
		<g>
			<path class="st0" d="M39.1,42.2c0,1.7,1.3,3,3,3s3-1.3,3-3s-1.3-3-3-3S39.1,40.5,39.1,42.2z"/>
			<path class="st0" d="M35.4,13.3C35.4,7,30.3,1.8,24,1.8S12.5,7,12.5,13.3S17.6,24.8,24,24.8S35.4,19.6,35.4,13.3z M21.4,17.3
				c-0.4,0-0.7-0.1-1-0.4c-0.6-0.6-0.6-1.5,0-2l2.1-2.1V5.6c0-0.8,0.6-1.4,1.4-1.4s1.4,0.6,1.4,1.4v7.7c0,0.4-0.2,0.7-0.4,1
				l-2.6,2.6C22.1,17.1,21.8,17.3,21.4,17.3z"/>
			<path class="st0" d="M2.9,42.2c0,1.7,1.3,3,3,3s3-1.3,3-3s-1.3-3-3-3S2.9,40.5,2.9,42.2z"/>
			<path class="st0" d="M21,42.2c0,1.7,1.3,3,3,3s3-1.3,3-3s-1.3-3-3-3S21,40.5,21,42.2z"/>
			<path class="st0" d="M5.9,36.8c0.5,0,1,0.1,1.5,0.2v-1.9h15.1V37c0.5-0.1,0.9-0.2,1.4-0.2s1,0.1,1.4,0.2v-1.9h15.1V37
				c0.5-0.1,1-0.2,1.5-0.2s0.9,0.1,1.3,0.2v-3.3c0-0.8-0.6-1.4-1.4-1.4H25.4v-4.9c-0.5,0-0.9,0.1-1.4,0.1s-1,0-1.4-0.1v4.9H6
				c-0.8,0-1.4,0.6-1.4,1.4V37C5,36.9,5.4,36.8,5.9,36.8z"/>
		</g>
	</g>
	<g id="Reflection_xA0_Imagen_1_">
	</g>
</g>
</svg>
