<?xml version="1.0" encoding="utf-8"?>
<!-- Generator: Adobe Illustrator 22.0.1, SVG Export Plug-In . SVG Version: 6.00 Build 0)  -->
<svg version="1.1" id="Capa_1" xmlns="http://www.w3.org/2000/svg" xmlns:xlink="http://www.w3.org/1999/xlink" x="0px" y="0px"
	 viewBox="0 0 47.9 47.9" style="enable-background:new 0 0 47.9 47.9;" xml:space="preserve">
<style type="text/css">
	.st0{fill:#003366;}
</style>
<g id="Background_xA0_Imagen_1_">
</g>
<g id="LaptopBook_Pro_2_">
	<g id="Shadows_xA0_Imagen_1_">
	</g>
	<g id="LaptopBook_Pro_xA0_Imagen_1_">
	</g>
	<g id="Screen_xA0_Imagen_1_">
		<g>
			<path class="st0" d="M25.3,33.5l7.8-4.4v-8.8l-7.8,4.4V33.5z"/>
			<path class="st0" d="M31.7,18.1L24,13.7l-7.7,4.4l7.7,4.4L31.7,18.1z"/>
			<path class="st0" d="M43.4,14.3l-7.8,4.4V29l7.8,4.4V14.3z"/>
			<path class="st0" d="M4.5,33.6l7.8-4.4V18.8l-7.8-4.4V33.6z"/>
			<path class="st0" d="M22.7,24.7l-7.8-4.4v8.8l7.8,4.4V24.7z"/>
			<path class="st0" d="M22.7,36.5l-9-5.1l-7.8,4.5l16.8,10.3V36.5z"/>
			<path class="st0" d="M34.3,31.3l-9,5.1V46l16.8-10.3L34.3,31.3z"/>
			<path class="st0" d="M25.3,11.4l9,5.1l7.8-4.5L25.3,1.8V11.4z"/>
			<path class="st0" d="M13.7,16.6l9-5.1V1.8L5.8,12.1L13.7,16.6z"/>
		</g>
	</g>
	<g id="Reflection_xA0_Imagen_1_">
	</g>
</g>
</svg>
