<?xml version="1.0" encoding="utf-8"?>
<!-- Generator: Adobe Illustrator 16.0.0, SVG Export Plug-In . SVG Version: 6.00 Build 0)  -->
<!DOCTYPE svg PUBLIC "-//W3C//DTD SVG 1.1//EN" "http://www.w3.org/Graphics/SVG/1.1/DTD/svg11.dtd">
<svg version="1.1" id="Capa_1" xmlns="http://www.w3.org/2000/svg" xmlns:xlink="http://www.w3.org/1999/xlink" x="0px" y="0px"
	 width="53.5px" height="48.5px" viewBox="0 0 53.5 48.5" style="enable-background:new 0 0 53.5 48.5;" xml:space="preserve">
<style type="text/css">
<![CDATA[
	.st0{fill:none;stroke:#5D5D5D;stroke-width:0.5;stroke-miterlimit:10;}
	.st1{fill:#ECB43C;}
	.st2{fill:none;stroke:#ECB43C;stroke-width:2;stroke-miterlimit:10;}
	.st3{fill:#5D5D5D;}
	.st4{fill-rule:evenodd;clip-rule:evenodd;fill:#89898A;}
	.st5{fill-rule:evenodd;clip-rule:evenodd;fill:#ECB43C;}
	.st6{fill:#FFFFFF;}
	.st7{fill-rule:evenodd;clip-rule:evenodd;fill:#5D5D5D;}
	.st8{fill:none;stroke:#5D5D5D;stroke-miterlimit:10;}
	.st9{fill-rule:evenodd;clip-rule:evenodd;fill:#FFFFFF;}
	.st10{fill-rule:evenodd;clip-rule:evenodd;fill:none;stroke:#89898A;stroke-miterlimit:10;}
	.st11{fill-rule:evenodd;clip-rule:evenodd;fill:none;stroke:#5D5D5D;stroke-miterlimit:10;}
]]>
</style>
<g id="twKb3V_1_">
	<g>
		<g>
			<path class="st5" d="M26.759,36.574c-4.404,0-8.809,0.002-13.212-0.002c-1.443-0.002-2.55-0.881-2.864-2.242
				c-0.059-0.25-0.056-0.502-0.056-0.754c-0.001-6.213-0.002-12.426,0-18.639c0.001-1.807,1.192-3.007,3.003-3.008
				c8.751-0.004,17.503-0.005,26.255,0c1.798,0.001,2.989,1.221,2.989,3.028c0.002,6.199,0.002,12.398,0,18.598
				c0,1.832-1.188,3.018-3.03,3.018C35.482,36.574,31.12,36.574,26.759,36.574z M26.666,13.752c-4.348,0-8.695,0-13.043-0.001
				c-0.239,0-0.478-0.004-0.697,0.112c-0.454,0.239-0.505,0.542-0.151,0.894c3.66,3.64,7.318,7.28,10.98,10.916
				c1.793,1.779,4.086,1.765,5.879-0.027c2.004-2.003,4.007-4.007,6.01-6.01c1.656-1.656,3.312-3.312,4.968-4.969
				c0.302-0.301,0.285-0.471-0.06-0.727c-0.24-0.178-0.516-0.19-0.801-0.19C35.39,13.753,31.028,13.752,26.666,13.752z
				 M26.672,34.627c4.362,0,8.724-0.002,13.086,0.002c0.348,0,0.673-0.035,0.924-0.307c0.174-0.189,0.215-0.342-0.007-0.562
				c-2.695-2.68-5.383-5.367-8.062-8.062c-0.207-0.208-0.313-0.172-0.493,0.016c-0.494,0.518-1.003,1.021-1.515,1.521
				c-2.274,2.223-5.608,2.233-7.889,0.022c-0.514-0.498-1.025-0.999-1.514-1.521c-0.215-0.232-0.331-0.228-0.556-0.001
				c-1.725,1.747-3.465,3.478-5.2,5.213c-0.912,0.913-1.812,1.837-2.744,2.729c-0.297,0.285-0.197,0.474,0.026,0.691
				c0.239,0.234,0.54,0.262,0.858,0.262C17.948,34.625,22.311,34.627,26.672,34.627z M40.914,16.974
				c-0.076,0.048-0.103,0.06-0.122,0.078c-2.312,2.31-4.619,4.624-6.938,6.925c-0.216,0.215-0.111,0.307,0.042,0.459
				c2.264,2.258,4.523,4.52,6.786,6.779c0.062,0.061,0.104,0.176,0.232,0.138C40.914,26.574,40.914,21.798,40.914,16.974z
				 M12.451,31.359c0.106-0.096,0.16-0.139,0.209-0.188c2.251-2.25,4.499-4.506,6.761-6.748c0.217-0.215,0.153-0.314-0.023-0.49
				c-2.227-2.217-4.446-4.439-6.67-6.66c-0.073-0.072-0.124-0.189-0.276-0.188C12.451,21.819,12.451,26.55,12.451,31.359z"/>
		</g>
	</g>
</g>
</svg>
