<?xml version="1.0" encoding="utf-8"?>
<!-- Generator: Adobe Illustrator 16.0.0, SVG Export Plug-In . SVG Version: 6.00 Build 0)  -->
<!DOCTYPE svg PUBLIC "-//W3C//DTD SVG 1.1//EN" "http://www.w3.org/Graphics/SVG/1.1/DTD/svg11.dtd">
<svg version="1.1" id="Capa_1" xmlns="http://www.w3.org/2000/svg" xmlns:xlink="http://www.w3.org/1999/xlink" x="0px" y="0px"
	 width="53.5px" height="48.5px" viewBox="0 0 53.5 48.5" style="enable-background:new 0 0 53.5 48.5;" xml:space="preserve">
<style type="text/css">
<![CDATA[
	.st0{fill:none;stroke:#5D5D5D;stroke-width:0.5;stroke-miterlimit:10;}
	.st1{fill:#ECB43C;}
	.st2{fill:none;stroke:#ECB43C;stroke-width:2;stroke-miterlimit:10;}
	.st3{fill:#5D5D5D;}
	.st4{fill-rule:evenodd;clip-rule:evenodd;fill:#89898A;}
	.st5{fill-rule:evenodd;clip-rule:evenodd;fill:#ECB43C;}
	.st6{fill:#FFFFFF;}
	.st7{fill-rule:evenodd;clip-rule:evenodd;fill:#5D5D5D;}
	.st8{fill:none;stroke:#5D5D5D;stroke-miterlimit:10;}
	.st9{fill-rule:evenodd;clip-rule:evenodd;fill:#FFFFFF;}
	.st10{fill-rule:evenodd;clip-rule:evenodd;fill:none;stroke:#89898A;stroke-miterlimit:10;}
	.st11{fill-rule:evenodd;clip-rule:evenodd;fill:none;stroke:#5D5D5D;stroke-miterlimit:10;}
]]>
</style>
<g>
	<g>
		<g>
			<g>
				<g>
					<path class="st0" d="M31.849,36.594H21.652c-3.995,0-7.245-3.25-7.245-7.245V19.151c0-3.994,3.25-7.244,7.245-7.244h10.196
						c3.994,0,7.244,3.25,7.244,7.244v10.197C39.093,33.344,35.843,36.594,31.849,36.594z M21.652,12.474
						c-3.682,0-6.679,2.996-6.679,6.678v10.197c0,3.683,2.997,6.679,6.679,6.679h10.196c3.683,0,6.679-2.996,6.679-6.679V19.151
						c0-3.682-2.996-6.678-6.679-6.678H21.652z M31.967,34.432H21.534c-2.705,0-4.906-2.199-4.906-4.905V19.093
						c0-2.703,2.201-4.904,4.906-4.904h10.433c2.705,0,4.905,2.201,4.905,4.904v10.434C36.872,32.232,34.672,34.432,31.967,34.432z
						 M21.534,14.755c-2.393,0-4.338,1.946-4.338,4.338v10.434c0,2.394,1.945,4.339,4.338,4.339h10.433
						c2.393,0,4.339-1.945,4.339-4.339V19.093c0-2.392-1.946-4.338-4.339-4.338H21.534z"/>
				</g>
				<g>
					<path class="st3" d="M26.751,30.852c-3.607,0-6.542-2.935-6.542-6.542c0-3.605,2.935-6.54,6.542-6.54s6.54,2.935,6.54,6.54
						C33.291,27.917,30.358,30.852,26.751,30.852z M26.751,18.337c-3.296,0-5.977,2.679-5.977,5.973
						c0,3.295,2.681,5.976,5.977,5.976c3.295,0,5.975-2.681,5.975-5.976C32.726,21.016,30.046,18.337,26.751,18.337z M26.751,28.65
						c-2.394,0-4.34-1.948-4.34-4.341s1.946-4.34,4.34-4.34c2.393,0,4.339,1.947,4.339,4.34S29.144,28.65,26.751,28.65z"/>
				</g>
				<g>
					<path class="st0" d="M33.219,19.554c-0.962,0-1.743-0.779-1.743-1.74c0-0.959,0.781-1.74,1.743-1.74
						c0.958,0,1.738,0.781,1.738,1.74C34.957,18.774,34.177,19.554,33.219,19.554z M33.219,16.64c-0.649,0-1.176,0.526-1.176,1.174
						c0,0.648,0.526,1.175,1.176,1.175c0.647,0,1.173-0.526,1.173-1.175C34.392,17.166,33.866,16.64,33.219,16.64z"/>
				</g>
			</g>
		</g>
	</g>
</g>
</svg>
