<?xml version="1.0" encoding="utf-8"?>
<!-- Generator: Adobe Illustrator 16.0.0, SVG Export Plug-In . SVG Version: 6.00 Build 0)  -->
<!DOCTYPE svg PUBLIC "-//W3C//DTD SVG 1.1//EN" "http://www.w3.org/Graphics/SVG/1.1/DTD/svg11.dtd">
<svg version="1.1" id="Capa_1" xmlns="http://www.w3.org/2000/svg" xmlns:xlink="http://www.w3.org/1999/xlink" x="0px" y="0px"
	 width="53.5px" height="48.5px" viewBox="0 0 53.5 48.5" style="enable-background:new 0 0 53.5 48.5;" xml:space="preserve">
<style type="text/css">
<![CDATA[
	.st0{fill:none;stroke:#5D5D5D;stroke-width:0.5;stroke-miterlimit:10;}
	.st1{fill:#ECB43C;}
	.st2{fill:none;stroke:#ECB43C;stroke-width:2;stroke-miterlimit:10;}
	.st3{fill:#5D5D5D;}
	.st4{fill-rule:evenodd;clip-rule:evenodd;fill:#89898A;}
	.st5{fill-rule:evenodd;clip-rule:evenodd;fill:#ECB43C;}
	.st6{fill:#FFFFFF;}
	.st7{fill-rule:evenodd;clip-rule:evenodd;fill:#5D5D5D;}
	.st8{fill:none;stroke:#5D5D5D;stroke-miterlimit:10;}
	.st9{fill-rule:evenodd;clip-rule:evenodd;fill:#FFFFFF;}
	.st10{fill-rule:evenodd;clip-rule:evenodd;fill:none;stroke:#89898A;stroke-miterlimit:10;}
	.st11{fill-rule:evenodd;clip-rule:evenodd;fill:none;stroke:#5D5D5D;stroke-miterlimit:10;}
]]>
</style>
<g>
	<g>
		<g>
			<g>
				<circle class="st6" cx="33.243" cy="17.817" r="1.174"/>
				<path class="st6" d="M26.775,18.34c-3.296,0-5.977,2.679-5.977,5.973c0,3.295,2.681,5.976,5.977,5.976
					c3.295,0,5.975-2.681,5.975-5.976C32.75,21.019,30.07,18.34,26.775,18.34z M26.775,28.653c-2.394,0-4.34-1.948-4.34-4.341
					s1.946-4.34,4.34-4.34c2.393,0,4.339,1.947,4.339,4.34S29.168,28.653,26.775,28.653z"/>
				<path class="st6" d="M31.873,11.91H21.677c-3.995,0-7.245,3.25-7.245,7.244v10.197c0,3.995,3.25,7.245,7.245,7.245h10.196
					c3.994,0,7.244-3.25,7.244-7.245V19.154C39.117,15.16,35.867,11.91,31.873,11.91z M38.552,29.352
					c0,3.683-2.996,6.679-6.679,6.679H21.677c-3.682,0-6.679-2.996-6.679-6.679V19.154c0-3.682,2.997-6.678,6.679-6.678h10.196
					c3.683,0,6.679,2.996,6.679,6.678V29.352z"/>
				<path class="st6" d="M31.991,14.758H21.559c-2.393,0-4.338,1.946-4.338,4.338v10.434c0,2.394,1.945,4.339,4.338,4.339h10.433
					c2.393,0,4.339-1.945,4.339-4.339V19.096C36.33,16.704,34.384,14.758,31.991,14.758z M26.775,30.854
					c-3.607,0-6.542-2.935-6.542-6.542c0-3.605,2.935-6.54,6.542-6.54s6.54,2.935,6.54,6.54
					C33.315,27.92,30.383,30.854,26.775,30.854z M33.243,19.557c-0.962,0-1.743-0.779-1.743-1.74c0-0.959,0.781-1.74,1.743-1.74
					c0.958,0,1.738,0.781,1.738,1.74C34.981,18.777,34.201,19.557,33.243,19.557z"/>
			</g>
		</g>
	</g>
</g>
</svg>
