<?xml version="1.0" encoding="utf-8"?>
<!-- Generator: Adobe Illustrator 16.0.0, SVG Export Plug-In . SVG Version: 6.00 Build 0)  -->
<!DOCTYPE svg PUBLIC "-//W3C//DTD SVG 1.1//EN" "http://www.w3.org/Graphics/SVG/1.1/DTD/svg11.dtd">
<svg version="1.1" id="Capa_1" xmlns="http://www.w3.org/2000/svg" xmlns:xlink="http://www.w3.org/1999/xlink" x="0px" y="0px"
	 width="53.5px" height="48.5px" viewBox="0 0 53.5 48.5" style="enable-background:new 0 0 53.5 48.5;" xml:space="preserve">
<style type="text/css">
<![CDATA[
	.st0{fill:none;stroke:#5D5D5D;stroke-width:0.5;stroke-miterlimit:10;}
	.st1{fill:#ECB43C;}
	.st2{fill:none;stroke:#ECB43C;stroke-width:2;stroke-miterlimit:10;}
	.st3{fill:#5D5D5D;}
	.st4{fill-rule:evenodd;clip-rule:evenodd;fill:#89898A;}
	.st5{fill-rule:evenodd;clip-rule:evenodd;fill:#ECB43C;}
	.st6{fill:#FFFFFF;}
	.st7{fill-rule:evenodd;clip-rule:evenodd;fill:#5D5D5D;}
	.st8{fill:none;stroke:#5D5D5D;stroke-miterlimit:10;}
	.st9{fill-rule:evenodd;clip-rule:evenodd;fill:#FFFFFF;}
	.st10{fill-rule:evenodd;clip-rule:evenodd;fill:none;stroke:#89898A;stroke-miterlimit:10;}
	.st11{fill-rule:evenodd;clip-rule:evenodd;fill:none;stroke:#5D5D5D;stroke-miterlimit:10;}
]]>
</style>
<g id="yoxEjp_1_">
	<g>
		<path class="st11" d="M28.823,21.062c0.206-0.291,0.414-0.569,0.659-0.819c0.568-0.58,1.247-0.955,2.044-1.104
			c1.134-0.214,2.237-0.115,3.284,0.395c0.786,0.382,1.377,0.975,1.796,1.735c0.59,1.069,0.764,2.236,0.766,3.437
			c0.005,2.349,0,4.698,0.005,7.047c0,0.131-0.04,0.154-0.16,0.153c-1.284-0.004-2.567-0.005-3.852,0.001
			c-0.137,0.001-0.178-0.028-0.177-0.174c0.005-2.151,0.003-4.304,0.003-6.455c0-0.562-0.042-1.117-0.233-1.651
			c-0.318-0.893-1.084-1.363-2.029-1.28c-1.049,0.092-1.679,0.691-2.03,1.635c-0.12,0.325-0.099,0.673-0.099,1.014
			c-0.003,2.242-0.003,4.484,0.002,6.727c0,0.144-0.032,0.187-0.183,0.187c-1.277-0.007-2.557-0.007-3.835,0
			c-0.147,0.001-0.17-0.043-0.17-0.177c0.012-3.229,0.02-6.456,0.024-9.684c0.001-0.853-0.011-1.705-0.024-2.557
			c-0.002-0.135,0.035-0.165,0.167-0.165c1.283,0.006,2.567,0.006,3.851,0.001c0.13-0.001,0.173,0.028,0.17,0.165
			c-0.009,0.469-0.004,0.938-0.002,1.406C28.8,20.947,28.782,21.001,28.823,21.062z"/>
		<path class="st11" d="M22.3,25.615c0,2.035-0.001,4.069,0.003,6.104c0,0.139-0.024,0.189-0.179,0.188
			c-1.278-0.008-2.557-0.007-3.835-0.001c-0.137,0.001-0.166-0.04-0.166-0.17c0.004-4.08,0.004-8.16,0-12.239
			c0-0.129,0.026-0.172,0.165-0.172c1.283,0.006,2.567,0.006,3.851,0c0.138,0,0.164,0.042,0.164,0.17
			C22.299,21.535,22.3,23.575,22.3,25.615z"/>
		<path class="st11" d="M20.202,17.611c-0.805-0.01-1.497-0.267-1.963-0.959c-0.745-1.106-0.363-2.848,1.23-3.275
			c0.783-0.211,1.55-0.155,2.229,0.328c0.697,0.497,0.957,1.212,0.854,2.041c-0.104,0.832-0.582,1.396-1.363,1.699
			C20.872,17.567,20.541,17.615,20.202,17.611z"/>
	</g>
</g>
</svg>
