<?xml version="1.0" encoding="utf-8"?>
<!-- Generator: Adobe Illustrator 16.0.0, SVG Export Plug-In . SVG Version: 6.00 Build 0)  -->
<!DOCTYPE svg PUBLIC "-//W3C//DTD SVG 1.1//EN" "http://www.w3.org/Graphics/SVG/1.1/DTD/svg11.dtd">
<svg version="1.1" id="Capa_1" xmlns="http://www.w3.org/2000/svg" xmlns:xlink="http://www.w3.org/1999/xlink" x="0px" y="0px"
	 width="168.305px" height="59.446px" viewBox="0 0 168.305 59.446" style="enable-background:new 0 0 168.305 59.446;"
	 xml:space="preserve">
<style type="text/css">
<![CDATA[
	.st0{fill:none;stroke:#5D5D5D;stroke-width:0.5;stroke-miterlimit:10;}
	.st1{fill:#ECB43C;}
	.st2{fill:none;stroke:#ECB43C;stroke-width:2;stroke-miterlimit:10;}
	.st3{fill:#5D5D5D;}
	.st4{fill-rule:evenodd;clip-rule:evenodd;fill:#89898A;}
	.st5{fill-rule:evenodd;clip-rule:evenodd;fill:#ECB43C;}
	.st6{fill:#FFFFFF;}
	.st7{fill-rule:evenodd;clip-rule:evenodd;fill:#5D5D5D;}
	.st8{fill:none;stroke:#5D5D5D;stroke-miterlimit:10;}
	.st9{fill-rule:evenodd;clip-rule:evenodd;fill:#FFFFFF;}
	.st10{fill-rule:evenodd;clip-rule:evenodd;fill:none;stroke:#89898A;stroke-miterlimit:10;}
	.st11{fill-rule:evenodd;clip-rule:evenodd;fill:none;stroke:#5D5D5D;stroke-miterlimit:10;}
]]>
</style>
<g>
	<g>
		<path class="st6" d="M167.962,17.512c0,1.525-1.238,2.751-2.812,2.751s-2.844-1.226-2.844-2.751c0-1.51,1.27-2.732,2.844-2.732
			S167.962,16.002,167.962,17.512z M163.146,17.529c0,1.125,0.842,2.051,1.99,2.051c1.143,0,1.984-0.926,1.984-2.068
			c0-1.145-0.842-2.049-1.984-2.049C163.987,15.463,163.146,16.367,163.146,17.529z M164.804,18.816h-0.799v-2.527
			c0.176-0.033,0.605-0.097,1.113-0.097c0.587,0,0.829,0.079,1.015,0.205c0.158,0.112,0.272,0.303,0.272,0.556
			c0,0.258-0.221,0.479-0.574,0.576v0.031c0.271,0.078,0.434,0.285,0.51,0.651c0.082,0.364,0.145,0.511,0.174,0.604h-0.857
			c-0.08-0.094-0.125-0.32-0.191-0.541c-0.047-0.256-0.176-0.381-0.428-0.381h-0.234V18.816z M164.817,17.366h0.221
			c0.301,0,0.477-0.124,0.477-0.315c0-0.193-0.176-0.305-0.426-0.305c-0.115,0-0.209,0.021-0.271,0.021V17.366z"/>
	</g>
	<g>
		<path class="st6" d="M46.163,45.326v8.631h-0.594v-8.631h-1.717V44.32h4.013v1.006H46.163z"/>
		<path class="st6" d="M48.423,47.206h0.541l-0.058,0.776l0.017,0.021c0.209-0.635,0.562-0.955,1.053-0.955
			c0.684,0,1.02,0.641,1.02,1.922l-0.001,0.466h-0.536l0.012-0.172c0.008-0.176,0.015-0.298,0.015-0.357
			c0-0.691-0.208-1.039-0.618-1.039c-0.602,0-0.902,0.681-0.902,2.044v4.045h-0.541V47.206z"/>
		<path class="st6" d="M52.08,49.099h-0.536c0-0.788,0.096-1.315,0.291-1.584c0.195-0.274,0.572-0.409,1.143-0.409
			c0.607,0,1.025,0.165,1.245,0.499c0.214,0.333,0.323,0.965,0.323,1.894v4.459h-0.543l0.047-0.729l-0.013-0.008
			c-0.208,0.557-0.624,0.833-1.257,0.833c-0.931,0-1.393-0.684-1.393-2.055c0-0.814,0.102-1.375,0.309-1.685
			c0.209-0.314,0.586-0.468,1.135-0.468c0.646,0,1.03,0.235,1.164,0.699l0.008-0.008v-0.818c0-0.772-0.053-1.273-0.17-1.5
			c-0.117-0.23-0.371-0.344-0.761-0.344c-0.666,0-0.995,0.344-0.995,1.024C52.077,48.931,52.077,48.998,52.08,49.099z
			 M52.948,50.613c-0.413,0-0.686,0.082-0.811,0.242c-0.121,0.159-0.186,0.506-0.186,1.031c0,0.545,0.064,0.908,0.183,1.08
			c0.126,0.178,0.376,0.268,0.757,0.268c0.762,0,1.137-0.424,1.137-1.27c0-0.533-0.068-0.893-0.217-1.074
			C53.663,50.707,53.378,50.613,52.948,50.613z"/>
		<path class="st6" d="M55.546,47.206h0.518l-0.012,0.915l0.012,0.021c0.165-0.691,0.578-1.037,1.23-1.037
			c0.525,0,0.884,0.166,1.07,0.51c0.184,0.336,0.281,0.987,0.281,1.949v4.393h-0.542V49.65v-0.26c0-0.578-0.058-0.965-0.185-1.165
			c-0.119-0.199-0.352-0.298-0.698-0.298c-0.757,0-1.136,0.65-1.136,1.967v4.062h-0.539V47.206z"/>
		<path class="st6" d="M62.478,48.971h-0.54c0-0.469-0.05-0.765-0.158-0.874c-0.102-0.114-0.371-0.169-0.804-0.169
			c-0.398,0-0.658,0.057-0.762,0.177c-0.106,0.121-0.164,0.408-0.164,0.866c0,0.689,0.186,1.053,0.547,1.086l0.438,0.043l0.55,0.051
			c0.667,0.059,1.002,0.699,1.002,1.918c0,0.758-0.11,1.281-0.329,1.562c-0.221,0.28-0.626,0.422-1.219,0.422
			c-0.604,0-1.018-0.134-1.245-0.4c-0.231-0.271-0.341-0.762-0.341-1.477v-0.368h0.562l0.006,0.32c0,0.442,0.055,0.737,0.182,0.888
			c0.123,0.146,0.37,0.219,0.73,0.219c0.443,0,0.736-0.076,0.877-0.233c0.137-0.154,0.209-0.479,0.209-0.974
			c0-0.712-0.175-1.064-0.529-1.064c-0.82,0-1.357-0.128-1.621-0.383c-0.253-0.253-0.385-0.783-0.385-1.582
			c0-0.759,0.105-1.264,0.31-1.516c0.203-0.25,0.613-0.377,1.22-0.377c0.979,0,1.465,0.537,1.465,1.621V48.971z"/>
		<path class="st6" d="M63.507,53.957v-5.931h-0.562v-0.82h0.562v-1.004c0-1.321,0.371-1.983,1.113-1.983
			c0.111,0,0.239,0.018,0.391,0.05v0.817c-0.172-0.033-0.307-0.048-0.384-0.048c-0.39,0-0.581,0.358-0.581,1.073v1.095h0.965v0.82
			h-0.965v5.931H63.507z"/>
		<path class="st6" d="M66.979,47.105c0.683,0,1.127,0.217,1.33,0.65c0.205,0.432,0.305,1.374,0.305,2.824
			c0,1.449-0.1,2.393-0.305,2.823c-0.203,0.435-0.647,0.649-1.33,0.649c-0.676,0-1.119-0.215-1.321-0.649
			c-0.203-0.431-0.302-1.374-0.302-2.823c0-1.45,0.099-2.393,0.302-2.824C65.86,47.322,66.304,47.105,66.979,47.105z M66.979,47.928
			c-0.476,0-0.774,0.139-0.887,0.428c-0.113,0.283-0.172,1.025-0.172,2.225c0,1.201,0.059,1.941,0.172,2.227
			c0.112,0.288,0.411,0.428,0.887,0.428c0.484,0,0.781-0.14,0.895-0.428c0.115-0.285,0.174-1.025,0.174-2.227
			c0-1.199-0.059-1.941-0.174-2.225C67.761,48.066,67.464,47.928,66.979,47.928z"/>
		<path class="st6" d="M69.51,47.206h0.54l-0.053,0.776l0.013,0.021c0.212-0.635,0.563-0.955,1.054-0.955
			c0.683,0,1.02,0.641,1.02,1.922l-0.004,0.466h-0.533l0.012-0.172c0.008-0.176,0.014-0.298,0.014-0.357
			c0-0.691-0.207-1.039-0.617-1.039c-0.602,0-0.904,0.681-0.904,2.044v4.045h-0.54V47.206z"/>
		<path class="st6" d="M72.604,47.206h0.539l-0.01,1.017l0.01,0.017c0.211-0.757,0.608-1.134,1.205-1.134
			c0.625,0,1.006,0.377,1.138,1.134h0.015c0.23-0.757,0.653-1.134,1.27-1.134c0.87,0,1.307,0.811,1.307,2.438v4.414h-0.541v-4.508
			c0-0.594-0.062-0.994-0.178-1.21c-0.115-0.208-0.33-0.312-0.652-0.312c-0.426,0-0.72,0.146-0.869,0.441
			c-0.15,0.291-0.225,0.852-0.225,1.678v3.91h-0.539v-4.414l-0.013-0.315c0-0.868-0.27-1.3-0.815-1.3
			c-0.734,0-1.102,0.727-1.102,2.193v3.836h-0.539V47.206z"/>
		<path class="st6" d="M79.691,49.099h-0.536c0-0.788,0.099-1.315,0.291-1.584c0.198-0.274,0.574-0.409,1.143-0.409
			c0.611,0,1.029,0.165,1.246,0.499c0.217,0.333,0.323,0.965,0.323,1.894v4.459h-0.54l0.041-0.729l-0.011-0.008
			c-0.205,0.557-0.624,0.833-1.255,0.833c-0.93,0-1.395-0.684-1.395-2.055c0-0.814,0.1-1.375,0.312-1.685
			c0.211-0.314,0.583-0.468,1.132-0.468c0.646,0,1.036,0.235,1.16,0.699l0.015-0.008v-0.818c0-0.772-0.057-1.273-0.175-1.5
			c-0.118-0.23-0.371-0.344-0.757-0.344c-0.666,0-0.998,0.344-0.998,1.024C79.688,48.931,79.691,48.998,79.691,49.099z
			 M80.562,50.613c-0.415,0-0.685,0.082-0.806,0.242c-0.128,0.159-0.188,0.506-0.188,1.031c0,0.545,0.058,0.908,0.184,1.08
			c0.123,0.178,0.369,0.268,0.75,0.268c0.766,0,1.145-0.424,1.145-1.27c0-0.533-0.072-0.893-0.221-1.074
			C81.277,50.707,80.985,50.613,80.562,50.613z"/>
		<path class="st6" d="M83.155,47.206h0.525l-0.019,0.915l0.019,0.021c0.159-0.691,0.572-1.037,1.226-1.037
			c0.528,0,0.883,0.166,1.069,0.51c0.188,0.336,0.281,0.987,0.281,1.949v4.393h-0.542V49.65v-0.26c0-0.578-0.058-0.965-0.181-1.165
			c-0.119-0.199-0.352-0.298-0.699-0.298c-0.756,0-1.134,0.65-1.134,1.967v4.062h-0.546V47.206z"/>
		<path class="st6" d="M90.313,44.32v9.637h-0.539l0.027-0.878l-0.015-0.005c-0.171,0.655-0.567,0.979-1.187,0.979
			c-0.567,0-0.953-0.252-1.161-0.758c-0.205-0.5-0.307-1.44-0.307-2.814c0-1.264,0.102-2.145,0.312-2.639
			c0.21-0.487,0.582-0.736,1.121-0.736c0.668,0,1.07,0.317,1.199,0.954l0.01-0.011V44.32H90.313z M88.691,47.928
			c-0.398,0-0.665,0.166-0.797,0.502c-0.131,0.338-0.193,1.018-0.193,2.045c0,1.131,0.062,1.871,0.19,2.226
			c0.135,0.354,0.401,0.534,0.812,0.534c0.445,0,0.731-0.18,0.867-0.534c0.134-0.354,0.199-1.128,0.199-2.317
			c0-0.967-0.072-1.615-0.223-1.953C89.401,48.094,89.116,47.928,88.691,47.928z"/>
		<path class="st6" d="M92.787,47.105c0.685,0,1.128,0.217,1.329,0.65c0.202,0.432,0.307,1.374,0.307,2.824
			c0,1.449-0.104,2.393-0.307,2.823c-0.201,0.435-0.645,0.649-1.329,0.649c-0.677,0-1.115-0.215-1.32-0.649
			c-0.206-0.431-0.308-1.374-0.308-2.823c0-1.45,0.102-2.393,0.308-2.824C91.672,47.322,92.11,47.105,92.787,47.105z M92.787,47.928
			c-0.475,0-0.774,0.139-0.888,0.428c-0.115,0.283-0.173,1.025-0.173,2.225c0,1.201,0.058,1.941,0.173,2.227
			c0.113,0.288,0.413,0.428,0.888,0.428c0.482,0,0.78-0.14,0.894-0.428c0.113-0.285,0.173-1.025,0.173-2.227
			c0-1.199-0.06-1.941-0.173-2.225C93.567,48.066,93.27,47.928,92.787,47.928z"/>
		<path class="st6" d="M100.721,50.738h0.591v0.364c0,1.313-0.125,2.132-0.369,2.459c-0.246,0.329-0.859,0.491-1.847,0.491
			c-0.88,0-1.438-0.285-1.681-0.866c-0.239-0.575-0.36-1.933-0.36-4.065c0-1.675,0.029-2.728,0.085-3.156
			c0.053-0.43,0.202-0.814,0.461-1.156c0.297-0.393,0.945-0.59,1.934-0.59c0.67,0,1.122,0.191,1.355,0.569
			c0.232,0.384,0.352,1.118,0.352,2.213l0.004,0.26h-0.59l-0.008-0.297c0-0.776-0.067-1.272-0.207-1.495
			c-0.137-0.223-0.442-0.334-0.928-0.334c-0.85,0-1.367,0.133-1.558,0.39c-0.187,0.263-0.282,0.979-0.282,2.149
			c0,2.713,0.066,4.297,0.19,4.762c0.126,0.465,0.555,0.699,1.294,0.699c0.699,0,1.138-0.103,1.312-0.305
			c0.171-0.199,0.257-0.707,0.257-1.525L100.721,50.738z"/>
		<path class="st6" d="M103.481,47.105c0.678,0,1.118,0.217,1.324,0.65c0.202,0.432,0.303,1.374,0.303,2.824
			c0,1.449-0.101,2.393-0.303,2.823c-0.206,0.435-0.646,0.649-1.324,0.649c-0.683,0-1.125-0.215-1.328-0.649
			c-0.203-0.431-0.303-1.374-0.303-2.823c0-1.45,0.1-2.393,0.303-2.824C102.356,47.322,102.799,47.105,103.481,47.105z
			 M103.481,47.928c-0.482,0-0.775,0.139-0.893,0.428c-0.117,0.283-0.174,1.025-0.174,2.225c0,1.201,0.057,1.941,0.174,2.227
			c0.117,0.288,0.41,0.428,0.893,0.428c0.477,0,0.774-0.14,0.889-0.428c0.117-0.285,0.175-1.025,0.175-2.227
			c0-1.199-0.058-1.941-0.175-2.225C104.256,48.066,103.958,47.928,103.481,47.928z"/>
		<path class="st6" d="M105.952,47.206h0.52l-0.018,0.915l0.018,0.021c0.166-0.691,0.574-1.037,1.225-1.037
			c0.532,0,0.887,0.166,1.074,0.51c0.184,0.336,0.281,0.987,0.281,1.949v4.393h-0.541V49.65v-0.26c0-0.578-0.06-0.965-0.181-1.165
			c-0.121-0.199-0.356-0.298-0.7-0.298c-0.758,0-1.139,0.65-1.139,1.967v4.062h-0.539V47.206z"/>
		<path class="st6" d="M111.55,47.105c0.684,0,1.124,0.217,1.328,0.65c0.203,0.432,0.303,1.374,0.303,2.824
			c0,1.449-0.1,2.393-0.303,2.823c-0.204,0.435-0.645,0.649-1.328,0.649c-0.677,0-1.119-0.215-1.32-0.649
			c-0.207-0.431-0.312-1.374-0.312-2.823c0-1.45,0.104-2.393,0.312-2.824C110.431,47.322,110.873,47.105,111.55,47.105z
			 M111.55,47.928c-0.479,0-0.771,0.139-0.891,0.428c-0.113,0.283-0.172,1.025-0.172,2.225c0,1.201,0.059,1.941,0.172,2.227
			c0.119,0.288,0.412,0.428,0.891,0.428c0.48,0,0.777-0.14,0.896-0.428c0.111-0.285,0.172-1.025,0.172-2.227
			c0-1.199-0.061-1.941-0.172-2.225C112.327,48.066,112.03,47.928,111.55,47.928z"/>
		<path class="st6" d="M116.556,51.521h0.541l0.005,0.366c0,1.447-0.515,2.166-1.551,2.166c-0.665,0-1.104-0.227-1.315-0.684
			c-0.211-0.457-0.322-1.398-0.322-2.824c0-1.334,0.111-2.244,0.329-2.725c0.213-0.476,0.628-0.715,1.241-0.715
			c0.598,0,1.007,0.16,1.225,0.484c0.218,0.325,0.33,0.928,0.33,1.82h-0.543v-0.183c0-0.52-0.071-0.868-0.209-1.042
			c-0.143-0.174-0.428-0.258-0.847-0.258c-0.408,0-0.668,0.162-0.78,0.493c-0.118,0.325-0.178,1.067-0.178,2.213
			c0,1.12,0.068,1.837,0.201,2.144s0.441,0.457,0.926,0.457c0.414,0,0.672-0.1,0.787-0.301
			C116.503,52.736,116.556,52.266,116.556,51.521z"/>
		<path class="st6" d="M118.396,44.32v1.105h-0.539V44.32H118.396z M118.396,47.206v6.751h-0.539v-6.751H118.396z"/>
		<path class="st6" d="M119.338,47.206h0.544l-0.012,1.017l0.012,0.017c0.207-0.757,0.609-1.134,1.203-1.134
			c0.627,0,1.002,0.377,1.137,1.134h0.018c0.229-0.757,0.654-1.134,1.27-1.134c0.868,0,1.304,0.811,1.304,2.438v4.414h-0.54v-4.508
			c0-0.594-0.059-0.994-0.176-1.21c-0.11-0.208-0.33-0.312-0.657-0.312c-0.426,0-0.716,0.146-0.863,0.441
			c-0.158,0.291-0.228,0.852-0.228,1.678v3.91h-0.547v-4.414l-0.002-0.315c0-0.868-0.272-1.3-0.814-1.3
			c-0.737,0-1.104,0.727-1.104,2.193v3.836h-0.544V47.206z"/>
		<path class="st6" d="M126.403,44.32v1.105h-0.535V44.32H126.403z M126.403,47.206v6.751h-0.535v-6.751H126.403z"/>
		<path class="st6" d="M129.917,51.912h0.555l0.003,0.25c0,0.703-0.119,1.192-0.351,1.473c-0.232,0.276-0.641,0.418-1.228,0.418
			c-0.676,0-1.121-0.227-1.335-0.681c-0.211-0.456-0.318-1.407-0.318-2.863c0-1.347,0.107-2.249,0.32-2.712
			c0.213-0.459,0.635-0.691,1.251-0.691c0.683,0,1.124,0.203,1.337,0.602c0.212,0.397,0.32,1.24,0.32,2.525v0.531h-2.658
			c0,1.063,0.063,1.741,0.189,2.035c0.124,0.291,0.416,0.436,0.873,0.436c0.434,0,0.715-0.07,0.847-0.209
			c0.128-0.137,0.194-0.441,0.194-0.897V51.912z M129.917,49.993l-0.006-0.313c0-0.733-0.064-1.209-0.193-1.425
			c-0.131-0.219-0.413-0.327-0.849-0.327c-0.438,0-0.723,0.129-0.856,0.379c-0.128,0.263-0.191,0.819-0.191,1.687H129.917z"/>
		<path class="st6" d="M131.32,47.206h0.518l-0.011,0.915l0.011,0.021c0.17-0.691,0.579-1.037,1.233-1.037
			c0.529,0,0.883,0.166,1.069,0.51c0.185,0.336,0.279,0.987,0.279,1.949v4.393h-0.54V49.65v-0.26c0-0.578-0.061-0.965-0.176-1.165
			c-0.127-0.199-0.362-0.298-0.701-0.298c-0.762,0-1.137,0.65-1.137,1.967v4.062h-0.546V47.206z"/>
		<path class="st6" d="M137.354,47.206v0.82h-1.42v4.129c0,0.718,0.177,1.079,0.526,1.079c0.344,0,0.521-0.322,0.521-0.967
			l0.003-0.332l0.008-0.377h0.499l0.007,0.502c0,1.326-0.346,1.992-1.035,1.992c-0.717,0-1.069-0.549-1.069-1.655v-0.242v-4.129
			h-0.511v-0.82h0.511V45.58h0.541v1.626H137.354z"/>
		<path class="st6" d="M139.497,47.105c0.68,0,1.123,0.217,1.328,0.65c0.199,0.432,0.304,1.374,0.304,2.824
			c0,1.449-0.104,2.393-0.304,2.823c-0.205,0.435-0.648,0.649-1.328,0.649c-0.682,0-1.124-0.215-1.327-0.649
			c-0.202-0.431-0.304-1.374-0.304-2.823c0-1.45,0.102-2.393,0.304-2.824C138.373,47.322,138.815,47.105,139.497,47.105z
			 M139.497,47.928c-0.482,0-0.779,0.139-0.892,0.428c-0.116,0.283-0.169,1.025-0.169,2.225c0,1.201,0.053,1.941,0.169,2.227
			c0.112,0.288,0.409,0.428,0.892,0.428c0.477,0,0.777-0.14,0.89-0.428c0.116-0.285,0.173-1.025,0.173-2.227
			c0-1.199-0.057-1.941-0.173-2.225C140.274,48.066,139.974,47.928,139.497,47.928z"/>
		<path class="st6" d="M146.509,51.912h0.555l0.004,0.25c0,0.703-0.12,1.192-0.352,1.473c-0.238,0.276-0.64,0.418-1.224,0.418
			c-0.68,0-1.128-0.227-1.336-0.681c-0.214-0.456-0.316-1.407-0.316-2.863c0-1.347,0.103-2.249,0.316-2.712
			c0.216-0.459,0.632-0.691,1.253-0.691c0.678,0,1.125,0.203,1.335,0.602c0.21,0.397,0.319,1.24,0.319,2.525v0.531h-2.657
			c0,1.063,0.062,1.741,0.188,2.035c0.127,0.291,0.415,0.436,0.873,0.436c0.434,0,0.719-0.07,0.844-0.209
			c0.131-0.137,0.197-0.441,0.197-0.897V51.912z M146.509,49.993l-0.008-0.313c0-0.733-0.061-1.209-0.189-1.425
			c-0.131-0.219-0.418-0.327-0.854-0.327c-0.438,0-0.717,0.129-0.85,0.379c-0.128,0.263-0.194,0.819-0.194,1.687H146.509z"/>
		<path class="st6" d="M147.914,47.206h0.52l-0.015,0.915l0.015,0.021c0.165-0.691,0.573-1.037,1.229-1.037
			c0.525,0,0.879,0.166,1.073,0.51c0.186,0.336,0.272,0.987,0.272,1.949v4.393h-0.535V49.65v-0.26c0-0.578-0.062-0.965-0.182-1.165
			c-0.122-0.199-0.354-0.298-0.701-0.298c-0.758,0-1.137,0.65-1.137,1.967v4.062h-0.54V47.206z"/>
		<path class="st6" d="M154.374,45.234v3.283h2.671v0.919h-2.671v3.603h2.791v0.918h-3.385V44.32h3.385v0.914H154.374z
			 M156.179,41.664l0.23,0.78l-1.184,1.089l-0.194-0.557L156.179,41.664z"/>
		<path class="st6" d="M160.503,47.206l-1.199,3.177l1.342,3.574h-0.646l-0.975-2.725l-0.98,2.725h-0.645l1.337-3.531l-1.199-3.22
			h0.649l0.838,2.46l0.828-2.46H160.503z"/>
		<path class="st6" d="M161.63,44.32v1.105h-0.538V44.32H161.63z M161.63,47.206v6.751h-0.538v-6.751H161.63z"/>
		<path class="st6" d="M164.534,47.206v0.82h-1.42v4.129c0,0.718,0.176,1.079,0.522,1.079s0.52-0.322,0.52-0.967l0.005-0.332
			l0.008-0.377h0.502l0.005,0.502c0,1.326-0.341,1.992-1.034,1.992c-0.713,0-1.066-0.549-1.066-1.655v-0.242v-4.129h-0.514v-0.82
			h0.514V45.58h0.539v1.626H164.534z"/>
		<path class="st6" d="M166.673,47.105c0.686,0,1.127,0.217,1.328,0.65c0.203,0.432,0.305,1.374,0.305,2.824
			c0,1.449-0.102,2.393-0.305,2.823c-0.201,0.435-0.643,0.649-1.328,0.649c-0.676,0-1.117-0.215-1.322-0.649
			c-0.203-0.431-0.303-1.374-0.303-2.823c0-1.45,0.1-2.393,0.303-2.824C165.556,47.322,165.997,47.105,166.673,47.105z
			 M166.673,47.928c-0.476,0-0.772,0.139-0.889,0.428c-0.113,0.283-0.171,1.025-0.171,2.225c0,1.201,0.058,1.941,0.171,2.227
			c0.116,0.288,0.413,0.428,0.889,0.428c0.484,0,0.781-0.14,0.893-0.428c0.116-0.285,0.176-1.025,0.176-2.227
			c0-1.199-0.06-1.941-0.176-2.225C167.454,48.066,167.157,47.928,166.673,47.928z"/>
	</g>
	<polygon class="st6" points="3.739,39.785 8.842,39.785 10.024,34.923 4.933,34.916 	"/>
	<polygon class="st6" points="10.024,34.923 14.779,34.923 15.914,29.952 11.318,29.92 	"/>
	<polygon class="st6" points="14.729,34.916 19.587,34.916 20.795,29.952 15.914,29.891 	"/>
	<polygon class="st6" points="13.542,39.787 18.405,39.784 19.598,34.916 14.734,34.877 	"/>
	<polygon class="st6" points="18.677,39.787 23.534,39.784 24.721,34.92 19.862,34.937 	"/>
	<polygon class="st6" points="11.318,29.92 15.914,29.952 17.118,24.978 12.403,24.978 	"/>
	<polygon class="st6" points="15.914,29.952 20.795,29.952 22,24.992 17.104,24.978 	"/>
	<polygon class="st6" points="17.118,24.982 22,24.982 23.21,19.988 18.312,19.976 	"/>
	<polygon class="st6" points="22,24.992 27.185,24.992 28.341,19.98 23.188,19.98 	"/>
	<polygon class="st6" points="20.795,29.952 25.965,29.952 27.133,24.992 21.982,24.992 	"/>
	<polygon class="st6" points="19.588,34.916 24.747,34.916 25.965,29.952 20.795,29.952 	"/>
	<polygon class="st6" points="24.726,34.916 29.648,34.916 30.856,29.952 25.915,29.952 	"/>
	<polygon class="st6" points="25.936,29.952 30.865,29.952 32.069,24.992 27.132,24.992 	"/>
	<polygon class="st6" points="27.133,24.992 32.065,24.992 33.268,19.98 28.341,19.98 	"/>
	<polygon class="st6" points="28.341,19.993 33.268,19.993 34.457,15.068 29.56,15.068 	"/>
	<polygon class="st6" points="29.557,15.068 34.482,15.068 35.635,10.292 30.735,10.292 	"/>
	<polygon class="st6" points="34.457,15.068 39.283,15.068 40.443,10.292 35.636,10.292 	"/>
	<polygon class="st6" points="33.268,19.98 38.079,19.993 39.259,15.072 34.452,15.072 	"/>
	<polygon class="st6" points="38.079,19.98 42.935,19.98 44.128,15.072 39.261,15.072 	"/>
	<polygon class="st6" points="42.935,19.98 47.739,19.98 48.933,15.072 44.14,15.072 	"/>
	<polygon class="st6" points="32.065,24.992 36.866,24.992 38.079,19.993 33.263,19.98 	"/>
	<polygon class="st6" points="30.856,29.952 35.661,29.952 36.886,25.006 32.065,24.992 	"/>
	<polygon class="st6" points="29.644,34.916 34.495,34.916 35.669,29.967 30.847,29.952 	"/>
	<polygon class="st6" points="34.454,34.916 39.306,34.916 40.548,29.952 35.661,29.952 	"/>
	<polygon class="st6" points="39.308,34.916 44.153,34.916 45.398,29.952 40.516,29.952 	"/>
	<polygon class="st6" points="44.116,34.916 48.964,34.916 50.212,29.952 45.322,29.952 	"/>
	<polygon class="st6" points="48.958,34.916 53.876,34.916 55.122,29.952 50.161,29.952 	"/>
	<polygon class="st6" points="53.876,34.916 58.68,34.916 59.885,29.952 55.091,29.952 	"/>
	<polygon class="st6" points="58.68,34.916 63.533,34.916 64.737,29.952 59.868,29.952 	"/>
	<polygon class="st6" points="36.859,24.992 41.716,24.992 42.935,19.98 38.06,19.98 	"/>
	<polygon class="st6" points="41.685,24.992 46.54,24.992 47.759,19.98 42.883,19.98 	"/>
	<polygon class="st6" points="40.516,29.952 45.342,29.952 46.54,24.992 41.713,24.992 	"/>
	<polygon class="st6" points="45.342,29.952 50.212,29.952 51.446,24.992 46.54,24.992 	"/>
	<polygon class="st6" points="50.188,29.952 55.059,29.952 56.222,24.992 51.39,24.992 	"/>
	<polygon class="st6" points="59.885,29.952 64.753,29.952 65.915,24.992 61.084,24.992 	"/>
	<polygon class="st6" points="46.534,24.992 51.39,24.992 52.612,19.98 47.735,19.98 	"/>
	<polygon class="st6" points="51.38,24.992 56.29,24.992 57.503,19.993 52.575,19.98 	"/>
	<polygon class="st6" points="56.246,24.992 61.091,24.992 62.316,19.993 57.497,19.98 	"/>
	<polygon class="st6" points="61.084,24.992 65.935,24.992 67.159,19.993 62.337,19.98 	"/>
	<polygon class="st6" points="39.283,15.068 44.128,15.068 45.23,10.292 40.425,10.292 	"/>
	<polygon class="st6" points="30.735,10.292 35.665,10.292 36.812,5.513 31.922,5.513 	"/>
	<polygon class="st6" points="35.635,10.292 40.443,10.292 41.602,5.513 36.812,5.513 	"/>
	<polygon class="st6" points="40.425,10.292 45.295,10.292 46.454,5.513 41.604,5.513 	"/>
	<polygon class="st6" points="45.276,10.292 50.094,10.292 51.265,5.513 46.454,5.513 	"/>
	<polygon class="st6" points="25.575,10.292 30.761,10.292 31.911,5.513 26.734,5.513 	"/>
	<polygon class="st6" points="31.911,5.513 36.837,5.513 38.141,-0.001 33.226,-0.001 	"/>
	<polygon class="st6" points="36.812,5.513 41.602,5.513 42.942,-0.001 38.13,-0.001 	"/>
	<polygon class="st6" points="41.602,5.513 46.454,5.513 47.796,-0.001 42.935,-0.001 	"/>
	<polygon class="st6" points="46.464,5.513 51.265,5.513 52.599,-0.001 47.796,-0.001 	"/>
	<polygon class="st6" points="18.405,39.785 23.554,39.787 24.751,34.916 19.598,34.916 	"/>
	<polygon class="st6" points="23.551,39.787 28.466,39.791 29.648,34.916 24.743,34.916 	"/>
	<polygon class="st6" points="28.431,39.787 33.282,39.791 34.454,34.916 29.626,34.916 	"/>
	<polygon class="st6" points="33.282,39.791 38.087,39.791 39.306,34.916 34.431,34.916 	"/>
	<polygon class="st6" points="38.094,39.791 42.903,39.791 44.12,34.916 39.306,34.916 	"/>
	<polygon class="st6" points="42.903,39.791 47.778,39.785 48.968,34.916 44.107,34.916 	"/>
	<polygon class="st6" points="47.735,39.791 52.693,39.785 53.935,34.916 48.942,34.916 	"/>
	<polygon class="st6" points="52.69,39.791 57.51,39.785 58.68,34.916 53.896,34.916 	"/>
	<polygon class="st6" points="57.51,39.791 62.373,39.785 63.533,34.916 58.68,34.916 	"/>
	<polygon class="st6" points="22.317,44.833 27.234,44.838 28.466,39.791 23.534,39.784 	"/>
	<polygon class="st6" points="27.236,44.833 32.038,44.838 33.282,39.791 28.458,39.784 	"/>
	<polygon class="st6" points="32.038,44.838 36.896,44.838 38.094,39.791 33.271,39.784 	"/>
	<polygon class="st6" points="36.866,44.838 41.716,44.838 42.921,39.791 38.094,39.784 	"/>
	<polygon class="st6" points="19.958,54.755 24.87,54.764 26.104,49.438 21.177,49.434 	"/>
	<polygon class="st6" points="24.837,54.766 29.705,54.752 30.97,49.438 26.142,49.427 	"/>
	<polygon class="st6" points="29.705,54.755 34.579,54.764 35.784,49.438 30.962,49.434 	"/>
	<polygon class="st6" points="34.549,54.764 39.351,54.766 40.606,49.438 35.784,49.434 	"/>
	<polygon class="st6" points="18.749,59.436 23.662,59.443 24.896,54.766 19.97,54.755 	"/>
	<polygon class="st6" points="23.669,59.436 28.468,59.443 29.715,54.766 24.887,54.755 	"/>
	<polygon class="st6" points="28.468,59.443 33.324,59.443 34.529,54.766 29.705,54.755 	"/>
	<polygon class="st6" points="33.294,59.443 38.146,59.443 39.351,54.766 34.529,54.755 	"/>
	<polygon class="st6" points="26.104,49.438 30.97,49.438 32.073,44.844 27.249,44.838 	"/>
	<polygon class="st6" points="30.97,49.438 35.784,49.438 36.89,44.844 32.065,44.838 	"/>
	<polygon class="st6" points="35.784,49.434 40.606,49.438 41.713,44.844 36.89,44.838 	"/>
	<polygon class="st6" points="19.912,54.764 24.87,54.764 26.16,49.438 21.235,49.434 	"/>
	<polygon class="st6" points="18.772,59.436 23.689,59.436 24.837,54.772 19.912,54.764 	"/>
	<polygon class="st6" points="23.689,59.436 28.495,59.436 29.636,54.772 24.87,54.764 	"/>
	<polygon class="st6" points="16.058,49.434 21.204,49.434 22.317,44.844 17.176,44.838 	"/>
	<polygon class="st6" points="7.36,24.992 12.423,24.992 13.646,19.943 8.572,19.943 	"/>
	<polygon class="st6" points="6.132,29.936 11.355,29.92 12.415,24.992 7.372,24.992 	"/>
	<polygon class="st6" points="2.42,24.992 7.354,24.978 8.55,19.929 3.573,19.929 	"/>
	<polygon class="st6" points="0.001,34.916 4.934,34.896 6.132,29.939 1.211,29.952 	"/>
	<polygon class="st6" points="75.925,39.812 72.282,39.812 71.605,23.209 68.128,39.785 64.505,39.785 69.072,19.939 74.549,19.939 
		75.125,33.86 81.49,19.939 87.026,19.939 83.116,39.812 79.617,39.812 83.298,23.332 	"/>
	<path class="st6" d="M99.138,35.422h-7.399L89.5,39.812h-3.95l10.557-19.873h4.268l3.028,19.873h-3.642L99.138,35.422z
		 M98.663,32.115l-1.079-7.998l-4.505,7.998H98.663z"/>
	<path class="st6" d="M105.782,33.373l3.653-0.203c0.052,1.238,0.249,2.074,0.601,2.512c0.557,0.703,1.594,1.053,3.105,1.053
		c1.258,0,2.166-0.238,2.725-0.715c0.558-0.481,0.837-1.057,0.837-1.736c0-0.59-0.228-1.086-0.685-1.491
		c-0.327-0.298-1.211-0.782-2.657-1.45c-1.446-0.67-2.503-1.228-3.169-1.674c-0.666-0.447-1.191-1.027-1.572-1.744
		c-0.381-0.715-0.572-1.549-0.572-2.504c0-1.674,0.564-3.061,1.702-4.164c1.14-1.104,2.788-1.654,4.944-1.654
		c2.191,0,3.887,0.549,5.086,1.643s1.863,2.549,1.979,4.363l-3.682,0.174c-0.092-0.945-0.416-1.676-0.966-2.18
		c-0.55-0.508-1.366-0.759-2.444-0.759c-1.061,0-1.817,0.198-2.272,0.597c-0.454,0.398-0.681,0.902-0.681,1.505
		c0,0.567,0.208,1.038,0.625,1.407c0.416,0.383,1.336,0.9,2.762,1.56c2.146,0.985,3.515,1.786,4.102,2.399
		c0.871,0.906,1.312,2.066,1.312,3.484c0,1.752-0.656,3.252-1.957,4.492c-1.305,1.244-3.116,1.864-5.441,1.864
		c-1.607,0-3-0.287-4.173-0.859c-1.173-0.573-2.004-1.368-2.489-2.395C105.973,35.879,105.749,34.703,105.782,33.373"/>
	<path class="st6" d="M126.423,39.812h-3.847l3.908-19.873h7.591c1.348,0,2.415,0.171,3.199,0.509
		c0.785,0.343,1.408,0.899,1.868,1.681c0.455,0.785,0.688,1.717,0.688,2.802c0,1.002-0.183,1.978-0.552,2.929
		c-0.363,0.945-0.812,1.707-1.338,2.275c-0.535,0.572-1.105,1-1.715,1.294c-0.613,0.294-1.434,0.521-2.473,0.675
		c-0.602,0.086-1.729,0.131-3.387,0.131h-2.454L126.423,39.812z M128.548,28.943h1.184c2.031,0,3.383-0.139,4.061-0.41
		c0.682-0.27,1.215-0.702,1.607-1.299c0.389-0.597,0.58-1.252,0.58-1.967c0-0.477-0.093-0.87-0.295-1.178
		c-0.198-0.309-0.479-0.533-0.844-0.672c-0.359-0.143-1.16-0.209-2.41-0.209h-2.75L128.548,28.943z"/>
	<polygon class="st6" points="150.717,39.812 147.071,39.812 146.4,23.209 143.43,39.812 139.966,39.812 143.866,19.939 
		149.344,19.939 149.913,33.86 156.278,19.939 161.815,19.939 157.913,39.812 154.411,39.812 158.087,23.332 	"/>
</g>
</svg>
