<?xml version="1.0" encoding="utf-8"?>
<!-- Generator: Adobe Illustrator 16.0.0, SVG Export Plug-In . SVG Version: 6.00 Build 0)  -->
<!DOCTYPE svg PUBLIC "-//W3C//DTD SVG 1.1//EN" "http://www.w3.org/Graphics/SVG/1.1/DTD/svg11.dtd">
<svg version="1.1" id="Capa_1" xmlns="http://www.w3.org/2000/svg" xmlns:xlink="http://www.w3.org/1999/xlink" x="0px" y="0px"
	 width="53.5px" height="48.5px" viewBox="0 0 53.5 48.5" style="enable-background:new 0 0 53.5 48.5;" xml:space="preserve">
<style type="text/css">
<![CDATA[
	.st0{fill:none;stroke:#5D5D5D;stroke-width:0.5;stroke-miterlimit:10;}
	.st1{fill:#ECB43C;}
	.st2{fill:none;stroke:#ECB43C;stroke-width:2;stroke-miterlimit:10;}
	.st3{fill:#5D5D5D;}
	.st4{fill-rule:evenodd;clip-rule:evenodd;fill:#89898A;}
	.st5{fill-rule:evenodd;clip-rule:evenodd;fill:#ECB43C;}
	.st6{fill:#FFFFFF;}
	.st7{fill-rule:evenodd;clip-rule:evenodd;fill:#5D5D5D;}
	.st8{fill:none;stroke:#5D5D5D;stroke-miterlimit:10;}
	.st9{fill-rule:evenodd;clip-rule:evenodd;fill:#FFFFFF;}
	.st10{fill-rule:evenodd;clip-rule:evenodd;fill:none;stroke:#89898A;stroke-miterlimit:10;}
	.st11{fill-rule:evenodd;clip-rule:evenodd;fill:none;stroke:#5D5D5D;stroke-miterlimit:10;}
]]>
</style>
<g id="AQkPpl_2_">
	<g>
		<path class="st6" d="M25.633,10.633c0.71,0,1.418,0,2.128,0c0.016,0.058,0.063,0.048,0.106,0.05
			c0.406,0.024,0.809,0.083,1.21,0.152c5.777,1,10.296,5.637,11.146,11.428c0.045,0.308,0.027,0.627,0.145,0.924
			c0,0.727,0,1.453,0,2.18c-0.071,0.021-0.05,0.084-0.055,0.133c-0.05,0.457-0.112,0.912-0.201,1.364
			c-1.093,5.636-5.721,10.051-11.375,10.857c-0.324,0.047-0.66,0.036-0.976,0.146c-0.71,0-1.418,0-2.128,0
			c-0.225-0.113-0.474-0.084-0.712-0.119c-2.489-0.357-4.731-1.296-6.683-2.885c-2.741-2.234-4.401-5.1-4.957-8.6
			c-0.048-0.299-0.025-0.609-0.148-0.896c0-0.744,0-1.489,0-2.233c0.07-0.022,0.05-0.084,0.055-0.132
			c0.05-0.467,0.117-0.931,0.204-1.392c1.056-5.565,5.731-10.026,11.345-10.829C25.036,10.739,25.348,10.758,25.633,10.633z
			 M22.841,24.879c-1.036,0-2.073,0.002-3.11,0c-0.126-0.001-0.207-0.007-0.194,0.176c0.104,1.512,0.42,2.975,0.929,4.398
			c0.062,0.174,0.144,0.221,0.321,0.221c1.701-0.008,3.402-0.008,5.104-0.001c0.182,0.001,0.238-0.04,0.237-0.229
			c-0.008-1.445-0.008-2.889,0-4.334c0.001-0.182-0.038-0.236-0.229-0.234C24.879,24.885,23.86,24.879,22.841,24.879z
			 M30.632,24.879c-1.009,0-2.019,0.006-3.028-0.004c-0.188-0.002-0.231,0.05-0.23,0.234c0.008,1.434,0.01,2.869,0,4.303
			c-0.002,0.207,0.051,0.264,0.26,0.262c1.684-0.009,3.365-0.009,5.049,0c0.197,0.002,0.271-0.068,0.33-0.243
			c0.48-1.405,0.767-2.849,0.856-4.331c0.011-0.171-0.026-0.227-0.207-0.225C32.651,24.884,31.642,24.879,30.632,24.879z
			 M22.805,23.625c1.019,0,2.037-0.004,3.057,0.004c0.194,0.002,0.269-0.029,0.267-0.252c-0.011-1.373-0.009-2.746-0.001-4.12
			c0.001-0.198-0.036-0.27-0.256-0.269c-1.736,0.011-3.474,0.01-5.21,0.002c-0.18-0.002-0.257,0.046-0.317,0.223
			c-0.463,1.365-0.727,2.768-0.82,4.205c-0.014,0.199,0.067,0.211,0.224,0.21C20.766,23.623,21.785,23.625,22.805,23.625z
			 M30.618,23.625c1.01,0,2.021-0.002,3.03,0.002c0.142,0,0.217,0,0.203-0.195c-0.099-1.438-0.398-2.834-0.868-4.196
			c-0.06-0.174-0.13-0.248-0.33-0.247c-1.675,0.01-3.35,0.011-5.024,0c-0.222-0.002-0.256,0.072-0.255,0.27
			c0.007,1.364,0.009,2.729-0.001,4.094c-0.002,0.213,0.036,0.283,0.268,0.28C28.633,23.617,29.625,23.625,30.618,23.625z
			 M20.925,17.756c1.677,0,3.307-0.005,4.937,0.008c0.236,0.002,0.267-0.074,0.266-0.283c-0.008-1.657-0.005-3.314-0.005-4.971
			c0-0.639,0.002-0.613-0.644-0.569c-0.418,0.029-0.715,0.192-0.998,0.496c-0.99,1.059-1.855,2.209-2.595,3.453
			C21.535,16.48,21.209,17.084,20.925,17.756z M27.378,14.805c0,0.904,0.007,1.807-0.005,2.71c-0.003,0.2,0.048,0.249,0.247,0.247
			c1.479-0.01,2.958-0.006,4.437-0.006c0.332,0,0.331,0.001,0.192-0.291c-0.828-1.744-1.928-3.308-3.109-4.828
			c-0.426-0.548-0.913-0.736-1.553-0.734c-0.186,0-0.214,0.056-0.213,0.219C27.381,13.016,27.378,13.911,27.378,14.805z
			 M26.123,33.766c0-0.877-0.006-1.754,0.004-2.631c0.002-0.188-0.051-0.234-0.235-0.232c-1.523,0.008-3.047,0.006-4.57,0.001
			c-0.187-0.001-0.256,0.015-0.155,0.222c0.924,1.898,2.111,3.617,3.488,5.21c0.064,0.075,0.13,0.14,0.239,0.149
			c0.344,0.031,0.687,0.064,1.029,0.11c0.17,0.022,0.205-0.036,0.203-0.198C26.118,35.52,26.123,34.643,26.123,33.766z
			 M36.024,29.67c0.549,0,1.099-0.003,1.647,0.001c0.122,0.001,0.205-0.013,0.269-0.147c0.654-1.391,1.028-2.854,1.152-4.385
			c0.017-0.199-0.022-0.268-0.243-0.266c-1.045,0.014-2.09,0.006-3.135,0.008c-0.211,0-0.475-0.062-0.618,0.039
			c-0.136,0.097-0.052,0.379-0.068,0.58c-0.112,1.354-0.378,2.677-0.803,3.967c-0.056,0.17-0.024,0.209,0.152,0.206
			C34.926,29.663,35.476,29.67,36.024,29.67z M32.406,30.906c-1.624,0-3.201,0.005-4.777-0.006
			c-0.218-0.002-0.257,0.068-0.256,0.268c0.008,1.664,0.005,3.33,0.005,4.994c0,0.465-0.001,0.438,0.471,0.421
			c0.476-0.018,0.816-0.208,1.136-0.56c0.975-1.072,1.841-2.219,2.572-3.469C31.862,32.029,32.15,31.496,32.406,30.906z
			 M16.376,24.879c-0.567,0-1.135,0.01-1.702-0.004c-0.212-0.006-0.289,0.03-0.27,0.266c0.129,1.531,0.503,2.995,1.156,4.389
			c0.065,0.137,0.153,0.141,0.273,0.141c1.045-0.002,2.091-0.006,3.136,0.003c0.212,0.003,0.27-0.024,0.194-0.255
			c-0.468-1.408-0.754-2.855-0.816-4.34c-0.007-0.169-0.062-0.205-0.218-0.203C17.545,24.885,16.961,24.879,16.376,24.879z
			 M34.204,18.994c0.019,0.066,0.028,0.107,0.042,0.148c0.45,1.405,0.737,2.842,0.799,4.318c0.008,0.18,0.104,0.166,0.224,0.166
			c1.205-0.002,2.409-0.008,3.614,0.004c0.207,0.002,0.224-0.076,0.21-0.246c-0.112-1.477-0.467-2.893-1.077-4.243
			c-0.051-0.114-0.119-0.151-0.242-0.149C36.596,18.996,35.417,18.994,34.204,18.994z M16.356,23.625
			c0.594,0,1.188-0.006,1.78,0.004c0.163,0.003,0.21-0.044,0.212-0.207c0.007-0.469,0.063-0.936,0.129-1.4
			c0.135-0.965,0.349-1.912,0.651-2.838c0.037-0.113,0.06-0.193-0.121-0.193c-1.099,0.008-2.196,0.006-3.295,0.002
			c-0.113,0-0.178,0.033-0.225,0.137c-0.616,1.367-0.978,2.799-1.084,4.296c-0.012,0.169,0.035,0.208,0.198,0.204
			C15.188,23.619,15.772,23.625,16.356,23.625z M37.244,17.757c-0.999-2.049-5.031-5.21-6.588-5.19
			c0.203,0.274,0.412,0.547,0.612,0.826c0.941,1.312,1.747,2.701,2.388,4.184c0.042,0.098,0.066,0.186,0.213,0.184
			C34.983,17.754,36.1,17.757,37.244,17.757z M16.223,17.756c1.144,0,2.229-0.001,3.314,0.004c0.123,0,0.142-0.084,0.175-0.162
			c0.728-1.729,1.691-3.317,2.84-4.797c0.042-0.054,0.128-0.1,0.076-0.217C19.918,13.581,17.8,15.287,16.223,17.756z M37.177,30.906
			c-1.169,0-2.272,0.002-3.377-0.002c-0.138,0-0.15,0.104-0.187,0.188c-0.731,1.688-1.682,3.245-2.817,4.691
			c-0.038,0.048-0.068,0.103-0.14,0.211C33.423,35.017,35.559,33.348,37.177,30.906z M22.678,35.932
			c-0.031-0.07-0.037-0.096-0.052-0.115c-1.13-1.483-2.107-3.059-2.844-4.775c-0.061-0.143-0.158-0.135-0.275-0.135
			c-0.859,0-1.72,0-2.579,0c-0.182,0-0.364,0-0.604,0C17.908,33.301,19.994,34.955,22.678,35.932z"/>
	</g>
</g>
</svg>
