<?xml version="1.0" encoding="utf-8"?>
<!-- Generator: Adobe Illustrator 22.0.1, SVG Export Plug-In . SVG Version: 6.00 Build 0)  -->
<svg version="1.1" id="Capa_1" xmlns="http://www.w3.org/2000/svg" xmlns:xlink="http://www.w3.org/1999/xlink" x="0px" y="0px"
	 viewBox="0 0 31 32" style="enable-background:new 0 0 31 32;" xml:space="preserve">
<style type="text/css">
	.st0{fill:#F0CC57;}
</style>
<path class="st0" d="M16.5,25.2c4.9-0.4,8.6-4.6,8.8-8.8c-0.2,0-0.4,0-0.6,0c-0.4-0.1-0.7-0.4-0.7-0.9c0-0.4,0.3-0.7,0.8-0.8
	c0.2,0,0.4,0,0.6,0C25.1,12.4,24,9.8,21.8,8c-1.5-1.3-3.3-2-5.3-2.2c0,0.3,0,0.5-0.1,0.7c-0.1,0.4-0.4,0.6-0.9,0.6
	c-0.4,0-0.7-0.3-0.8-0.7c0-0.2,0-0.4-0.1-0.6c-2.7,0.3-4.9,1.4-6.6,3.5c-1.3,1.5-2,3.3-2.2,5.4c0.3,0,0.5,0,0.7,0.1
	c0.4,0.1,0.7,0.4,0.7,0.9c0,0.4-0.3,0.7-0.7,0.8c-0.2,0-0.4,0-0.6,0c0.3,4.7,4.4,8.5,8.8,8.8c0.1-0.3,0.1-0.6,0.2-0.9
	c0.1-0.3,0.4-0.5,0.8-0.4c0.2,0,0.4,0.1,0.5,0.2C16.5,24.4,16.5,24.8,16.5,25.2 M15.6,3.1C22.5,3.1,28,8.6,28,15.5
	c0,6.9-5.6,12.5-12.4,12.4c-6.9,0-12.4-5.6-12.4-12.4C3.2,8.6,8.7,3.1,15.6,3.1"/>
<path class="st0" d="M20.2,21.2c-0.1-0.1-0.3-0.1-0.5-0.3c-1.3-1.1-2.5-2.3-3.8-3.4c-0.1-0.1-0.3-0.2-0.5-0.2
	c-0.7,0-1.4-0.5-1.6-1.2c-0.3-0.7-0.1-1.5,0.5-2c0.2-0.1,0.3-0.3,0.3-0.5c0.1-1.6,0.2-3.1,0.2-4.7c0-0.4,0.3-0.8,0.7-0.7
	c0.4,0,0.7,0.3,0.7,0.7c0,0.8,0.1,1.5,0.1,2.3c0,0.9,0.1,1.7,0.1,2.6c0,0.1,0.1,0.2,0.1,0.3c0.5,0.4,0.7,0.8,0.8,1.4
	c0,0.1,0.1,0.2,0.1,0.3c1.2,1.3,2.3,2.6,3.5,4c0.2,0.3,0.3,0.6,0.2,0.9C21,20.9,20.7,21.1,20.2,21.2"/>
</svg>
