<?xml version="1.0" encoding="utf-8"?>
<!-- Generator: Adobe Illustrator 16.0.0, SVG Export Plug-In . SVG Version: 6.00 Build 0)  -->
<!DOCTYPE svg PUBLIC "-//W3C//DTD SVG 1.1//EN" "http://www.w3.org/Graphics/SVG/1.1/DTD/svg11.dtd">
<svg version="1.1" id="Capa_1" xmlns="http://www.w3.org/2000/svg" xmlns:xlink="http://www.w3.org/1999/xlink" x="0px" y="0px"
	 width="53.5px" height="48.5px" viewBox="0 0 53.5 48.5" style="enable-background:new 0 0 53.5 48.5;" xml:space="preserve">
<style type="text/css">
<![CDATA[
	.st0{fill:none;stroke:#5D5D5D;stroke-width:0.5;stroke-miterlimit:10;}
	.st1{fill:#ECB43C;}
	.st2{fill:none;stroke:#ECB43C;stroke-width:2;stroke-miterlimit:10;}
	.st3{fill:#5D5D5D;}
	.st4{fill-rule:evenodd;clip-rule:evenodd;fill:#89898A;}
	.st5{fill-rule:evenodd;clip-rule:evenodd;fill:#ECB43C;}
	.st6{fill:#FFFFFF;}
	.st7{fill-rule:evenodd;clip-rule:evenodd;fill:#5D5D5D;}
	.st8{fill:none;stroke:#5D5D5D;stroke-miterlimit:10;}
	.st9{fill-rule:evenodd;clip-rule:evenodd;fill:#FFFFFF;}
	.st10{fill-rule:evenodd;clip-rule:evenodd;fill:none;stroke:#89898A;stroke-miterlimit:10;}
	.st11{fill-rule:evenodd;clip-rule:evenodd;fill:none;stroke:#5D5D5D;stroke-miterlimit:10;}
]]>
</style>
<path class="st5" d="M19,19.691c-0.6,0.598-1.184,1.211-1.803,1.788c-0.256,0.239-0.262,0.45-0.129,0.739
	c0.422,0.92,0.977,1.76,1.553,2.584c1.217,1.737,2.6,3.335,4.189,4.741c1.52,1.345,3.127,2.574,4.976,3.447
	c0.529,0.252,0.537,0.234,0.943-0.172c1.156-1.159,2.314-2.318,3.471-3.478c0.594-0.596,1.307-0.65,1.99-0.168
	c2.689,1.898,5.379,3.794,8.068,5.69c0.137,0.096,0.242,0.186,0.236,0.386c-0.037,1.678-0.354,3.292-1.109,4.8
	c-0.68,1.352-1.809,2.214-3.152,2.833c-1.637,0.756-3.344,1.196-5.158,1.1c-1.518-0.081-2.967-0.482-4.383-1.009
	c-2.499-0.928-4.813-2.212-7.022-3.691c-2.295-1.539-4.418-3.289-6.299-5.312c-2.655-2.854-5.082-5.886-6.834-9.4
	c-1.028-2.059-1.936-4.165-2.285-6.462C5.77,14.957,6.561,12.154,8.66,9.75c0.844-0.966,1.99-1.43,3.214-1.723
	c0.993-0.238,2.007-0.33,3.021-0.426c0.158-0.015,0.258,0.031,0.35,0.164c1.939,2.767,3.883,5.53,5.82,8.298
	c0.352,0.5,0.256,1.299-0.201,1.764C20.244,18.452,19.621,19.07,19,19.691z M31.218,33.595c-0.475,0.477-0.957,0.945-1.424,1.43
	c-0.416,0.434-0.922,0.574-1.504,0.525c-0.896-0.074-1.697-0.429-2.462-0.861c-2.531-1.432-4.725-3.288-6.705-5.396
	c-1.242-1.32-2.344-2.756-3.277-4.312c-0.592-0.987-1.133-2-1.264-3.172c-0.068-0.634,0.086-1.188,0.564-1.653
	c0.957-0.93,1.893-1.881,2.834-2.827c0.412-0.414,0.459-1.006,0.127-1.479c-1.295-1.843-2.594-3.683-3.88-5.531
	c-0.177-0.254-0.363-0.356-0.67-0.285c-0.336,0.079-0.684,0.11-1.022,0.182c-0.956,0.202-1.824,0.581-2.435,1.381
	c-1.297,1.702-1.802,3.659-1.709,5.765c0.071,1.604,0.621,3.093,1.318,4.522c1.611,3.306,3.602,6.361,6.035,9.125
	c1.877,2.135,3.982,4.015,6.295,5.66c2.189,1.558,4.485,2.945,6.952,4.029c2.275,1,4.613,1.398,7.051,0.642
	c1.291-0.399,2.441-1.017,3.209-2.181c0.553-0.836,0.748-1.786,0.857-2.765c0.023-0.203-0.025-0.307-0.189-0.423
	c-1.871-1.311-3.736-2.629-5.602-3.945c-0.623-0.439-1.135-0.395-1.672,0.143C32.169,32.645,31.694,33.12,31.218,33.595z"/>
<path class="st1" d="M32.194,19.604l6.559,0.466c1.08,0.074,2.016-0.738,2.092-1.816c0.078-1.08-0.734-2.017-1.814-2.094L36.753,16
	l7.354-7.353c0.766-0.765,0.766-2.005,0-2.771c-0.766-0.765-2.006-0.765-2.77,0l-7.354,7.353l-0.16-2.272
	c-0.078-1.08-1.014-1.892-2.094-1.815c-0.49,0.035-0.924,0.247-1.246,0.569c-0.387,0.387-0.611,0.934-0.568,1.524l0.463,6.555
	C30.448,18.762,31.222,19.536,32.194,19.604z"/>
</svg>
