<?xml version="1.0" encoding="utf-8"?>
<!-- Generator: Adobe Illustrator 16.0.0, SVG Export Plug-In . SVG Version: 6.00 Build 0)  -->
<!DOCTYPE svg PUBLIC "-//W3C//DTD SVG 1.1//EN" "http://www.w3.org/Graphics/SVG/1.1/DTD/svg11.dtd">
<svg version="1.1" id="Capa_1" xmlns="http://www.w3.org/2000/svg" xmlns:xlink="http://www.w3.org/1999/xlink" x="0px" y="0px"
	 width="53.5px" height="48.5px" viewBox="0 0 53.5 48.5" style="enable-background:new 0 0 53.5 48.5;" xml:space="preserve">
<style type="text/css">
<![CDATA[
	.st0{fill:none;stroke:#5D5D5D;stroke-width:0.5;stroke-miterlimit:10;}
	.st1{fill:#ECB43C;}
	.st2{fill:none;stroke:#ECB43C;stroke-width:2;stroke-miterlimit:10;}
	.st3{fill:#5D5D5D;}
	.st4{fill-rule:evenodd;clip-rule:evenodd;fill:#89898A;}
	.st5{fill-rule:evenodd;clip-rule:evenodd;fill:#ECB43C;}
	.st6{fill:#FFFFFF;}
	.st7{fill-rule:evenodd;clip-rule:evenodd;fill:#5D5D5D;}
	.st8{fill:none;stroke:#5D5D5D;stroke-miterlimit:10;}
	.st9{fill-rule:evenodd;clip-rule:evenodd;fill:#FFFFFF;}
	.st10{fill-rule:evenodd;clip-rule:evenodd;fill:none;stroke:#89898A;stroke-miterlimit:10;}
	.st11{fill-rule:evenodd;clip-rule:evenodd;fill:none;stroke:#5D5D5D;stroke-miterlimit:10;}
]]>
</style>
<g>
	<g>
		<g>
			<path class="st2" d="M26.754,9.601h-0.007V9.6c-7.87,0-14.271,6.404-14.271,14.275c0,3.122,1.008,6.017,2.719,8.367l-1.778,5.303
				l5.485-1.753c2.257,1.493,4.949,2.358,7.853,2.358c7.87,0,14.27-6.403,14.27-14.275C41.023,16.004,34.624,9.601,26.754,9.601z
				 M35.061,29.758c-0.345,0.973-1.711,1.78-2.802,2.014c-0.746,0.16-1.72,0.287-5-1.074c-4.195-1.736-6.896-6-7.107-6.276
				c-0.202-0.278-1.694-2.257-1.694-4.304c0-2.05,1.041-3.047,1.46-3.475c0.344-0.354,0.915-0.512,1.46-0.512
				c0.177,0,0.333,0.007,0.479,0.016c0.42,0.019,0.629,0.042,0.904,0.706c0.344,0.831,1.186,2.878,1.285,3.087
				c0.102,0.211,0.2,0.496,0.059,0.772c-0.135,0.285-0.253,0.411-0.46,0.655c-0.212,0.243-0.415,0.428-0.623,0.688
				c-0.193,0.226-0.41,0.47-0.166,0.89c0.242,0.41,1.082,1.779,2.314,2.878c1.596,1.417,2.888,1.871,3.349,2.063
				c0.344,0.145,0.754,0.109,1.006-0.159c0.319-0.344,0.712-0.915,1.115-1.476c0.288-0.404,0.646-0.455,1.024-0.314
				c0.387,0.135,2.424,1.144,2.844,1.354c0.419,0.209,0.695,0.309,0.796,0.488C35.403,27.953,35.403,28.785,35.061,29.758z"/>
		</g>
	</g>
</g>
</svg>
