<?xml version="1.0" encoding="utf-8"?>
<!-- Generator: Adobe Illustrator 22.0.1, SVG Export Plug-In . SVG Version: 6.00 Build 0)  -->
<svg version="1.1" id="Capa_1" xmlns="http://www.w3.org/2000/svg" xmlns:xlink="http://www.w3.org/1999/xlink" x="0px" y="0px"
	 viewBox="0 0 403.4 128.8" style="enable-background:new 0 0 403.4 128.8;" xml:space="preserve">
<style type="text/css">
	.st0{clip-path:url(#SVGID_2_);fill:url(#SVGID_3_);}
	.st1{fill:#A4D5F4;}
	.st2{fill:url(#SVGID_4_);}
	.st3{fill:#D3D11A;}
	.st4{fill:url(#SVGID_5_);}
	.st5{fill:#05AA70;}
	.st6{fill:url(#SVGID_6_);}
	.st7{fill:url(#SVGID_9_);}
	.st8{fill:url(#SVGID_10_);}
	.st9{fill:#8AC05C;}
	.st10{fill:url(#SVGID_13_);}
	.st11{fill:#65C3F0;}
	.st12{fill:#CCD744;}
	.st13{fill:#9BC327;}
	.st14{fill:url(#SVGID_14_);}
	.st15{fill:#00AEDA;}
	.st16{fill:#75BB6A;}
	.st17{fill:#23AB6E;}
	.st18{fill:#009679;}
	.st19{clip-path:url(#SVGID_16_);fill:url(#SVGID_17_);}
	.st20{fill:url(#SVGID_18_);}
	.st21{fill:url(#SVGID_19_);}
	.st22{fill:url(#SVGID_20_);}
	.st23{fill:url(#SVGID_23_);}
	.st24{fill:url(#SVGID_24_);}
	.st25{fill:url(#SVGID_27_);}
	.st26{fill:url(#SVGID_28_);}
	.st27{fill:#3D3E3E;}
	.st28{fill:#0168AB;}
	.st29{fill:#1A81C2;}
	.st30{fill:#679D3E;}
	.st31{fill:#29AFA4;}
	.st32{fill:#5E5E5E;}
	.st33{fill:#BA4F2E;}
	.st34{fill:#067EC2;}
	.st35{fill:#087DC1;}
	.st36{fill:#E73539;}
	.st37{fill:#066EB6;}
	.st38{fill:#54B14B;}
	.st39{fill:#939494;}
	.st40{fill:#80807C;}
	.st41{fill:#010202;}
	.st42{fill:#616160;}
	.st43{fill:#9D9D9C;}
	.st44{fill:#131214;}
</style>
<g>
	<path d="M80.6,68.4c2.5-5.4,5.1-10.8,7.6-16.1c0.3-0.6,0.5-1.1,0.6-1.8c0.1,0.1,0.1,0.1,0.2,0.2c0,0.4,0,0.8,0,1.1
		c-0.3,5.5-0.1,11-0.1,16.6c0,0.6,0.2,0.7,0.7,0.7c1.1,0,2.3,0,3.4,0c0.6,0,0.7-0.2,0.7-0.7c0-7.3,0-14.7,0-22
		c0-0.5-0.2-0.6-0.6-0.6c-1.8,0-3.5,0-5.3,0c-0.4,0-0.6,0.1-0.8,0.5c-2.6,5.6-5.4,11-7.8,16.6c-0.1,0.2-0.1,0.3-0.2,0.3
		c-2.5-5.8-5.2-11.4-7.8-17c-0.2-0.4-0.4-0.4-0.7-0.4c-1.8,0-3.7,0-5.6,0c-0.5,0-0.6,0.2-0.6,0.6c0,7.4,0,14.8,0,22.1
		c0,0.4,0.1,0.6,0.6,0.6c1.1,0,2.1,0,3.2,0c0.6,0,0.7-0.2,0.7-0.7c0-5.8,0.1-11.7-0.1-17.5l0,0c0.1-0.1,0.1-0.1,0.2-0.2c0,0,0,0,0,0
		s0,0,0,0c0.3,1.4,1,2.6,1.6,3.8h0c0.1,0.2,0.1,0.4,0.3,0.5v0c1.9,4,3.9,7.9,5.7,12c0.7,1.7,1.6,2.4,3.4,2.1
		C80.1,68.9,80.4,68.9,80.6,68.4z M68.4,50.1C68.4,50.1,68.4,50.1,68.4,50.1S68.4,50.1,68.4,50.1S68.4,50.1,68.4,50.1z"/>
	<path d="M215.1,55.5c0.8,0,1.8,0.3,2.3-0.1c0.5-0.5,0.1-1.6,0.2-2.4c0.1-0.6-0.2-0.7-0.8-0.7c-1.1,0-2.1,0-3.2,0
		c-0.5,0-0.7-0.1-0.7-0.7c0-1.4,0-2.8,0-4.3c-1.4,0.4-2.7,0.8-4.1,1.1c-0.5,0.1-0.6,0.4-0.6,0.8c0,0.9,0,1.7,0,2.6
		c0,0.4-0.1,0.5-0.5,0.5c-1.2,0-2.5,0-3.7,0c-0.8,0-2,0.4-2.4-0.2c-0.4-0.6-0.2-1.7-0.1-2.5c0.1-1.2,0.8-1.9,2-2.3
		c1.1-0.3,2,0.1,3,0.3c0-1,0-1.9,0-2.8c0-0.5-0.2-0.6-0.6-0.7c-1.1-0.2-2.2-0.2-3.3-0.1c-2.1,0.2-3.8,1-5,2.8
		c-0.9,1.4-0.9,3-0.8,4.5c0,0.7-0.2,1-0.9,0.9c-0.7-0.1-1.7-0.3-2.2,0.1c-0.5,0.4-0.1,1.5-0.2,2.2c-0.1,0.8,0.2,1,0.9,0.9
		c0.5-0.1,0.9,0,1.4,0c0.7-0.1,1,0.1,1,1c-0.1,3.9,0,7.9,0,11.8c0,0.7,0.2,0.8,0.8,0.8c1-0.1,2-0.1,3,0c0.7,0,0.9-0.1,0.9-0.8
		c0-4,0-8,0-12c0-0.5,0.1-0.7,0.7-0.7c1.8,0,3.6,0,5.5,0c0.5,0,0.7,0.1,0.7,0.7c0,2.5,0,5,0,7.6c0,1.2,0.2,2.3,0.7,3.4
		c0.1,0.3,0.2,0.6,0.5,0.7c0,0.1,0.1,0.1,0.2,0.2c1.5,1.4,5.9,1.8,7.7,0.8c0.2-0.1,0.3-0.3,0.3-0.5c0-0.9,0-1.8,0-2.8
		c-0.4,0.1-0.8,0.3-1.1,0.4c-2.3,0.6-3.5-0.3-3.5-2.6c0-1.9,0-3.8,0-5.6c0-0.7-0.2-1.6,0.1-2C213.5,55.2,214.4,55.5,215.1,55.5z"/>
	<path d="M310.6,56.9c-0.2-2.3-1.7-4.2-4-4.7c-3.3-0.8-6.3-0.3-8.7,2.7c0-0.8,0-1.5,0-2.1c0-0.4-0.1-0.6-0.5-0.6c-1.1,0-2.3,0-3.4,0
		c-0.4,0-0.6,0.1-0.5,0.5c0,0.4,0,0.8,0,1.1c0,4.7,0,9.5,0,14.2c0,0.7,0.2,0.8,0.8,0.8c1-0.1,1.9-0.1,2.9,0c0.6,0,0.8-0.1,0.8-0.7
		c0-3,0-6,0-8.9c0-1.9,1.1-3.5,2.9-4.1c2.1-0.7,4.8-0.4,5.4,2.8c0.1,0.7,0.1,1.5,0.1,2.2c0,2.7,0,5.4,0,8.1c0,0.5,0.1,0.7,0.7,0.7
		c0.7-0.1,1.3,0,2,0c1.8,0,1.8,0,1.7-1.7C310.6,63.8,310.9,60.4,310.6,56.9z"/>
	<path d="M286,55.5c1.1,0,2.3,0,3.4,0c0.5,0,0.7-0.1,0.7-0.7c0-0.6,0-1.3,0-1.9c0-0.5-0.1-0.7-0.7-0.7c-1.1,0-2.3,0-3.4,0
		c-0.5,0-0.6-0.1-0.6-0.6c0-1.4,0-2.8,0-4.4c-1.1,0.3-2,0.5-3,0.8c-1.7,0.4-1.7,0.4-1.7,2.2c0,0.7,0.3,1.6-0.1,1.9
		c-0.4,0.3-1.3,0.2-1.9,0.1c-0.7,0-1,0.2-0.8,0.9c0,0.1,0,0.3,0,0.4c0,1.9,0,2,2,1.9c0.8,0,0.9,0.2,0.9,1c0,2.9-0.2,5.9,0.1,8.8
		c0.2,1.7,1.1,3,2.8,3.6c2,0.7,4,0.6,5.9,0c0.3-0.1,0.5-0.1,0.5-0.5c0-0.9,0-1.9,0-2.9c-0.3,0.1-0.5,0.2-0.6,0.3
		c-2,0.6-4.1,0.4-4-2.8c0.1-2.3,0-4.6,0-6.9C285.4,55.6,285.5,55.5,286,55.5z"/>
	<path d="M168.4,68.3c1.6-0.8,2.6-2,2.7-3.9c0.1-2-0.9-3.2-2.6-4.2c-1.3-0.7-2.8-1.1-4.1-1.7c-1.2-0.5-1.7-1.2-1.6-2
		c0.1-0.8,1-1.4,2.3-1.5c0.2,0,0.3,0,0.5,0c1.5,0,3,0.4,4.5,1.2c0-1.1,0-2.1,0-3.1c0-0.5-0.2-0.6-0.6-0.7c-0.9-0.2-1.8-0.4-2.7-0.5
		c-2.6-0.2-5,0.1-7.1,1.8c-2.3,1.9-2.1,5.3,0.4,7c0.7,0.5,1.5,0.8,2.3,1.1c1,0.4,2,0.8,2.9,1.2c1,0.5,1.3,1,1.1,1.9
		c-0.2,0.8-0.9,1.1-1.6,1.2c-1.3,0.3-2.6,0-3.8-0.3c-1-0.2-1.8-0.7-2.8-1.2c0,1.1,0,2.1,0,3.1c0,0.5,0.2,0.7,0.6,0.8
		c1.5,0.4,3,0.7,4.5,0.7C165.1,69.4,166.8,69.1,168.4,68.3z"/>
	<path d="M120.5,68.4c0.4-0.2,0.4-0.4,0.4-0.7c0-1,0-2,0-3.1c-1.7,1-3.3,1.6-5.2,1.5c-3.2-0.2-5.3-2.2-5.3-5.4
		c0-3.2,2.3-5.4,5.3-5.6c1.8-0.1,3.5,0.4,5.2,1.4c0-1.1,0-2.1,0-3.1c0-0.6-0.2-0.8-0.7-1c-2.1-0.6-4.3-0.8-6.4-0.4
		c-3.3,0.6-6,2-7.4,5.2c-1.6,3.5-0.7,7.5,2.1,9.9C111.5,69.8,117.3,69.8,120.5,68.4z"/>
	<path d="M276.2,52c-2.5-0.2-4.6,0.4-5.9,2.8c0-0.6,0-1.2,0-1.8c0-0.5-0.1-0.7-0.6-0.7c-1.1,0-2.3,0-3.4,0c-0.5,0-0.6,0.1-0.6,0.6
		c0,5.2,0,10.4,0,15.5c0,0.5,0.2,0.6,0.7,0.6c1.1,0,2.1,0,3.2,0c0.7,0,0.8-0.2,0.8-0.8c0-2.8,0-5.6,0-8.4c0-2.3,1.5-3.9,3.5-4.3
		c1.1-0.2,2.2,0.2,3.2,0.6c0-1.1-0.1-2.1,0-3.2C277.1,52.3,276.8,52.1,276.2,52z"/>
	<path d="M134.7,52c-1.7-0.1-3.3,0.2-4.6,1.4c-0.2,0.1-0.5,0.2-0.5,0.5c-0.2,0.3-0.4,0.7-0.6,1c-0.1-0.7-0.2-1.4-0.1-2.1
		c0-0.4-0.1-0.5-0.5-0.5c-1,0-2.1,0.1-3.1,0c-0.7,0-0.9,0.1-0.9,0.9c0,4.5,0,9,0,13.4c0,0.8-0.3,1.8,0.1,2.3
		c0.5,0.5,1.5,0.1,2.3,0.2c0.7,0,1.5,0.2,1.9-0.1c0.5-0.4,0.1-1.3,0.2-2c0.1-2.6-0.2-5.1,0.2-7.7c0.2-1.9,1.6-3.4,3.5-3.7
		c1.1-0.2,2.1,0.2,3.2,0.6c0-1-0.1-2.1,0-3.1C135.8,52.2,135.4,52,134.7,52z"/>
	<path d="M346.4,53c0.1-0.8-0.3-0.9-0.9-1c-2.5-0.2-4.5,0.5-5.8,2.8c0-0.7,0-1.3,0-2c0-0.4-0.1-0.6-0.6-0.6c-1.2,0-2.3,0-3.5,0
		c-0.4,0-0.5,0.1-0.5,0.5c0,5.2,0,10.5,0,15.7c0,0.4,0.1,0.5,0.5,0.5c1.1,0,2.1-0.1,3.2,0c0.6,0,0.8-0.2,0.8-0.8
		c0-2.6-0.1-5.1,0-7.7c0-2,0.5-3.8,2.7-4.7c1.4-0.6,2.7-0.2,4.1,0.3C346.3,55,346.3,54,346.4,53z"/>
	<path d="M102.5,52.9c0-0.3,0.1-0.7-0.5-0.7c-1.2,0-2.4,0-3.6,0c-0.4,0-0.5,0.2-0.5,0.6c0,5.2,0,10.4,0,15.5c0,0.6,0.2,0.7,0.7,0.6
		c1.1,0,2.1,0,3.2,0c0.6,0,0.7-0.2,0.7-0.7c0-2.5,0-5.1,0-7.6C102.5,58.1,102.5,55.5,102.5,52.9z"/>
	<path d="M194,78.6c-1.2,0-2.1,0.5-2.7,1.5c-1.2-2-2.9-2.1-4.6-0.3c0-0.1-0.1-0.2-0.1-0.2c0.1-0.5,0.1-0.8-0.7-0.8
		c-0.7,0-0.6,0.4-0.6,0.8c0,2.1,0,4.2,0,6.3c0,0.5,0.1,0.7,0.7,0.7c0.5,0,0.6-0.2,0.6-0.6c0-1.2,0-2.4,0-3.6c0-0.7,0.1-1.5,0.5-2.1
		c0.5-0.6,1.1-0.8,1.8-0.7c0.7,0.1,1.1,0.6,1.2,1.3c0.1,0.4,0.1,0.8,0.1,1.2c0,1.2,0,2.5,0,3.7c0,0.5,0.1,0.7,0.7,0.7
		c0.6,0,0.6-0.3,0.6-0.7c0-1.3,0-2.5,0-3.8c0-0.7,0.2-1.4,0.7-1.9c0.5-0.5,1-0.6,1.7-0.5c0.6,0.1,1,0.6,1.1,1.2
		c0.1,0.4,0.1,0.8,0.1,1.2c0,1.3,0,2.7,0,4c0,0.4,0.2,0.6,0.5,0.5c0.3,0,0.7,0.2,0.7-0.4c0-1.7,0-3.5-0.1-5.2
		C196.4,79.4,195.4,78.6,194,78.6z"/>
	<path class="st43" d="M66.8,80c-0.9-0.6-1.2-1.4-1-2.2c0.2-0.7,0.9-1.1,2-1.2c0.7,0,1.4,0.1,2.1,0.6c0.2-1.4,0-1.6-1.3-1.7
		c-0.4,0-0.8,0-1.1,0c-1.5,0.1-2.7,0.9-3,2.1c-0.4,1.3,0.1,2.5,1.4,3.4c0.5,0.4,1.1,0.7,1.7,1.1c0.4,0.2,0.7,0.5,1,0.8
		c0.5,0.5,0.6,1.2,0.4,1.8c-0.3,0.6-0.8,0.9-1.4,0.9c-0.9,0.1-1.7-0.1-2.4-0.4c-0.2-0.1-0.5-0.5-0.7-0.1c-0.1,0.4-0.3,1,0.2,1.2
		c1.4,0.7,3.8,0.8,5.1-0.4c1.1-1.1,1-2.9-0.1-4C68.7,81,67.7,80.6,66.8,80z"/>
	<path d="M100.3,45.2c-1.5,0-2.7,0.9-2.8,2.1c-0.1,1.2,0.9,2.2,2.5,2.4c0,0,0.1,0,0.1,0c1.7,0.2,3.1-1,3-2.4
		C103,46,101.8,45.2,100.3,45.2z"/>
	<path d="M169.5,74.8c-1.2-0.2-2.3,0.5-2.7,1.7c-0.2,0.5-0.2,1.1-0.1,1.6c0,0.5-0.1,0.7-0.6,0.6c-0.3,0-0.8-0.2-0.8,0.5
		c0,0.6,0.3,0.6,0.7,0.5c0.5-0.1,0.7,0.1,0.7,0.7c0,0.9,0,1.8,0,2.7c0,0.9,0,1.9,0,2.8c0,0.6,0.2,0.6,0.7,0.7c0.6,0,0.6-0.2,0.6-0.7
		c0-1.8,0-3.6,0-5.4c0-0.6,0.2-0.8,0.8-0.7c0.1,0,0.3,0,0.4,0c0.4,0,0.7,0,0.7-0.6c0-0.6-0.4-0.5-0.7-0.5c-1.3,0-1.3,0-1.2-1.3
		c0.1-1.1,0.5-1.5,1.6-1.5c0.3,0,0.6,0.2,0.6-0.3C170,75.2,170,74.9,169.5,74.8z"/>
	<path class="st43" d="M84.4,79.7c-0.6,1.8-1.3,3.6-2,5.5c-0.7-2-1.4-4-2.1-6c-0.2-0.7-0.8-0.5-1.2-0.4c-0.6,0.2-0.1,0.6,0,0.8
		c0.8,2.1,1.6,4.3,2.4,6.4c0.2,0.4,0.4,0.6,0.8,0.6c0.4,0,0.7-0.1,0.8-0.5c0.5-1.3,1-2.6,1.5-3.9c0.4-1.1,0.9-2.2,1.3-3.3
		C85.1,78.5,84.7,78.9,84.4,79.7z"/>
	<path d="M163.8,79.8c0.4,0,0.6,0,0.6-0.5c0-0.5-0.1-0.6-0.6-0.6c-1.4,0-1.4,0-1.4-1.5c0-0.2,0-0.4,0-0.6c0-0.3-0.2-0.3-0.4-0.2
		c-0.8,0.2-1.1,0.7-0.9,1.5c0.1,0.5,0,0.9-0.6,0.8c-0.4-0.1-0.7-0.1-0.7,0.5c0,0.6,0.3,0.6,0.7,0.5c0.5-0.1,0.7,0.1,0.7,0.7
		c0,1.4,0,2.9,0,4.3c0,1.3,0.8,1.9,2.1,1.9c1.1,0,1.2-0.1,1-1.2c-1.5,0.3-1.8,0-1.9-1.5c0-1,0-1.9,0-2.9
		C162.4,79.8,162.4,79.8,163.8,79.8z"/>
	<path d="M125.4,79.8c0.4,0,0.8,0,1.2,0c0.4,0,0.6,0,0.6-0.5c0-0.4-0.1-0.6-0.6-0.6c-0.4,0-0.8,0-1.2,0c-0.4-0.7,0-1.5-0.2-2.2
		c-0.9,0-1.4,0.4-1.2,1.4c0.1,0.5,0,1-0.8,0.8c-0.4-0.1-0.6,0-0.6,0.5c0,0.5,0.3,0.6,0.6,0.5c0.7-0.1,0.7,0.2,0.7,0.8
		c0,1.4,0,2.8,0,4.3c0.1,1.3,0.8,1.9,2.1,1.9c1.1,0,1.2-0.1,1-1.2c-1.4,0.3-1.8,0-1.8-1.4c0-1.2,0-2.4,0-3.6
		C125.2,80.2,125.1,79.9,125.4,79.8z"/>
	<path class="st43" d="M77.3,74.9c-1.1,0-1.1,0-1.1,1.2c0,3.1,0,6.2,0,9.2c0,1.3-0.2,1.2,1.2,1.2c0.1-0.1,0.1-0.3,0.1-0.4
		c0-3.5,0-7.1,0-10.6C77.4,75.3,77.5,75.1,77.3,74.9z"/>
	<path d="M150.1,74.9c-1.1,0-1.1,0-1.1,1.2c0,3.1,0,6.2,0,9.2c0,1.3-0.2,1.2,1.2,1.2c0.1-0.1,0.1-0.3,0.1-0.4c0-3.5,0-7.1,0-10.6
		C150.2,75.3,150.3,75.1,150.1,74.9z"/>
	<path d="M182.6,78.8c-0.5,0.2-0.9,0.7-1.3,1.4c0-0.5,0-0.6,0-0.8c0.1-0.5-0.1-0.7-0.6-0.7c-0.6,0-0.6,0.2-0.6,0.7
		c0,2.2,0,4.4,0,6.6c0,0.6,0.3,0.5,0.7,0.6c0.4,0,0.6-0.1,0.6-0.6c0-1.4,0-2.7,0.1-4.1c0.1-1.7,1-2.4,2.7-2
		C184.2,78.6,183.7,78.3,182.6,78.8z"/>
	<path class="st43" d="M73.2,78.7c-0.5,0-0.7,0.1-0.7,0.6c0,2.2,0,4.4,0,6.6c0,0.5,0.2,0.6,0.7,0.6c0.5,0,0.7-0.2,0.7-0.7
		c0-1.1,0-2.1,0-3.2c0-1.1,0-2.2,0-3.3C73.8,78.9,73.6,78.7,73.2,78.7z"/>
	<path class="st43" d="M99,78.6c-0.7,0-1.2,0.3-1.6,0.9c-0.2,0.2-0.2,0.5-0.6,0.6v0c0-0.2,0-0.3,0-0.5c0-0.4,0.1-0.8-0.5-0.8
		c-0.6,0-0.7,0.2-0.7,0.8c0,2.1,0,4.3,0,6.4c0,0.6,0.2,0.7,0.7,0.7c0.5,0,0.6-0.2,0.6-0.7c0-0.8,0-1.7,0-2.5c0-1,0-2,0.5-2.9
		c0.4-0.5,1-0.8,1.7-0.7c0.4,0.1,0.7,0.3,0.7-0.4C99.7,78.8,99.5,78.6,99,78.6z"/>
	<path class="st42" d="M73.2,75.1c-0.5,0-0.8,0.3-0.8,0.8c0,0.5,0.3,0.8,0.8,0.8c0.4,0,0.7-0.3,0.8-0.7
		C73.9,75.5,73.7,75.1,73.2,75.1z"/>
	<path d="M243.9,47.8c-1.6-1.4-3.6-1.9-5.7-2c-3.2-0.2-6.4,0-9.5-0.1c-0.7,0-0.8,0.3-0.8,0.9c0,3.6,0,7.2,0,10.8c0,3.6,0,7.3,0,10.9
		c0,0.5,0.1,0.8,0.7,0.7c1.1,0,2.1-0.1,3.2,0c0.6,0,0.7-0.2,0.7-0.7c0-1.7,0-3.5,0-5.2c0-0.8-0.4-1.8,0.2-2.3
		c0.5-0.5,1.5-0.1,2.3-0.1c2.6-0.1,5-0.3,7.4-1.6C247,56.5,247.1,50.5,243.9,47.8z M240.3,55.7c-0.9,1-2.2,1.4-3.5,1.5
		c-0.8,0.1-1.6,0.1-2.4,0.1c-1.9,0-1.9,0-1.9-2c0-1.9,0-3.8,0-5.7c0-0.5,0.1-0.7,0.7-0.7c1.7,0.1,3.4-0.2,5.1,0.3
		C241.2,50.1,242.4,53.5,240.3,55.7z"/>
	<path d="M193.1,61.5c0.4-3.6-0.9-7.2-4.8-8.8c-1.5-0.6-3.2-0.9-5.1-0.9c-0.6-0.1-1.4,0.1-2.2,0.2c-4.1,0.6-7.5,3-7.9,7.9
		c-0.4,4.4,2,7.8,6.2,9c1.8,0.5,3.6,0.5,5.4,0.4C188.6,68.9,192.6,66.5,193.1,61.5z M188,62.9c-0.8,2.7-3.2,3.5-5.9,3.1
		c-3.8-0.6-4.7-3.7-4.2-6.6c0.7-3.8,4.5-5.5,7.9-3.7c2,1,2.5,2.8,2.5,5.1C188.4,61.3,188.3,62.1,188,62.9z"/>
	<path d="M153.7,54.4c-2.1-2-4.7-2.5-7.5-2.6c-0.8-0.1-1.6,0.1-2.3,0.2c-4.1,0.6-7.5,3.1-7.9,7.8c-0.4,4.2,1.7,7.5,5.7,8.8
		c3.1,1,6.1,0.9,9.1-0.3C157.1,65.9,157.1,57.7,153.7,54.4z M150.1,64.4c-1.3,1.6-3.8,2.1-6.1,1.4c-2-0.7-3.2-2.3-3.3-4.5
		c-0.1-1.2,0-2.3,0.5-3.4l0.8-1.2c1.4-1.5,3.8-2,6.1-1.2c1.8,0.7,2.9,2.3,3,4.4C151.2,61.5,151.2,63.1,150.1,64.4z"/>
	<path d="M328.1,53.2c0,0-0.1,0-0.1,0c-0.1,0.1,0,0.6-0.4,0.4c-0.4-0.2-0.2-0.5-0.1-0.9c-2.1-1.1-4.3-1.2-6.5-0.7
		c-4.2,0.8-6.7,3.4-7.2,7.7c-0.3,3.2,0.5,6.1,3.4,8c1.4,0.9,3,1.3,4.7,1.4c2.5,0.2,4.9-0.1,7.2-1c0.3-0.1,0.8-0.2,0.8-0.7
		c0-0.9,0-1.8,0-2.8c-2.3,1.3-4.7,1.8-7.3,1.5c-2.3-0.3-3.8-1.7-4.2-3.8c-0.1-0.7,0.1-0.7,0.7-0.7c3.3,0,6.7,0,10,0
		c0.8,0,1.8,0.3,2.3-0.1c0.5-0.5,0.2-1.6,0.2-2.4C331.3,56.7,330.4,54.5,328.1,53.2z M326.6,58.9c-0.1,0-0.3,0-0.4,0h-7.9
		c0.5-3.5,4.3-5,7.1-3.5c1.1,0.6,1.5,1.8,1.6,3C327.1,58.8,327,59,326.6,58.9z"/>
	<path d="M257.7,52.2c-3.2-0.7-6.3-0.2-9.4,0.9c-0.3,0.1-0.5,0.3-0.5,0.6c0,0.9,0,1.8,0,2.9c2.2-1.3,4.4-1.9,6.7-1.8
		c2.1,0.1,3.2,1.1,3.4,3c0,0.3,0,0.4-0.4,0.5c-1.5,0.1-2.9,0.3-4.4,0.5c-1.7,0.2-3.3,0.4-4.8,1.3c-1.7,1-2.5,2.6-2.4,4.6
		c0.1,2.1,1.2,3.6,3.2,4.2c3.3,1,6.3,0.7,8.8-2.1c0,0.6,0,1.1,0,1.6c0,0.5,0.1,0.7,0.7,0.7c1-0.1,2-0.1,2.9,0c0.6,0,0.8-0.2,0.8-0.8
		c0-3.3,0-6.5,0-9.8C262.2,55.1,260.6,52.9,257.7,52.2z M251.8,66.1c-1-0.4-1.6-1.2-1.6-2.1c0-1.1,0.5-1.8,1.7-2.2
		c1.4-0.5,2.9-0.5,4.3-0.7c0.2,0,0.5,0,0.7-0.1c1-0.2,1-0.2,1,0.9C258,65.8,254.3,67,251.8,66.1z"/>
	<path d="M109.4,75.7c-1.3-0.2-2.7,0-4-0.1c-0.5,0-0.4,0.3-0.4,0.6c0,1.6,0,3.2,0,4.8c0,1.6,0,3.3,0,4.9c0,0.4,0.1,0.6,0.5,0.5
		c1,0,2,0,2.9,0c2.9-0.2,4.9-1.9,5.3-4.7C114.1,78.9,113.1,76.2,109.4,75.7z M109.3,85.2c-0.9,0.2-1.8,0.1-2.7,0.1
		c-0.4,0-0.3-0.3-0.3-0.5c0-1.3,0-2.5,0-3.8c0-1.2,0-2.4,0-3.6c0-0.4,0.1-0.6,0.6-0.6c0.9,0.1,1.8,0,2.8,0.2
		c1.5,0.4,2.4,1.3,2.7,2.8C112.9,82.4,111.7,84.6,109.3,85.2z"/>
	<path d="M144.5,75.7c-1.2-0.1-2.4-0.1-3.6-0.1c-0.5,0-0.4,0.3-0.4,0.6c0,1.6,0,3.2,0,4.9c0,1.6,0,3.2,0,4.9c0,0.6,0.2,0.7,0.7,0.7
		c0.5,0,0.7-0.1,0.6-0.6c0-0.9,0.1-1.8,0-2.7c-0.1-0.8,0.2-0.9,0.9-0.9c0.7,0.1,1.5,0,2.2-0.3c1.5-0.6,2.4-1.9,2.3-3.5
		C147.2,77,146.2,75.9,144.5,75.7z M144.3,81.1c-0.8,0.2-1.7,0.4-2.2,0c-0.5-0.4-0.1-1.4-0.2-2c0-0.3,0-0.5,0-0.6
		c0.1-0.6-0.4-1.4,0.3-1.7c1-0.5,2.9,0.1,3.4,0.8C146.5,78.9,145.8,80.8,144.3,81.1z"/>
	<path class="st43" d="M92.2,79c-1.2-0.7-2.9-0.5-3.9,0.4c-1.5,1.3-1.9,4-0.8,5.8c0.9,1.5,2.7,2,4.8,1.3c0.8-0.3,1.1-0.7,0.9-1.5
		c-0.4,0.2-0.7,0.4-1,0.5c-1.8,0.7-3.4,0-3.8-1.6c-0.1-0.6,0-0.9,0.7-0.9c1.4,0,2.7,0,4.1,0c0.3,0,0.6,0.1,0.6-0.4
		C93.9,81.4,93.2,79.6,92.2,79z M91.9,81.9c-0.5,0-1,0-1.6,0c-0.5,0-1.1,0-1.6,0c-0.3,0-0.5-0.1-0.4-0.5c0.1-0.9,1.2-1.8,2.2-1.8
		c1.1,0,1.7,0.7,1.9,1.8C92.4,81.8,92.2,81.9,91.9,81.9z"/>
	<path d="M175.8,78.8c-1.8-0.6-3.9,0-4.8,1.4c-1,1.6-0.8,4.2,0.4,5.5c1,1.1,2.9,1.4,4.3,0.7c1.7-0.7,2.2-2.1,2.2-3
		C178.1,80.7,177.2,79.3,175.8,78.8z M174.3,85.7c-1.6,0-2.6-1.2-2.6-3c0-1.9,1-3.1,2.7-3c1.6,0,2.5,1.2,2.5,3.1
		C176.8,84.6,175.9,85.7,174.3,85.7z"/>
	<path d="M121.3,81.3c0-1.9-1-2.8-2.9-2.7c-0.5,0-0.9,0.1-1.4,0.2c-1.2,0.3-1.2,0.3-1.1,1.7c0.7-0.4,1.3-0.8,2.1-0.8
		c1.1-0.1,1.8,0.3,2,1.3c0.1,0.5,0,0.7-0.6,0.8c-1.1,0.1-2.1,0.1-3.1,0.7c-1,0.5-1.2,1.4-1.2,2.4c0.1,0.9,0.6,1.5,1.5,1.8
		c1.4,0.4,2.5,0,3.4-1.2c0,0.2,0,0.3,0,0.4c0,0.4-0.1,0.8,0.6,0.8c0.7,0,0.6-0.4,0.6-0.8C121.3,84.3,121.3,82.8,121.3,81.3z
		 M120,83.4c0,1.4-1,2.3-2.2,2.3c-0.7,0-1.3-0.3-1.4-1.1c-0.1-0.8,0.2-1.3,1-1.5c0.7-0.2,1.5-0.3,2.2-0.4
		C120.1,82.6,120.1,82.7,120,83.4z"/>
	<path d="M158.4,81.4c0-1.9-1-2.9-2.9-2.8c-0.5,0-0.9,0.1-1.4,0.2c-1.2,0.3-1.2,0.3-1.1,1.6c0.7-0.4,1.5-0.8,2.3-0.9
		c1,0,1.5,0.4,1.7,1.3c0.1,0.5,0,0.7-0.6,0.8c-0.9,0.1-1.9,0.2-2.8,0.5c-1.2,0.5-1.7,1.5-1.4,2.8c0.2,1,1.1,1.6,2.2,1.7
		c1.1,0.1,1.9-0.4,2.6-1.3c0,0.2,0,0.3,0,0.4c0,0.5-0.1,0.8,0.6,0.8c0.7,0,0.6-0.4,0.6-0.8C158.4,84.3,158.5,82.8,158.4,81.4z
		 M157.2,83.3c0,1.4-0.9,2.4-2.1,2.4c-0.8,0-1.4-0.5-1.5-1.1c-0.1-0.8,0.2-1.4,1-1.5c0.6-0.1,1.2-0.2,1.9-0.3
		C157.1,82.6,157.4,82.7,157.2,83.3z"/>
	<path d="M134.3,81.2c0-1.8-1-2.7-2.8-2.7c-0.5,0-1,0.1-1.4,0.2c-0.8,0.2-1.5,0.5-1.1,1.7c0.7-0.5,1.5-0.8,2.3-0.8
		c1,0,1.5,0.4,1.7,1.4c0.1,0.5,0,0.7-0.5,0.7c-1,0.1-2,0.2-2.9,0.5c-1.1,0.5-1.6,1.5-1.4,2.8c0.2,1,1,1.7,2.2,1.7
		c1.1,0.1,1.9-0.4,2.6-1.4c0,0.3,0,0.4,0,0.5c-0.1,0.5,0.1,0.7,0.7,0.7c0.7,0,0.6-0.4,0.6-0.8C134.3,84.3,134.3,82.8,134.3,81.2z
		 M133.1,83.3c0,1.5-1.1,2.6-2.4,2.4c-0.7-0.1-1.2-0.4-1.2-1.2c0-0.7,0.2-1.2,1-1.4c0.8-0.2,1.5-0.3,2.3-0.4
		C133.3,82.6,133,83.1,133.1,83.3z"/>
</g>
</svg>
