<?xml version="1.0" encoding="utf-8"?>
<!-- Generator: Adobe Illustrator 22.0.1, SVG Export Plug-In . SVG Version: 6.00 Build 0)  -->
<svg version="1.1" id="Capa_1" xmlns="http://www.w3.org/2000/svg" xmlns:xlink="http://www.w3.org/1999/xlink" x="0px" y="0px"
	 viewBox="0 0 403.4 128.8" style="enable-background:new 0 0 403.4 128.8;" xml:space="preserve">
<style type="text/css">
	.st0{clip-path:url(#SVGID_2_);fill:url(#SVGID_3_);}
	.st1{fill:#A4D5F4;}
	.st2{fill:url(#SVGID_4_);}
	.st3{fill:#D3D11A;}
	.st4{fill:url(#SVGID_5_);}
	.st5{fill:#05AA70;}
	.st6{fill:url(#SVGID_6_);}
	.st7{fill:url(#SVGID_9_);}
	.st8{fill:url(#SVGID_10_);}
	.st9{fill:#8AC05C;}
	.st10{fill:url(#SVGID_13_);}
	.st11{fill:#65C3F0;}
	.st12{fill:#CCD744;}
	.st13{fill:#9BC327;}
	.st14{fill:url(#SVGID_14_);}
	.st15{fill:#00AEDA;}
	.st16{fill:#75BB6A;}
	.st17{fill:#23AB6E;}
	.st18{fill:#009679;}
	.st19{clip-path:url(#SVGID_16_);fill:url(#SVGID_17_);}
	.st20{fill:url(#SVGID_18_);}
	.st21{fill:url(#SVGID_19_);}
	.st22{fill:url(#SVGID_20_);}
	.st23{fill:url(#SVGID_23_);}
	.st24{fill:url(#SVGID_24_);}
	.st25{fill:url(#SVGID_27_);}
	.st26{fill:url(#SVGID_28_);}
	.st27{fill:#3D3E3E;}
	.st28{fill:#0168AB;}
	.st29{fill:#1A81C2;}
	.st30{fill:#679D3E;}
	.st31{fill:#29AFA4;}
	.st32{fill:#5E5E5E;}
	.st33{fill:#BA4F2E;}
	.st34{fill:#067EC2;}
	.st35{fill:#087DC1;}
	.st36{fill:#E73539;}
	.st37{fill:#066EB6;}
	.st38{fill:#54B14B;}
	.st39{fill:#939494;}
	.st40{fill:#80807C;}
	.st41{fill:#010202;}
	.st42{fill:#616160;}
	.st43{fill:#9D9D9C;}
	.st44{fill:#131214;}
</style>
<g>
	<path class="st39" d="M165.7,79.1c-1.2-0.4-1.7,0-1.7,1.2c0,0.3,0,0.6,0,0.9c0,0.3,0,0.7,0,1c-0.2,1.2,0.4,1.3,1.4,1.2
		c1-0.2,1.3-0.8,1.4-1.7C166.8,80.6,166.9,79.5,165.7,79.1"/>
	<path class="st39" d="M188.3,68.8c-0.2,0.6-0.4,1-0.5,1.4c-0.1,0.3-0.4,0.6,0.1,0.8c0.3,0.1,0.7,0.1,1,0c0.5-0.2,0-0.6,0-0.8
		C188.8,69.8,188.6,69.4,188.3,68.8"/>
	<path class="st39" d="M219,69.2c0-0.9-0.6-1-1.3-1c-0.9-0.1-0.6,0.6-0.7,1c-0.1,0.6-0.1,1.1,0.8,1.1C218.5,70.2,219,70,219,69.2"/>
	<path class="st39" d="M212.7,68.3c-0.8-0.4-1.9-0.1-2.2,0.8c-0.2,0.4-0.2,0.9-0.3,1.3c0.1,0.5,0.1,0.9,0.2,1.3
		c0.4,1,1.4,1.3,2.3,0.8C214,71.8,214,69,212.7,68.3"/>
	<path class="st39" d="M186.5,51.8c1.5,0,3,0,4.5,0v-0.1c1.6,0,3.3,0,4.9,0c0.8,0,0.8-0.2,0.6-0.9c-0.8-2.2-3.1-3.9-5.4-3.9
		c-2.3,0-4.7,1.8-5.4,4C185.4,51.7,185.7,51.9,186.5,51.8"/>
	<path class="st39" d="M195.2,79c-0.9,0.4-0.9,1.2-0.9,2c0,1.3,0.2,1.9,0.8,2.2c0.7,0.4,1.4,0.3,2-0.3c0.6-0.6,0.6-2.9,0-3.5
		C196.6,78.8,195.9,78.6,195.2,79"/>
	<path class="st39" d="M237.7,83.4c-0.1-0.3-0.4-0.7-0.6-1c-0.2-0.4-0.4-0.8-1-0.6c-0.6,0.1-0.3,0.6-0.3,0.9c0,0.3,0,0.6,0,0.9
		c0,0.4,0,0.6-0.5,0.7c-0.5,0-0.7-0.1-0.7-0.6c0-1.7,0-3.3,0-5c0-0.2,0-0.4,0.1-0.4c0.9-0.3,1.9-0.2,2.9-0.1
		c0.7,0.1,1.2,0.5,1.4,1.3c0.1,0.6,0.1,1.2-0.3,1.5c-0.8,0.6-0.5,1.1-0.1,1.7c0.3,0.5,0.5,0.9,0.9,1.5
		C238.5,84.5,238.1,84.1,237.7,83.4 M234.1,71.4c0-0.8,0-1.7,0-2.5c0-1.8-0.3-1.6,1.7-1.6c3.6-0.1,3.7,2,3.4,4.3
		c-0.2,1.2-1.3,1.9-2.7,2C234.1,73.7,234.1,73.7,234.1,71.4 M231.6,80.6c0.3,0,0.5,0,0.8,0c0.4,0,0.5,0.2,0.5,0.6
		c0,0.3-0.3,0.4-0.5,0.4c-0.3,0-0.6,0-0.9,0c-0.8-0.1-0.8,0.4-0.8,0.9c0,0.6,0.1,0.9,0.9,0.9c0.5,0,1,0,1.5,0c0.3,0,0.5,0.2,0.5,0.5
		c0,0.3-0.2,0.4-0.5,0.4c-1,0-2.1,0-3.1,0c-0.5,0-0.5-0.3-0.5-0.7c0-0.8,0-1.7,0-2.5c0,0,0-0.1,0-0.1c0-3.2,0.2-3.4,3.5-2.9
		c0.3,0,0.6,0,0.6,0.5c0,0.4-0.2,0.5-0.6,0.5c-0.5,0-0.9,0-1.4,0c-0.6,0-0.9,0.1-0.9,0.7C230.7,80.4,231,80.6,231.6,80.6
		 M228.9,71.2v-0.7v-0.2c0-3.2,0-3.2,3.4-2.9c0.4,0,0.7,0,0.7,0.5c0,0.4-0.3,0.4-0.6,0.4c-0.4,0-0.9,0-1.3,0c-0.6,0-0.9,0.1-0.9,0.8
		c0,0.7,0.4,0.8,1,0.8c0.2,0,0.3,0,0.5,0c0.3,0,0.6,0,0.6,0.4c0,0.5-0.3,0.5-0.7,0.5c-0.5,0.1-1.2-0.4-1.4,0.4
		c-0.3,0.9,0.1,1.2,1.1,1.4c0.6,0.1,1.6-0.5,1.6,0.5c0,0.9-1,0.4-1.6,0.4C228.9,73.6,228.9,73.6,228.9,71.2 M228.1,79
		c-1-0.1-1.1,0.4-1.1,1.2c0,1,0,2.1,0,3.1c0,0.4,0.2,1-0.6,1c-0.9,0-0.6-0.6-0.7-1c0-0.5,0-1.1,0-1.6c0-0.5,0-1,0-1.5
		c0.1-0.8-0.2-1.2-1.1-1.1c-0.4,0.1-0.8,0-0.8-0.5c0-0.5,0.4-0.4,0.7-0.4c1.2,0,2.3,0,3.5,0c0.3,0,0.7-0.1,0.7,0.4
		C228.8,78.9,228.5,79,228.1,79 M223.5,73.3c-0.2-0.5,0.1-0.9,0.4-1.2c0.7-1,1.4-1.9,2.1-2.8c0.2-0.2,0.3-0.5,0.6-0.9
		c-0.8,0-1.3,0-1.9,0c-0.4,0-1,0.1-0.9-0.5c0-0.6,0.5-0.4,0.9-0.4c0.8,0,1.6,0,2.4,0c1.1,0,1.3,0.3,0.7,1.2
		c-0.8,1.1-1.6,2.2-2.3,3.3c-0.1,0.2-0.3,0.4-0.2,0.8c0.6,0,1.3,0,2,0c0.4,0,0.8,0,0.8,0.6c0,0.5-0.5,0.4-0.8,0.4
		c-0.9,0-1.7,0-2.6,0C224.3,73.5,223.8,73.8,223.5,73.3 M222.9,84.2c-0.5,0.1-0.9,0-1.2-0.5c-0.7-1.3-1.5-2.5-2.3-3.7
		c-0.1,0-0.2,0-0.2,0.1c0,1.1,0,2.1,0,3.2c0,0.4,0.2,0.9-0.5,1c-0.8,0-0.5-0.6-0.5-1c0-1.4,0-2.8,0-4.2c0-0.4-0.2-0.9,0.5-1
		c0.5,0,0.9,0,1.2,0.5c0.7,1.2,1.4,2.3,2.4,3.5c0-1,0-2,0-3c0-0.4-0.2-0.9,0.5-0.9c0.7,0,0.5,0.5,0.5,0.9c0,1.5,0,2.9,0,4.3
		C223.2,83.6,223.4,84.1,222.9,84.2 M217.4,71.1c-0.5,0.1-0.4,0.5-0.4,0.8c0,0.4,0,0.7,0,1.1c0,0.4-0.2,0.6-0.6,0.6
		c-0.4,0-0.6-0.2-0.6-0.6c0-1.7,0-3.3,0-5c0-0.2,0.1-0.5,0.2-0.5c1.1-0.2,2.1-0.2,3.2,0.1c0.7,0.2,1,0.7,1.1,1.4
		c0,0.3,0.1,0.8-0.1,0.9c-1.4,1.1-0.3,2,0.2,2.9c0.1,0.2,0.2,0.4,0.3,0.7c-0.8,0.3-1.3,0-1.7-0.7c-0.2-0.4-0.5-0.8-0.7-1.2
		C218.1,71.2,217.8,71,217.4,71.1 M215.1,80.6c0.2,0,0.4,0,0.6,0c0.4,0,0.7,0.1,0.7,0.5c0,0.5-0.4,0.4-0.7,0.5
		c-0.6,0.1-1.5-0.4-1.5,0.8c0,0.9,0.5,0.9,1.2,1c0.6,0.1,1.7-0.5,1.6,0.5c0,0.8-1.1,0.4-1.6,0.4c-2.4,0.1-2.4,0-2.4-2.3v-1.9
		c0-2,0-2,2.1-2c0.5,0,0.9,0,1.4,0c0.3,0,0.6,0.1,0.6,0.5c0,0.4-0.2,0.5-0.6,0.5c-0.5,0-0.9,0-1.4,0c-0.5,0-0.9,0.1-0.9,0.7
		C214.2,80.4,214.5,80.6,215.1,80.6 M211.6,84.2c-2.1,0.7-3.8-0.3-4.2-2.6c-0.4-2.5,1.4-4.2,3.9-3.7c0.4,0.1,0.9,0.1,0.8,0.7
		c-0.1,0.6-0.6,0.3-1,0.2c-1.7-0.2-2.4,0.4-2.4,2.1c0,1.9,0.7,2.5,2.7,2.2c0.2,0,0.6-0.4,0.7,0.1C212.2,83.9,212,84.1,211.6,84.2
		 M207,72.7c0-0.1,0-0.2,0-0.4c0-1.5-0.8-2-2.3-1.6c-0.6,0.2-0.3,0.7-0.5,1c-0.2,0.6,0.5,1.7-0.6,1.7c-1,0-0.4-1.1-0.5-1.7
		c-0.1-0.4,0-0.9,0-1.4c0-0.8,0-1.6,0-2.4c0-0.3,0-0.7,0.5-0.7c0.6,0,0.6,0.3,0.6,0.7c0,0.2,0,0.3,0,0.5c-0.2,1,0.2,1.3,1.3,1.3
		c1.2,0,1.6-0.3,1.5-1.5c0-0.4-0.3-1.1,0.6-1.1c1,0,0.6,0.7,0.7,1.2c0,1.4,0,2.8,0,4.2c0,0.4,0,0.8-0.6,0.9
		C206.9,73.6,207,73.2,207,72.7 M204.5,84.2c-0.5,0.1-0.9,0-1.2-0.5c-0.7-1.3-1.5-2.5-2.5-4.1c0,1.5,0,2.6,0,3.7
		c0,0.3,0.1,0.8-0.5,0.8c-0.7,0-0.6-0.5-0.6-0.9c0-1.5,0-2.9,0-4.4c0-0.4-0.2-0.9,0.4-1c0.6-0.1,1,0.1,1.3,0.6
		c0.6,1.1,1.3,2.1,1.9,3.2c0.1,0,0.2,0,0.3-0.1c0-1,0-2,0-2.9c0-0.4-0.1-0.8,0.5-0.8c0.7,0,0.7,0.4,0.7,0.8c0,1.5,0,3,0,4.5
		C204.9,83.7,205,84.1,204.5,84.2 M199.3,72.8c0-0.6,0-1.2,0-1.9c0-0.5,0-1,0-1.5c0.1-0.8,0-1.3-1.1-1.2c-0.3,0-0.7,0-0.7-0.5
		c0-0.5,0.4-0.5,0.7-0.5c1.2,0,2.3,0,3.5,0c0.3,0,0.6,0,0.6,0.4c0,0.4-0.3,0.5-0.6,0.5c-1.3-0.2-1.2,0.6-1.2,1.5c0,1,0,2.1,0,3.1
		c0,0.5-0.1,0.8-0.7,0.8C199.2,73.6,199.3,73.2,199.3,72.8 M195.9,84.4c-1.8,0-2.9-1.3-3-3.2c0-1.9,1.2-3.3,3-3.3
		c1.7,0,2.8,1.1,2.9,3.1C198.8,83.2,197.8,84.4,195.9,84.4 M191.8,71.9c-0.1-0.7,0-1.4,0-2.1h0c0-0.6,0-1.2,0-1.9
		c0-0.4,0.1-0.6,0.6-0.7c0.5,0,0.7,0.2,0.7,0.7c0,1.1,0,2.2,0,3.3c0,0.9,0.3,1.5,1.3,1.5c1,0,1.3-0.6,1.3-1.5c0-1.1,0-2.2,0-3.2
		c0-0.4,0-0.8,0.6-0.8c0.5,0,0.5,0.4,0.5,0.7c0,1.2,0,2.5,0,3.7c-0.1,1.3-0.8,1.9-2.3,2C193,73.8,192,73.1,191.8,71.9 M191.4,84.3
		c-0.5,0-0.6-0.3-0.6-0.7c0-1.6,0-3.2,0-4.8c0-0.5,0.2-0.7,0.7-0.7c0.6,0,0.6,0.3,0.6,0.7c0,0.8,0,1.6,0,2.5c0,0.7,0,1.5,0,2.2
		C192.1,83.9,192,84.3,191.4,84.3 M189.9,73.1c-0.2-1-0.8-1.1-1.7-1.1c-0.7,0-1.2,0.2-1.4,0.9c-0.1,0.5-0.5,0.8-1,0.6
		c-0.5-0.2-0.1-0.7,0-0.9c0.5-1.5,1.1-3,1.7-4.5c0.1-0.4,0.3-0.7,0.9-0.7c0.5,0,0.7,0.3,0.9,0.7c0.6,1.7,1.3,3.4,1.9,5.1
		c0.1,0.2,0,0.4-0.3,0.4C190.5,73.6,190,73.6,189.9,73.1 M189.3,79c-1-0.1-1.2,0.4-1.2,1.2c0.1,1.1,0,2.2,0,3.3
		c0,0.4-0.1,0.7-0.6,0.7c-0.5,0-0.6-0.3-0.6-0.7c0-0.7,0-1.3,0-2c0-0.5,0-1,0-1.5c0.1-0.8-0.1-1.2-1-1.1c-0.4,0-0.7,0-0.7-0.5
		c0-0.5,0.4-0.5,0.7-0.5c1.2,0,2.3,0,3.5,0c0.3,0,0.6,0,0.6,0.4C190,78.9,189.7,79.1,189.3,79 M184.1,83.6c-0.2-0.9-0.8-0.9-1.4-0.8
		c-0.6,0-1.3-0.1-1.5,0.8c-0.1,0.5-0.3,0.9-1,0.7c-0.6-0.3-0.1-0.7,0-1c0.5-1.5,1-2.9,1.6-4.3c0.2-0.4,0.3-0.8,0.9-0.8
		c0.6,0,0.8,0.4,0.9,0.8c0.6,1.7,1.3,3.5,1.9,5.3C184.8,84.4,184.2,84.3,184.1,83.6 M172.8,60.3c-3.1-0.5-5.1-2.3-6.1-5.1
		c-1.2-3.3,0.1-6.9,2.9-8.8c3-2,6.7-1.9,9.5,0.4c1.8,1.4,2.6,3.2,2.8,5.4c0.1,1.1-0.3,1.6-1.5,1.6c-1.8,0-3.6,0-5.4,0
		c-1.8,0-3.6,0-5.4,0c-1,0-1.2,0.2-0.8,1.1c1.7,4,6.7,4.8,9.6,1.6c0.5-0.6,1.1-1,1.8-0.5c0.7,0.6,0.3,1.3-0.2,1.8
		C178.1,59.8,175.6,60.8,172.8,60.3 M178.9,84.2c-2.3,0.8-4.1-0.6-4.1-3.1c0-2.4,1.6-3.7,3.9-3.2c0.4,0.1,0.8,0.1,0.8,0.6
		c-0.1,0.6-0.6,0.4-0.9,0.3c-0.9-0.2-1.7-0.1-2.1,0.7c-0.6,1-0.6,2.1,0.1,3.1c0.5,0.8,1.3,0.9,2.2,0.6c0.3-0.1,0.7-0.3,0.9,0.2
		C179.7,84,179.3,84.1,178.9,84.2 M174,80.5c0,0.4,0,0.8,0,1.2c0,1.8-0.8,2.7-2.4,2.7c-1.8,0-2.6-0.8-2.7-2.7c0-1,0-2,0-3
		c0-0.4,0.1-0.7,0.6-0.7c0.5,0,0.6,0.3,0.6,0.7c0,1.1,0,2.1,0,3.2c0,0.9,0.3,1.5,1.4,1.5c1,0,1.3-0.7,1.3-1.5c0-1.1,0-2.1,0-3.2
		c0-0.4,0-0.7,0.6-0.7c0.6,0,0.6,0.3,0.6,0.7C174,79.3,174,79.9,174,80.5 M163.3,84.2c-0.5-0.1-0.4-0.4-0.4-0.8c0-0.8,0-1.6,0-2.4
		c0-0.3-0.1-0.6,0-0.9c0.3-0.7-0.8-2,0.7-2.2c2.6-0.4,4.1,0.4,4.4,2.1C168.6,83.1,166.3,85.1,163.3,84.2 M159.7,80.6
		c0.3,0,0.5,0,0.8,0c0.4,0,0.6,0.1,0.6,0.5c0,0.4-0.3,0.4-0.6,0.5c-0.5,0.1-1.2-0.3-1.5,0.4c-0.4,0.8,0.1,1.4,1,1.5
		c0.6,0.1,1.7-0.4,1.7,0.5c0,0.9-1.1,0.4-1.7,0.4c-2.3,0.1-2.3,0-2.3-2.3v-0.9V81c0-3.2,0-3.2,3.4-2.9c0.3,0,0.7,0,0.7,0.5
		c0,0.5-0.4,0.5-0.7,0.5c-0.4,0-0.9,0-1.3,0c-0.5,0-0.8,0.2-0.8,0.7C158.9,80.3,159.1,80.6,159.7,80.6 M155.4,58.7
		c-2.1-3.9-4.2-7.7-6.4-11.6c-0.4-0.6-0.5-1.3,0.3-1.7c0.8-0.4,1.3,0.1,1.6,0.8c1.9,3.6,3.9,7.3,5.9,10.9c0.2,0.4,0.3,1.1,0.9,1.1
		c0.6,0,0.7-0.6,0.9-1.1c1.9-3.6,3.8-7.1,5.7-10.7c0.4-0.7,0.8-1.4,1.7-1c1,0.5,0.6,1.3,0.2,1.9c-2.1,3.8-4.1,7.5-6.2,11.3
		c-0.5,1-1.3,1.5-2.4,1.5C156.7,60.2,155.9,59.6,155.4,58.7 M186.3,46.6c2.6-1.9,5.5-2.2,8.5-0.7c2.6,1.3,3.9,3.5,4.2,6.3
		c0.1,1.1-0.3,1.6-1.5,1.6c-1.8-0.1-3.6,0-5.4,0c-1.8,0-3.7,0-5.5,0c-0.9,0-1,0.3-0.7,1c1.4,3.8,6.3,4.9,9.2,2.1
		c0.2-0.2,0.4-0.3,0.5-0.5c0.5-0.6,1.1-0.9,1.8-0.3c0.6,0.6,0.4,1.2-0.2,1.8c-2,2.2-4.6,3.2-7.6,2.5c-3.3-0.7-5.4-2.8-6.1-6
		C182.8,51.2,183.7,48.5,186.3,46.6 M215,70.4c0,2-1.2,3.3-3.1,3.3c-1.8,0-2.9-1.2-2.9-3.3c0-2.1,1.1-3.3,3-3.3
		C213.8,67.2,215,68.5,215,70.4 M209.5,46.7c2.1,3.8,4.2,7.7,6.3,11.5c0.4,0.7,0.5,1.4-0.3,1.8c-0.8,0.4-1.2-0.2-1.6-0.8
		c-2-3.7-3.9-7.4-5.9-11c-0.2-0.4-0.3-0.9-0.8-0.9c-0.6,0-0.7,0.6-0.9,0.9c-0.9,1.7-1.7,3.3-2.6,5c-0.6,1-0.1,1.1,0.8,1.1
		c1.6,0,3.2,0,4.8,0c0.6,0,1.2,0.2,1.3,0.9c0.1,0.7-0.3,1.1-1,1.1c-1.2,0-2.3,0-3.5,0c-0.1,0-0.2,0-0.3,0c-2.7-0.5-4.5,0.3-5.3,3
		c-0.2,0.7-0.8,1.3-1.7,0.8c-0.8-0.4-0.6-1.1-0.2-1.7c2.1-3.8,4.1-7.7,6.3-11.5C206,44.7,208.4,44.6,209.5,46.7 M222.7,72.9
		c0,0.5-0.2,0.7-0.7,0.6c-0.5,0-0.6-0.3-0.6-0.6c0-1.7,0-3.3,0-5c0-0.4,0.1-0.6,0.6-0.7c0.5,0,0.7,0.2,0.7,0.6c0,0.8,0,1.6,0,2.5
		C222.7,71.3,222.7,72.1,222.7,72.9 M217.4,47.4c0.1-1.1,0.6-1.9,1.8-2.1c1.2-0.2,2,0.4,2.5,1.4c1.8,3.4,3.6,6.8,5.4,10.1
		c0.3,0.5,0.4,1.1,1.2,1.2c0.8,0,1-0.7,1.3-1.2c1.8-3.3,3.5-6.6,5.3-9.9c0.4-0.8,1-1.5,2-1.6c1.4-0.1,2.3,0.7,2.3,2.2
		c0,3.8,0,7.5,0,11.3c0,0.7-0.1,1.4-1,1.4c-0.9,0-1.1-0.7-1.1-1.4c0-3.4,0-6.7,0-10.1v-1.2c-0.1,0-0.1,0-0.2,0
		c-1.4,2.6-2.8,5.2-4.2,7.8c-0.5,1-1.1,2-1.6,3c-0.6,1.1-1.5,1.7-2.9,1.7c-1.3,0-2.2-0.6-2.8-1.7c-1.6-3.1-3.3-6.2-4.9-9.3
		c-0.3-0.5-0.5-1-1-1.5c0,3,0,6,0,9c0,0.9,0,1.7,0,2.6c0,0.6-0.4,1-1,1c-0.6,0-1-0.3-1.1-0.9c-0.1-0.4-0.1-0.7-0.1-1.1
		c0-3.3,0-6.6,0-9.9C217.4,47.9,217.4,47.6,217.4,47.4 M246.7,27.9c-35.1,0-70.2,0-105.4,0c-1.9,0-3.7,0.3-5.4,1.1
		c-5.5,2.5-7.8,6.9-7.8,12.6c0,15.3,0,30.6,0,46c0,1,0.1,2.1,0.3,3.1c1.3,6.1,6.5,10.2,13,10.2c17.5,0,35.1,0,52.6,0
		c17.5,0,35.1,0,52.6,0c7.4,0,13.2-5.5,13.2-12.7c0-15.9,0-31.7,0-47.6C259.9,33.4,254.2,27.9,246.7,27.9"/>
	<path class="st39" d="M235.7,72.5c0.6,0.2,1.4,0.2,1.9-0.4c0.5-0.5,0.4-1.1,0.5-1.8c0-0.3,0-0.5-0.1-0.8c-0.2-1-0.9-1.3-1.9-1.3
		c-1.1,0-0.7,0.8-0.7,1.3c-0.1,0.6-0.1,1.2,0,1.7C235.4,71.8,235.1,72.4,235.7,72.5"/>
	<path class="st39" d="M169.4,51.8c1.5,0,3.1,0,4.6,0c1.6,0,3.2,0,4.8,0c0.7,0,0.9-0.2,0.6-0.9c-0.8-2.2-3.1-3.9-5.3-3.9
		c-2.4,0-4.6,1.6-5.5,3.9C168.5,51.6,168.7,51.8,169.4,51.8"/>
	<path class="st39" d="M236.5,78.9c-0.9-0.1-0.6,0.6-0.7,1c0.1,0.5-0.2,1.2,0.8,1.1c0.7-0.1,1.3-0.4,1.3-1.1
		C237.9,79,237.2,78.9,236.5,78.9"/>
	<path class="st39" d="M182.1,81.7c0.1,0.1,0.8,0.1,0.9,0c0.5-0.7-0.3-1.3-0.5-2C182.4,80.5,181.6,81,182.1,81.7"/>
</g>
</svg>
