<?xml version="1.0" encoding="utf-8"?>
<!-- Generator: Adobe Illustrator 22.0.1, SVG Export Plug-In . SVG Version: 6.00 Build 0)  -->
<svg version="1.1" id="Capa_1" xmlns="http://www.w3.org/2000/svg" xmlns:xlink="http://www.w3.org/1999/xlink" x="0px" y="0px"
	 viewBox="0 0 403.4 128.8" style="enable-background:new 0 0 403.4 128.8;" xml:space="preserve">
<style type="text/css">
	.st0{clip-path:url(#SVGID_2_);fill:url(#SVGID_3_);}
	.st1{fill:#A4D5F4;}
	.st2{fill:url(#SVGID_4_);}
	.st3{fill:#D3D11A;}
	.st4{fill:url(#SVGID_5_);}
	.st5{fill:#05AA70;}
	.st6{fill:url(#SVGID_6_);}
	.st7{fill:url(#SVGID_9_);}
	.st8{fill:url(#SVGID_10_);}
	.st9{fill:#8AC05C;}
	.st10{fill:url(#SVGID_13_);}
	.st11{fill:#65C3F0;}
	.st12{fill:#CCD744;}
	.st13{fill:#9BC327;}
	.st14{fill:url(#SVGID_14_);}
	.st15{fill:#00AEDA;}
	.st16{fill:#75BB6A;}
	.st17{fill:#23AB6E;}
	.st18{fill:#009679;}
	.st19{clip-path:url(#SVGID_16_);fill:url(#SVGID_17_);}
	.st20{fill:url(#SVGID_18_);}
	.st21{fill:url(#SVGID_19_);}
	.st22{fill:url(#SVGID_20_);}
	.st23{fill:url(#SVGID_23_);}
	.st24{fill:url(#SVGID_24_);}
	.st25{fill:url(#SVGID_27_);}
	.st26{fill:url(#SVGID_28_);}
	.st27{fill:#3D3E3E;}
	.st28{fill:#0168AB;}
	.st29{fill:#1A81C2;}
	.st30{fill:#679D3E;}
	.st31{fill:#29AFA4;}
	.st32{fill:#5E5E5E;}
	.st33{fill:#BA4F2E;}
	.st34{fill:#067EC2;}
	.st35{fill:#087DC1;}
	.st36{fill:#E73539;}
	.st37{fill:#066EB6;}
	.st38{fill:#54B14B;}
	.st39{fill:#939494;}
	.st40{fill:#80807C;}
	.st41{fill:#010202;}
	.st42{fill:#616160;}
	.st43{fill:#9D9D9C;}
	.st44{fill:#131214;}
</style>
<path class="st34" d="M138.6,92.1c-0.1,1-0.5,1.9-1.1,2.8l-0.5,0.2l-0.2-0.5c0.1-1.1,0.5-2,1.1-2.8l0.5-0.3L138.6,92.1z"/>
<path class="st34" d="M152.8,91.7c-0.2,0.9-0.7,1.6-1.2,2.3c-0.3,0.4-0.9,1.1-1.2,0.9c-0.4-0.3,0.2-0.9,0.4-1.4
	c0.4-0.7,0.9-1.4,1.5-1.9l0.4-0.1L152.8,91.7z"/>
<path class="st34" d="M157.8,91.4c0,0.8-0.2,1.1-1,1.6C156.9,92.3,157.2,91.8,157.8,91.4"/>
<path class="st34" d="M132.2,81.6c0.4-1.4,1.1-2.5,2.2-3.4l0.4,0.2C134.7,79.3,133.4,81.3,132.2,81.6"/>
<path class="st34" d="M137.5,71.4l-0.8-0.2c-0.4-0.1-0.6-0.4-0.4-0.9c0.2-0.4,0.5-0.6,1-0.5l0.6,0.3c0.3,0.2,0.7,0.4,0.5,0.8
	C138.2,71.4,137.8,71.4,137.5,71.4"/>
<path class="st34" d="M138.4,64.7l0.2,0.3c-0.2,0.7-0.4,1.4-1,2l-0.4-0.1c-0.1-0.4,0.6-1.9,1-2.1L138.4,64.7z"/>
<path class="st34" d="M152.7,66.2c0.1-0.5,0.3-0.9,0.6-1.2l0.4-0.2l0,0.6C153.5,65.8,153.2,66,152.7,66.2"/>
<path class="st34" d="M129.8,62.6c0,1.1-0.6,1.9-1.5,2.2c-0.6,0.1-0.8,0-0.6-0.6c0.2-0.6,0.3-1.1,0.5-1.7c0.1-0.4,0.2-0.9,0.9-0.8
	C129.7,61.9,129.8,62.3,129.8,62.6"/>
<path class="st34" d="M165.3,68.2c0.3-1.4,1-2.5,2-3.4l0.3-0.1l0.1,0.4C167.3,66.5,166.5,67.5,165.3,68.2"/>
<path class="st34" d="M148.8,81.3c0.1-1.2,0.6-2.2,1.5-3l0.5-0.1l0.1,0.5C150.3,79.8,149.8,80.7,148.8,81.3"/>
<path class="st34" d="M163.2,78.8c-0.1,1-0.5,1.9-1.2,2.8l-0.5,0.2l-0.2-0.5c0.1-1,0.5-2,1.2-2.8l0.5-0.3L163.2,78.8z"/>
<path class="st34" d="M161.3,66.3c0.2-0.6,0.4-1,0.7-1.3l0.4-0.2v0.5C162.2,65.7,161.9,66,161.3,66.3"/>
<path class="st34" d="M133.2,66.3c0.1-0.6,0.4-1,0.7-1.4l0.3-0.1l0,0.3C134.1,65.7,133.8,66,133.2,66.3"/>
<path class="st34" d="M155.8,99.2h-34.3c-1.1,0-1.1,0-1.1-1.1c0-5,0-10.1,0-15.1c-0.2-18.2,0-36.3-0.1-54.5c0-1,0-1,1.1-1
	c4.2,0,8.4-0.1,12.6,0c3.3,0.1,6.4,1.1,8.4,4c1.5,2.1,1.9,4.5,1.7,7.1c-0.1,1.5-0.5,2.9-1.2,4.2c-1.5,2.4-3.7,3.6-6.4,3.9
	c-1.4,0.1-2.9,0-4.4,0.1c-0.5,0-0.7-0.2-0.7-0.7c0-1.8,0-3.6,0-5.4c0-0.5,0.1-0.7,0.7-0.8c1.1-0.1,2.1-0.4,2.5-1.7
	c0.5-1.6-0.3-2.9-1.9-3.1c-0.7-0.1-1.4-0.1-2.1-0.1c-0.5,0-0.8,0.2-0.8,0.8c0,1.3,0,2.6,0,3.9v15.4c0,1.1,0,1.1,1.1,1.1h48.1
	c1,0,1,0,1,1c0,3.1,0,6.1,0,9.2c0,0.6,0.2,0.8,0.8,0.8c3.2,0,6.3,0,9.5,0c0.7,0,1,0.2,0.9,0.9c0,3.7,0,7.4,0,11.1
	c0,6.4,0.1,12.8,0.1,19.3c0,0.7-0.2,0.9-0.9,0.9C178.9,99.2,167.3,99.2,155.8,99.2 M131,91.6l-0.1,0.7l0.7-0.2l0.5-0.2
	c-0.3,1-0.7,2-1,3c-0.1,0.4-0.3,0.8,0.2,1c0.5,0.2,0.9,0.1,1.2-0.5c0.3-0.6,0.5-1.3,0.9-1.9c0.3-0.5,0.5-1.1,0.9-1.5
	c0.2,0.3,0.2,0.8,0.7,0.7c0.5-0.1,0.7-0.5,0.8-1c0.1-0.4,0-0.7-0.3-1l-1.1,0.1c-0.4,0.3-0.6,0.7-1,1.2c0.2-0.5,0.3-0.9,0-1.2
	l-1.1-0.1l-0.8,0.5c0.7-1.6,0.3-2.8-1.2-3.3c-1.3-0.4-2.7-0.3-4-0.1l-0.4,0.3l0.2,0.4c0.5,0.2,0.5,0.5,0.3,0.9
	c-0.5,1.6-1,3.2-1.5,4.8c-0.2,0.5-0.3,0.9-1,1l-0.3,0.4l0.4,0.3h3.1l0.4-0.3l-0.3-0.3c-0.7-0.1-0.6-0.5-0.4-0.9
	c0.5-1.7,1.1-3.3,1.6-5c0.1-0.4,0.2-0.8,0.7-0.7c0.5,0.1,0.7,0.5,0.8,1c0.1,1.2-0.4,1.9-1.6,2.4l-0.4,0.4l0.5,0.2
	C129.3,92.5,130.3,92.4,131,91.6 M131.3,68.6c-1-0.3-1.2-1.2-1.4-2.1c-0.2-1.1-0.2-1.1,0.8-1.7c0.8-0.4,1.2-1.1,1.1-2
	c-0.1-0.8-0.5-1.3-1.2-1.6c-1.4-0.5-2.9-0.3-4.4-0.3l-0.4,0.3l0.2,0.4c0.5,0.2,0.4,0.5,0.3,0.9c-0.5,1.6-1,3.2-1.5,4.8
	c-0.2,0.5-0.4,0.9-1,1l-0.3,0.4l0.4,0.3c1,0,2.1,0,3.1,0l0.4-0.3l-0.2-0.4c-0.6-0.1-0.6-0.5-0.4-1c0.1-0.4,0.3-0.9,0.4-1.3l0.5-0.6
	c0.4,0,0.4,0.4,0.5,0.6c0.1,0.6,0.2,1.2,0.4,1.8c0.2,0.6,0.6,1,1.2,1C130.2,69.1,131,69.4,131.3,68.6c0.5,0.7,1.2,0.7,1.9,0.5
	c0.8-0.2,1.4-0.6,1.9-1.3l-0.1-0.4l-0.4,0l-0.8,0.5c-0.3,0.1-0.7,0.3-0.8-0.2c-0.1-0.4,0-0.7,0.5-0.9c0.7-0.2,1.3-0.4,1.9-0.9
	c0.5-0.4,0.8-0.8,0.5-1.5c-0.2-0.6-0.9-0.8-1.6-0.7c-1.5,0.3-2.9,1.7-3.1,3.2C131.1,67.6,131,68.2,131.3,68.6 M145.6,91.9
	c-0.1-0.7-0.1-1.3-0.9-1.2c-0.8,0.1-0.7,0.7-0.7,1.2c0.1,1-0.2,1.8-0.9,2.5l-0.6,0.3l0-0.7c0.3-0.8,0.6-1.6,0.8-2.4
	c0.2-0.6-0.1-0.9-0.7-1c-0.4,0-0.8,0.1-1.2,0.3c-0.5,0.2-0.8,0.7-1.2,1.1c-0.3-0.9-0.8-1.3-1.8-1.4c-1.5-0.1-3.2,1.4-3.3,3.5
	c0,1.1,0.7,1.8,1.8,1.8c1.4,0.1,2.9-1,3.1-2.5c0.2-0.9,0.8-1,1.5-1.5c-0.3,1-0.7,1.8-0.9,2.6c-0.3,1.1,0.4,1.7,1.4,1.4
	c1.2-0.4,2.1-1.2,2.7-2.3c0.4-0.8,1-1.3,1.9-1.5c-0.4,0.9-0.7,1.8-1.1,2.7l0,0.9l1,0.2c0.8-0.2,1.4-0.7,2-1.2c0,0.6,0.1,1.1,0.7,1.2
	c1.1,0.2,1.8-0.5,2.5-1.2c-0.2,1.2,0.2,1.5,1.3,1.1c0.5-0.2,1-0.6,1.4-1c0.5,1,0.8,1.2,1.7,1.2c1-0.1,1.8-0.5,2.4-1.4l-0.1-0.5
	l-0.4,0.1l-0.7,0.5c-0.3,0.1-0.7,0.4-0.9-0.1c-0.2-0.5,0-0.8,0.5-0.9c0.8-0.2,1.5-0.5,2.1-1.1c0.4-0.3,0.8-0.5,1.3-0.8
	c-0.4,1.2-0.7,2.2-1.1,3.2c-0.1,0.4-0.3,0.8,0.3,0.9c0.5,0.1,0.9,0.1,1.1-0.4c0.2-0.5,0.4-1.1,0.7-1.6c0.3-0.6,0.6-1.4,1.2-1.9
	c0.2,0.3,0.2,0.8,0.7,0.7c0.4-0.1,0.6-0.5,0.7-0.9c0.1-0.4,0.1-0.8-0.3-1l-1.1,0.2l-0.9,0.7c0.1-0.8-0.3-1.1-1.1-0.9l-0.8,0.4
	c-0.2,0.2-0.4,0.4-0.6,0c-0.2-0.4-0.6-0.4-1-0.4c-1.5,0-2.9,1-3.4,2.8c-0.2,0.7-0.7,1-1.3,1.3l0.2-0.8c0.7-2.1,1.4-4.1,2-6.1
	c0.2-0.6,0.1-0.8-0.6-0.7c-0.5,0-0.9,0.2-1.4,0.3c-0.4,0.1-0.6,0.3-0.2,0.7l0.2,0.6c-0.2,0.6-0.4,1.1-0.6,1.7l-0.4,0.3
	c-1.9-0.1-3,0.9-3.8,2.5c-0.4,0.8-1,1.1-1.7,1.5c0.4-1,0.8-1.9,1.1-2.7c0.2-0.4,0.4-0.8,0-1.1c-0.4-0.3-0.8-0.2-1.2-0.1
	C146.7,91,146.2,91.5,145.6,91.9 M135.5,81.3c0.7-2,1.3-3.9,1.9-5.9c0.2-0.5,0.7-1.3,0.4-1.6c-0.5-0.4-1.3,0-2,0.1l-0.1,0l-0.2,0.6
	l0.2,0.9c-0.2,0.5-0.3,1-0.5,1.4l-0.4,0.3c-1.7-0.2-2.7,0.8-3.6,2c-0.3,0.4-0.3,1.1-1,0.9l-0.4,0.3c-0.6,0.9-1.5,1.1-2.6,1
	c-0.4,0-0.7-0.2-0.5-0.7c0.2-0.6,0.4-1.3,0.6-1.9c0.2-0.6,0.6-0.4,1-0.4c0.3,0,0.7,0.1,0.6,0.6l0.3,0.4l0.5-0.4
	c0.1-0.5,0.3-1,0.4-1.4c0.1-0.3,0.5-0.8,0-1c-0.4-0.2-0.5,0.3-0.7,0.6l-1.5,0.3l0.1-0.9l0.3-0.9c0.3-0.9,0.3-0.9,1.7-0.8
	c0.6,0,0.8,0.4,0.8,0.9l0.3,0.4l0.5-0.4c0.1-0.4,0.3-0.9,0.4-1.3c0.1-0.4,0-0.5-0.4-0.5c-0.7,0-1.3,0-2,0h-3.2l-0.5,0.3l0.3,0.4
	c0.4,0.1,0.4,0.4,0.3,0.7c-0.6,1.8-1.1,3.6-1.7,5.4l-0.7,0.6c-0.3,0.1-0.7,0-0.6,0.5c0.1,0.4,0.5,0.2,0.7,0.3c1.4,0,2.8-0.1,4.2,0
	c1.2,0.1,1.9-0.3,2.2-1.4l0.1-0.1c0,0.6-0.1,1.3,0.6,1.5c1.1,0.3,1.9-0.4,2.6-1.2c0,0.5-0.3,1.2,0.6,1.3c0.7,0.1,2.1-0.8,2.3-1.4
	l0-0.5l-0.4,0.1C136.2,81,136,81.3,135.5,81.3 M142.2,67.9c0.2-0.6,0.4-1,0.6-1.5c0.2-0.5,0.4-1,0.6-1.5c0.3-0.7-0.1-1.2-0.9-1
	l-1,0.4l-0.5,0c-0.2-0.4-0.5-0.4-0.9-0.3l-1,0c-0.6-0.2-1.1-0.1-1.7,0c-1.3,0.4-2.2,2-1.7,3c0.3,0.6,0.4,1,0.3,1.7
	c-0.1,0.7-0.4,0.8-0.8,1.1c-0.5,0.3-0.9,0.7-0.8,1.3c0.1,0.6,0.6,0.8,1.1,1c1.2,0.3,2.3,0.2,3.4-0.3c1.2-0.5,1.3-1.8,0.2-2.5
	c-0.4-0.3-0.8-0.5-1.2-0.7l-0.5-0.4l0.6-0.3c1.2-0.3,1.8-1.1,2-2.2l0.2-0.5c0.2,1.2,0.8,0.2,1.3,0.2c-0.4,1-0.8,1.9-1.2,2.8
	c-0.3,0.7,0.1,1.2,0.9,1.1c0.7-0.1,1.2-0.5,1.8-0.9c0.2,0.6,0.6,0.9,1.1,1c0.8,0.1,1.9-0.4,2.3-1.2c0.4-0.7,0.2-1.4-0.5-2.1
	l-0.6-0.9l0.9,0.4l0.6,0.1l0.4-0.6c0-0.5-0.2-0.9-0.7-1.1c-1.1-0.4-2.5,0.5-2.6,1.7c-0.1,0.8,0.4,1.3,0.9,1.8l0.2,0.7l-0.7-0.2
	l-0.8-0.5C143.1,67.1,142.8,67.7,142.2,67.9 M158.6,65.2c0.3,0.3,0.3,0.8,0.8,0.7c0.5-0.1,0.6-0.5,0.7-0.9c0.1-0.4,0.1-0.8-0.3-1
	l-1,0.1c-0.4,0.2-0.6,0.6-0.9,0.9c-0.1-1.1-0.6-1.4-1.6-0.9l-0.5,0.3l-0.6,0c-0.4-0.5-0.9-0.6-1.5-0.5c-1.5,0.3-2.4,1.3-2.9,2.7
	l-0.2,0.5c-0.7-0.2-0.9,0.7-1.6,0.8c0.3-0.8,0.6-1.5,0.8-2.2c0.2-0.6,0.4-0.9,1-0.8l0.6-0.5L151,64c-0.3,0-0.6-0.1-0.4-0.5
	c0.1-0.3,0.2-0.6-0.2-0.7l-0.9,0.3c-0.4,0.6-0.8,1-1.5,1.1l-0.4,0.4l0.4,0.3c0.5,0,0.4,0.3,0.3,0.6c-0.3,0.8-0.5,1.5-0.8,2.3
	c-0.1,0.4-0.4,0.8,0.1,1.2c0.4,0.4,0.9,0.2,1.3,0c0.7-0.2,1.2-0.7,1.8-1.3c0.1,0.6,0.2,1,0.7,1.3c0.9,0.5,3-0.2,3.4-1.2l-0.1-0.4
	l-0.4,0l-0.8,0.5c-0.3,0.2-0.7,0.2-0.9-0.3c-0.2-0.5,0.1-0.6,0.5-0.8c0.8-0.2,1.5-0.6,2.2-1.1c0.4-0.3,0.7-0.6,1.3-0.8
	c-0.4,1.1-0.7,2.2-1.1,3.3c-0.2,0.5,0.1,0.8,0.6,0.8c0.5,0.1,0.8-0.1,1-0.6C157.4,67.5,157.8,66.3,158.6,65.2 M142.8,81.3
	c0.3,1.1,0.9,1.5,1.9,1.2c0.6-0.1,1-0.4,1.4-0.8l0.3-0.8l-0.7,0.2l-0.6,0.3l-0.5-0.2c-0.4-0.7,0.3-2.6,1.1-3.1l0.1,0.3
	c0.1,0.4,0.1,0.7,0.6,0.8c0.4,0,0.8-0.2,0.9-0.6c0.1-0.4,0-0.8-0.4-1.1c-0.3-0.2-0.7-0.3-1.1-0.2c-1.5,0.2-2.4,1.3-2.9,2.6
	c-0.3,0.7-0.8,1-1.4,1.3c0.3-1.1,0.7-2.1,1.1-3.1c0.1-0.3,0.2-0.5-0.1-0.7c-0.5-0.3-1.1-0.1-1.4,0.4c-0.4,0.8-0.8,1.6-1.4,2.3
	c-0.3,0.4-0.5,0.8-1,1l0.1-0.7c0.3-0.7,0.6-1.4,0.8-2.1c0.2-0.6,0-1.1-0.6-1.1c-1,0.1-1.8,0.6-2.4,1.3l0,0.4l0.4,0
	c0.2-0.1,0.4-0.4,0.8-0.4c-0.4,0.9-0.7,1.8-1,2.6c-0.1,0.4-0.2,0.8,0.1,1.1c0.3,0.3,0.8,0.2,1.1,0.1c0.7-0.3,1.1-0.8,1.7-1.3
	l-0.1,0.4l0,0.9l0.9,0.1C141.7,82.3,142.3,81.9,142.8,81.3 M168.6,67.9l0.2-0.8c0.7-2,1.4-4,2-6.1c0.1-0.3,0.3-0.7-0.2-0.7
	c-0.6,0-1.2,0.1-1.8,0.3c-0.4,0.1-0.5,0.4-0.1,0.7l0.2,0.6c-0.2,0.6-0.4,1.1-0.6,1.7l-0.5,0.3c-1.8-0.3-4.1,1.8-4.2,4
	c0,1,0.5,1.4,1.5,1.2c0.7-0.1,1.2-0.7,1.8-1.2c-0.2,0.9-0.1,1.2,0.5,1.2c0.7,0.1,2.1-0.8,2.4-1.4l0-0.4l-0.4,0L168.6,67.9z
	 M158.3,81.4c0.4-1,0.8-1.7,1-2.5c0.2-0.5,0.7-1,0.1-1.4c-0.5-0.5-1-0.1-1.5,0.1l-0.3,0.2l-0.4,0l-0.7-0.3l-0.4-0.5
	c0.1-0.3,0.2-0.6-0.1-0.7l-0.9,0.2c-0.4,0.6-0.8,1.1-1.6,1.2l-0.3,0.4l0.2,0.3c0.9,0,0.5,0.5,0.3,0.9c-0.2,0.7-0.5,1.4-0.7,2.2
	c-0.2,0.8,0.1,1.3,0.7,1.2c1-0.1,1.8-0.7,2.4-1.5l0-0.5l-0.5,0.1c-0.3,0.2-0.5,0.5-0.9,0.6c0.3-0.8,0.6-1.5,0.8-2.3
	c0.2-0.6,0.5-0.9,1.2-0.6l-0.1,0.6c0.4,0.3,0.6-0.3,1-0.3l-0.2,0.5c-0.3,0.8-0.7,1.6-1,2.4c-0.2,0.6,0.1,1.1,0.7,1.1
	c0.9-0.1,1.7-0.6,2.3-1.3l0-0.4l-0.5,0C158.9,81,158.6,81.1,158.3,81.4 M167.7,78.6c0.1-0.6,0.4-1.2-0.4-1.3c-0.7-0.1-2,0.7-2.3,1.3
	l0,0.4l0.4,0l0.7-0.4l-0.1,0.5c-0.3,0.9-0.6,1.8-0.9,2.6c-0.2,0.6,0,0.9,0.6,0.9c0.4,0,0.7-0.2,0.9-0.6c0.4-0.8,0.9-1.7,1.4-2.5
	c0.3-0.4,0.5-0.9,1.1-1.1l-0.1,0.7c-0.3,0.8-0.7,1.7-1,2.5c-0.2,0.6,0.1,1.1,0.7,1c1-0.1,1.8-0.6,2.3-1.4l0-0.5l-0.4,0l-0.7,0.5
	c0.3-0.9,0.7-1.7,1-2.5c0.1-0.4,0.2-0.9-0.2-1.2c-0.4-0.4-0.9-0.2-1.3-0.1C168.7,77.6,168.3,78.1,167.7,78.6 M151.7,81.3l-0.1-0.1
	c0.4-1,0.8-2,1.2-3.1c0.1-0.3,0.4-0.6,0-0.8c-0.4-0.2-0.8-0.4-1.2-0.1l-0.7,0.2c-0.5,0-0.9,0.1-1.4,0.4c-1.3,0.8-2.2,2-2.6,3.5
	c-0.1,0.4-0.1,0.8,0.2,1.1c0.3,0.3,0.7,0.3,1.1,0.1c0.6-0.2,1.1-0.6,1.7-1.1c-0.1,0.9,0.2,1.3,0.8,1.2c0.8-0.2,1.4-0.5,1.9-1.1
	l0.1-0.6l-0.6,0.1L151.7,81.3z M159.7,80.8c0,1.2,1,2,2.3,1.8c1.6-0.3,2.8-1.8,2.8-3.4c0-1-0.6-1.7-1.6-1.8
	C161.5,77,159.7,78.8,159.7,80.8 M159.3,67.6c0,0.7,0.2,1.1,0.6,1.4c0.9,0.6,3-0.2,3.4-1.2l-0.1-0.5l-0.4,0.1L162,68
	c-0.3,0.1-0.7,0.4-0.9-0.2c-0.1-0.5,0-0.7,0.5-0.8c0.7-0.2,1.4-0.4,1.9-0.9c0.4-0.4,0.7-0.8,0.5-1.5c-0.3-0.6-0.8-0.7-1.5-0.7
	C160.8,64.1,159.3,65.9,159.3,67.6 M144.3,61.7c-0.1-0.5-0.3-0.8-0.9-0.8c-0.6,0-1.1,0.5-1.1,1.1c0,0.6,0.3,0.8,0.8,0.9
	C143.8,62.9,144.3,62.4,144.3,61.7 M148.3,89.7c0.7,0,1.2-0.5,1.1-1.1c0-0.5-0.2-0.9-0.8-0.9c-0.6,0-1.1,0.5-1.1,1.1
	C147.5,89.3,147.8,89.6,148.3,89.7 M159.2,76.3c0.6,0,1.2-0.5,1.1-1.1c0-0.5-0.3-0.9-0.8-0.8c-0.6,0-1.1,0.5-1.1,1.1
	C158.4,76,158.8,76.2,159.2,76.3"/>
<path class="st34" d="M191.2,41c0,4.4,0,8.8,0,13.2c0,0.5-0.1,0.8-0.6,0.7c-1.9-0.2-3.8-0.1-5.7-0.1c-1,0-2.1,0-3.1,0
	c-0.7,0-0.9-0.2-0.9-0.9c0-7.1,0-14.2,0-21.3c0-1.6,0-3.3,0-4.9c0-0.5,0.1-0.7,0.6-0.7c2.9,0,5.8-0.1,8.7-0.1c0.9,0,0.9,0,0.9,1V41"
	/>
<path class="st35" d="M197.4,58.2l-0.3,0.9c-0.1,3.3-0.1,6.7-0.2,10l0,0.9c0.1,0.7,0.3,1.2,1.1,1.3c0.2,0,0.6,0.1,0.5,0.4
	c0,0.4-0.4,0.3-0.6,0.3c-1.1,0-2.3,0-3.4,0l-0.4-0.3l0.3-0.4c1.2-0.2,1.4-1.1,1.4-2.1c0.2-2.2,0.2-4.5,0.3-6.7
	c0.1-1.6,0-3.2,0.2-4.7c0.1-0.6,0-1.2-0.2-1.7c-0.1-0.6-0.6-0.9-1.2-1.1c-0.2-0.1-0.6,0-0.5-0.4l0.7-0.2c1,0,1.9,0,2.9,0
	c0.5,0,0.6,0.2,0.7,0.6c0.9,4.1,2.7,7.9,4.1,11.8l0.3,0.4l0.3-0.4c1.4-3.9,3.1-7.8,4.3-11.8c0.1-0.5,0.3-0.7,0.8-0.6
	c0.9,0,1.8,0,2.7,0l0.6,0.3l-0.4,0.4c-1.2,0.3-1.4,0.6-1.4,1.8c0,2.9-0.1,5.8,0.1,8.8c0.1,1.5-0.1,3.1,0.2,4.6c0.1,0.6,0.4,1,1,1.1
	c0.2,0,0.6,0,0.6,0.4c0,0.4-0.4,0.3-0.6,0.3c-1.4,0-2.8,0-4.2,0l-0.6-0.3l0.5-0.4c0.8-0.1,1.1-0.6,1.1-1.3c0-3.9,0-7.7,0-11.6
	l-0.1-0.2l-0.4,0.7c-1.6,4.2-3.3,8.4-4.7,12.6c-0.1,0.2,0,0.6-0.4,0.6l-0.3-0.6c-1.3-4.4-3.1-8.7-4.5-13.1L197.4,58.2z"/>
<path class="st36" d="M186.1,66c-1.5,0-3,0-4.5,0c-0.4,0-0.6-0.1-0.6-0.6c0-2.8,0-5.7,0-8.5c0-0.4,0.1-0.6,0.6-0.6c3,0,6,0,9,0
	c0.5,0,0.6,0.2,0.6,0.6c0,2.8,0,5.7,0,8.5c0,0.5-0.1,0.7-0.6,0.6C189.1,66,187.6,66,186.1,66"/>
<path class="st35" d="M268.9,67.3c0,0.9,0,1.9,0,2.8c0,0.6,0.2,1.1,0.8,1.3l0.3,0.4l-0.4,0.2h-3.4l-0.4-0.3l0.3-0.4
	c0.7-0.2,0.8-0.7,0.8-1.3c0.1-2,0.2-3.9-0.1-5.9c-0.1-1-0.6-1.5-1.4-1.5c-0.9-0.1-1.6,0.4-1.9,1.3l-0.1,0.6c0,1.7,0,3.4,0,5.2
	c0,0.7,0.1,1.4,0.9,1.6l0.2,0.4l-0.3,0.2c-1.2,0-2.4,0-3.7,0l-0.4-0.3l0.3-0.4c0.8-0.2,0.9-0.8,0.9-1.5c0-1.8,0-3.7,0-5.5
	c0-0.6-0.1-1-0.5-1.4c-0.4-0.3-0.3-0.6,0.2-0.8c0.6-0.3,1.2-0.6,1.8-1c0.4-0.3,0.6-0.2,0.6,0.3c0,0.3-0.2,0.8,0.2,1l0.9-0.5
	c0.4-0.3,0.8-0.5,1.3-0.6c1.1-0.3,2,0,2.6,0.9c0.3,0.5,0.6,0.5,1,0.2l0.6-0.5c0.9-0.6,1.9-1,3-0.5c1.1,0.5,1.4,1.6,1.4,2.7
	c0.1,1.8,0,3.6,0,5.3c0,0.8,0,1.7,1.1,2l0.2,0.3l-0.3,0.2c-1.3,0-2.6,0-3.9,0l-0.3-0.3l0.3-0.4c0.8-0.2,0.9-0.8,0.9-1.5
	c0-1.7,0-3.4,0-5.2c0-1.3-0.7-2.1-1.8-2c-0.9,0-1.6,0.7-1.6,1.6C268.9,65.3,268.9,66.3,268.9,67.3"/>
<path class="st35" d="M246.6,71.1c1,0,1.7-0.1,2.3,0.1c1.1,0.3,1.7,1,1.9,2.1c0.5,2.7-1.4,5.3-4,5.8c-0.8,0.2-1.6,0.1-2.4,0
	c-1.8-0.3-2.9-2.1-2.5-3.6c0.2-0.6,0.7-0.9,1.1-1.3c0.7-0.7,0.7-0.7,0-1.4c-0.4-0.3-0.7-0.8-0.8-1.3c-0.1-0.5-0.1-1,0.5-1.4l0.6-0.5
	c0.6-0.6,0.6-0.8,0-1.4c-1.3-1.2-1.5-3.7-0.4-5.4c1-1.5,3.1-2.1,4.8-1.2c0.9,0.5,1.7,0.7,2.7,0.6c0.3,0,0.7-0.1,0.7,0.4
	c0,0.5-0.2,0.8-0.8,0.8h-0.4c-0.5-0.1-0.6,0.2-0.6,0.6c0.1,0.8,0,1.6-0.2,2.4c-0.6,1.8-2,2.7-3.9,2.5c-0.6-0.1-0.9,0.4-1,0.9
	c-0.1,0.6,0.2,1.2,0.9,1.3C245.6,71.1,246.2,71.1,246.6,71.1 M246.3,73.3h-0.5c-1.7,0-2.5,1-2,2.7c0.4,1.5,2.1,2.3,3.8,1.8
	c1.1-0.3,1.9-1.5,1.7-2.6c-0.2-1.2-1-1.9-2.4-1.9H246.3z M247.3,65.3c0.1-0.9,0-1.8-0.5-2.6c-0.6-0.9-1.6-0.9-2,0
	c-0.7,1.6-0.7,3.1,0.1,4.7c0.2,0.4,0.6,0.7,1.1,0.7c0.5-0.1,0.8-0.4,1-0.8C247.3,66.7,247.4,66,247.3,65.3"/>
<path class="st35" d="M198.4,35.1c0,2,0,4,0,6c0,0.4,0,0.8,0.1,1.1c0.2,1,0.4,1.1,1.3,1.3c0.2,0,0.6-0.1,0.6,0.3
	c0,0.4-0.4,0.3-0.6,0.3c-1.6,0-3.1,0-4.7,0l-0.6-0.3l0.5-0.4c0.7-0.1,1-0.6,1.1-1.3c0.2-4.1,0.1-8.2,0.1-12.3c0-0.4-0.1-0.9-0.1-1.3
	c0-0.6-0.3-1-1-1.1c-0.3,0-0.6,0-0.6-0.4c0-0.4,0.4-0.3,0.7-0.3c2-0.2,4-0.3,6,0c3,0.4,4.3,2.9,4,5.6c-0.2,2.1-1.5,3.8-3.9,4.3
	l-0.4,0.1l-0.7-0.2c-0.1-0.4,0.3-0.4,0.5-0.5c1.1-0.6,1.7-1.5,1.9-2.6c0.3-1.4,0.3-2.8-0.3-4.1c-0.5-1.1-1.3-1.8-2.6-1.8
	c-0.9,0-1,0.2-1.1,1C198.4,30.7,198.4,32.9,198.4,35.1"/>
<path class="st35" d="M230.7,66.5c0.1,1.5-0.1,2.7,0.1,3.9c0.1,0.5,0.3,0.9,0.8,1l0.5,0.4l-0.5,0.2h-3.5l-0.5-0.2l0.4-0.4
	c0.4-0.1,0.7-0.4,0.7-0.9c0.2-2,0.2-4.1,0-6.1c-0.1-1.1-0.8-1.7-1.7-1.7c-0.9,0-1.6,0.8-1.7,1.8c0,1.9,0,3.7,0,5.6
	c0,0.6,0.2,1.1,0.8,1.3l0.3,0.4L226,72h-3.7l-0.4-0.2l0.3-0.4c0.8-0.2,1-0.8,1-1.5c0-1.9,0-3.8,0-5.7c0-0.5-0.2-0.9-0.6-1.3
	c-0.5-0.4-0.3-0.6,0.2-0.8c0.7-0.3,1.3-0.6,2-1c0.4-0.2,0.5-0.1,0.5,0.3l0.2,1.1c0.4,0.2,0.7-0.3,1-0.5c0.8-0.5,1.6-0.8,2.5-0.6
	c1,0.3,1.7,1.2,1.8,2.6C230.7,64.8,230.7,65.8,230.7,66.5"/>
<path class="st35" d="M294.1,67.2c0,1,0,2,0,2.9c0,0.6,0.2,1.1,0.9,1.3l0.4,0.4l-0.5,0.2h-3.5l-0.5-0.2l0.3-0.4
	c0.6-0.2,0.8-0.7,0.8-1.2c0-1.8,0-3.6,0-5.5l-0.1-0.7c-0.3-0.9-0.8-1.3-1.6-1.3c-0.8,0-1.5,0.5-1.7,1.3l-0.1,0.8
	c0,1.8-0.1,3.6,0.1,5.4c0.1,0.6,0.2,1,0.8,1.1l0.4,0.4l-0.5,0.3h-3.6l-0.5-0.2l0.2-0.4c0.9-0.1,1-0.7,1.1-1.4c0.1-2,0.1-4.1,0-6.1
	c0-0.4-0.2-0.7-0.5-0.9c-0.4-0.3-0.4-0.6,0.1-0.9c0.7-0.3,1.3-0.6,2-1l0.4-0.1l0,0.5l0,0.1l0.2,0.9l0.7-0.3l0.8-0.5
	c1.7-0.9,3.4-0.2,3.7,1.8c0.1,0.7,0.1,1.3,0.1,2L294.1,67.2L294.1,67.2z"/>
<path class="st35" d="M210.2,94.9c0,0.9,0,1.9,0,2.8c0,0.7,0.1,1.4,1,1.5l0.3,0.4l-0.4,0.2c-1.2-0.1-2.5-0.2-3.7,0l-0.4-0.2l0.3-0.4
	c0.7-0.2,0.8-0.7,0.8-1.3c0-1.8,0-3.5,0-5.3c0-1.2-0.6-2-1.6-2.1c-0.9-0.1-1.7,0.5-1.8,1.4c-0.2,1.8-0.2,3.6-0.1,5.4l0.1,0.7
	c0,0.5,0.2,1,0.8,1.1l0.4,0.4l-0.5,0.2c-1.2-0.2-2.3-0.1-3.5,0l-0.5-0.2l0.4-0.4c0.7-0.1,0.9-0.5,0.9-1.2c0.2-2,0.1-4.1,0-6.2
	c0-0.4-0.2-0.8-0.6-1.1c-0.4-0.3-0.3-0.6,0.1-0.8c0.7-0.3,1.4-0.7,2-1.1c0.4-0.3,0.5,0,0.5,0.3c0,0.4-0.3,0.9,0.1,1.1
	c0.4,0.2,0.7-0.3,1-0.5c0.6-0.4,1.1-0.7,1.9-0.6c1.1,0,1.8,0.5,2.2,1.5c0.2,0.5,0.3,1.1,0.3,1.7C210.2,93.2,210.2,94,210.2,94.9
	L210.2,94.9z"/>
<path class="st35" d="M247.2,93.6c0,1.2,0,2.4,0,3.6c0,0.4,0.1,0.8,0.2,1.1c0.1,0.4,0.4,0.6,0.8,0.5l0.6,0.1l-0.5,0.5
	c-0.9,0.2-1.9,0.4-2.7,0.8l-0.4-0.3l0-0.4L245,99l-0.6,0.2c-0.4,0.2-0.8,0.5-1.3,0.7c-1.8,0.8-3.4-0.2-3.5-2.2c-0.1-1.6,0-3.2,0-4.7
	c0-0.7-0.1-1.3-0.1-2l-0.5-0.8l-0.3-0.5l0.5-0.2c0.7-0.1,1.4-0.2,2-0.3c0.4-0.1,0.5,0,0.5,0.4c-0.2,2-0.1,4-0.1,5.9
	c0,0.7,0,1.4,0.3,2c0.3,0.9,1,1.3,1.8,1.1c0.8-0.2,1.4-0.8,1.4-1.7c0-1.8,0-3.5,0-5.2c0-0.7-0.2-1.3-1-1.6l-0.3-0.5l0.5-0.2
	c0.8,0,1.6-0.1,2.3-0.3c0.4-0.1,0.5,0,0.5,0.4C247.2,91,247.2,92.3,247.2,93.6L247.2,93.6z"/>
<path class="st35" d="M217.4,44.5c-2.3,0-4-1.7-4.3-4.2c-0.1-1.3-0.1-2.5,0.4-3.7c0.9-2.2,2.6-3.2,4.3-3.1c2.1,0.2,3.6,1.8,4,4
	c0.2,1.4,0.1,2.7-0.3,4C220.8,43.4,219.4,44.5,217.4,44.5 M219.6,39.3c0-1.3-0.2-2.6-0.7-3.8c-0.3-0.7-0.8-1.2-1.6-1.2
	c-0.8,0-1.2,0.6-1.5,1.3c-0.3,0.8-0.4,1.6-0.5,2.4c-0.1,1.6,0,3.2,0.8,4.6c0.3,0.6,0.8,1,1.6,1c0.8,0,1.1-0.6,1.4-1.2
	C219.5,41.4,219.6,40.4,219.6,39.3"/>
<path class="st35" d="M196.2,91c-0.1-2.2,0.1-4.4-0.1-6.7c-0.1-1-0.2-1.2-1.1-1.4l-0.4-0.4l0.6-0.3c1.5,0.2,3,0.2,4.5,0l0.6,0.3
	l-0.4,0.4c-1.1,0.3-1.3,0.5-1.3,1.7c0,1,0,2.1,0,3.1c0,3,0,6,0,9c0,0.5,0,0.9,0.1,1.4c0.1,0.6,0.4,1,1.1,1.1l0.5,0.4
	c0,0.4-0.4,0.3-0.6,0.3c-1.5-0.2-2.9-0.2-4.4,0c-0.2,0-0.6,0.1-0.6-0.3l0.5-0.5c0.8-0.2,1-0.5,1.1-1.4
	C196.2,95.5,196.1,93.3,196.2,91"/>
<path class="st35" d="M219.8,64.6c-0.2,1.5-0.1,3.2-0.1,4.8l0.2,1c0.2,0.5,0.6,0.8,1.2,0.5l0.5,0l-0.1,0.5c-0.8,0.9-2.5,1.3-3.3,0.2
	c-0.3-0.4-0.6-0.3-0.9-0.1c-0.5,0.4-1.1,0.7-1.8,0.7c-0.8,0-1.4-0.4-1.8-1.1c-0.6-1.4-0.5-3,1.3-3.8c0.8-0.3,1.5-0.7,2.3-1.1
	c0.4-0.2,0.6-0.5,0.6-1c0-0.7,0.1-1.5-0.1-2.2c-0.2-0.6-0.6-1-1.3-1c-0.6,0-0.9,0.5-1.1,1.1c-0.2,1-0.7,1.5-1.4,1.5
	c-0.5,0-0.6-0.2-0.5-0.6c0.3-1.6,3-3.3,4.6-3c1.2,0.3,1.8,1.2,1.9,2.7V64.6z M217.7,68.7v-1l-0.4-0.4c-0.7,0.2-1.4,0.4-1.8,1.2
	c-0.3,0.7-0.3,1.5,0.2,2.2c0.3,0.4,0.7,0.4,1.1,0.3c0.4-0.1,0.6-0.4,0.7-0.8C217.7,69.7,217.7,69.2,217.7,68.7"/>
<path class="st35" d="M239.5,65.1c0,1.3,0,2.7,0,4c0,0.4,0,0.8,0.2,1.2c0.2,0.6,0.6,0.9,1.3,0.7h0.4l-0.1,0.5
	c-0.6,1-2.3,1.2-3.1,0.3c-0.5-0.5-0.8-0.5-1.3-0.1c-0.4,0.3-0.8,0.5-1.3,0.6c-1.5,0.2-2.6-1.2-2.4-2.7c0.1-1,0.6-1.7,1.5-2.1
	c0.8-0.4,1.6-0.7,2.3-1.1l0.6-0.7c0.1-0.9,0.1-1.7-0.2-2.5c-0.2-0.6-0.6-0.9-1.3-0.9c-0.6,0.1-0.9,0.5-1,1.1
	c-0.2,0.9-0.5,1.3-1.2,1.4c-0.5,0.1-0.8-0.1-0.7-0.6l0.1-0.3c0.5-1.5,2.7-2.9,4.2-2.7c1.2,0.1,2,1,2.1,2.4c0,0.5,0,1,0,1.5H239.5z
	 M237.6,68.8v-1.1l-0.4-0.4c-0.7,0.2-1.3,0.4-1.7,1.1c-0.3,0.7-0.3,1.4,0.1,2.1c0.3,0.4,0.7,0.6,1.1,0.5c0.4-0.1,0.6-0.4,0.8-0.8
	C237.6,69.8,237.5,69.2,237.6,68.8"/>
<path class="st34" d="M153.7,43.6v10.6c0,0.3,0,0.6-0.4,0.6c-2.2,0-4.4,0-6.7,0C148.8,51,151.4,47.5,153.7,43.6"/>
<path class="st34" d="M170.1,43.8c0,3.6,0,7,0,10.3c0,0.5-0.2,0.6-0.6,0.6c-2,0-3.9,0-5.9,0c-0.3,0-0.6,0-0.3-0.5
	C165.5,50.9,167.7,47.5,170.1,43.8"/>
<path class="st35" d="M256.1,65.6c-0.7,0-1.3,0-2,0c-0.5,0-0.7,0.2-0.7,0.7c0.1,1.2,0.4,2.3,1.2,3.2c1,1.1,3.1,1.3,3.9-0.1l0.4-0.2
	l0,0.4c-0.5,1.3-1.3,2.3-2.7,2.6c-1.4,0.3-2.6-0.3-3.5-1.5c-1.7-2.3-1.3-6.6,0.7-8.5c1-1,2.2-1.4,3.6-0.9c1.4,0.5,1.9,1.7,2,3.1
	c0.1,0.7-0.2,1-0.9,1C257.4,65.6,256.8,65.6,256.1,65.6L256.1,65.6z M255.2,64.7L255.2,64.7c0.4,0,0.8,0,1.2,0l0.7-0.5
	c0.1-0.7,0-1.3-0.5-1.8c-0.5-0.5-1.1-0.4-1.7-0.1c-0.5,0.3-0.8,0.7-1,1.1c-0.5,1.1-0.5,1.3,0.7,1.2H255.2z"/>
<path class="st35" d="M233,37.8h-1.9l-0.6,0.3c-0.4,1.5,1,4,2.5,4.4c1,0.3,1.8,0,2.5-0.8l0.4-0.3l0.1,0.6c-0.5,1.3-1.4,2.3-2.8,2.5
	c-1.6,0.2-2.8-0.5-3.6-1.9c-1.3-2.2-1-5.9,0.7-7.9c0.9-1.1,2.5-1.6,3.7-1.2c1.4,0.5,2,1.6,2.2,3c0.1,0.9-0.1,1.2-0.9,1.3
	C234.5,37.8,233.7,37.8,233,37.8L233,37.8z M232.3,36.9c0.4,0,0.9,0,1.3-0.1l0.6-0.4c0.2-0.6,0.1-1.3-0.4-1.7
	c-0.4-0.5-0.9-0.5-1.5-0.4c-0.5,0.2-0.9,0.5-1.2,1c-0.2,0.4-0.6,0.9-0.4,1.3c0.2,0.4,0.8,0.2,1.2,0.2H232.3z"/>
<path class="st35" d="M281.3,65.6c-0.7,0-1.3,0-2,0c-0.4,0-0.7,0.1-0.7,0.6c0.1,1.4,0.4,2.6,1.5,3.6c0.9,0.8,2.9,0.9,3.6-0.3
	l0.4-0.3l0.1,0.5c-0.5,1.3-1.4,2.3-2.8,2.5c-1.5,0.3-2.7-0.3-3.5-1.6c-1.5-2.2-1.3-6.2,0.5-8.2c1-1.2,2.6-1.6,3.9-1.1
	c1.2,0.5,2,1.8,2,3.3c0,0.6-0.3,0.8-0.8,0.8L281.3,65.6L281.3,65.6z M280.4,64.7L280.4,64.7l1.1,0l0.7-0.5c0.4-0.9-0.4-2.1-1.3-2.1
	c-0.9,0-1.6,0.5-2,1.5c-0.3,0.9-0.2,1,0.7,1H280.4z"/>
<path class="st35" d="M260.8,93.4h-2.1c-0.4,0-0.6,0.2-0.6,0.6c0,1.2,0.3,2.3,1.1,3.3c1.1,1.3,3.2,1.4,4,0l0.4-0.2l0,0.5
	c-0.5,1.4-1.5,2.3-3,2.5c-1.5,0.2-2.6-0.5-3.4-1.7c-1.5-2.3-1.2-6.1,0.6-8.1c0.9-1.1,2.6-1.5,3.8-1.1c1.3,0.5,2,1.8,1.9,3.4
	c0,0.5-0.3,0.8-0.8,0.8C262.2,93.4,261.5,93.4,260.8,93.4L260.8,93.4z M259.8,92.5L259.8,92.5c0.4,0,0.8,0,1.2,0
	c0.5,0,0.8-0.4,0.8-0.9c0-0.6-0.2-1.2-0.8-1.6c-0.6-0.3-1.2-0.1-1.7,0.3c-0.4,0.3-0.6,0.7-0.8,1.1c-0.4,0.9-0.2,1.1,0.7,1.1H259.8z"
	/>
<path class="st35" d="M226.5,39.1c0,1.7,0,3.5,0,5.2c-0.1,2.8-1.1,5.1-3.5,6.7l-0.6,0.2l0.2-0.7c1.3-1,1.6-2.5,1.7-3.9
	c0.3-3.4,0.1-6.9,0.2-10.3c0-0.5-0.2-0.8-0.5-1.1c-0.4-0.3-0.3-0.6,0.2-0.8c0.6-0.3,1.2-0.6,1.8-1c0.5-0.3,0.6-0.1,0.6,0.4
	C226.6,35.5,226.6,37.3,226.5,39.1L226.5,39.1z"/>
<path class="st35" d="M216,89.1c1.6,0,2,0.3,2.1,1.9l0,0.6l-0.2,0.6l-0.4-0.5c-0.2-0.4-0.4-0.8-0.7-1.2c-0.4-0.5-0.9-0.7-1.5-0.4
	c-0.5,0.3-0.8,1-0.7,1.6c0.2,0.8,0.8,1.2,1.4,1.6c1,0.6,1.9,1.4,2.2,2.6c0.2,1.3,0.2,2.6-0.9,3.5c-1.1,0.9-2.3,1-3.6,0.5
	c-0.7-0.3-1.1-0.7-1.1-1.5c0-0.5-0.1-1-0.1-1.6l0.2-0.5l0.3,0.4c0.2,0.6,0.4,1.2,0.8,1.8c0.6,0.7,1.3,1,1.9,0.7
	c0.6-0.3,0.9-1.3,0.6-2.1c-0.3-0.7-0.8-1.2-1.4-1.5c-0.8-0.5-1.4-1.1-1.8-2C212.3,91.3,213.7,89.1,216,89.1"/>
<path class="st35" d="M237.3,39.4c0-1.5,0.3-2.8,1.1-4c1.1-1.7,3.3-2.4,5.2-1.9c0.9,0.3,1.3,1.7,0.7,2.5l-0.5-0.1l-0.8-1.1
	c-0.7-0.7-1.5-0.8-2.2-0.1c-1.2,1-1.4,2.4-1.4,3.8c0,1,0.2,1.9,0.8,2.8c1.1,1.7,3.1,1.8,4.4,0.2l0.4-0.2l0.1,0.4
	c-0.5,1.3-1.4,2.3-2.8,2.6c-1.5,0.3-2.8-0.2-3.7-1.5C237.6,41.8,237.3,40.6,237.3,39.4"/>
<path class="st35" d="M246.8,38.8c0-1.1,0-2.2,0-3.2c0-0.5-0.1-0.9-0.7-0.8l-0.5-0.2l0.4-0.5c1-0.6,1.8-1.3,2.4-2.3l0.4-0.3l0.2,0.5
	v0.2c0,1.6,0,1.6,1.6,1.6l0.9,0.2l0,0.7l-0.5,0.3c-0.5,0-1,0-1.4,0c-0.4,0-0.6,0.2-0.6,0.6c0,1.9,0,3.8,0,5.7c0,0.4,0.1,0.9,0.4,1.3
	c0.4,0.7,1.1,0.9,1.8,0.6l0.5-0.1l-0.2,0.6c-0.7,0.9-2.1,1.3-3.2,0.9c-0.8-0.3-1.3-1.1-1.3-2.3C246.8,41,246.8,39.9,246.8,38.8
	L246.8,38.8z"/>
<path class="st35" d="M223.3,100.2c-1.6,0-2.4-0.8-2.4-2.4c0-2,0-4.1,0-6.1c0-0.7,0.1-1.4-1-1.3l-0.3-0.2l0.2-0.4
	c1.1-0.6,2-1.4,2.6-2.5l0.3-0.2l0.2,0.3c0,0.4,0,0.8,0,1.1c-0.1,0.7,0.2,0.9,0.8,0.8c0.4,0,0.8,0,1.1,0c0.3,0,0.6,0,0.6,0.5
	c0,0.4-0.2,0.6-0.6,0.6c-0.4,0-0.8,0-1.2,0c-0.5,0-0.7,0.2-0.7,0.7c0,1.9,0,3.7,0,5.6c0,0.6,0.1,1.1,0.5,1.5
	c0.4,0.6,1.1,0.7,1.8,0.3l0.4-0.1l-0.1,0.5C224.9,99.8,224.1,100.2,223.3,100.2"/>
<path class="st35" d="M233.1,94.4c0-1.2,0-2.2,0-3.2c0-0.5-0.1-0.8-0.7-0.8l-0.5-0.3l0.3-0.4c1-0.6,1.9-1.3,2.4-2.4l0.4-0.2l0.2,0.4
	l0,0.1c-0.1,2.1,0.1,1.7,1.9,1.8c0.3,0,0.7-0.1,0.8,0.4c0,0.4-0.1,0.7-0.6,0.6c-0.5,0-0.9,0-1.4,0c-0.4,0-0.7,0.2-0.7,0.6
	c0,2.1-0.2,4.1,0.1,6.2c0.2,1.4,0.9,1.8,2.2,1.3l0.4,0l-0.1,0.4c-0.5,0.8-1.9,1.4-3,1.2c-1-0.2-1.5-0.8-1.6-2
	C233,96.9,233.2,95.5,233.1,94.4"/>
<path class="st35" d="M297.5,66.2c0-0.9,0-1.9,0-2.8c0-0.5-0.1-0.8-0.7-0.8l-0.5-0.2l0.3-0.4c1-0.6,1.9-1.3,2.4-2.4l0.3-0.2l0.2,0.4
	v0.1c0.1,1.7,0.1,1.7,1.8,1.7c0.4,0,0.8-0.1,0.8,0.5c0,0.6-0.4,0.6-0.9,0.6c-1.8,0-1.9-0.3-1.8,1.9c0,1.6-0.1,3.2,0.1,4.7l0.1,0.6
	c0.4,1.1,1.1,1.4,2.1,0.9l0.4-0.1l0,0.4c-0.4,0.9-1.9,1.5-3.1,1.3c-0.9-0.2-1.5-0.9-1.6-2C297.5,69,297.5,67.6,297.5,66.2"/>
<path class="st35" d="M250.7,94.3c0-1.2,0-2.2,0-3.1c0-0.5-0.2-0.8-0.7-0.7l-0.5-0.3l0.4-0.5c1-0.5,1.8-1.3,2.3-2.3l0.4-0.3l0.2,0.4
	v0.1c0.1,1.7,0.1,1.7,1.8,1.7c0.4,0,0.9-0.1,0.8,0.5c0,0.5-0.4,0.6-0.9,0.6c-1.8,0-1.8-0.3-1.8,1.8c0,1.6-0.1,3.2,0.1,4.9l0.1,0.6
	c0.3,1,1,1.3,2.1,0.9l0.4,0l0,0.4c-0.4,0.8-1.9,1.4-3,1.2c-1-0.2-1.5-0.9-1.7-2.1C250.6,96.7,250.7,95.4,250.7,94.3"/>
<path class="st35" d="M208.4,44.2h-2l-0.5-0.3l0.4-0.4c0.6-0.1,0.8-0.6,0.9-1.2c0-2.1,0-4.1,0-6.2c0-0.4-0.2-0.8-0.5-1.1
	c-0.4-0.4-0.3-0.6,0.2-0.9c0.6-0.3,1.2-0.6,1.8-1c0.4-0.2,0.6-0.2,0.6,0.3l0.1,1.1c0.4,0.2,0.6-0.4,0.9-0.6c0.3-0.3,0.7-0.6,1.1-0.6
	c0.5,0,0.8,0.2,1,0.7c0.2,0.6,0.1,1.4-0.3,1.8c-0.4,0.3-0.8,0.3-1.2,0l-0.4-0.2c-0.7-0.4-1.1-0.3-1.3,0.6c-0.2,0.7-0.1,1.4-0.1,2.1
	c0,1.2,0,2.4,0,3.7c0,1.2,0.2,1.4,1.3,1.6l0.4,0.3l-0.5,0.3l-1,0L208.4,44.2L208.4,44.2z"/>
<path class="st34" d="M145.4,36.2c0-2.8,0-5.5,0-8.2c0-0.4,0.2-0.5,0.6-0.5c1.6,0,3.2,0,4.8,0c0.4,0,0.6,0,0.3,0.5
	c-1.9,2.8-3.7,5.6-5.5,8.4L145.4,36.2z"/>
<path class="st35" d="M229.7,93.7v4c0,0.7,0.1,1.4,0.9,1.5l0.3,0.4l-0.5,0.2c-1.2-0.2-2.4-0.1-3.6,0l-0.4-0.3l0.3-0.4
	c0.8-0.1,0.9-0.8,0.9-1.4c0-1.9,0-3.9,0-5.8c0-0.5-0.2-0.9-0.5-1.2c-0.5-0.4-0.3-0.7,0.2-0.9c0.7-0.3,1.3-0.6,1.9-1
	c0.4-0.3,0.5-0.2,0.5,0.3C229.7,90.7,229.7,92.2,229.7,93.7L229.7,93.7z"/>
<path class="st34" d="M169.5,27.3c-1.9,2.5-3.6,4.9-5.5,7.5c0-2.5,0-4.8,0-7.1l0.5-0.4H169.5"/>
<path class="st35" d="M226.7,28.1c0,1-0.4,1.5-1.2,1.6c-0.7,0-1.3-0.7-1.3-1.6c0-0.9,0.6-1.6,1.3-1.6
	C226.2,26.5,226.7,27.1,226.7,28.1"/>
<path class="st35" d="M229.9,83.6c0,0.6-0.1,1-0.4,1.3l-0.7,0.4c-0.6,0.1-1.3-0.6-1.4-1.5c-0.1-0.8,0.4-1.7,1.1-1.7
	c0.7-0.1,1.3,0.4,1.4,1.2L229.9,83.6z"/>
</svg>
