<?xml version="1.0" encoding="utf-8"?>
<!-- Generator: Adobe Illustrator 22.0.1, SVG Export Plug-In . SVG Version: 6.00 Build 0)  -->
<svg version="1.1" id="Capa_1" xmlns="http://www.w3.org/2000/svg" xmlns:xlink="http://www.w3.org/1999/xlink" x="0px" y="0px"
	 viewBox="0 0 403.4 128.8" style="enable-background:new 0 0 403.4 128.8;" xml:space="preserve">
<style type="text/css">
	.st0{clip-path:url(#SVGID_2_);fill:url(#SVGID_3_);}
	.st1{fill:#A4D5F4;}
	.st2{fill:url(#SVGID_4_);}
	.st3{fill:#D3D11A;}
	.st4{fill:url(#SVGID_5_);}
	.st5{fill:#05AA70;}
	.st6{fill:url(#SVGID_6_);}
	.st7{fill:url(#SVGID_9_);}
	.st8{fill:url(#SVGID_10_);}
	.st9{fill:#8AC05C;}
	.st10{fill:url(#SVGID_13_);}
	.st11{fill:#65C3F0;}
	.st12{fill:#CCD744;}
	.st13{fill:#9BC327;}
	.st14{fill:url(#SVGID_14_);}
	.st15{fill:#00AEDA;}
	.st16{fill:#75BB6A;}
	.st17{fill:#23AB6E;}
	.st18{fill:#009679;}
	.st19{clip-path:url(#SVGID_16_);fill:url(#SVGID_17_);}
	.st20{fill:url(#SVGID_18_);}
	.st21{fill:url(#SVGID_19_);}
	.st22{fill:url(#SVGID_20_);}
	.st23{fill:url(#SVGID_23_);}
	.st24{fill:url(#SVGID_24_);}
	.st25{fill:url(#SVGID_27_);}
	.st26{fill:url(#SVGID_28_);}
	.st27{fill:#3D3E3E;}
	.st28{fill:#0168AB;}
	.st29{fill:#1A81C2;}
	.st30{fill:#679D3E;}
	.st31{fill:#29AFA4;}
	.st32{fill:#5E5E5E;}
	.st33{fill:#BA4F2E;}
	.st34{fill:#067EC2;}
	.st35{fill:#087DC1;}
	.st36{fill:#E73539;}
	.st37{fill:#066EB6;}
	.st38{fill:#54B14B;}
	.st39{fill:#939494;}
	.st40{fill:#80807C;}
	.st41{fill:#010202;}
	.st42{fill:#616160;}
	.st43{fill:#9D9D9C;}
	.st44{fill:#131214;}
</style>
<polygon class="st32" points="173.7,50.5 178.3,50.5 184,65.2 190.1,49.7 191.1,49.7 196.7,65.2 203.3,49.7 207.6,49.7 196.8,74.3 
	190.7,58.3 184.3,74.3 "/>
<polygon class="st32" points="209.6,50.1 209.6,73.1 222.8,73.1 222.8,69.8 213.5,69.8 213.5,62 222.8,62 222.8,59.1 213.2,59.1 
	213.2,53.7 222.8,53.7 222.8,50.1 "/>
<polygon class="st32" points="227.2,73.1 231.3,73.1 231.3,62.3 239.3,62.3 239.3,58.8 231.3,58.8 231.3,53.7 239.3,53.7 
	239.3,50.1 227.2,50.1 "/>
<polygon class="st32" points="115.2,46.9 122.8,46.9 136.8,70.9 132.6,77.8 "/>
<polygon class="st32" points="124.7,46.9 132.3,46.9 145.5,69.4 141.5,76.1 "/>
<polygon class="st32" points="134.5,46.9 142,46.9 146.5,54.4 142.6,60.9 "/>
<polygon class="st33" points="150.6,46.9 141.5,62.6 145.5,69.4 155.2,53.2 164,53.2 168,46.9 "/>
<polygon class="st33" points="163.4,54.7 156,54.7 152.6,60.9 160,60.9 "/>
<g>
	<path class="st33" d="M282.1,70.3c-4.6,0.2-8.3-4.2-8.3-8.3c0-4.8,3.8-8.4,8.4-8.3c2.1,0.1,4,0.8,5.3,2v-4.9
		c-1.1-0.5-2.2-0.9-3.5-1c-2.2-0.2-4.3-0.2-6.4,0.6c-1.1,0.4-2.1,0.9-3,1.5c-0.9,0.7-1.8,1.5-2.5,2.4c-1.7,2.2-2.9,4.6-2.9,8.1
		c-0.1,0.8,0.3,2.3,0.8,3.7c0.8,2.2,2.2,3.8,3.9,5.3c1.7,1.5,3.7,2.3,5.8,2.8c2.2,0.5,4.4,0.2,6.6-0.7c0.4-0.2,0.7-0.3,1.1-0.5v-4.8
		C286,69.6,284.2,70.5,282.1,70.3z"/>
	<path class="st33" d="M264.2,54.8c-0.8-1.2-1.9-2.3-3-3c-1.5-1-3.2-1.8-5.2-2c-2.2-0.2-4.3-0.2-6.4,0.6c-1.1,0.4-2.1,0.9-3,1.5
		c-0.9,0.7-1.8,1.5-2.5,2.4c-1.7,2.2-2.9,4.6-2.9,8.1c-0.1,0.8,0.3,2.3,0.8,3.7c0.8,2.2,2.2,3.8,3.9,5.3c1.7,1.5,3.7,2.3,5.8,2.8
		c2.2,0.5,4.4,0.2,6.6-0.7c1.5-0.6,2.9-1.4,4.1-2.5c2.3-2,3.8-4.6,4.1-7.6C267,60.3,266,57.4,264.2,54.8 M261.3,66.2
		c-1.8,2.5-4.2,4.4-7.3,4.2c-4.6,0.2-8.3-4.2-8.3-8.3c0-4.8,3.8-8.4,8.4-8.3c4.7,0.2,8,3.4,8,8.4C262.1,63.6,262.1,65.2,261.3,66.2"
		/>
</g>
</svg>
