<?xml version="1.0" encoding="utf-8"?>
<!-- Generator: Adobe Illustrator 22.0.1, SVG Export Plug-In . SVG Version: 6.00 Build 0)  -->
<svg version="1.1" id="Capa_1" xmlns="http://www.w3.org/2000/svg" xmlns:xlink="http://www.w3.org/1999/xlink" x="0px" y="0px"
	 viewBox="0 0 403.4 128.8" style="enable-background:new 0 0 403.4 128.8;" xml:space="preserve">
<style type="text/css">
	.st0{clip-path:url(#SVGID_2_);fill:url(#SVGID_3_);}
	.st1{fill:#A4D5F4;}
	.st2{fill:url(#SVGID_4_);}
	.st3{fill:#D3D11A;}
	.st4{fill:url(#SVGID_5_);}
	.st5{fill:#05AA70;}
	.st6{fill:url(#SVGID_6_);}
	.st7{fill:url(#SVGID_9_);}
	.st8{fill:url(#SVGID_10_);}
	.st9{fill:#8AC05C;}
	.st10{fill:url(#SVGID_13_);}
	.st11{fill:#65C3F0;}
	.st12{fill:#CCD744;}
	.st13{fill:#9BC327;}
	.st14{fill:url(#SVGID_14_);}
	.st15{fill:#00AEDA;}
	.st16{fill:#75BB6A;}
	.st17{fill:#23AB6E;}
	.st18{fill:#009679;}
	.st19{clip-path:url(#SVGID_16_);fill:url(#SVGID_17_);}
	.st20{fill:url(#SVGID_18_);}
	.st21{fill:url(#SVGID_19_);}
	.st22{fill:url(#SVGID_20_);}
	.st23{fill:url(#SVGID_23_);}
	.st24{fill:url(#SVGID_24_);}
	.st25{fill:url(#SVGID_27_);}
	.st26{fill:url(#SVGID_28_);}
	.st27{fill:#3D3E3E;}
	.st28{fill:#0168AB;}
	.st29{fill:#1A81C2;}
	.st30{fill:#679D3E;}
	.st31{fill:#29AFA4;}
	.st32{fill:#5E5E5E;}
	.st33{fill:#BA4F2E;}
	.st34{fill:#067EC2;}
	.st35{fill:#087DC1;}
	.st36{fill:#E73539;}
	.st37{fill:#066EB6;}
	.st38{fill:#54B14B;}
	.st39{fill:#939494;}
	.st40{fill:#80807C;}
	.st41{fill:#010202;}
	.st42{fill:#616160;}
	.st43{fill:#9D9D9C;}
	.st44{fill:#131214;}
</style>
<path class="st37" d="M214.5,52.4v0.4c0,3.9,0,7.9,0,11.8c0,0.4-0.1,0.4-0.4,0.4c-1,0-2,0-3,0l-0.4-0.4c0-5.8,0-11.7,0-17.5l0.3-0.4
	c1.7,0,3.3,0,5,0l0.4,0.3c1.3,3.9,2.7,7.9,4,11.8l0.2,0.3l0.3-1c1.2-3.7,2.4-7.4,3.6-11.2l0.5-0.3c1.6,0,3.3,0,4.9,0l0.4,0.4
	c0,5.8,0,11.7,0,17.5l-0.4,0.4c-1,0-2,0-3,0l-0.4-0.4c0-4,0-8,0-12v-0.3l-0.1,0l-0.3,0.8c-1.3,3.9-2.7,7.7-4,11.6l-0.5,0.3
	c-0.8,0-1.6,0-2.4,0l-0.5-0.4c-1.4-4-2.8-7.9-4.1-11.9L214.5,52.4L214.5,52.4z"/>
<path class="st37" d="M185.7,56.4l0.7,0.3c1.1,0.6,1.5,1.6,1.8,2.8c0.2,0.7,0.2,1.5,0.2,2.2c0.1,1.1,0.1,2.3,0.7,3.3h-1.9
	c-0.6,0-1.2,0-1.8,0l-0.5-0.4c-0.3-1-0.3-2-0.4-3c-0.1-0.7-0.1-1.4-0.3-2.1c-0.4-1.1-1.1-1.6-2.2-1.7c-1.5-0.1-2.9,0-4.4,0l-0.2,0.4
	c0,2.1,0,4.1,0,6.2c0,0.6,0,0.6-0.6,0.6c-1,0-2.1,0-3.1,0l-0.4-0.3c0-5.9,0-11.7,0-17.6l0.3-0.3c3.3,0,6.5,0,9.8,0
	c1.9,0,3.5,0.8,4.5,2.5c0.9,1.7,0.9,3.5,0,5.3C187.5,55.3,186.9,55.7,185.7,56.4 M180,55L180,55c0.8,0,1.6,0,2.4,0
	c1,0,1.8-0.6,2-1.4c0.2-0.5,0.2-1,0.1-1.5c-0.2-1.3-0.8-1.9-2.1-2c-1.6-0.1-3.2,0-4.8-0.1l-0.2,0.3c0,1.5,0,3,0,4.5l0.3,0.3
	C178.4,55,179.2,55,180,55"/>
<path class="st37" d="M149.5,52.2h-1.7l-0.3-0.2c-0.3-1.6-0.9-2.2-2.5-2.5c-0.9-0.2-1.9-0.2-2.7,0.3c-0.8,0.4-1.2,1.2-1.1,2.1
	c0.1,0.5,0.4,0.8,0.8,1c0.9,0.5,2,0.7,3,1c1,0.3,2.1,0.5,3.1,0.9c1.3,0.5,2.5,1.1,3.3,2.3c1.3,2,0.9,5.6-1.9,7.3
	c-1.9,1.1-3.9,1.3-6,1.2c-1.6-0.1-3.1-0.6-4.5-1.5c-1.6-1.2-2.3-2.7-2.3-4.6l0.3-0.3c1.1,0,2.2,0,3.3,0l0.3,0.2c0,1.6,1.1,2.6,2.6,3
	c1.1,0.3,2.2,0.2,3.3-0.1c1.1-0.3,1.6-1,1.6-2c0-0.7-0.4-1.2-1-1.6c-0.8-0.5-1.6-0.7-2.4-0.9c-1.3-0.3-2.6-0.6-3.8-1.1
	c-0.5-0.2-1-0.4-1.4-0.7c-1.7-1-2.3-2.5-2.2-4.4c0.2-2.2,1.5-3.7,3.5-4.4c2.6-1,5.2-0.9,7.7,0.3c1.9,0.9,2.8,2.5,2.9,4.6l-0.3,0.4
	C150.6,52.2,150,52.2,149.5,52.2"/>
<path class="st37" d="M191.7,53c0-2,0-3.9,0-5.9l0.4-0.4c1.1,0,2.2,0,3.2,0c0.4,0,0.5,0.1,0.5,0.4c0,3.7,0,7.5,0,11.2
	c0,0.5,0.1,1,0.2,1.4c0.3,1.2,1.1,1.9,2.3,2.2c0.8,0.2,1.7,0.2,2.5,0c1.5-0.3,2.3-1.2,2.4-2.8c0-0.4,0.1-0.8,0.1-1.3
	c0-3.6,0-7.2,0-10.8l0.4-0.4c1.1,0,2.2,0,3.3,0l0.3,0.3c0,3.9,0,7.7,0,11.6c0,2-0.6,3.8-2.2,5.2c-1.1,0.9-2.4,1.3-3.7,1.5
	c-1.7,0.2-3.4,0.2-5.1-0.3c-2.7-0.8-4-2.7-4.4-5.4c-0.1-0.6-0.1-1.2-0.1-1.9V53"/>
<path class="st37" d="M168.5,52.9c-0.6,0-1.1,0-1.7,0l-0.3-0.2c-0.4-1.8-2.3-3.2-4.6-2.9c-1.9,0.2-3.1,1.3-3.8,3
	c-0.8,2.1-0.8,4.3,0,6.4c0.9,2.3,3.2,3.4,5.6,2.7c1.8-0.5,2.5-1.9,2.8-3.5l0.5-0.4c1.1,0,2.1,0,3.2,0l0.3,0.4
	c-0.5,4-3.1,6.7-6.9,7.1c-2.7,0.3-5.2-0.3-7.2-2.2c-1.5-1.4-2.3-3.1-2.7-5.1c-0.5-2.7-0.1-5.4,1.3-7.8c1.5-2.4,3.6-3.6,6.4-3.9
	c1.8-0.2,3.6,0.1,5.2,0.9c2.1,1.1,3.3,3,3.7,5.3l-0.3,0.3C169.6,52.9,169.1,52.9,168.5,52.9"/>
<path class="st38" d="M279.5,63.3c-0.8,1.1-1.8,1.7-3.1,1.8c-3,0.4-5.4-1.1-6.3-4c-0.8-2.4-0.7-4.8,0.5-7c1.4-2.5,4.4-3.4,6.9-2.3
	c0.7,0.3,1.2,0.8,1.7,1.4l0.1-0.4c0-1.9,0-3.8,0-5.7l0.4-0.4c1,0,1.9,0,2.9,0L283,47c0,5.8,0,11.7,0,17.5l-0.3,0.3c-1,0-1.9,0-2.8,0
	l-0.3-0.3C279.6,64.1,279.5,63.7,279.5,63.3 M279.5,58.3c0-0.8-0.1-1.5-0.4-2.3c-0.5-1.2-1.3-1.8-2.5-1.9c-1.4-0.1-2.4,0.5-2.9,1.7
	c-0.6,1.6-0.6,3.2,0.1,4.8c0.6,1.3,1.6,1.9,2.9,1.8c1.3-0.1,2.2-0.9,2.6-2.2C279.4,59.6,279.5,58.9,279.5,58.3"/>
<path class="st37" d="M128.8,43c-0.4,0.3-0.8,0.5-1.2,0.8l-0.4,0c-1.7-1.3-3.5-2.1-5.6-2.4c-4-0.5-7.6,0.5-10.6,3.3
	c-3.1,2.8-4.4,6.4-4.1,10.5c0.4,5.5,4.7,10.3,10.2,11.4c6.8,1.3,13.4-2.9,15-9.7c0.5-2.1,0.5-4.3-0.1-6.4l0.2-0.6
	c0.4-0.3,0.7-0.6,1.1-0.9c2.1,5.3,0.8,13.4-6.4,17.6c-6.5,3.8-15,1.9-19.3-4.6c-4.2-6.4-2.6-15,3.5-19.5
	C116.7,38.1,124.7,39,128.8,43"/>
<path class="st38" d="M122.7,61.6c-1.1-2.8-2.2-5.5-3.4-8.2l0.1-0.5c1.6-2.1,3.4-4,5.5-5.7c5.1-4.2,10.9-6.9,17.4-8.1
	c1.4-0.3,2.9-0.4,4.4-0.4c-0.6,0.2-1.2,0.4-1.7,0.6c-4.5,1.6-8.4,4.1-11.9,7.4c-3.9,3.6-6.8,7.9-9.2,12.6
	C123.5,60,123.1,60.8,122.7,61.6"/>
<path class="st38" d="M291,60.7c0.5-1.7,1-3.3,1.5-4.8c0.4-1.3,0.8-2.6,1.2-3.8l0.4-0.3c1,0,2.1,0,3.1,0l0.2,0.3
	c-1.8,4.8-3.6,9.6-5.4,14.5c-0.7,2-2.2,2.9-4.2,2.9c-0.8,0-1.5-0.1-2.2-0.1l-0.3-0.3c0-0.8,0-1.6,0-2.4l0.3-0.2c0.5,0,1,0.1,1.5,0.1
	c1.2,0,2-0.9,1.7-2.1c-0.2-0.6-0.4-1.2-0.6-1.8c-1.3-3.5-2.6-6.9-3.9-10.4c-0.1-0.4-0.1-0.4,0.3-0.4c1,0,2.1,0,3.1,0l0.5,0.4
	c0.9,2.7,1.8,5.4,2.7,8.1L291,60.7z"/>
<path class="st38" d="M264,63.1c-0.7,0.9-1.6,1.6-2.7,1.9c-1.3,0.4-2.6,0.3-3.9-0.3c-1.4-0.6-2-1.8-2.2-3.2
	c-0.1-0.6-0.1-1.2-0.1-1.8c0-2.5,0-5.1,0-7.6l0.4-0.4c1,0,1.9,0,2.9,0l0.3,0.3c0,2.3,0,4.7,0,7c0,0.4,0,0.9,0.1,1.3
	c0.3,1.5,1.2,2.2,2.8,1.9c1.1-0.2,1.7-0.8,2-1.8c0.2-0.6,0.2-1.2,0.2-1.8c0-2.2,0-4.4,0-6.5l0.3-0.4c1,0,2,0,3,0l0.3,0.3
	c0,4.2,0,8.4,0,12.5l-0.3,0.3c-1,0-1.9,0-2.9,0l-0.3-0.3C264.1,64.1,264,63.6,264,63.1"/>
<path class="st38" d="M242.1,55.6c-0.5,0-1,0-1.4,0l-0.3-0.2c-0.1-0.8-0.6-1.2-1.4-1.4c-0.7-0.2-1.5-0.2-2.2,0
	c-0.5,0.2-0.8,0.5-0.8,0.9c0,0.6,0.2,0.9,0.7,1.2c0.6,0.3,1.3,0.4,2,0.6c1.1,0.3,2.2,0.4,3.3,0.9c1.3,0.5,2.2,1.3,2.3,2.8
	c0.1,1.6-0.4,3-1.8,3.9c-1.1,0.7-2.3,0.9-3.6,1c-1.5,0.1-3-0.1-4.3-0.8c-1.5-0.7-2.2-1.9-2.4-3.6l0.3-0.3c1,0,1.9,0,2.9,0l0.3,0.3
	c0.1,0.8,0.5,1.3,1.2,1.6c1,0.5,2.1,0.5,3.1,0c0.6-0.3,0.8-0.7,0.8-1.3c0-0.6-0.4-0.9-0.9-1.1c-1.1-0.5-2.2-0.7-3.4-0.9
	c-0.6-0.1-1.2-0.3-1.8-0.5c-1.9-0.8-2.6-2.2-2-4.3c0.3-1,0.9-1.7,1.8-2.1c2.4-1.1,4.9-1.1,7.4,0c1.3,0.6,2,1.7,2.2,3.1l-0.3,0.3
	C243,55.6,242.6,55.6,242.1,55.6"/>
<path class="st37" d="M126.2,44.8c-0.4,0.3-0.8,0.7-1.2,1.1l-0.3-0.1c-1.2-0.7-2.4-1.2-3.8-1.4c-3-0.4-5.7,0.5-7.9,2.5
	c-2.1,1.9-3.1,4.4-3.1,7.2c0,4.4,3.3,8.5,7.7,9.4c5.3,1.1,10.4-2.3,11.5-7.6c0.2-0.8,0.2-1.6,0.2-2.5l0.2-0.6c0.4-0.5,0.8-1,1.2-1.5
	c0.4,1.9,0.4,3.8-0.1,5.6c-0.7,2.8-2.3,5-4.7,6.6c-4.9,3.3-11.5,2.3-15.2-2.4c-3.7-4.5-3.3-11.2,1-15.3
	C115.9,41.7,122.5,41.9,126.2,44.8"/>
<path class="st38" d="M119.7,62.2c-1.5,0-2.9-0.4-4.1-1.1l-0.4-0.4c-1.2-2.8-2.3-5.5-3.5-8.3l0-0.6c0.6-2.2,1.9-3.9,3.8-5.1l0.4,0.1
	c2,4.9,3.9,9.8,5.9,14.7l-0.2,0.4C120.8,62.1,120.2,62.2,119.7,62.2"/>
<path class="st38" d="M249.3,51.8c1.3,0,2.6,0,3.9,0l0.3,0.3c0,0.6,0,1.2,0,1.7l-0.3,0.3c-0.7,0-1.3,0-2,0l-0.3,0.2
	c0,2.2,0,4.4,0,6.6c0,0.8,0.3,1.1,1.1,1.1c0.4,0,0.8,0,1.2,0l0.3,0.2c0,0.8,0,1.6,0,2.4l-0.2,0.3c-1.2,0.1-2.5,0.2-3.7-0.1
	c-1.5-0.3-2.3-1.3-2.3-2.8c0-2.5,0-5,0-7.5l-0.4-0.4c-0.5,0-1,0-1.6,0l-0.3-0.3c0-0.6,0-1.2,0-1.8l0.4-0.3
	C246.7,51.8,248,51.8,249.3,51.8"/>
<path class="st38" d="M250.8,48.7c0,0.5,0,1,0,1.5l-0.3,0.3c-1,0-2,0-3,0l-0.3-0.3c0-1,0-2,0-3l0.3-0.3c1,0,2,0,3,0l0.3,0.3
	C250.8,47.7,250.8,48.2,250.8,48.7"/>
<g>
	<path class="st37" d="M307.8,37.5v55.7l-0.1,0.4c-0.5,4.9-4.7,8.7-9.7,8.7c-64.5,0-128.9,0-193.4,0c-3.9,0-6.8-1.9-8.6-5.3
		c-0.6-1.1-0.9-2.3-1.1-3.6V37.3l0.1-0.4c0.6-3.8,2.7-6.5,6.3-7.9c0.8-0.3,1.7-0.5,2.5-0.6h195l0.3,0.1c3.8,0.6,6.4,2.6,7.9,6.1
		C307.5,35.5,307.6,36.5,307.8,37.5 M201.3,78.2h104.5c0.7,0,0.6,0.1,0.6-0.6c0-13.1,0-26.3,0-39.4c0-0.4,0-0.7-0.1-1.1
		c-0.5-4.2-4.2-7.4-8.4-7.4H104.7c-0.4,0-0.8,0-1.2,0.1c-4.2,0.6-7.3,4.2-7.3,8.5v39.3c0,0.6,0,0.6,0.6,0.6H201.3z M239.1,87.5
		c-0.4-0.4-0.7-0.8-1.2-1c-1.4-0.6-3.4-0.1-4.2,1.2c-1.1,1.7-1.2,3.5-0.2,5.3c0.8,1.6,2.9,2.2,4.5,1.4c0.5-0.2,0.9-0.6,1.2-1.1
		c0,0.7,0,1.3-0.2,1.9c-0.5,1.6-2.5,2.2-3.9,1.2l-0.3-0.4c-0.1-0.5-0.5-0.5-0.9-0.5h-0.4l-0.2,0.3c0.1,0.8,0.5,1.3,1.2,1.7
		c1.1,0.6,2.2,0.6,3.4,0.3c1.2-0.3,2-1,2.3-2.2c0.1-0.5,0.2-1,0.2-1.5c0-2.2,0-4.5,0-6.7c0-1,0-1-1-1h0l-0.2,0.2V87.5z M247,89
		c0,1.8,0,3.5,0,5.3l0.3,0.4h0.9l0.3-0.3c0-1.3,0-2.7,0-4l0.3-0.3c1.2,0,2.3,0,3.5,0c1.5,0,2.6-0.8,3-2.1c0.3-0.9,0.3-1.7,0-2.6
		c-0.4-1.3-1.5-2-3-2c-1.6,0-3.3,0-4.9,0l-0.4,0.4C247,85.5,247,87.3,247,89 M115.6,94.7l-0.1-0.3c-1.3-3.2-2.5-6.5-3.8-9.8
		c-0.2-0.4-0.2-1-0.5-1.2c-0.3-0.2-0.9,0-1.3-0.1l-0.4,0.3c-0.7,1.8-1.4,3.6-2.1,5.4c-0.7,1.7-1.4,3.5-2.1,5.3l0.2,0.3h0.9l0.4-0.3
		c0.3-1,0.7-1.9,1.1-2.9l0.4-0.3c1.4,0,2.8,0,4.2,0l0.4,0.3c0.3,1,0.7,1.9,1,2.9l0.3,0.3C114.7,94.7,115.1,94.7,115.6,94.7
		 M179.2,87.5L179.2,87.5c-1.8-1.9-4.9-1.5-5.9,0.8c-0.7,1.5-0.7,3.1,0,4.6c0.5,1.2,1.4,1.9,2.6,2c1.3,0.2,2.5,0,3.4-1.2v0.6
		c0,0.3,0.1,0.5,0.4,0.4h0.6l0.3-0.4c0-3.6,0-7.1,0-10.6l-0.3-0.3h-0.7l-0.3,0.3c0,1.1,0,2.3,0,3.4L179.2,87.5z M262.3,93.7l0.1,0.5
		c0.1,0.4,0.4,0.7,0.9,0.7l0.9-0.1l0.3-0.2l0-0.9l-0.1,0c-0.6,0-0.7-0.1-0.7-0.7c0-1.5,0-3,0-4.5c0-1.1-0.6-1.8-1.6-2.1
		c-0.9-0.2-1.7-0.2-2.6-0.1c-1.4,0.3-2.1,1.1-2.3,2.4l0.3,0.3h0.8l0.3-0.2c0-0.4,0.2-0.8,0.6-1c0.9-0.5,1.8-0.5,2.7-0.1
		c0.5,0.2,0.6,0.7,0.5,1.2c0,0.4-0.4,0.6-0.8,0.7c-0.4,0.1-0.7,0.1-1.1,0.2c-0.8,0.1-1.7,0.2-2.4,0.6c-0.9,0.4-1.3,1.2-1.3,2.3
		c0.1,1,0.6,1.6,1.5,1.9c0.6,0.2,1.2,0.2,1.8,0.1C260.9,94.8,261.6,94.4,262.3,93.7 M205.2,93.8c0.3,1.1,0.7,1.4,1.7,1.1l0.4-0.2
		l0-0.9l-0.2,0c-0.6,0-0.7,0-0.7-0.7c0-1.5,0-3,0-4.5c0-1.1-0.6-1.8-1.7-2.1c-0.8-0.2-1.7-0.2-2.5-0.1c-1.4,0.2-2.2,1.1-2.4,2.4
		l0.3,0.3h0.8l0.4-0.3c0-0.4,0.2-0.8,0.6-1c0.9-0.5,1.8-0.5,2.6-0.1c0.5,0.2,0.6,0.7,0.6,1.2c0,0.5-0.4,0.6-0.8,0.7l-0.6,0.1
		c-0.9,0.2-1.9,0.2-2.8,0.6c-1,0.4-1.4,1.2-1.4,2.4c0.1,1,0.6,1.7,1.6,2C202.7,95.2,204,94.9,205.2,93.8 M288.9,91
		c0.9,0,1.8,0,2.7,0l0.4-0.4c0-0.6-0.1-1.3-0.3-1.9c-0.5-1.4-1.4-2.3-3-2.5c-1.6-0.1-2.8,0.4-3.6,1.8c-1,1.8-0.9,3.6,0.2,5.4
		c0.9,1.4,2.3,1.7,3.9,1.4c1.4-0.2,2.3-1.1,2.7-2.5l-0.2-0.3l-0.7,0l-0.4,0.3c-0.2,0.6-0.5,1-1.1,1.2c-1.7,0.7-3.4-0.4-3.5-2.2
		l0.3-0.4C287,91,288,91,288.9,91 M168.8,91c0.9,0,1.9,0,2.8,0l0.3-0.3c0-0.8-0.2-1.5-0.4-2.2c-1.1-2.8-4.5-2.7-6.1-1
		c-1.5,1.7-1.3,4.5-0.3,6c0.8,1.2,2,1.5,3.4,1.5c1.6,0,2.8-1,3.2-2.5l-0.3-0.3h-0.7l-0.4,0.3c-0.2,0.5-0.5,0.9-1,1.2
		c-1.7,0.8-3.6-0.4-3.6-2.3L166,91C167,91,167.9,91,168.8,91 M131.7,87.6c0-1.1,0-2.2,0-3.2l-0.1-1l-1-0.1l-0.3,0.3
		c0,3.6,0,7.1,0,10.7l0.3,0.3h0.7l0.3-0.4c0-1.5,0-3,0-4.4c0-0.5,0.1-1,0.4-1.5c0.5-0.8,1.6-1.2,2.6-0.9c0.8,0.2,1.1,0.8,1.1,1.9
		c0,1.4,0,2.8,0,4.3l0.1,0.9l0.9,0.1l0.4-0.4c0-1.7,0-3.3,0-5l-0.1-0.9c-0.1-1.2-0.8-1.9-2-2.1C133.7,86.1,132.6,86.4,131.7,87.6
		 M146.7,90.6v-0.3c0-2.2-1.3-3.8-3.4-4.1c-2.1-0.3-3.9,0.7-4.4,2.9c-0.2,0.7-0.2,1.4-0.1,2.1c0.3,3.1,3.7,4.7,6.3,2.9
		C146.3,93.4,146.7,92.1,146.7,90.6 M191.4,89.7c0-1.5,0-3.1,0-4.6c0-0.4,0.1-0.5,0.5-0.4c0.8,0,1.6,0,2.4,0c0.9,0,0.9,0,0.9-0.9
		l-0.4-0.4c-2.6,0-5.2,0-7.7,0c-0.9,0-0.9,0-0.9,1l0.3,0.3c1,0,2,0,3,0l0.4,0.4c0,2.8,0,5.7,0,8.5c0,0.4-0.2,0.8,0.1,1.1
		c0.2,0.2,0.7,0,1.1,0.1l0.4-0.4C191.4,92.8,191.4,91.2,191.4,89.7 M277.2,87.8v-0.4c0-0.9,0-0.9-0.9-0.9l-0.4,0.4
		c0,2.3,0,4.6,0,6.8c0,1,0,1,1,1l0.4-0.4c0-1.5,0-3,0-4.5c0-0.6,0.2-1.1,0.5-1.6c0.5-0.7,1.7-1,2.5-0.7c0.7,0.3,1,0.8,1,1.9
		c0,1.4,0,2.8,0,4.2l0.1,1l1,0.1l0.3-0.3c0-1.3,0-2.5,0-3.8c0-0.7,0-1.4,0-2.1c-0.1-1.1-0.7-1.9-1.8-2.1
		C279.4,86.1,278.2,86.3,277.2,87.8 M122,93.5v0.3c0,0.9,0,0.9,0.9,0.9l0.3-0.4c0-2.5,0-5,0-7.5l-0.3-0.3h-0.7l-0.3,0.4
		c0,1.5,0,3,0,4.5c0,0.6-0.2,1.1-0.5,1.6c-0.5,0.7-1.7,1-2.5,0.7c-0.7-0.2-1-0.8-1-1.9c0-1.4,0-2.9,0-4.3l-0.1-0.9l-0.9-0.1
		l-0.4,0.4c0,1.5,0,3,0,4.5c0,0.5,0,0.9,0.1,1.4c0.1,1,0.6,1.7,1.6,2C119.4,95.1,121,95,122,93.5 M225.8,87.7l-0.1-0.3
		c0-0.9,0-0.9-0.9-0.9l-0.4,0.4c0,2.3,0,4.6,0,6.9c0,1,0,0.9,1,1l0.4-0.4c0-1.5,0-2.9,0-4.4c0-0.6,0.1-1.1,0.5-1.6
		c0.5-0.7,1.7-1,2.5-0.7c0.7,0.2,1.1,0.8,1.1,1.9c0,1.4,0,2.8,0,4.3l0.1,0.9l0.9,0.1l0.4-0.4c0-1.4,0-2.8,0-4.2c0-0.6,0-1.1-0.1-1.7
		c-0.1-0.9-0.5-1.7-1.5-2c-0.8-0.3-1.6-0.3-2.4,0C226.7,86.6,226.2,87.1,225.8,87.7 M213.4,87.8v-0.4c0-0.9,0-0.9-0.9-0.9l-0.4,0.4
		c0,2.3,0,4.6,0,6.8c0,1,0,1,1,1l0.4-0.4c0-1.5,0-3,0-4.4c0-0.6,0.2-1.1,0.5-1.6c0.5-0.7,1.7-1.1,2.5-0.8c0.7,0.2,1.1,0.8,1.1,1.9
		c0,1.4,0,2.8,0,4.3l0.1,0.9l1,0.1l0.3-0.4c0-1.6,0-3.3,0-4.9l-0.1-0.9c-0.1-1.2-0.8-2-2-2.2C215.5,86.1,214.3,86.4,213.4,87.8
		 M158.2,93.5c1.6-1.9,3.1-3.8,4.7-5.6c0.2-0.3,0.4-0.6,0.4-1l-0.4-0.4c-1.7,0-3.4,0-5.1,0c-0.9,0-0.9,0-0.9,0.9l0.4,0.3
		c1.3,0,2.5,0,3.8,0l0.4,0.1l-0.2,0.2c-1.4,1.7-2.8,3.4-4.3,5.1c-0.3,0.4-0.5,0.7-0.4,1.2l0.4,0.4c1.9,0,3.8,0,5.7,0
		c0.9,0,0.9,0,0.9-0.9l-0.4-0.3c-1.1,0-2.2,0-3.3,0H158.2z M125.9,90.8c0,0.8-0.1,1.8,0,2.8c0.1,0.6,0.4,0.9,1,1.1
		c0.6,0.1,1.2,0.1,1.7,0.1l0.2-0.1l0-1l-0.7-0.1l-0.2,0c-0.6,0-0.7-0.2-0.7-0.8c0-1.4,0-2.9,0-4.3c0-0.7,0-0.7,0.8-0.7
		c1,0,1,0,0.9-1l-0.3-0.3c-0.4,0-0.7,0-1.1,0l-0.3-0.3c0-0.4,0-0.8,0-1.1c0-1,0-1-1-1l-0.3,0.4c0,0.6,0,1.2,0,1.8l-0.3,0.3l-0.8,0
		l-0.3,0.4c0.1,0.3-0.3,0.8,0.3,0.8h0.8l0.3,0.3C125.8,88.9,125.9,89.7,125.9,90.8 M271.5,90.8c0,0.8-0.1,1.8,0.1,2.8
		c0.1,0.6,0.4,0.9,1,1c0.6,0.1,1.2,0.1,1.7,0c0.4,0,0.2-0.5,0.2-0.7c0-0.2,0.2-0.5-0.2-0.5l-0.8,0c-0.5,0-0.6-0.2-0.6-0.6
		c0-1.6,0-3.3,0-4.9l0.3-0.3c0.4,0,0.7,0,1.1,0l0.3-0.2l-0.1-1l-0.2,0c-0.3,0-0.7,0-1,0l-0.3-0.3c0-0.4,0-0.8,0-1.2l-0.1-1l-1-0.1
		l-0.3,0.3c0,0.6,0,1.2,0,1.8l-0.3,0.3h-0.9l-0.2,0.1l0.1,1l0.8,0.1h0.3l0.3,0.3C271.5,88.9,271.5,89.7,271.5,90.8 M149.5,88v-0.6
		c0-0.9,0-0.9-0.9-0.9l-0.4,0.4c0,2.3,0,4.6,0,6.9l0.1,0.9l0.9,0.1l0.4-0.4c0-1.2,0-2.5,0-3.7c0-1.6,0.8-2.9,2.7-2.9l0.2-0.3v-1
		l-0.3-0.2c-0.8,0-1.4,0.2-2,0.8L149.5,88z M196.1,88.1v-0.7c0-0.9,0-0.9-0.9-0.9l-0.4,0.4c0,2.3,0,4.5,0,6.8l0.1,1l1,0.1l0.3-0.3
		c0-1,0-2.1,0-3.1c0-0.5,0-0.9,0.1-1.4c0.2-1,0.7-1.8,1.8-2.1l0.8-0.1l0.2-0.3l0-0.9l-0.3-0.3c-0.9,0-1.6,0.3-2.2,1L196.1,88.1z
		 M266.9,88v-0.6c0-0.9,0-0.9-0.9-0.9l-0.4,0.4c0,2.3,0,4.6,0,6.9l0.1,0.9l0.9,0.1l0.4-0.4c0-1.2,0-2.5,0-3.7c0-1.7,0.8-2.9,2.7-2.9
		l0.2-0.3v-0.9l-0.3-0.2c-0.8,0-1.4,0.2-2,0.8L266.9,88z M294.6,88.1v-0.8c0-0.9,0-0.9-0.9-0.9l-0.4,0.4c0,2.3,0,4.6,0,6.9l0.1,0.9
		l0.9,0.1c0.4,0,0.4-0.1,0.4-0.4c0-1.2,0-2.5,0-3.7c0-1.8,1-2.8,2.7-2.8l0.2-0.3v-0.9l-0.3-0.3c-0.9,0-1.7,0.3-2.2,1L294.6,88.1z
		 M210,90.6c0-1.1,0-2.1,0-3.2l-0.1-0.9l-0.9-0.1c-0.4,0-0.4,0.1-0.4,0.4c0,2.3,0,4.5,0,6.8l0.1,1l1,0.1l0.3-0.4
		C210,93.1,210,91.9,210,90.6 M222.4,90.6c0-1.1,0-2.1,0-3.2l-0.1-0.9l-0.9-0.1l-0.4,0.4c0,2.3,0,4.5,0,6.8l0.1,1l1,0.1l0.3-0.3
		C222.4,93.1,222.4,91.9,222.4,90.6 M153.7,90.6c0,1.1,0,2.1,0,3.1l0.1,0.9l0.9,0.1l0.4-0.4c0-2.3,0-4.6,0-6.9l-0.1-0.9l-0.9-0.1
		l-0.4,0.3C153.7,88.1,153.7,89.3,153.7,90.6 M222.4,84.2v-0.6l-0.2-0.2c-0.4,0-0.8-0.1-1.1,0.1l-0.1,0.9l0,0.2
		c0,0.6-0.1,0.5,0.5,0.5C222.4,85,222.4,85,222.4,84.2 M208.6,84.2v0.6l0.2,0.2c1.1,0.1,1.1,0.1,1.1-1v-0.2c0-0.5,0-0.5-0.5-0.5
		C208.6,83.4,208.6,83.4,208.6,84.2 M155,84.2l0-0.6l-0.2-0.2c-0.4,0-0.8-0.1-1.1,0.1l-0.1,0.9v0.2c0,0.5,0,0.5,0.5,0.5
		C155,85,155,85,155,84.2"/>
	<path class="st37" d="M239,90.3c0,0.8-0.1,1.5-0.5,2.1c-0.5,0.8-1.2,1.2-2.1,1.1c-0.9,0-1.5-0.5-1.9-1.3c-0.4-1.1-0.5-2.2-0.1-3.3
		c0.4-1.1,1.3-1.6,2.5-1.5c1,0.1,1.8,0.8,2,2L239,90.3z"/>
	<path class="st37" d="M248.5,86.7c0-0.6,0-1.2,0-1.8l0.2-0.3c1.2,0,2.4-0.1,3.6,0.1c1.2,0.2,1.8,0.9,1.7,2.2c0,1.1-0.7,1.8-1.9,1.9
		c-1.1,0.1-2.2,0-3.3,0l-0.2-0.3C248.5,87.9,248.5,87.3,248.5,86.7"/>
	<path class="st37" d="M110.4,84.7c0.6,1.8,1.2,3.4,1.8,5L112,90h-3.3l-0.2-0.2C109.1,88.1,109.7,86.5,110.4,84.7"/>
	<path class="st37" d="M174.3,90.8c0-0.7,0.1-1.3,0.3-1.8c0.4-1,1-1.5,2.1-1.5c1,0,1.9,0.4,2.3,1.3c0.6,1.2,0.6,2.4,0,3.6
		c-0.4,0.9-1.1,1.3-2.1,1.3c-1,0-1.7-0.4-2.2-1.2C174.4,91.9,174.3,91.3,174.3,90.8"/>
	<path class="st37" d="M262.2,90.5c0,0.6,0.1,1.2-0.1,1.7c-0.2,0.8-1,1.4-2,1.5c-0.4,0-0.8,0.1-1.2-0.1c-0.5-0.1-0.9-0.4-0.9-1
		c-0.1-0.6,0.2-1.1,0.7-1.3c0.5-0.3,1.1-0.3,1.6-0.4C261,90.9,261.6,90.8,262.2,90.5"/>
	<path class="st37" d="M205.1,90.5c0,0.5,0,1,0,1.5c-0.1,0.6-0.5,1.1-1,1.3c-0.7,0.4-1.4,0.4-2.2,0.3c-0.6-0.1-0.9-0.5-0.9-1
		c-0.1-0.6,0.1-1,0.6-1.3c0.5-0.3,1.2-0.4,1.8-0.4C204,90.8,204.6,90.8,205.1,90.5"/>
	<path class="st37" d="M288.1,89.8c-0.7,0-1.4,0-2.1,0l-0.3-0.3c0.2-1.2,1.1-2,2.3-2c1.2,0,2.1,0.8,2.3,1.9l-0.3,0.4
		C289.5,89.8,288.8,89.8,288.1,89.8"/>
	<path class="st37" d="M168.1,89.8c-0.7,0-1.4,0-2.1,0l-0.3-0.3c0.2-1.2,1.1-2,2.3-2c1.2,0,2.1,0.8,2.3,1.9l-0.3,0.4
		C169.4,89.8,168.8,89.8,168.1,89.8"/>
	<path class="st37" d="M140.1,90.6c0-0.6,0.1-1.1,0.3-1.6c0.5-1,1.2-1.5,2.3-1.5c1.1,0,1.8,0.5,2.2,1.5c0.5,1.1,0.5,2.3,0,3.4
		c-0.5,0.9-1.2,1.4-2.3,1.4c-1,0-1.8-0.6-2.2-1.5C140.2,91.7,140.1,91.2,140.1,90.6"/>
</g>
</svg>
