<?xml version="1.0" encoding="utf-8"?>
<!-- Generator: Adobe Illustrator 22.0.1, SVG Export Plug-In . SVG Version: 6.00 Build 0)  -->
<svg version="1.1" id="Capa_1" xmlns="http://www.w3.org/2000/svg" xmlns:xlink="http://www.w3.org/1999/xlink" x="0px" y="0px"
	 viewBox="0 0 403.4 128.8" style="enable-background:new 0 0 403.4 128.8;" xml:space="preserve">
<style type="text/css">
	.st0{clip-path:url(#SVGID_2_);fill:url(#SVGID_3_);}
	.st1{fill:#A4D5F4;}
	.st2{fill:url(#SVGID_4_);}
	.st3{fill:#D3D11A;}
	.st4{fill:url(#SVGID_5_);}
	.st5{fill:#05AA70;}
	.st6{fill:url(#SVGID_6_);}
	.st7{fill:url(#SVGID_9_);}
	.st8{fill:url(#SVGID_10_);}
	.st9{fill:#8AC05C;}
	.st10{fill:url(#SVGID_13_);}
	.st11{fill:#65C3F0;}
	.st12{fill:#CCD744;}
	.st13{fill:#9BC327;}
	.st14{fill:url(#SVGID_14_);}
	.st15{fill:#00AEDA;}
	.st16{fill:#75BB6A;}
	.st17{fill:#23AB6E;}
	.st18{fill:#009679;}
	.st19{clip-path:url(#SVGID_16_);fill:url(#SVGID_17_);}
	.st20{fill:url(#SVGID_18_);}
	.st21{fill:url(#SVGID_19_);}
	.st22{fill:url(#SVGID_20_);}
	.st23{fill:url(#SVGID_23_);}
	.st24{fill:url(#SVGID_24_);}
	.st25{fill:url(#SVGID_27_);}
	.st26{fill:url(#SVGID_28_);}
	.st27{fill:#3D3E3E;}
	.st28{font-family:'GothamBlack';}
	.st29{font-size:24.5597px;}
	.st30{fill:#0168AB;}
	.st31{fill:#1A81C2;}
	.st32{fill:#679D3E;}
	.st33{fill:#29AFA4;}
	.st34{fill:#5E5E5E;}
	.st35{fill:#BA4F2E;}
	.st36{fill:#067EC2;}
	.st37{fill:#087DC1;}
	.st38{fill:#E73539;}
	.st39{fill:#066EB6;}
	.st40{fill:#54B14B;}
	.st41{fill:#939494;}
	.st42{fill:#80807C;}
	.st43{fill:#010202;}
	.st44{fill:#616160;}
	.st45{fill:#9D9D9C;}
	.st46{fill:#131214;}
</style>
<text transform="matrix(0.9041 0 0 1 119.2958 70.3923)"><tspan x="0" y="0" class="st27 st28 st29">WIN</tspan><tspan x="54.7" y="0" class="st30 st28 st29">SHUTTLE </tspan></text>
<g>
	<path class="st44" d="M281.9,68.3c0.4-0.6,0.7-1.1,1-1.5l0.5-0.2l0.1,0.4c0,0.8,0,1.7,0,2.5l-0.2,0.5l-0.2,0v-2.3l-0.2,0
		c-0.3,0.4-0.6,0.9-1,1.4c-0.4-0.5-0.8-0.9-1.1-1.4l-0.2,0v2.3l-0.2,0v-3.3c0.6-0.2,0.5,0.4,0.8,0.7
		C281.4,67.6,281.6,67.9,281.9,68.3z"/>
	<path class="st44" d="M277.9,70.1l-0.2-0.6c0-0.8,0-1.6,0-2.2c-0.3-0.4-1.1,0.2-1-0.7h2.7c0,0.4,0,0.4-1.1,0.6V70L277.9,70.1z"/>
</g>
</svg>
