<?xml version="1.0" encoding="utf-8"?>
<!-- Generator: Adobe Illustrator 22.0.1, SVG Export Plug-In . SVG Version: 6.00 Build 0)  -->
<svg version="1.1" id="Capa_1" xmlns="http://www.w3.org/2000/svg" xmlns:xlink="http://www.w3.org/1999/xlink" x="0px" y="0px"
	 viewBox="0 0 403.4 128.8" style="enable-background:new 0 0 403.4 128.8;" xml:space="preserve">
<style type="text/css">
	.st0{clip-path:url(#SVGID_2_);fill:url(#SVGID_3_);}
	.st1{fill:#A4D5F4;}
	.st2{fill:url(#SVGID_4_);}
	.st3{fill:#D3D11A;}
	.st4{fill:url(#SVGID_5_);}
	.st5{fill:#05AA70;}
	.st6{fill:url(#SVGID_6_);}
	.st7{fill:url(#SVGID_9_);}
	.st8{fill:url(#SVGID_10_);}
	.st9{fill:#8AC05C;}
	.st10{fill:url(#SVGID_13_);}
	.st11{fill:#65C3F0;}
	.st12{fill:#CCD744;}
	.st13{fill:#9BC327;}
	.st14{fill:url(#SVGID_14_);}
	.st15{fill:#00AEDA;}
	.st16{fill:#75BB6A;}
	.st17{fill:#23AB6E;}
	.st18{fill:#009679;}
	.st19{clip-path:url(#SVGID_16_);fill:url(#SVGID_17_);}
	.st20{fill:url(#SVGID_18_);}
	.st21{fill:url(#SVGID_19_);}
	.st22{fill:url(#SVGID_20_);}
	.st23{fill:url(#SVGID_23_);}
	.st24{fill:url(#SVGID_24_);}
	.st25{fill:url(#SVGID_27_);}
	.st26{fill:url(#SVGID_28_);}
	.st27{fill:#3D3E3E;}
	.st28{fill:#0168AB;}
	.st29{fill:#1A81C2;}
	.st30{fill:#679D3E;}
	.st31{fill:#29AFA4;}
	.st32{fill:#5E5E5E;}
	.st33{fill:#BA4F2E;}
	.st34{fill:#067EC2;}
	.st35{fill:#087DC1;}
	.st36{fill:#E73539;}
	.st37{fill:#066EB6;}
	.st38{fill:#54B14B;}
	.st39{fill:#939494;}
	.st40{fill:#80807C;}
	.st41{fill:#010202;}
	.st42{fill:#616160;}
	.st43{fill:#9D9D9C;}
	.st44{fill:#131214;}
</style>
<path class="st29" d="M125.4,49.7c2.3,0,4.7,0,7,0c1,0,1.5,0.3,1.9,1.2c2.5,5.8,4.9,11.6,7.4,17.4c1.3,3,2.6,6.1,3.9,9.1
	c0.5,1,0.4,1.4-0.9,1.4c-1.8-0.1-3.6-0.1-5.4,0c-1,0-1.4-0.3-1.8-1.2c-2.6-6.4-5.4-12.7-8.1-19c-0.2-0.5-0.2-1-0.7-1.3
	C127.8,54.8,127,52.1,125.4,49.7z"/>
<path class="st30" d="M125.4,49.7c1.6,2.4,2.4,5,3.4,7.6c-1.7,3.1-2.8,6.5-4.3,9.7c-0.7,1.4-1.2,2.9-1.8,4.4c-0.8,0-1.7,0-2.5,0.1
	c-1.3,0-2.7,0.1-4-0.3c-0.7-0.8-0.6-1.7-0.2-2.7c2.4-5.8,4.8-11.6,7.2-17.4C123.7,50,124.2,49.5,125.4,49.7z"/>
<path class="st31" d="M120.2,71.5c0.8,0,1.7,0,2.5-0.1c3.7,0,7.3,0,11,0c0,0.1,0.1,0.2,0.1,0.3c-2.3,1.4-4.6,2.9-6.9,4.3
	c-1.2,0.7-2.3,1.7-3.7,1.9c-0.4,0-0.9-0.1-1-0.5C121.7,75.4,120.5,73.6,120.2,71.5z"/>
<path class="st31" d="M120.2,71.5c0.2,2.1,1.5,3.9,2,5.9c0.1,0.4,0.6,0.5,1,0.5c-2,1.2-2.9,1-3.9-0.9c-1-1.9-2.3-3.8-3.1-5.9
	C117.6,71.6,118.9,71.4,120.2,71.5z"/>
<g>
	<path class="st44" d="M253.3,68.8c-2.4,0-4.8,0-7.2,0c-0.8,0-1-0.3-1-1c0.1-0.8,0.1-1.7,0-2.5c-0.1-0.7,0.1-1,0.9-1c1,0.1,2,0,3,0
		c2,0,2,0,1.9-2c0-0.6-0.2-0.8-0.8-0.7c-1.5,0-3,0-4.5,0c-0.5,0-0.7-0.2-0.7-0.7c0-0.9,0.1-1.9,0-2.8c0-0.7,0.2-0.8,0.8-0.8
		c2.1,0,4.2,0,6.3,0c2.1,0,2,0,2-2.1c0-0.6-0.2-0.8-0.8-0.8c-3.5,0-7,0-10.6,0c-0.7,0-0.8,0.2-0.8,0.8c0,2.6,0,5.1,0,7.7
		c0,2.6,0,5.1,0,7.7c0,0.6,0.1,0.8,0.8,0.8c3.2,0,6.4,0,9.5,0c1.9,0,1.8,0,1.9-1.8C254.3,69,254.1,68.8,253.3,68.8"/>
	<path class="st44" d="M185.6,56.7c0-2.1,0-2.1-2.1-2.1c-0.8,0-1,0.2-0.9,1c0,3,0,6,0,8.9c0,3.3-2.3,5.2-5.3,4.5
		c-1.9-0.4-3.1-2.1-3.1-4.4c0-2.6,0-5.1,0-7.7c0-2.3,0-2.3-2.3-2.3c-0.6,0-0.7,0.2-0.7,0.7c0,1.6,0,3.2,0,5.1
		c0.1,1.7-0.2,3.7,0.2,5.6c0.6,3.7,3.3,5.8,7.4,5.8c3.7,0,6.4-2.3,6.9-6C185.9,62.8,185.6,59.7,185.6,56.7"/>
	<path class="st44" d="M267.4,62.9c-1-0.5-2-0.9-3-1.3c-1-0.3-2-0.7-2.9-1.1c-0.8-0.3-1.4-0.9-1.3-1.9c0.1-0.9,0.9-1.2,1.7-1.4
		c1.5-0.3,2.9-0.2,4.4,0.3c0.5,0.2,1.1,0.8,1.6,0.4c0.4-0.3,0.5-1.1,0.8-1.6c0-0.1,0-0.1,0.1-0.2c0.2-0.4,0.1-0.5-0.3-0.7
		c-2.9-1.3-5.9-1.8-8.9-0.3c-3,1.5-3.3,5.4-0.5,7.3c1,0.7,2,1.1,3.1,1.5c1,0.4,2.1,0.6,3,1.2c0.8,0.4,1.5,1,1.4,2
		c-0.1,1.1-0.9,1.6-1.9,1.8c-1.3,0.3-2.5,0.1-3.8-0.3c-1.1-0.4-2.1-1.1-3.1-1.8c-0.3,0.8-0.6,1.5-0.9,2.2c-0.1,0.3-0.1,0.5,0.2,0.8
		c2.3,2.2,7.5,2.7,10.2,1.2C270.1,69.4,270.7,64.6,267.4,62.9"/>
	<path class="st44" d="M188.9,56.8c0,0.5,0.2,0.6,0.7,0.6c1.3,0,2.6,0,3.9,0c0.7,0,0.8,0.2,0.8,0.8c0,3.7,0,7.4,0,11.2
		c0,2.2,0,2.2,2.2,2.2c0.8,0,0.9-0.2,0.9-0.9c0-4.1,0-8.3,0-12.4c0-0.7,0.2-0.9,0.9-0.9c1,0.1,2,0,2.9,0c0.3,0,0.6,0,0.8-0.3
		c0.3-0.8,0.6-1.6,1-2.5H191C188.8,54.6,188.8,54.6,188.9,56.8"/>
	<path class="st44" d="M279.8,63.5c-0.5-0.5-0.5-0.8,0-1.4c1.8-1.9,3.6-3.8,5.3-5.7c0.5-0.6,1.2-1.1,1.5-1.9c-1.1,0-2.1,0-3,0
		c-0.3,0-0.6,0.1-0.8,0.3c-2.3,2.5-4.7,5.1-7,7.6c-0.5-0.1-0.3-0.5-0.3-0.8c0-1.7,0-3.5,0-5.2c0-1.9,0-1.9-2-2c-0.9,0-1,0.3-1,1
		c0,4.7,0,9.3,0,14c0,2,0,2,2.1,2c0.7,0,0.9-0.1,0.8-0.8c0-2.3,0-4.5,0-6.8c0-0.3-0.2-0.7,0.3-0.8c2.6,2.7,5.2,5.4,7.7,8.2
		c0.2,0.2,0.3,0.3,0.6,0.3c1.1,0,2.2,0,3.4,0c-0.1-0.2-0.2-0.3-0.2-0.4C284.8,68.7,282.3,66.1,279.8,63.5"/>
	<path class="st44" d="M236.1,63.7c-0.2,2.7-2.3,4.8-4.9,5.1c-1.1,0.1-2.3,0-3.4,0.1c-0.6,0-0.8-0.2-0.7-0.7c0-1.7,0-3.3,0-5
		c0-1.6,0-3.2,0-4.9c0-0.6,0.1-0.9,0.8-0.9c1.3,0.1,2.7-0.1,4,0.2C234.6,58.2,236.3,60.6,236.1,63.7 M231.7,54.7
		c-2.4-0.3-4.8-0.1-7.2-0.1c-0.7,0-0.6,0.4-0.6,0.8c0,2.6,0,5.1,0,7.7c0,2.6,0,5.2,0,7.8c0,0.6,0.2,0.7,0.7,0.7c2.1,0,4.1,0,6.2,0
		c4.4-0.1,8.1-3.6,8.3-7.8C239.4,59,236.3,55.3,231.7,54.7"/>
	<path class="st44" d="M212.1,69.1c-3.2,0-5.8-2.7-5.8-6.1c0-3.4,2.6-6,5.8-5.9c3.2,0,5.7,2.6,5.7,6
		C217.8,66.5,215.3,69.1,212.1,69.1 M212.1,54.3c-4.9,0-8.9,4-8.8,8.8c0.1,4.9,3.9,8.7,8.8,8.8c4.8,0,8.8-3.9,8.8-8.7
		C220.8,58.2,217,54.3,212.1,54.3"/>
	<path class="st44" d="M158.1,64.8c0.9-2.2,1.8-4.3,2.8-6.7c1,2.3,1.9,4.5,2.9,6.7H158.1z M163.2,56.3c-0.8-1.8-0.8-1.8-2.8-1.8
		c-0.7,0-0.9,0.2-1.2,0.8c-1.3,3.2-2.8,6.3-4.1,9.5c-1,2.2-2,4.5-2.9,6.8c3,0.3,3,0.3,4.1-2.2c0.2-0.4,0.3-0.7,0.5-1.1
		c0.2-0.6,0.5-0.7,1-0.7c1.9,0,3.8,0.1,5.7,0c1.2-0.1,1.8,0.3,2.2,1.5c0.3,0.9,0.5,2.1,1.2,2.5c0.7,0.4,1.9,0.1,2.9,0.1
		c0.1,0,0.1,0,0.2-0.1c-0.1-0.2-0.2-0.5-0.3-0.7C167.4,66,165.3,61.1,163.2,56.3"/>
	<path class="st44" d="M289.8,69.9L289.8,69.9c-0.1,0-0.2,0-0.3,0c0,0,0,0,0,0v0.2v0.2c0,0,0,0,0,0c0.1,0,0.1,0,0.2,0
		c0.1,0,0.1,0,0.1-0.1c0,0,0-0.1,0-0.1C289.9,70,289.9,69.9,289.8,69.9"/>
	<path class="st44" d="M290.5,71.2c-0.1,0-0.3,0-0.4,0c0,0,0,0,0,0c-0.1-0.1-0.1-0.3-0.2-0.4c0,0,0-0.1-0.1-0.1
		c0-0.1-0.1-0.1-0.2-0.1c0,0-0.1,0-0.1,0c0,0,0,0,0,0c0,0.2,0,0.4,0,0.5c0,0,0,0,0,0h0h-0.3c0,0,0,0,0,0v-1.5c0,0,0,0,0,0s0,0,0,0h0
		c0.2,0,0.5,0,0.7,0c0.1,0,0.2,0,0.3,0.1c0.1,0.1,0.2,0.1,0.2,0.3c0,0.1,0,0.2,0,0.3c0,0.1-0.1,0.2-0.2,0.2c0,0,0,0,0,0c0,0,0,0,0,0
		c0.1,0,0.2,0.1,0.2,0.2C290.4,70.8,290.4,71,290.5,71.2L290.5,71.2 M289.8,69.2c-0.6,0-1.2,0.5-1.2,1.2c0,0.7,0.5,1.2,1.2,1.2
		c0.6,0,1.1-0.5,1.2-1.2C290.9,69.8,290.4,69.2,289.8,69.2"/>
</g>
</svg>
