<?xml version="1.0" encoding="utf-8"?>
<!-- Generator: Adobe Illustrator 16.0.0, SVG Export Plug-In . SVG Version: 6.00 Build 0)  -->
<!DOCTYPE svg PUBLIC "-//W3C//DTD SVG 1.1//EN" "http://www.w3.org/Graphics/SVG/1.1/DTD/svg11.dtd">
<svg version="1.1" id="Capa_1" xmlns="http://www.w3.org/2000/svg" xmlns:xlink="http://www.w3.org/1999/xlink" x="0px" y="0px"
	 width="112.311px" height="36.572px" viewBox="0 0 112.311 36.572" style="enable-background:new 0 0 112.311 36.572;"
	 xml:space="preserve">
<style type="text/css">
<![CDATA[
	.st0{opacity:0.05;fill:#5D5D5D;}
	.st1{fill:none;stroke:#5D5D5D;stroke-width:0.5;stroke-miterlimit:10;}
	.st2{fill:#ECB43C;}
	.st3{fill:none;stroke:#ECB43C;stroke-width:2;stroke-miterlimit:10;}
	.st4{fill-rule:evenodd;clip-rule:evenodd;fill:#887AA8;}
	.st5{fill:#5D5D5D;}
	.st6{fill-rule:evenodd;clip-rule:evenodd;fill:#89898A;}
	.st7{fill-rule:evenodd;clip-rule:evenodd;fill:#ECB43C;}
	.st8{fill:#FFB62A;}
	.st9{fill:#FFFFFF;}
	.st10{clip-path:url(#SVGID_2_);fill:#5D5D5D;}
	.st11{fill:#CBD64E;}
	.st12{fill-rule:evenodd;clip-rule:evenodd;fill:#5D5D5D;}
	.st13{fill:none;stroke:#5D5D5D;stroke-miterlimit:10;}
	.st14{opacity:0.1;fill:#5D5D5D;}
	.st15{fill-rule:evenodd;clip-rule:evenodd;fill:#FA494D;}
	.st16{clip-path:url(#SVGID_2_);fill:#FFFFFF;}
	.st17{clip-path:url(#SVGID_4_);fill:#5D5D5D;}
	.st18{fill-rule:evenodd;clip-rule:evenodd;fill:#FF8F48;}
	.st19{fill-rule:evenodd;clip-rule:evenodd;fill:#FFB62A;}
	.st20{fill-rule:evenodd;clip-rule:evenodd;fill:#FFFFFF;}
	.st21{fill-rule:evenodd;clip-rule:evenodd;fill:none;stroke:#89898A;stroke-miterlimit:10;}
	.st22{clip-path:url(#SVGID_6_);fill:#5D5D5D;}
	.st23{fill-rule:evenodd;clip-rule:evenodd;fill:none;stroke:#5D5D5D;stroke-miterlimit:10;}
	.st24{fill-rule:evenodd;clip-rule:evenodd;fill:#000033;}
	.st25{fill-rule:evenodd;clip-rule:evenodd;fill:#00A89D;}
	.st26{fill-rule:evenodd;clip-rule:evenodd;fill:#00AA49;}
	.st27{fill-rule:evenodd;clip-rule:evenodd;fill:#00ABE1;}
]]>
</style>
<g>
	<defs>
		<rect id="SVGID_3_" x="2.473" y="6.049" width="107.364" height="25.159"/>
	</defs>
	<clipPath id="SVGID_2_">
		<use xlink:href="#SVGID_3_"  style="overflow:visible;"/>
	</clipPath>
	<path class="st10" d="M109.837,13.447c-1.209,1.905-2.291,3.885-3.439,5.826c-0.094,0.162-0.068,0.333-0.068,0.504
		c-0.003,1.398-0.021,2.799,0.01,4.197c0.009,0.427-0.131,0.525-0.52,0.495c-0.43-0.031-0.864-0.027-1.295,0
		c-0.319,0.021-0.408-0.075-0.402-0.399c0.02-1.414,0-2.832,0.014-4.248c0.004-0.324-0.076-0.6-0.236-0.877
		c-1.002-1.731-1.995-3.467-2.99-5.202c-0.068-0.116-0.131-0.234-0.23-0.417c0.836,0,1.604,0.007,2.373-0.003
		c0.236-0.004,0.271,0.174,0.346,0.319c0.506,0.999,1.009,2,1.519,2.999c0.074,0.146,0.101,0.331,0.298,0.439
		c0.626-1.136,1.256-2.259,1.856-3.394c0.151-0.284,0.325-0.384,0.643-0.37c0.708,0.032,1.417,0.02,2.124,0.025V13.447z"/>
	<path class="st10" d="M72.329,17.105v1.061c0,1.937-0.008,3.874,0.01,5.808c0.002,0.367-0.061,0.537-0.475,0.499
		c-0.43-0.04-0.865-0.032-1.296-0.003c-0.359,0.024-0.472-0.086-0.463-0.456c0.026-1.088,0.01-2.177,0.01-3.266
		c0-2.419,0.007-4.839-0.008-7.258c-0.002-0.347,0.072-0.438,0.44-0.479c0.842-0.092,1.367,0.193,1.87,0.901
		c1.543,2.166,3.18,4.264,4.78,6.39c0.098,0.129,0.202,0.257,0.386,0.497v-0.981c0-2.023,0.009-4.044-0.007-6.067
		c-0.003-0.334,0.083-0.456,0.433-0.434c0.464,0.032,0.931,0.019,1.397,0.004c0.246-0.009,0.366,0.033,0.366,0.329
		c-0.011,3.579-0.011,7.155-0.003,10.732c0,0.247-0.083,0.303-0.322,0.332c-0.828,0.097-1.409-0.114-1.942-0.865
		c-1.627-2.293-3.36-4.513-5.054-6.761C72.411,17.095,72.37,17.101,72.329,17.105"/>
	<path class="st10" d="M57.732,17.199c0-1.159,0.012-2.318-0.008-3.476c-0.005-0.312,0.066-0.428,0.397-0.406
		c0.465,0.032,0.935,0.036,1.398,0c0.363-0.028,0.419,0.118,0.417,0.437c-0.013,1.988-0.006,3.978-0.008,5.966
		c0,0.589,0.043,1.174,0.207,1.743c0.265,0.918,0.876,1.41,1.747,1.408c0.863-0.002,1.496-0.502,1.752-1.411
		c0.204-0.722,0.21-1.47,0.215-2.212c0.014-1.831,0.014-3.666-0.004-5.497c-0.004-0.335,0.079-0.455,0.424-0.434
		c0.484,0.031,0.968,0.015,1.452,0.006c0.205-0.003,0.321,0.04,0.316,0.284c-0.053,2.521,0.139,5.05-0.104,7.565
		c-0.15,1.553-0.85,2.857-2.446,3.347c-1.622,0.497-3.231,0.447-4.548-0.828c-0.869-0.843-1.135-1.963-1.18-3.123
		c-0.045-1.121-0.01-2.246-0.01-3.369H57.732z"/>
	<path class="st10" d="M29.48,16.32c-0.4,1.315-0.767,2.535-1.142,3.75c-0.061,0.198-0.043,0.283,0.188,0.279
		c0.674-0.008,1.347-0.01,2.021,0.003c0.247,0.005,0.299-0.075,0.22-0.302C30.35,18.85,29.938,17.646,29.48,16.32 M34.598,24.464
		c-0.683,0-1.372-0.006-2.06,0.003c-0.237,0.003-0.267-0.157-0.327-0.324c-0.192-0.534-0.412-1.06-0.585-1.599
		c-0.091-0.287-0.21-0.414-0.535-0.407c-1.037,0.023-2.074,0.018-3.109,0.004c-0.269-0.006-0.395,0.072-0.485,0.329
		c-0.197,0.569-0.448,1.12-0.647,1.688c-0.084,0.24-0.204,0.318-0.451,0.311c-0.518-0.018-1.037-0.023-1.555,0
		c-0.363,0.018-0.438-0.057-0.297-0.419c0.683-1.751,1.336-3.513,2.004-5.268c0.673-1.77,1.358-3.536,2.021-5.312
		c0.115-0.311,0.232-0.459,0.604-0.452c1.282,0.024,1.277,0.006,1.725,1.218c1.188,3.216,2.379,6.43,3.565,9.646
		C34.526,24.055,34.647,24.219,34.598,24.464"/>
	<path class="st10" d="M12.282,16.565c-0.748,0.15-1.495,0.268-2.209,0.519c-0.822,0.288-1.601,0.651-2.257,1.232
		c-1.456,1.289-1.651,3.322-0.49,4.96c1.605,2.271,4.843,3.33,7.681,2.526c0.589-0.165,1.146-0.42,1.74-0.592
		c-0.623,0.882-1.443,1.516-2.375,2.02c-3.199,1.733-7.661,0.37-9.553-1.863c-2.396-2.834-1.974-7.641,3.077-9.007
		c1.363-0.367,2.741-0.28,4.104,0.036C12.093,16.417,12.208,16.407,12.282,16.565"/>
	<path class="st10" d="M5.649,13.573c2.031-1.654,4.052-3.271,6.832-3.334c1.271-0.029,2.304,0.528,3.102,1.505
		c1.031,1.26,1.521,2.727,1.606,4.342c0.157,3.008-0.78,5.738-2.183,8.371c0.051-0.683,0.112-1.364,0.153-2.048
		c0.129-2.221,0.04-4.418-0.747-6.533c-0.853-2.285-2.574-3.292-4.989-3.004c-1.153,0.138-2.281,0.362-3.378,0.74
		C5.937,13.65,5.823,13.71,5.649,13.573"/>
	<path class="st10" d="M49.642,19.843c0-1.349-0.02-2.697,0.009-4.045c0.01-0.436-0.072-0.631-0.557-0.579
		c-0.462,0.046-0.933-0.002-1.399,0.015c-0.245,0.009-0.359-0.062-0.32-0.316c0.002-0.019,0-0.035,0-0.053
		c0.028-0.496-0.204-1.132,0.088-1.45c0.271-0.298,0.912-0.08,1.391-0.084c1.59-0.011,3.18,0.008,4.771-0.015
		c0.371-0.004,0.486,0.109,0.451,0.466c-0.046,0.462,0.186,1.065-0.09,1.354c-0.276,0.29-0.883,0.082-1.344,0.089
		c-0.819,0.015-0.819,0.004-0.819,0.812c0,2.627-0.011,5.256,0.009,7.883c0.003,0.414-0.074,0.602-0.524,0.55
		c-0.543-0.063-1.275,0.231-1.583-0.118c-0.269-0.305-0.078-1.019-0.079-1.552C49.639,21.813,49.642,20.829,49.642,19.843"/>
	<path class="st10" d="M39.282,19.827c0-1.4-0.009-2.801,0.006-4.2c0.005-0.313-0.072-0.424-0.398-0.406
		c-0.518,0.027-1.038-0.002-1.557,0.012c-0.252,0.006-0.331-0.083-0.321-0.329c0.019-0.414,0.022-0.831-0.001-1.244
		c-0.017-0.297,0.12-0.337,0.367-0.336c2.006,0.007,4.011,0.009,6.015-0.003c0.288-0.003,0.356,0.104,0.337,0.362
		c-0.038,0.495,0.201,1.131-0.09,1.452c-0.273,0.302-0.914,0.079-1.393,0.089c-0.785,0.015-0.785,0.004-0.785,0.791
		c0,2.644-0.012,5.289,0.012,7.934c0.005,0.445-0.121,0.564-0.543,0.523c-0.378-0.037-0.762-0.032-1.142-0.002
		c-0.384,0.03-0.527-0.064-0.519-0.495C39.302,22.593,39.282,21.21,39.282,19.827"/>
	<path class="st10" d="M94.999,19.839c0,1.399-0.01,2.799,0.009,4.199c0.005,0.333-0.076,0.456-0.423,0.432
		c-0.448-0.03-0.9-0.031-1.348-0.001c-0.346,0.025-0.426-0.096-0.424-0.431c0.013-2.764-0.004-5.529,0.019-8.294
		c0.005-0.446-0.13-0.59-0.548-0.52c-0.082,0.016-0.173,0.003-0.259,0.003c-1.609,0-1.603,0-1.476-1.606
		c0.018-0.226,0.082-0.298,0.303-0.298c2.039,0.007,4.078,0.007,6.117,0c0.22,0,0.325,0.069,0.294,0.298
		c-0.001,0.016,0.001,0.033,0.001,0.05c-0.012,0.498,0.154,1.129-0.088,1.456c-0.235,0.315-0.904,0.086-1.38,0.096
		c-0.798,0.018-0.798,0.005-0.798,0.779C94.999,17.281,94.999,18.561,94.999,19.839"/>
	<path class="st10" d="M86.131,18.951c-0.001,1.691-0.007,3.384,0.006,5.075c0.001,0.322-0.058,0.474-0.423,0.446
		c-0.463-0.035-0.934-0.03-1.396-0.004c-0.318,0.018-0.414-0.078-0.411-0.402c0.019-1.225,0.007-2.451,0.007-3.676
		c0-2.175,0.011-4.351-0.01-6.524c-0.003-0.415,0.078-0.595,0.528-0.55c0.409,0.04,0.829,0.033,1.241,0.003
		c0.358-0.026,0.471,0.084,0.467,0.454C86.122,15.5,86.131,17.226,86.131,18.951"/>
	<path class="st10" d="M4.027,31.208c-0.696,0.002-1.203-0.366-1.441-1.048c-0.448-1.275,0.502-2.947,1.837-3.224
		c0.913-0.188,1.641,0.271,1.869,1.18C6.653,29.556,5.444,31.205,4.027,31.208"/>
	<path class="st10" d="M16.101,10.359c-0.773,0.006-1.296-0.388-1.517-1.146c-0.358-1.225,0.595-2.849,1.827-3.116
		c0.977-0.212,1.753,0.305,1.936,1.293C18.612,8.807,17.448,10.345,16.101,10.359"/>
</g>
</svg>
