<?xml version="1.0" encoding="utf-8"?>
<!-- Generator: Adobe Illustrator 16.0.0, SVG Export Plug-In . SVG Version: 6.00 Build 0)  -->
<!DOCTYPE svg PUBLIC "-//W3C//DTD SVG 1.1//EN" "http://www.w3.org/Graphics/SVG/1.1/DTD/svg11.dtd">
<svg version="1.1" id="Capa_1" xmlns="http://www.w3.org/2000/svg" xmlns:xlink="http://www.w3.org/1999/xlink" x="0px" y="0px"
	 width="95.947px" height="95.949px" viewBox="0 0 95.947 95.949" style="enable-background:new 0 0 95.947 95.949;"
	 xml:space="preserve">
<style type="text/css">
<![CDATA[
	.st0{opacity:0.05;fill:#5D5D5D;}
	.st1{fill:none;stroke:#5D5D5D;stroke-width:0.5;stroke-miterlimit:10;}
	.st2{fill:none;stroke:#020202;stroke-width:1.9835;stroke-miterlimit:10;}
	.st3{fill:#878686;}
	.st4{fill:#ECB43C;}
	.st5{fill:none;stroke:#ECB43C;stroke-width:2;stroke-miterlimit:10;}
	.st6{fill:none;stroke:#FFFFFF;stroke-width:1.9835;stroke-miterlimit:10;}
	.st7{fill-rule:evenodd;clip-rule:evenodd;fill:#887AA8;}
	.st8{fill:#5D5D5D;}
	.st9{fill-rule:evenodd;clip-rule:evenodd;fill:#89898A;}
	.st10{fill-rule:evenodd;clip-rule:evenodd;fill:#ECB43C;}
	.st11{opacity:0;clip-path:url(#SVGID_8_);fill-rule:evenodd;clip-rule:evenodd;fill:#FFFFFF;}
	.st12{clip-path:url(#SVGID_8_);fill:#780068;}
	.st13{fill:#FFB62A;}
	.st14{fill:#FFFFFF;}
	.st15{clip-path:url(#SVGID_2_);fill:#5D5D5D;}
	.st16{fill:#CBD64E;}
	.st17{fill-rule:evenodd;clip-rule:evenodd;fill:#5D5D5D;}
	.st18{fill:none;stroke:#5D5D5D;stroke-miterlimit:10;}
	.st19{opacity:0.1;fill:#5D5D5D;}
	.st20{fill-rule:evenodd;clip-rule:evenodd;fill:#FA494D;}
	.st21{clip-path:url(#SVGID_2_);fill:#FFFFFF;}
	.st22{clip-path:url(#SVGID_4_);fill:#5D5D5D;}
	.st23{fill:#009999;}
	.st24{fill:#020202;}
	.st25{fill:#023366;}
	.st26{fill-rule:evenodd;clip-rule:evenodd;fill:#FF8F48;}
	.st27{fill-rule:evenodd;clip-rule:evenodd;fill:#FFB62A;}
	.st28{fill-rule:evenodd;clip-rule:evenodd;fill:#FFFFFF;}
	.st29{fill-rule:evenodd;clip-rule:evenodd;fill:none;stroke:#89898A;stroke-miterlimit:10;}
	.st30{clip-path:url(#SVGID_6_);fill:#5D5D5D;}
	.st31{fill-rule:evenodd;clip-rule:evenodd;fill:none;stroke:#5D5D5D;stroke-miterlimit:10;}
	.st32{fill-rule:evenodd;clip-rule:evenodd;fill:#000033;}
	.st33{fill-rule:evenodd;clip-rule:evenodd;fill:#003366;}
	.st34{fill-rule:evenodd;clip-rule:evenodd;fill:#009999;}
	.st35{fill-rule:evenodd;clip-rule:evenodd;fill:#00A89D;}
	.st36{fill-rule:evenodd;clip-rule:evenodd;fill:#00AA49;}
	.st37{fill-rule:evenodd;clip-rule:evenodd;fill:#00ABE1;}
	.st38{fill-rule:evenodd;clip-rule:evenodd;fill:#023366;}
]]>
</style>
<path class="st38" d="M95.948,47.977c0,26.494-21.479,47.973-47.975,47.973c-26.494,0-47.973-21.479-47.973-47.973
	C0.001,21.479,21.479,0,47.974,0C74.47,0,95.948,21.479,95.948,47.977z"/>
<g>
	<g>
		<g>
			<path class="st14" d="M70.976,31.58H51.397c-0.451,0-0.814,0.365-0.814,0.816v7.342c0,0.449,0.365,0.814,0.814,0.814
				c0.088,0,0.175-0.016,0.258-0.043l1.025-0.342c1.114-0.363,2.312,0.242,2.676,1.355c0.363,1.115-0.242,2.312-1.355,2.678
				c-0.43,0.139-0.891,0.139-1.32,0l-1.025-0.344c-0.428-0.143-0.889,0.088-1.031,0.518c-0.027,0.082-0.041,0.168-0.041,0.258v6.525
				h-6.527c-0.451,0-0.814,0.365-0.814,0.814c0,0.088,0.014,0.176,0.043,0.258l0.34,1.025c0.365,1.115-0.242,2.311-1.355,2.676
				s-2.312-0.242-2.676-1.355c-0.14-0.43-0.14-0.891,0-1.32l0.341-1.025c0.145-0.428-0.087-0.889-0.515-1.031
				c-0.083-0.027-0.17-0.041-0.258-0.043H31.82c-0.45,0-0.815,0.365-0.815,0.816v19.578c0,0.451,0.365,0.816,0.815,0.816h39.155
				c0.451,0,0.815-0.365,0.815-0.816V32.396C71.791,31.945,71.427,31.58,70.976,31.58z M70.159,70.734H52.212v-5.393
				c1.978,0.623,4.084-0.475,4.709-2.451c0.623-1.977-0.474-4.084-2.451-4.707c-0.734-0.232-1.521-0.232-2.258,0v-5.396h6.528
				c0.45,0,0.814-0.363,0.814-0.814c0-0.088-0.015-0.176-0.042-0.256l-0.341-1.027c-0.364-1.111,0.241-2.311,1.354-2.674
				c1.113-0.365,2.311,0.242,2.676,1.355c0.141,0.428,0.141,0.891,0,1.32l-0.342,1.025c-0.143,0.426,0.089,0.889,0.517,1.031
				c0.083,0.027,0.169,0.039,0.257,0.041h6.525V70.734L70.159,70.734z"/>
		</g>
	</g>
	<g>
		<g>
			<path class="st14" d="M46.312,30.449c-0.733-0.232-1.521-0.232-2.257,0v-6.211c0-0.451-0.363-0.814-0.814-0.814H23.663
				c-0.451,0-0.816,0.363-0.816,0.814v19.578c0,0.449,0.365,0.816,0.816,0.816h6.21c-0.623,1.975,0.475,4.082,2.45,4.707
				c1.977,0.623,4.084-0.475,4.707-2.451c0.232-0.734,0.232-1.523,0-2.256h6.211c0.451,0,0.814-0.367,0.814-0.816v-6.211
				c1.977,0.623,4.084-0.475,4.709-2.449C49.387,33.18,48.29,31.072,46.312,30.449z M45.845,36.043c-0.43,0.141-0.892,0.141-1.321,0
				l-1.024-0.344c-0.428-0.141-0.89,0.09-1.032,0.518c-0.028,0.082-0.042,0.17-0.042,0.258V43h-6.525
				c-0.451,0-0.815,0.367-0.815,0.816c0,0.088,0.013,0.174,0.042,0.258l0.341,1.025c0.364,1.113-0.242,2.311-1.356,2.676
				c-1.111,0.363-2.309-0.244-2.674-1.357c-0.142-0.428-0.142-0.891,0-1.318l0.34-1.025c0.145-0.43-0.087-0.891-0.516-1.031
				C31.179,43.014,31.092,43,31.005,43h-6.525V25.055h17.945v6.525c0,0.449,0.366,0.814,0.816,0.814
				c0.087,0,0.174-0.014,0.258-0.041l1.024-0.342c1.112-0.365,2.31,0.242,2.676,1.355C47.563,34.48,46.957,35.678,45.845,36.043z"/>
		</g>
	</g>
</g>
</svg>
