<?xml version="1.0" encoding="utf-8"?>
<!-- Generator: Adobe Illustrator 16.0.0, SVG Export Plug-In . SVG Version: 6.00 Build 0)  -->
<!DOCTYPE svg PUBLIC "-//W3C//DTD SVG 1.1//EN" "http://www.w3.org/Graphics/SVG/1.1/DTD/svg11.dtd">
<svg version="1.1" id="Capa_1" xmlns="http://www.w3.org/2000/svg" xmlns:xlink="http://www.w3.org/1999/xlink" x="0px" y="0px"
	 width="95.947px" height="95.947px" viewBox="0 0 95.947 95.947" style="enable-background:new 0 0 95.947 95.947;"
	 xml:space="preserve">
<style type="text/css">
<![CDATA[
	.st0{opacity:0.05;fill:#5D5D5D;}
	.st1{fill:none;stroke:#5D5D5D;stroke-width:0.5;stroke-miterlimit:10;}
	.st2{fill:none;stroke:#020202;stroke-width:1.9835;stroke-miterlimit:10;}
	.st3{fill:#878686;}
	.st4{fill:#ECB43C;}
	.st5{fill:none;stroke:#ECB43C;stroke-width:2;stroke-miterlimit:10;}
	.st6{fill:none;stroke:#FFFFFF;stroke-width:1.9835;stroke-miterlimit:10;}
	.st7{fill-rule:evenodd;clip-rule:evenodd;fill:#887AA8;}
	.st8{fill:#5D5D5D;}
	.st9{fill-rule:evenodd;clip-rule:evenodd;fill:#89898A;}
	.st10{fill-rule:evenodd;clip-rule:evenodd;fill:#ECB43C;}
	.st11{opacity:0;clip-path:url(#SVGID_8_);fill-rule:evenodd;clip-rule:evenodd;fill:#FFFFFF;}
	.st12{clip-path:url(#SVGID_8_);fill:#780068;}
	.st13{fill:#FFB62A;}
	.st14{fill:#FFFFFF;}
	.st15{clip-path:url(#SVGID_2_);fill:#5D5D5D;}
	.st16{fill:#CBD64E;}
	.st17{fill-rule:evenodd;clip-rule:evenodd;fill:#5D5D5D;}
	.st18{fill:none;stroke:#5D5D5D;stroke-miterlimit:10;}
	.st19{opacity:0.1;fill:#5D5D5D;}
	.st20{fill-rule:evenodd;clip-rule:evenodd;fill:#FA494D;}
	.st21{clip-path:url(#SVGID_2_);fill:#FFFFFF;}
	.st22{clip-path:url(#SVGID_4_);fill:#5D5D5D;}
	.st23{fill:#009999;}
	.st24{fill:#020202;}
	.st25{fill:#023366;}
	.st26{fill-rule:evenodd;clip-rule:evenodd;fill:#FF8F48;}
	.st27{fill-rule:evenodd;clip-rule:evenodd;fill:#FFB62A;}
	.st28{fill-rule:evenodd;clip-rule:evenodd;fill:#FFFFFF;}
	.st29{fill-rule:evenodd;clip-rule:evenodd;fill:none;stroke:#89898A;stroke-miterlimit:10;}
	.st30{clip-path:url(#SVGID_6_);fill:#5D5D5D;}
	.st31{fill-rule:evenodd;clip-rule:evenodd;fill:none;stroke:#5D5D5D;stroke-miterlimit:10;}
	.st32{fill-rule:evenodd;clip-rule:evenodd;fill:#000033;}
	.st33{fill-rule:evenodd;clip-rule:evenodd;fill:#003366;}
	.st34{fill-rule:evenodd;clip-rule:evenodd;fill:#009999;}
	.st35{fill-rule:evenodd;clip-rule:evenodd;fill:#00A89D;}
	.st36{fill-rule:evenodd;clip-rule:evenodd;fill:#00AA49;}
	.st37{fill-rule:evenodd;clip-rule:evenodd;fill:#00ABE1;}
	.st38{fill-rule:evenodd;clip-rule:evenodd;fill:#023366;}
]]>
</style>
<path class="st38" d="M95.948,47.976c0,26.494-21.479,47.973-47.975,47.973c-26.494,0-47.973-21.479-47.973-47.973
	c0-26.498,21.479-47.977,47.973-47.977C74.47-0.001,95.948,21.478,95.948,47.976z"/>
<g>
	<path class="st28" d="M48.497,50.452c-0.664,4.521-1.33,9.033-2.01,13.555c-0.217,1.449-0.496,2.895-0.691,4.354
		c-0.104,0.791-0.369,1.172-1.271,1.168c-5.377-0.035-10.758-0.025-16.137-0.01c-0.705,0-1.158-0.025-0.965-1.002
		c1.213-6.092,3.037-11.863,7.99-16.053c2.723-2.303,5.709-4.215,8.975-5.697c1.085-0.496,1.771-0.32,2.617,0.584
		c2.035,2.18,1.409,2.1,3.294,0.09c1.093-1.16,1.937-1.016,3.077-0.498c9.349,4.232,15.072,11.232,16.528,21.531
		c0.118,0.916-0.177,1.051-0.952,1.051c-5.375-0.025-10.756-0.037-16.13,0.008c-1.079,0.018-1.165-0.598-1.288-1.363
		c-0.865-5.697-1.768-11.395-2.66-17.096c-0.027-0.207-0.086-0.402-0.137-0.605C48.659,50.46,48.579,50.458,48.497,50.452z"/>
	<path class="st28" d="M48.729,45.585c-6.238,0.018-11.314-5.008-11.361-11.252c-0.053-6.186,5.064-11.475,11.27-11.361
		c6.975,0.125,11.289,5.418,11.389,11.27C60.139,40.419,54.954,45.563,48.729,45.585z"/>
</g>
</svg>
