<?xml version="1.0" encoding="utf-8"?>
<!-- Generator: Adobe Illustrator 16.0.0, SVG Export Plug-In . SVG Version: 6.00 Build 0)  -->
<!DOCTYPE svg PUBLIC "-//W3C//DTD SVG 1.1//EN" "http://www.w3.org/Graphics/SVG/1.1/DTD/svg11.dtd">
<svg version="1.1" id="Capa_1" xmlns="http://www.w3.org/2000/svg" xmlns:xlink="http://www.w3.org/1999/xlink" x="0px" y="0px"
	 width="95.947px" height="95.947px" viewBox="0 0 95.947 95.947" enable-background="new 0 0 95.947 95.947" xml:space="preserve">
<path fill="#023366" d="M95.948,47.976c0,26.494-21.479,47.973-47.975,47.973C21.479,95.949,0,74.47,0,47.976
	C0,21.478,21.479-0.001,47.973-0.001C74.47-0.001,95.948,21.478,95.948,47.976z"/>
<g>
	<path fill="#FFFFFF" d="M19.306,22.974v50.274h57V22.974H19.306z M30.514,63.802h-8.646v-8.646h8.646V63.802z M30.514,46.99h-8.646
		v-8.646h8.646V46.99z M44.444,63.802h-8.646v-8.646h8.646V63.802z M44.444,46.99h-8.646v-8.646h8.646V46.99z M58.374,63.802h-8.646
		v-8.646h8.646V63.802z M58.374,46.99h-8.646v-8.646h8.646V46.99z M72.303,63.802h-8.646v-8.646h8.646V63.802z M72.303,46.99h-8.646
		v-8.646h8.646V46.99z M74.064,32.9H21.868v-7.686h52.196V32.9z"/>
	<rect x="21.868" y="25.215" fill="#003366" width="52.196" height="7.686"/>
	<rect x="21.868" y="38.344" fill="#003366" width="8.646" height="8.646"/>
	<rect x="35.798" y="38.344" fill="#003366" width="8.646" height="8.646"/>
	<rect x="49.727" y="38.344" fill="#FABE2A" width="8.646" height="8.646"/>
	<rect x="63.657" y="38.344" fill="#003366" width="8.646" height="8.646"/>
	<rect x="21.868" y="55.156" fill="#003366" width="8.646" height="8.646"/>
	<rect x="35.798" y="55.156" fill="#FABE2A" width="8.646" height="8.646"/>
	<rect x="49.727" y="55.156" fill="#003366" width="8.646" height="8.646"/>
	<rect x="63.657" y="55.156" fill="#003366" width="8.646" height="8.646"/>
</g>
</svg>
