<?xml version="1.0" encoding="utf-8"?>
<!-- Generator: Adobe Illustrator 16.0.0, SVG Export Plug-In . SVG Version: 6.00 Build 0)  -->
<!DOCTYPE svg PUBLIC "-//W3C//DTD SVG 1.1//EN" "http://www.w3.org/Graphics/SVG/1.1/DTD/svg11.dtd">
<svg version="1.1" id="Capa_1" xmlns="http://www.w3.org/2000/svg" xmlns:xlink="http://www.w3.org/1999/xlink" x="0px" y="0px"
	 width="95.947px" height="95.949px" viewBox="0 0 95.947 95.949" style="enable-background:new 0 0 95.947 95.949;"
	 xml:space="preserve">
<style type="text/css">
<![CDATA[
	.st0{opacity:0.05;fill:#5D5D5D;}
	.st1{fill:none;stroke:#5D5D5D;stroke-width:0.5;stroke-miterlimit:10;}
	.st2{fill:none;stroke:#020202;stroke-width:1.9835;stroke-miterlimit:10;}
	.st3{fill:#878686;}
	.st4{fill:#ECB43C;}
	.st5{fill:none;stroke:#ECB43C;stroke-width:2;stroke-miterlimit:10;}
	.st6{fill:none;stroke:#FFFFFF;stroke-width:1.9835;stroke-miterlimit:10;}
	.st7{fill-rule:evenodd;clip-rule:evenodd;fill:#887AA8;}
	.st8{fill:#5D5D5D;}
	.st9{fill-rule:evenodd;clip-rule:evenodd;fill:#89898A;}
	.st10{fill-rule:evenodd;clip-rule:evenodd;fill:#ECB43C;}
	.st11{opacity:0;clip-path:url(#SVGID_8_);fill-rule:evenodd;clip-rule:evenodd;fill:#FFFFFF;}
	.st12{clip-path:url(#SVGID_8_);fill:#780068;}
	.st13{fill:#FFB62A;}
	.st14{fill:#FFFFFF;}
	.st15{clip-path:url(#SVGID_2_);fill:#5D5D5D;}
	.st16{fill:#CBD64E;}
	.st17{fill-rule:evenodd;clip-rule:evenodd;fill:#5D5D5D;}
	.st18{fill:none;stroke:#5D5D5D;stroke-miterlimit:10;}
	.st19{opacity:0.1;fill:#5D5D5D;}
	.st20{fill-rule:evenodd;clip-rule:evenodd;fill:#FA494D;}
	.st21{clip-path:url(#SVGID_2_);fill:#FFFFFF;}
	.st22{clip-path:url(#SVGID_4_);fill:#5D5D5D;}
	.st23{fill:#009999;}
	.st24{fill:#020202;}
	.st25{fill:#023366;}
	.st26{fill-rule:evenodd;clip-rule:evenodd;fill:#FF8F48;}
	.st27{fill-rule:evenodd;clip-rule:evenodd;fill:#FFB62A;}
	.st28{fill-rule:evenodd;clip-rule:evenodd;fill:#FFFFFF;}
	.st29{fill-rule:evenodd;clip-rule:evenodd;fill:none;stroke:#89898A;stroke-miterlimit:10;}
	.st30{clip-path:url(#SVGID_6_);fill:#5D5D5D;}
	.st31{fill-rule:evenodd;clip-rule:evenodd;fill:none;stroke:#5D5D5D;stroke-miterlimit:10;}
	.st32{fill-rule:evenodd;clip-rule:evenodd;fill:#000033;}
	.st33{fill-rule:evenodd;clip-rule:evenodd;fill:#003366;}
	.st34{fill-rule:evenodd;clip-rule:evenodd;fill:#009999;}
	.st35{fill-rule:evenodd;clip-rule:evenodd;fill:#00A89D;}
	.st36{fill-rule:evenodd;clip-rule:evenodd;fill:#00AA49;}
	.st37{fill-rule:evenodd;clip-rule:evenodd;fill:#00ABE1;}
	.st38{fill-rule:evenodd;clip-rule:evenodd;fill:#023366;}
]]>
</style>
<path class="st38" d="M95.948,47.977c0,26.494-21.479,47.973-47.975,47.973c-26.494,0-47.973-21.479-47.973-47.973
	C0.001,21.479,21.479,0,47.974,0C74.47,0,95.948,21.479,95.948,47.977z"/>
<g>
	<g>
		<path class="st28" d="M28.902,64.162c-0.223,1.512-0.445,3.018-0.672,4.527c-0.072,0.484-0.166,0.967-0.23,1.453
			c-0.035,0.266-0.123,0.393-0.425,0.391c-1.796-0.012-3.593-0.008-5.39-0.002c-0.234,0-0.386-0.01-0.321-0.336
			c0.404-2.033,1.014-3.961,2.668-5.359c0.909-0.77,1.907-1.41,2.997-1.904c0.362-0.166,0.592-0.107,0.875,0.195
			c0.68,0.729,0.47,0.701,1.1,0.029c0.364-0.387,0.646-0.338,1.027-0.166c3.122,1.414,5.033,3.752,5.52,7.191
			c0.041,0.305-0.059,0.352-0.317,0.352c-1.796-0.01-3.592-0.014-5.388,0.002c-0.359,0.006-0.389-0.199-0.43-0.455
			c-0.289-1.904-0.591-3.807-0.888-5.709c-0.009-0.07-0.029-0.135-0.046-0.203C28.956,64.166,28.93,64.164,28.902,64.162z"/>
		<path class="st28" d="M28.98,62.537c-2.084,0.006-3.779-1.672-3.795-3.758c-0.018-2.066,1.69-3.832,3.764-3.795
			c2.329,0.043,3.77,1.811,3.803,3.764C32.79,60.812,31.059,62.529,28.98,62.537z"/>
	</g>
	<g>
		<path class="st28" d="M48.322,64.162c-0.223,1.512-0.444,3.018-0.672,4.527c-0.072,0.484-0.166,0.967-0.229,1.453
			c-0.035,0.266-0.124,0.393-0.425,0.391c-1.797-0.012-3.594-0.008-5.391-0.002c-0.234,0-0.385-0.01-0.32-0.336
			c0.404-2.033,1.014-3.961,2.668-5.359c0.908-0.77,1.906-1.41,2.996-1.904c0.363-0.166,0.593-0.107,0.875,0.195
			c0.68,0.729,0.471,0.701,1.1,0.029c0.365-0.387,0.647-0.338,1.027-0.166c3.123,1.414,5.034,3.752,5.521,7.191
			c0.04,0.305-0.06,0.352-0.317,0.352c-1.796-0.01-3.592-0.014-5.388,0.002c-0.36,0.006-0.39-0.199-0.43-0.455
			c-0.29-1.904-0.591-3.807-0.888-5.709c-0.01-0.07-0.029-0.135-0.047-0.203C48.377,64.166,48.35,64.164,48.322,64.162z"/>
		<path class="st28" d="M48.4,62.537c-2.084,0.006-3.779-1.672-3.795-3.758c-0.018-2.066,1.691-3.832,3.764-3.795
			c2.33,0.043,3.77,1.811,3.804,3.764C52.211,60.812,50.479,62.529,48.4,62.537z"/>
	</g>
	<g>
		<path class="st28" d="M67.742,64.162c-0.222,1.512-0.443,3.018-0.672,4.527c-0.071,0.484-0.165,0.967-0.229,1.453
			c-0.036,0.266-0.125,0.393-0.426,0.391c-1.796-0.012-3.593-0.008-5.39-0.002c-0.235,0-0.386-0.01-0.321-0.336
			c0.404-2.033,1.014-3.961,2.668-5.359c0.909-0.77,1.907-1.41,2.997-1.904c0.362-0.166,0.592-0.107,0.874,0.195
			c0.68,0.729,0.471,0.701,1.101,0.029c0.364-0.387,0.647-0.338,1.026-0.166c3.123,1.414,5.035,3.752,5.521,7.191
			c0.039,0.305-0.06,0.352-0.318,0.352c-1.795-0.01-3.592-0.014-5.387,0.002c-0.36,0.006-0.39-0.199-0.43-0.455
			c-0.29-1.904-0.592-3.807-0.889-5.709c-0.01-0.07-0.029-0.135-0.047-0.203C67.797,64.166,67.77,64.164,67.742,64.162z"/>
		<path class="st28" d="M67.82,62.537c-2.084,0.006-3.778-1.672-3.795-3.758c-0.018-2.066,1.691-3.832,3.764-3.795
			c2.33,0.043,3.771,1.811,3.805,3.764C71.631,60.812,69.899,62.529,67.82,62.537z"/>
	</g>
	<g>
		<rect x="33.539" y="25.822" class="st14" width="29.318" height="16.209"/>
		<polygon class="st14" points="54.367,50.695 42.029,50.695 42.029,50.277 47.921,50.277 47.921,42.031 48.338,42.031 
			48.338,50.277 54.367,50.277 		"/>
	</g>
</g>
</svg>
