<?xml version="1.0" encoding="utf-8"?>
<!-- Generator: Adobe Illustrator 16.0.0, SVG Export Plug-In . SVG Version: 6.00 Build 0)  -->
<!DOCTYPE svg PUBLIC "-//W3C//DTD SVG 1.1//EN" "http://www.w3.org/Graphics/SVG/1.1/DTD/svg11.dtd">
<svg version="1.1" id="Capa_1" xmlns="http://www.w3.org/2000/svg" xmlns:xlink="http://www.w3.org/1999/xlink" x="0px" y="0px"
	 width="95.947px" height="95.948px" viewBox="0 0 95.947 95.948" style="enable-background:new 0 0 95.947 95.948;"
	 xml:space="preserve">
<style type="text/css">
<![CDATA[
	.st0{opacity:0.05;fill:#5D5D5D;}
	.st1{fill:none;stroke:#5D5D5D;stroke-width:0.5;stroke-miterlimit:10;}
	.st2{fill:none;stroke:#020202;stroke-width:1.9835;stroke-miterlimit:10;}
	.st3{fill:#878686;}
	.st4{fill:#ECB43C;}
	.st5{fill:none;stroke:#ECB43C;stroke-width:2;stroke-miterlimit:10;}
	.st6{fill:none;stroke:#FFFFFF;stroke-width:1.9835;stroke-miterlimit:10;}
	.st7{fill-rule:evenodd;clip-rule:evenodd;fill:#887AA8;}
	.st8{fill:#5D5D5D;}
	.st9{fill-rule:evenodd;clip-rule:evenodd;fill:#89898A;}
	.st10{fill-rule:evenodd;clip-rule:evenodd;fill:#ECB43C;}
	.st11{opacity:0;clip-path:url(#SVGID_8_);fill-rule:evenodd;clip-rule:evenodd;fill:#FFFFFF;}
	.st12{clip-path:url(#SVGID_8_);fill:#780068;}
	.st13{fill:#FFB62A;}
	.st14{fill:#FFFFFF;}
	.st15{clip-path:url(#SVGID_2_);fill:#5D5D5D;}
	.st16{fill:#CBD64E;}
	.st17{fill-rule:evenodd;clip-rule:evenodd;fill:#5D5D5D;}
	.st18{fill:none;stroke:#5D5D5D;stroke-miterlimit:10;}
	.st19{opacity:0.1;fill:#5D5D5D;}
	.st20{fill-rule:evenodd;clip-rule:evenodd;fill:#FA494D;}
	.st21{clip-path:url(#SVGID_2_);fill:#FFFFFF;}
	.st22{clip-path:url(#SVGID_4_);fill:#5D5D5D;}
	.st23{fill:#009999;}
	.st24{fill:#020202;}
	.st25{fill:#023366;}
	.st26{fill-rule:evenodd;clip-rule:evenodd;fill:#FF8F48;}
	.st27{fill-rule:evenodd;clip-rule:evenodd;fill:#FFB62A;}
	.st28{fill-rule:evenodd;clip-rule:evenodd;fill:#FFFFFF;}
	.st29{fill-rule:evenodd;clip-rule:evenodd;fill:none;stroke:#89898A;stroke-miterlimit:10;}
	.st30{clip-path:url(#SVGID_6_);fill:#5D5D5D;}
	.st31{fill-rule:evenodd;clip-rule:evenodd;fill:none;stroke:#5D5D5D;stroke-miterlimit:10;}
	.st32{fill-rule:evenodd;clip-rule:evenodd;fill:#000033;}
	.st33{fill-rule:evenodd;clip-rule:evenodd;fill:#003366;}
	.st34{fill-rule:evenodd;clip-rule:evenodd;fill:#009999;}
	.st35{fill-rule:evenodd;clip-rule:evenodd;fill:#00A89D;}
	.st36{fill-rule:evenodd;clip-rule:evenodd;fill:#00AA49;}
	.st37{fill-rule:evenodd;clip-rule:evenodd;fill:#00ABE1;}
	.st38{fill-rule:evenodd;clip-rule:evenodd;fill:#023366;}
]]>
</style>
<path class="st33" d="M95.947,47.976c0,26.495-21.479,47.973-47.975,47.973C21.479,95.948,0,74.471,0,47.976
	C0,21.478,21.479,0,47.973,0C74.469,0,95.947,21.478,95.947,47.976z"/>
<g>
	<g>
		<path class="st14" d="M73.382,45.421H71.05c-0.938-10.878-9.603-19.543-20.479-20.479v-2.333c0-1.08-0.872-1.951-1.951-1.951
			s-1.952,0.871-1.952,1.951v2.333c-10.877,0.937-19.542,9.602-20.479,20.479h-2.333c-1.078,0-1.95,0.872-1.95,1.951
			s0.872,1.951,1.95,1.951h2.333C27.125,60.2,35.79,68.865,46.667,69.803v2.333c0,1.079,0.873,1.951,1.952,1.951
			s1.951-0.872,1.951-1.951v-2.333C61.447,68.865,70.112,60.2,71.05,49.323h2.332c1.08,0,1.951-0.872,1.951-1.951
			S74.451,45.421,73.382,45.421z M64.936,49.323h2.332c-0.903,8.796-7.901,15.793-16.697,16.698v-2.334
			c0-1.078-0.872-1.949-1.951-1.949s-1.952,0.871-1.952,1.949v2.334c-8.795-0.905-15.793-7.902-16.697-16.698h2.332
			c1.08,0,1.952-0.872,1.952-1.951s-0.872-1.951-1.952-1.951H29.97c0.904-8.796,7.902-15.793,16.697-16.698v2.333
			c0,1.079,0.873,1.95,1.952,1.95s1.951-0.871,1.951-1.95v-2.333c8.796,0.905,15.794,7.902,16.697,16.698h-2.332
			c-1.079,0-1.952,0.872-1.952,1.951S63.856,49.323,64.936,49.323z"/>
		<path class="st14" d="M48.619,36.199c-6.169,0-11.173,5.004-11.173,11.173s5.004,11.172,11.173,11.172S59.79,53.541,59.79,47.372
			S54.788,36.199,48.619,36.199z"/>
	</g>
</g>
</svg>
