<?xml version="1.0" encoding="utf-8"?>
<!-- Generator: Adobe Illustrator 16.0.0, SVG Export Plug-In . SVG Version: 6.00 Build 0)  -->
<!DOCTYPE svg PUBLIC "-//W3C//DTD SVG 1.1//EN" "http://www.w3.org/Graphics/SVG/1.1/DTD/svg11.dtd">
<svg version="1.1" id="Capa_1" xmlns="http://www.w3.org/2000/svg" xmlns:xlink="http://www.w3.org/1999/xlink" x="0px" y="0px"
	 width="34.78px" height="40.906px" viewBox="0 0 34.78 40.906" style="enable-background:new 0 0 34.78 40.906;"
	 xml:space="preserve">
<style type="text/css">
<![CDATA[
	.st0{opacity:0.05;fill:#5D5D5D;}
	.st1{fill:none;stroke:#5D5D5D;stroke-width:0.5;stroke-miterlimit:10;}
	.st2{fill:none;stroke:#020202;stroke-width:1.9835;stroke-miterlimit:10;}
	.st3{fill:#878686;}
	.st4{fill:#ECB43C;}
	.st5{fill:none;stroke:#ECB43C;stroke-width:2;stroke-miterlimit:10;}
	.st6{fill:none;stroke:#FFFFFF;stroke-width:1.9835;stroke-miterlimit:10;}
	.st7{fill-rule:evenodd;clip-rule:evenodd;fill:#887AA8;}
	.st8{fill:#5D5D5D;}
	.st9{fill-rule:evenodd;clip-rule:evenodd;fill:#89898A;}
	.st10{fill-rule:evenodd;clip-rule:evenodd;fill:#ECB43C;}
	.st11{opacity:0;clip-path:url(#SVGID_8_);fill-rule:evenodd;clip-rule:evenodd;fill:#FFFFFF;}
	.st12{clip-path:url(#SVGID_8_);fill:#780068;}
	.st13{fill:#FFB62A;}
	.st14{fill:#FFFFFF;}
	.st15{clip-path:url(#SVGID_2_);fill:#5D5D5D;}
	.st16{fill:#CBD64E;}
	.st17{fill-rule:evenodd;clip-rule:evenodd;fill:#5D5D5D;}
	.st18{fill:none;stroke:#5D5D5D;stroke-miterlimit:10;}
	.st19{opacity:0.1;fill:#5D5D5D;}
	.st20{fill-rule:evenodd;clip-rule:evenodd;fill:#FA494D;}
	.st21{clip-path:url(#SVGID_2_);fill:#FFFFFF;}
	.st22{clip-path:url(#SVGID_4_);fill:#5D5D5D;}
	.st23{fill:#009999;}
	.st24{fill:#020202;}
	.st25{fill:#023366;}
	.st26{fill-rule:evenodd;clip-rule:evenodd;fill:#FF8F48;}
	.st27{fill-rule:evenodd;clip-rule:evenodd;fill:#FFB62A;}
	.st28{fill-rule:evenodd;clip-rule:evenodd;fill:#FFFFFF;}
	.st29{fill-rule:evenodd;clip-rule:evenodd;fill:none;stroke:#89898A;stroke-miterlimit:10;}
	.st30{clip-path:url(#SVGID_6_);fill:#5D5D5D;}
	.st31{fill-rule:evenodd;clip-rule:evenodd;fill:none;stroke:#5D5D5D;stroke-miterlimit:10;}
	.st32{fill-rule:evenodd;clip-rule:evenodd;fill:#000033;}
	.st33{fill-rule:evenodd;clip-rule:evenodd;fill:#003366;}
	.st34{fill-rule:evenodd;clip-rule:evenodd;fill:#009999;}
	.st35{fill-rule:evenodd;clip-rule:evenodd;fill:#00A89D;}
	.st36{fill-rule:evenodd;clip-rule:evenodd;fill:#00AA49;}
	.st37{fill-rule:evenodd;clip-rule:evenodd;fill:#00ABE1;}
	.st38{fill-rule:evenodd;clip-rule:evenodd;fill:#023366;}
]]>
</style>
<g>
	<g>
		<path class="st25" d="M17.443,4.605c-0.016,0-0.048-0.002-0.048-0.002c-0.019,0-0.038-0.002-0.058-0.002
			c-6.912,0-12.515,5.604-12.515,12.512c0,6.91,5.603,12.512,12.515,12.512c0.017,0,0.031,0,0.049-0.002
			c0,0,0.039,0.012,0.057,0.012c6.913,0,12.514-5.605,12.514-12.516C29.957,10.213,24.355,4.605,17.443,4.605z"/>
		<path class="st25" d="M29.646,27.109c0.17-0.045,0.363-0.059,0.576-0.027c0.926,0.143,1.338-0.426,0.916-1.258
			c-0.416-0.834,0-1.562,0.934-1.613c0.935-0.055,1.219-0.695,0.635-1.426c-0.585-0.727-0.326-1.525,0.572-1.771
			c0.903-0.244,1.051-0.934,0.323-1.525c-0.723-0.59-0.634-1.424,0.194-1.855c0.832-0.428,0.832-1.125,0-1.555
			c-0.83-0.428-0.917-1.264-0.194-1.854c0.728-0.592,0.58-1.277-0.323-1.523c-0.898-0.244-1.157-1.043-0.572-1.773
			c0.584-0.729,0.299-1.369-0.635-1.422c-0.934-0.057-1.35-0.781-0.934-1.613c0.422-0.836,0.01-1.402-0.916-1.26
			c-0.922,0.141-1.482-0.48-1.244-1.387c0.238-0.902-0.283-1.371-1.156-1.043c-0.877,0.33-1.553-0.16-1.509-1.094
			c0.046-0.934-0.563-1.285-1.347-0.777c-0.786,0.504-1.553,0.164-1.701-0.76c-0.152-0.924-0.818-1.139-1.48-0.482
			c-0.664,0.658-1.485,0.482-1.823-0.387c-0.339-0.871-1.038-0.941-1.548-0.164c-0.277,0.424-0.648,0.594-1.016,0.559l0,0
			c-0.369,0.041-0.746-0.133-1.025-0.559c-0.512-0.781-1.209-0.707-1.548,0.164c-0.337,0.869-1.157,1.045-1.823,0.387
			c-0.664-0.658-1.328-0.443-1.48,0.48c-0.15,0.926-0.917,1.266-1.703,0.762C9.03,1.826,8.424,2.176,8.469,3.109
			c0.043,0.932-0.633,1.424-1.508,1.094C6.088,3.875,5.566,4.342,5.805,5.246C6.042,6.15,5.482,6.773,4.557,6.631
			C3.633,6.488,3.223,7.055,3.643,7.893c0.418,0.832,0,1.557-0.934,1.611c-0.932,0.053-1.219,0.693-0.634,1.422
			c0.586,0.729,0.326,1.527-0.572,1.773c-0.903,0.244-1.048,0.93-0.323,1.523c0.724,0.59,0.635,1.424-0.195,1.854
			c-0.833,0.43-0.833,1.127,0,1.553c0.831,0.432,0.919,1.266,0.195,1.857c-0.725,0.59-0.578,1.277,0.323,1.525
			c0.899,0.244,1.158,1.045,0.573,1.771c-0.584,0.727-0.298,1.371,0.635,1.426c0.933,0.051,1.352,0.779,0.933,1.613
			c-0.421,0.83-0.011,1.398,0.913,1.256c0.217-0.033,0.41-0.021,0.579,0.027l-5.134,9.615h5.422l2.756,4.178l5.188-8.545
			c0.576-0.297,1.179-0.061,1.457,0.654c0.338,0.869,1.035,0.941,1.547,0.16c0.277-0.42,0.649-0.592,1.016-0.557v0.006
			c0.37-0.039,0.746,0.133,1.025,0.559c0.511,0.779,1.207,0.711,1.548-0.164c0.276-0.713,0.88-0.949,1.454-0.65l5.189,8.543
			l2.754-4.178h5.425L29.646,27.109z M24.047,29.041l-0.195,0.107c-1.919,1.016-4.106,1.6-6.43,1.6
			c-0.008,0-0.025-0.008-0.025-0.008c-0.011,0-0.022,0-0.034,0c-2.323,0-4.511-0.582-6.429-1.602l-0.197-0.105
			c-4.209-2.326-7.065-6.785-7.065-11.898c0-7.5,6.143-13.604,13.691-13.604c0.009,0,0.025,0.01,0.025,0.01
			c0.013,0,0.022-0.002,0.034-0.002c7.549,0,13.692,6.104,13.692,13.604C31.111,22.256,28.256,26.715,24.047,29.041z"/>
	</g>
</g>
</svg>
