<?xml version="1.0" encoding="utf-8"?>
<!-- Generator: Adobe Illustrator 16.0.0, SVG Export Plug-In . SVG Version: 6.00 Build 0)  -->
<!DOCTYPE svg PUBLIC "-//W3C//DTD SVG 1.1//EN" "http://www.w3.org/Graphics/SVG/1.1/DTD/svg11.dtd">
<svg version="1.1" id="Capa_1" xmlns="http://www.w3.org/2000/svg" xmlns:xlink="http://www.w3.org/1999/xlink" x="0px" y="0px"
	 width="39.695px" height="39.695px" viewBox="0 0 39.695 39.695" style="enable-background:new 0 0 39.695 39.695;"
	 xml:space="preserve">
<style type="text/css">
<![CDATA[
	.st0{opacity:0.05;fill:#5D5D5D;}
	.st1{fill:none;stroke:#5D5D5D;stroke-width:0.5;stroke-miterlimit:10;}
	.st2{fill:none;stroke:#020202;stroke-width:1.9835;stroke-miterlimit:10;}
	.st3{fill:#878686;}
	.st4{fill:#ECB43C;}
	.st5{fill:none;stroke:#ECB43C;stroke-width:2;stroke-miterlimit:10;}
	.st6{fill:none;stroke:#FFFFFF;stroke-width:1.9835;stroke-miterlimit:10;}
	.st7{fill-rule:evenodd;clip-rule:evenodd;fill:#887AA8;}
	.st8{fill:#5D5D5D;}
	.st9{fill-rule:evenodd;clip-rule:evenodd;fill:#89898A;}
	.st10{fill-rule:evenodd;clip-rule:evenodd;fill:#ECB43C;}
	.st11{opacity:0;clip-path:url(#SVGID_8_);fill-rule:evenodd;clip-rule:evenodd;fill:#FFFFFF;}
	.st12{clip-path:url(#SVGID_8_);fill:#780068;}
	.st13{fill:#FFB62A;}
	.st14{fill:#FFFFFF;}
	.st15{clip-path:url(#SVGID_2_);fill:#5D5D5D;}
	.st16{fill:#CBD64E;}
	.st17{fill-rule:evenodd;clip-rule:evenodd;fill:#5D5D5D;}
	.st18{fill:none;stroke:#5D5D5D;stroke-miterlimit:10;}
	.st19{opacity:0.1;fill:#5D5D5D;}
	.st20{fill-rule:evenodd;clip-rule:evenodd;fill:#FA494D;}
	.st21{clip-path:url(#SVGID_2_);fill:#FFFFFF;}
	.st22{clip-path:url(#SVGID_4_);fill:#5D5D5D;}
	.st23{fill:#009999;}
	.st24{fill:#020202;}
	.st25{fill:#023366;}
	.st26{fill-rule:evenodd;clip-rule:evenodd;fill:#FF8F48;}
	.st27{fill-rule:evenodd;clip-rule:evenodd;fill:#FFB62A;}
	.st28{fill-rule:evenodd;clip-rule:evenodd;fill:#FFFFFF;}
	.st29{fill-rule:evenodd;clip-rule:evenodd;fill:none;stroke:#89898A;stroke-miterlimit:10;}
	.st30{clip-path:url(#SVGID_6_);fill:#5D5D5D;}
	.st31{fill-rule:evenodd;clip-rule:evenodd;fill:none;stroke:#5D5D5D;stroke-miterlimit:10;}
	.st32{fill-rule:evenodd;clip-rule:evenodd;fill:#000033;}
	.st33{fill-rule:evenodd;clip-rule:evenodd;fill:#003366;}
	.st34{fill-rule:evenodd;clip-rule:evenodd;fill:#009999;}
	.st35{fill-rule:evenodd;clip-rule:evenodd;fill:#00A89D;}
	.st36{fill-rule:evenodd;clip-rule:evenodd;fill:#00AA49;}
	.st37{fill-rule:evenodd;clip-rule:evenodd;fill:#00ABE1;}
	.st38{fill-rule:evenodd;clip-rule:evenodd;fill:#023366;}
]]>
</style>
<g id="yg0NNr_1_">
	<g>
		<path class="st33" d="M39.696,19.839c0,10.879-8.688,19.587-19.332,19.849C9.095,39.964,0.001,30.923,0.001,19.85
			c0-10.972,8.876-19.853,19.851-19.852C30.836,0,39.694,8.89,39.696,19.839z M34.778,18.447c0.148,0,0.297-0.004,0.447,0.002
			c0.071,0.002,0.078-0.021,0.072-0.086c-0.095-0.951-0.264-1.888-0.531-2.806c-0.884-3.02-2.528-5.55-4.927-7.583
			c-1.632-1.383-3.481-2.38-5.532-2.994c-0.923-0.277-1.864-0.468-2.823-0.562c-0.231-0.022-0.228-0.022-0.233,0.204
			c-0.006,0.297,0.029,0.595-0.047,0.888c-0.163,0.647-0.752,1.081-1.437,1.053c-0.636-0.025-1.186-0.522-1.294-1.163
			c-0.043-0.253-0.017-0.508-0.022-0.762c-0.005-0.264-0.001-0.268-0.269-0.238c-0.543,0.058-1.084,0.141-1.619,0.259
			c-1.593,0.35-3.099,0.929-4.508,1.753c-1.967,1.151-3.604,2.661-4.914,4.524c-1.006,1.432-1.744,2.992-2.224,4.675
			c-0.233,0.816-0.39,1.648-0.49,2.491c-0.013,0.109-0.065,0.258-0.014,0.32c0.06,0.075,0.214,0.02,0.327,0.023
			c0.266,0.012,0.533-0.021,0.797,0.052c0.645,0.179,1.07,0.778,1.027,1.456c-0.04,0.639-0.553,1.185-1.199,1.276
			c-0.283,0.04-0.568,0.016-0.853,0.017c-0.097,0-0.128,0.022-0.11,0.118c0.021,0.118,0.031,0.236,0.045,0.354
			c0.113,0.987,0.325,1.953,0.634,2.897c0.827,2.542,2.22,4.727,4.165,6.557c1.01,0.95,2.129,1.748,3.354,2.396
			c1.807,0.955,3.73,1.527,5.766,1.727c0.082,0.009,0.086-0.021,0.085-0.086c-0.003-0.212,0.007-0.425-0.001-0.638
			c-0.031-0.76,0.549-1.374,1.266-1.447c0.716-0.073,1.41,0.438,1.514,1.15c0.045,0.312,0.016,0.628,0.021,0.941
			c0.002,0.062,0.008,0.088,0.082,0.079c0.354-0.042,0.707-0.084,1.061-0.142c1.437-0.234,2.812-0.665,4.125-1.293
			c1.971-0.942,3.67-2.242,5.096-3.898c1.27-1.477,2.229-3.133,2.877-4.971c0.419-1.188,0.683-2.41,0.809-3.663
			c0.007-0.078-0.022-0.08-0.081-0.08c-0.265,0.002-0.526,0.004-0.79,0.001c-0.672-0.01-1.227-0.499-1.355-1.189
			c-0.115-0.61,0.26-1.265,0.854-1.51C34.204,18.435,34.49,18.444,34.778,18.447z"/>
		<path class="st33" d="M16.905,19.744c0.06-0.979,0.506-1.74,1.307-2.297c0.067-0.047,0.096-0.095,0.1-0.174
			c0.035-0.712,0.076-1.425,0.113-2.138c0.039-0.725,0.076-1.45,0.115-2.175c0.037-0.721,0.075-1.441,0.114-2.163
			c0.031-0.555,0.042-1.112,0.104-1.664c0.064-0.585,0.557-0.99,1.117-0.973c0.566,0.019,1.031,0.443,1.074,1.022
			c0.045,0.602,0.057,1.205,0.082,1.808c0.051,1.223,0.102,2.444,0.152,3.666c0.037,0.857,0.076,1.715,0.109,2.571
			c0.003,0.083,0.033,0.126,0.101,0.169c0.78,0.496,1.252,1.195,1.382,2.117c0.002,0.014,0.006,0.026,0.004,0.038
			c-0.045,0.279,0.113,0.461,0.285,0.653c0.805,0.907,1.604,1.823,2.404,2.735c1.041,1.188,2.081,2.375,3.125,3.561
			c0.39,0.439,0.438,0.936,0.199,1.44c-0.266,0.564-0.707,0.931-1.361,0.955c-0.307,0.013-0.582-0.091-0.814-0.299
			c-1.371-1.23-2.742-2.462-4.114-3.692c-0.778-0.697-1.556-1.395-2.333-2.092c-0.042-0.037-0.078-0.076-0.145-0.06
			c-0.343,0.083-0.68,0.021-1.001-0.086c-1.191-0.392-1.893-1.215-2.098-2.454C16.903,20.062,16.892,19.902,16.905,19.744z"/>
	</g>
</g>
</svg>
