<?xml version="1.0" encoding="utf-8"?>
<!-- Generator: Adobe Illustrator 16.0.0, SVG Export Plug-In . SVG Version: 6.00 Build 0)  -->
<!DOCTYPE svg PUBLIC "-//W3C//DTD SVG 1.1//EN" "http://www.w3.org/Graphics/SVG/1.1/DTD/svg11.dtd">
<svg version="1.1" id="Capa_1" xmlns="http://www.w3.org/2000/svg" xmlns:xlink="http://www.w3.org/1999/xlink" x="0px" y="0px"
	 width="495.236px" height="310.894px" viewBox="0 0 495.236 310.894" style="enable-background:new 0 0 495.236 310.894;"
	 xml:space="preserve" preserveAspectRatio="none">
<style type="text/css">
<![CDATA[
	.st0{opacity:0.05;fill:#5D5D5D;}
	.st1{fill:none;stroke:#5D5D5D;stroke-width:0.5;stroke-miterlimit:10;}
	.st2{fill:none;stroke:#020202;stroke-width:1.9835;stroke-miterlimit:10;}
	.st3{fill:#878686;}
	.st4{fill:#ECB43C;}
	.st5{fill:none;stroke:#ECB43C;stroke-width:2;stroke-miterlimit:10;}
	.st6{fill:none;stroke:#FFFFFF;stroke-width:1.9835;stroke-miterlimit:10;}
	.st7{fill-rule:evenodd;clip-rule:evenodd;fill:#887AA8;}
	.st8{fill:#5D5D5D;}
	.st9{fill-rule:evenodd;clip-rule:evenodd;fill:#89898A;}
	.st10{fill-rule:evenodd;clip-rule:evenodd;fill:#ECB43C;}
	.st11{opacity:0;clip-path:url(#SVGID_8_);fill-rule:evenodd;clip-rule:evenodd;fill:#FFFFFF;}
	.st12{clip-path:url(#SVGID_8_);fill:#780068;}
	.st13{fill:#FFB62A;}
	.st14{fill:#FFFFFF;}
	.st15{clip-path:url(#SVGID_2_);fill:#5D5D5D;}
	.st16{fill:#CBD64E;}
	.st17{fill-rule:evenodd;clip-rule:evenodd;fill:#5D5D5D;}
	.st18{fill:none;stroke:#5D5D5D;stroke-miterlimit:10;}
	.st19{opacity:0.1;fill:#5D5D5D;}
	.st20{fill-rule:evenodd;clip-rule:evenodd;fill:#FA494D;}
	.st21{clip-path:url(#SVGID_2_);fill:#FFFFFF;}
	.st22{clip-path:url(#SVGID_4_);fill:#5D5D5D;}
	.st23{fill:#020202;}
	.st24{fill-rule:evenodd;clip-rule:evenodd;fill:#FF8F48;}
	.st25{fill-rule:evenodd;clip-rule:evenodd;fill:#FFB62A;}
	.st26{fill-rule:evenodd;clip-rule:evenodd;fill:#FFFFFF;}
	.st27{fill-rule:evenodd;clip-rule:evenodd;fill:none;stroke:#89898A;stroke-miterlimit:10;}
	.st28{clip-path:url(#SVGID_6_);fill:#5D5D5D;}
	.st29{fill-rule:evenodd;clip-rule:evenodd;fill:none;stroke:#5D5D5D;stroke-miterlimit:10;}
	.st30{fill-rule:evenodd;clip-rule:evenodd;fill:#000033;}
	.st31{fill-rule:evenodd;clip-rule:evenodd;fill:#00A89D;}
	.st32{fill-rule:evenodd;clip-rule:evenodd;fill:#00AA49;}
	.st33{fill-rule:evenodd;clip-rule:evenodd;fill:#00ABE1;}
]]>
</style>
<g>
	<path class="st3" d="M495.219,35.47h-5.643v-0.594h-0.211v-0.893c0-0.25-0.203-0.453-0.453-0.453h-0.822
		c-0.252,0-0.455,0.203-0.455,0.453v0.893h-0.211v0.594h-4.406v7.729h-7.938v3.953h-2.962v1.119h2.005v1.119h-2.005v4.336h-1.026
		v2.902h-8.713v5.58h1.053v1.686h-1.053v1.367h1.053v1.422h-1.053v1.369h1.053v1.422h-1.053v1.367h1.053v1.424h-1.053v1.367h1.053
		v1.422h-1.053v1.369h1.053v1.422h-1.053v1.367h1.053v1.422h-1.053v1.369h1.053v1.422h-1.053v1.367h1.053v1.424h-1.053v1.367h1.053
		v1.422h-1.053v1.369h1.053v1.422h-1.053v1.367h1.053v1.424h-1.053v1.367h1.053v1.422h-1.053v1.369h1.053v0.525
		c-0.068-0.021-0.136-0.043-0.209-0.043c-0.387,0-0.701,0.314-0.701,0.699v0.238h-0.143v0.078c-0.334,0.055-0.672,0.109-1.02,0.164
		v-1.238c0-0.484-0.394-0.877-0.878-0.877c-0.483,0-0.876,0.393-0.876,0.877v1.498c-0.488,0.068-0.987,0.133-1.497,0.199v-0.047
		c0-0.385-0.313-0.699-0.7-0.699s-0.699,0.314-0.699,0.699v0.217c-0.478,0.055-0.963,0.107-1.46,0.16v-0.09
		c0-0.387-0.313-0.699-0.698-0.699c-0.389,0-0.701,0.312-0.701,0.699v0.23c-0.492,0.047-0.992,0.094-1.504,0.137v-1.23
		c0-0.484-0.393-0.877-0.877-0.877c-0.482,0-0.876,0.393-0.876,0.877v1.373c-0.476,0.035-0.962,0.07-1.454,0.104v-0.117
		c0-0.385-0.312-0.699-0.699-0.699s-0.701,0.314-0.701,0.699v0.205c-0.536,0.031-1.08,0.064-1.635,0.092v-0.139
		c0-0.385-0.312-0.699-0.7-0.699c-0.386,0-0.699,0.314-0.699,0.699v0.205c-0.423,0.02-0.849,0.039-1.282,0.055v-1.266
		c0-0.482-0.392-0.877-0.877-0.877c-0.484,0-0.877,0.395-0.877,0.877v1.328c-0.415,0.012-0.836,0.023-1.261,0.035v-0.84h0.838
		v-1.617h0.611v-0.592h-2.875v-2.146h0.493v-0.592h0.77v-1.074h-1.263c0,0-0.096-0.887-0.894-1.242s-0.373-4.229-0.236-5.215
		c0.139-0.984,0.531-1.008,0.531-1.615c0-0.605-0.738-1.861-0.855-2.1c-0.119-0.236-0.592-0.188-0.805-0.4
		c-0.212-0.213-0.191-0.574-0.123-0.762c0.069-0.188,0.247-0.256,0.345-0.553c0.099-0.295-0.049-1.025-0.747-1.311
		c-0.701-0.285-0.988,0.799-1.021,1.09c-0.035,0.291,0.262,0.566,0.203,0.832c-0.06,0.268-0.277,0.197-0.454,0.02
		c-0.177-0.176-0.759-0.846-0.72-1.35c0.039-0.502,0.266-1.223,0.581-1.883c0.315-0.658,0.385-0.846,0.208-1.262
		c0,0,0.187-0.176,0.079-0.611c-0.108-0.432-0.365-0.787-0.701-0.729c-0.335,0.061,0.185,0.145-0.099,0.809
		c-0.217,0.514-0.029,0.721,0.232,0.715c0,0,0.054,0.289-0.252,0.734c-0.306,0.443-0.769,1.359-0.905,1.705
		c0,0,0.05-0.887-0.73-1.055c0,0-0.159-0.502-0.591-0.266c-0.362,0.195-0.365,0.492-0.267,0.689c0,0-0.295,0.219-0.295,0.592
		c0,0.482,0.442,0.84,0,0.916c-0.513,0.088-0.887,0.363-0.887,0.363s0.058-1.27-1.567-2.336c-1.627-1.062-2.455-1.449-3.016-1.449
		c-0.562,0,0.285,1.115,1.073,1.607c0,0-0.472,0.75,1.282,1.932c0,0-0.729,2.209,1.656,2.543c0,0,0.398,0.307,0.305,0.631
		c-0.281,0.961-1.582,1.688-1.078,2.32c0,0-0.09,0.666-0.489,0.932c-0.399,0.268-0.605,0.637,0.503,1.184
		c1.107,0.547,0.545,0.242-0.34,1.596c-0.474,0.725-0.266,1.73-0.266,1.73s-0.315-0.045-0.445,0.295
		c-0.133,0.34-0.26,0.902-0.26,0.902h-1.262v1.074h0.768v0.592h0.494v2.146h-2.875v0.592h0.611v1.617h0.838v0.838
		c-0.409-0.01-0.814-0.021-1.215-0.033v-1.328c0-0.482-0.395-0.877-0.878-0.877s-0.876,0.395-0.876,0.877v1.266
		c-0.434-0.016-0.86-0.035-1.283-0.055v-0.205c0-0.385-0.312-0.699-0.699-0.699s-0.699,0.314-0.699,0.699v0.139
		c-0.555-0.027-1.1-0.061-1.636-0.092v-0.205c0-0.385-0.313-0.699-0.7-0.699c-0.386,0-0.699,0.314-0.699,0.699v0.117
		c-0.492-0.033-0.977-0.068-1.454-0.104v-1.373c0-0.484-0.392-0.877-0.878-0.877c-0.483,0-0.875,0.393-0.875,0.877v1.23
		c-0.512-0.043-1.012-0.09-1.504-0.137v-0.23c0-0.387-0.314-0.699-0.699-0.699c-0.388,0-0.7,0.312-0.7,0.699v0.09
		c-0.497-0.053-0.983-0.105-1.461-0.16v-0.217c0-0.385-0.312-0.699-0.698-0.699c-0.387,0-0.701,0.314-0.701,0.699v0.047
		c-0.51-0.066-1.008-0.131-1.496-0.199v-1.498c0-0.484-0.393-0.877-0.877-0.877s-0.878,0.393-0.878,0.877v1.238
		c-0.395-0.061-0.782-0.123-1.162-0.188v-0.293c0-0.385-0.312-0.699-0.7-0.699c-0.386,0-0.699,0.314-0.699,0.699v0.049
		c-0.461-0.084-0.909-0.17-1.345-0.258v-0.283c0-0.385-0.312-0.699-0.698-0.699c-0.385,0-0.697,0.311-0.701,0.693
		c-0.336-0.072-0.662-0.146-0.98-0.221v-1.871c0-0.486-0.393-0.879-0.877-0.879s-0.878,0.393-0.878,0.879v1.439
		c-0.368-0.096-0.724-0.193-1.065-0.289v-0.336c0-0.389-0.311-0.701-0.698-0.701c-0.36,0-0.657,0.271-0.696,0.623
		c-0.31-0.098-0.605-0.193-0.891-0.289v-0.434c0-0.385-0.312-0.697-0.7-0.697c-0.364,0-0.661,0.275-0.696,0.631
		c-0.178-0.068-0.35-0.137-0.516-0.203v-1.895c0-0.484-0.393-0.877-0.877-0.877s-0.877,0.393-0.877,0.877v1.119
		c-0.132-0.066-0.256-0.129-0.375-0.191v-0.24c0-0.387-0.312-0.699-0.699-0.699c-0.207,0-0.393,0.09-0.521,0.232
		c-0.414-0.275-0.585-0.436-0.585-0.436v-1.449l-1.512-1.514c0.04-0.074,0.028-0.156-0.033-0.191c-0.1-0.061-0.27-0.027-0.281,0.098
		h-0.031c-0.035-0.023-0.084-0.092-0.057-0.275c0.043-0.266,0.072-0.514-0.072-0.605l-0.002-0.002
		c0.139-0.076,0.277-0.166,0.412-0.27c1.455-1.113,0.791-2.244,0.42-2.578s-0.334-0.721-0.334-0.721s0.47-0.242,0.338-0.639
		c-0.105-0.316-1.754-0.49-2.398-0.545c-0.158-0.014-0.315-0.02-0.473-0.02c-0.158,0-0.314,0.006-0.473,0.02
		c-0.198,0.018-0.492,0.047-0.804,0.086V71.048l-29.241-13.975v47.225h-2.212h-0.392v-0.012l0.392,0.012
		c0,0,0.134-0.184-0.224-0.262c-0.063-0.014-0.115-0.051-0.168-0.086v-3.619h-0.758c-0.232-0.596-0.447-1.23-0.447-1.23
		s0.141,0.035,0.238,0.137c0.101,0.098,0.248,0,0.248,0s0.148,0.109,0.301,0.086c0.15-0.023,0.428-0.223,0.285-0.363
		c-0.143-0.145-0.325-0.018-0.389-0.16s-0.754-0.682-0.809-1.023s-0.095-1.373-0.135-1.57c-0.041-0.199-0.438-0.588-0.438-0.588
		s0.198,0.061,0.198-0.121c0-0.184,0.294-0.848-0.055-1.084c-0.349-0.238-0.69-0.232-0.9,0.074c-0.21,0.305-0.021,0.607-0.021,0.742
		s0.045,0.195-0.135,0.492c-0.179,0.297-0.393,0.963-0.214,1.582s0.088,0.766-0.15,1.322c-0.162,0.373-0.191,1.203-0.193,1.705
		h-0.371v-3.863l-1.946-0.178c-0.004-0.1-0.012-0.197-0.016-0.289c0.123-0.35,0.084-0.646-0.029-0.893
		c0.053-0.193-0.092-0.957-0.146-1.525c-0.06-0.619-0.06-1.762-0.393-1.928c-0.461-0.23-0.584-0.434-0.584-0.434l0.02-0.184
		c0,0,0.143,0.035,0.262,0.01c0.118-0.025,0.19-0.471,0.19-0.619s0.018-0.301,0.018-0.301s0.142-0.191,0.046-0.412
		c-0.094-0.223-0.729-0.406-0.994-0.164c-0.267,0.242-0.242,0.543-0.188,0.789c0.057,0.248,0.031,0.445,0.031,0.445
		s-0.188,0.271-0.38,0.35c-0.028,0.012-0.058,0.025-0.087,0.037l-0.857-34.641c0,0,0.31-0.596,0.31-1.049
		c0-0.451,0.019-2.459,0.019-2.459c0.803-0.107,0.274-2.268,0.274-2.268c1.302-0.77,0.917-2.084,1.271-2.643
		c0.611-0.967,1.412-0.008,1.531-0.42c0.299-1.037-0.627-1.396-0.627-1.396c1.253-1.254,0.952-3.111,0.952-4.57
		s1.079-1.619,1.301-1.842s-1.174-1.236-1.174-1.236c-1.237,0.412-3.967,0.412-3.967,0.412l0.126-5.744l0.557-0.951v-2.16
		l-1.523-1.238l-1-0.102c-0.086-0.193-0.264-0.469-0.65-0.76c-0.715-0.541-0.461-1.16-0.318-1.619
		c0.144-0.461,0.539-0.635,0.619-1.301c0.078-0.666,0-2.109,0-2.109s0.793,0.316,1.127,1.76c0.333,1.445,0.396,2.238,0.826,2.363
		c0.428,0.127,0.443-1.156,0.301-1.744s-0.857-1.301-0.777-2.158c0.079-0.857,0.714-0.365,0.975-0.611
		c0.264-0.246,0.596-1.039,0.438-1.498c-0.159-0.461-0.572-0.73-0.811-1.256c-0.238-0.521-0.682-0.633-0.998-0.459
		c0,0-0.207-0.668-0.684-0.951c0,0-0.135-1.088-0.429-1.381c-0.292-0.295-0.649-0.793-0.649-1.477s-0.047-1.475-0.047-1.475
		s0.92,0.094,1.443-0.113c0.523-0.205,1.158-0.492,1.373-0.428c0.213,0.064,0.285,0.15,0.285,0.492s-0.047,0.762,0.166,0.666
		c0.215-0.094,0.008-0.676,0.219-0.883c0.21-0.211,0.131-0.457,0.115-0.902c-0.016-0.443,0.149-0.658-0.079-0.904
		c-0.229-0.246-0.62-0.086-0.759,0.092s-0.346,0.646-0.702,0.727c-0.356,0.078-1.329-0.045-1.42-0.137
		c-0.091-0.09,0.064-1.061,0.064-1.275s0.729-0.367,0.903-0.953c0,0,0.809-0.316,0.809-1.166c0,0,1.336,0.057,1.588-0.404
		c0.206-0.381-0.087-0.66-0.087-0.66s0.713-0.174,0.872-0.602c0.135-0.363-0.099-0.543-0.099-0.543s0.947-0.268,1.122-0.719
		c0.176-0.451-0.619-0.785-0.619-0.785s1.016-0.549,1.144-1.191c0.127-0.641-0.524-0.443-1.04-0.268
		c-0.516,0.174-1.912,0.77-3.324,0.785s-1.424,0.178-1.809,0.562s-1,1.23-1.119,1.469s-0.5,2.037-0.842,2.141
		c-0.34,0.104-0.722-0.158-0.828-0.408c-0.107-0.25-0.024-0.715,0.052-0.789c0.075-0.076,0.603-0.365,0.681-0.809
		c0.08-0.445,0.159-1.676-0.547-2.238c-0.705-0.562-1.717,0.045-1.867,0.537c-0.15,0.49-0.258,1.328-0.021,1.764
		c0.238,0.438,0.444,0.547,0.444,0.723c0,0.174-0.11,0.76-0.35,0.73c-0.238-0.033-0.658-0.461-1.094-0.764
		c-0.438-0.301-0.977-0.912-1.191-1.482c-0.214-0.57-0.611-2.99-0.611-3.357c0-0.363,0.443-0.383,0.716-0.865
		c0.229-0.381,0.174-1.037,0-1.545c-0.125-0.359-1.333-0.912-1.952-0.588c-0.516,0.27-0.662,0.584-0.826,0.809
		c-0.163,0.227-0.143,0.594-0.102,1.016c0.051,0.529,0.521,1.1,0.816,1.158c0.277,0.055,0.548-0.064,0.604,0.43
		c0.055,0.492-0.016,2.5,0.194,3.002c0,0-1.413-2.191-4.272-3.83c-3.349-1.916-3.758-2.922-4.175-2.504
		c-0.417,0.416,0.47,1.752,1.017,2.299c0,0-1.023-0.094-0.023,1.238c0,0-0.596,1.834,1.643,2.072c0,0-0.119,1.951,2.166,1.951
		c0,0-0.238,0.691,0.5,1.047c0,0-0.096,1.215,1.285,1.096c0,0-0.072,1.311,1.404,1.023c0,0-0.547,1.189,0.57,1.498
		c0,0-0.071,0.762,0.715,0.619c0,0-0.143,0.951,0.713,0.691c0,0-0.023,0.879,0.929,0.691c0,0-0.571,1.164-0.452,1.785
		c0.119,0.617,0.643,1.189,0.643,1.189s-0.643,0.689-0.643,1.545c0,0.857,0.523,0.857,0.523,1.643s-0.189,1.072-0.189,1.072
		s-0.477,0.262-0.572,1.047s0.977,1.15,0.977,1.15s-0.017,0.508,0.349,0.588c0.365,0.078,0.985-0.08,0.888,0.412
		c-0.094,0.492-0.221,1.332,0.826,1.238c0,0-0.031,0.539,0.412,0.984c0.444,0.441-0.5,0.752-0.936,0.871
		c-0.637,0.176-0.892,0.627-0.994,0.924l-1.117,0.113l-1.523,1.238v2.16l0.556,0.951l0.128,5.744c0,0-2.73,0-3.968-0.412
		c0,0-1.396,1.014-1.174,1.236c0.222,0.223,1.3,0.383,1.3,1.842s-0.3,3.316,0.953,4.57c0,0-0.925,0.359-0.627,1.396
		c0.119,0.412,0.92-0.547,1.531,0.42c0.354,0.559-0.031,1.873,1.27,2.643c0,0-0.527,2.16,0.275,2.268c0,0,0.019,2.008,0.019,2.459
		c0,0.453,0.31,1.049,0.31,1.049l-0.008,0.328h-19.414l-17.632,21.744h-1.461v-2h1.495V75.13h-1.495v-2h1.495v-1.475h-1.495v-2
		h1.495v-1.475h-1.495v-2h1.495v-1.475h-1.495v-2.002h1.495v-1.473h-1.495v-2.002h1.495v-1.473h-1.495v-2h1.495v-1.475h-1.495v-2
		h1.495v-1.475h-1.495v-2.002h1.495v-1.473h-1.495v-2.002h1.495v-1.473h-1.495v-2h1.495v-1.475h-1.495V21.325h-7.581l-7.532,16.006
		l-0.049,0.104v2.949h-1.496v1.475h1.496v2h-1.496v1.473h1.496v2.002h-1.496v1.473h1.496v2.002h-1.496v1.475h1.496v2h-1.496v1.475
		h1.496v2h-1.496v1.473h1.496v2.002h-1.496v1.473h1.496v2.002h-1.496v1.475h1.496v2h-1.496v1.475h1.496v2h-1.496v1.475h1.496v2
		h-1.496v1.475h1.496v2h-1.496v1.475h1.496v2h-1.496v1.475h1.496v2h-1.496v1.475h1.496v2h-1.496v1.475h1.496v2h-1.496v1.475h1.496
		v2.002h-1.496v1.473h1.496v1.648l-0.284,0.352h-1.212v0.934h-9.631V85.481h-0.67c-1.049,0-1.899,0.852-1.899,1.898v0.088h-4.298
		c-0.617-8.152-6.509-14.85-14.265-16.68v-1.062c0-0.795-0.646-1.439-1.441-1.439h-0.023v-6.254h-0.629v1.025h-0.494v-0.713h-0.629
		v0.713h-0.328v-1.072c0.311-0.225,0.514-0.588,0.514-1c0-0.592-0.414-1.086-0.969-1.207c0.33-0.113,0.569-0.424,0.569-0.791
		c0-0.207-0.077-0.395-0.2-0.539c0.107-0.268-0.052-0.604-0.18-0.732c-0.136-0.135-0.125-0.428-0.125-0.428
		c1.931-0.906,2.156-2.703,2.156-2.703c-1.682,0.932-2.176,1.787-2.176,1.787c0.041-0.629-0.314-0.615-0.314-0.615
		s-0.355-0.014-0.316,0.615c0,0-0.494-0.855-2.175-1.787c0,0,0.224,1.797,2.156,2.703c0,0,0.011,0.293-0.124,0.428
		c-0.129,0.129-0.288,0.465-0.181,0.732c-0.122,0.145-0.2,0.332-0.2,0.539c0,0.367,0.238,0.678,0.57,0.791
		c-0.555,0.121-0.971,0.615-0.971,1.207c0,0.412,0.205,0.775,0.515,1v1.072h-0.327v-0.713h-0.629v0.713h-0.496v-1.025h-0.629v6.254
		h-0.023c-0.795,0-1.439,0.645-1.439,1.439v1.062c-7.758,1.828-13.652,8.525-14.27,16.68h-4.299V87.38
		c0-1.047-0.85-1.898-1.898-1.898h-0.669v14.904h-17.063V58.101c0-1.721-1.394-3.115-3.114-3.115h-10.504v4.23l3.344,0.99v3.777
		h-15.601V88.31h-17.951v-2.648h-0.867v-3.078l0.867-0.203v-2.908h-0.867v-3.078l0.867-0.203v-2.91h-0.867v-5.633h-18.975v-1.1
		h1.055v-1.369h-1.055v-1.422h1.055V62.39h-1.055v-1.422h1.055v-1.369h-1.055v-1.422h1.055V56.81h-1.055v-1.422h1.055v-1.369h-1.055
		v-1.422h1.055v-1.369h-1.055v-1.422h1.055v-1.369h-1.055v-1.684h1.055v-5.58h-19.479v5.58h1.053v1.684h-1.053v1.369h1.053v1.422
		h-1.053v1.369h1.053v1.422h-1.053v1.369h1.053v1.422h-1.053v1.367h1.053v1.422h-1.053v1.369h1.053v1.422h-1.053v1.367h1.053v1.422
		h-1.053v1.369h1.053v1.422h-1.053v1.369h1.053v1.422h-1.053v1.367h1.053v1.422h-1.053v1.369h1.053v1.422h-1.053v1.367h1.053v1.424
		h-1.053v1.367h1.053v1.422h-1.053v1.369h1.053v0.768h-13.969v1.375h0.621v7.92h-8.104v1.973h-1.101v3.029h1.101v1.332h-1.101v3.031
		h1.101v1.33h-1.101v3.029h1.101v1.33h-1.101v3.031h1.101v1.33h-1.101v3.031h1.101v5.92h-1.107v-9.623h-2.196v-2.588h-0.634v-2.588
		h0.634v-2.586h-0.634v-2.586h0.634v-2.588h-0.634v-2.586h0.634v-2.588h-0.634v-2.586h0.634v-2.588h-0.634v-2.586h0.634V83.64
		h-0.634v-2.586h0.634v-2.588h-0.634V75.88h0.634v-2.588h-0.634v-2.586h0.634v-2.588h-0.634v-2.586h0.634v-2.588h-0.634v-2.586
		h0.634v-2.588h-0.634v-2.586h0.634v-2.586h1.026V48.89h-2.295v-7.469H90.58l-0.779-7.467h-0.928L86.807,29.3h-0.25V17.265h-0.535
		L85.75,8.517l-0.272,8.748h-0.536V29.3h-0.249l-2.066,4.654h-0.929l-0.78,7.467h-2.636v7.469h-2.294v3.709h1.024v2.586h0.635v2.586
		h-0.635v2.588h0.635v2.586h-0.635v2.588h0.635v2.586h-0.635v2.588h0.635v2.586h-0.635v2.588h0.635v2.586h-0.635v2.588h0.635v2.586
		h-0.635v2.588h0.635v2.586h-0.635v2.588h0.635v2.586h-0.635v2.588h0.635v2.586h-0.635v2.588h0.635v2.586h-0.635v2.586h0.635v1.77
		c-0.184-0.266-0.462-0.473-0.828-0.539l-0.94-0.17c-3.335-0.6-6.692-1.021-10.06-1.266V95.21h4.646v-1.049l-4.646-1.531v-5.471
		h-0.84c0,0,0.091-0.436-0.434-1.184c-0.525-0.752-1.155-0.406-1.694-0.467c-0.54-0.059-0.735-0.674-0.779-1.184
		c-0.046-0.51-0.676-0.795-0.676-1.35s0.15-0.854,0.15-1.078s-0.255-0.525-0.255-0.525s-0.016-1.68-0.18-2.338
		c-0.165-0.66-0.631-1.051-0.75-1.32s0.27-0.568,0.75-1.545c0.479-0.973,0.764-1.738,0.764-1.738
		c0.645-1.498-0.824-3.043-0.674-4.451c0.15-1.41-0.226-2.295-0.226-2.295s0.233-0.236,0.159-0.727
		c-0.031-0.193,0.291-0.412,0.846-0.697s1.619-0.988,1.799-1.168c0.18-0.182,0.87-0.166,1.477-0.623
		c0.607-0.459,1.762-1.807,2.047-1.896c0.091-0.029,0.21-0.051,0.331-0.072c0.013,0.309,0.012,0.615,0.003,0.918
		c0.004,0.16-0.026,0.32-0.037,0.482c-0.015,0.158-0.029,0.318-0.045,0.477c-0.041,0.314-0.105,0.623-0.154,0.928
		c-0.051,0.307-0.144,0.598-0.207,0.891s-0.156,0.57-0.24,0.842c-0.09,0.271-0.16,0.541-0.26,0.789
		c-0.094,0.252-0.186,0.496-0.273,0.729c-0.044,0.117-0.086,0.232-0.129,0.344c-0.047,0.109-0.094,0.217-0.139,0.322
		c-0.09,0.209-0.176,0.406-0.256,0.594c-0.154,0.377-0.317,0.691-0.444,0.953c-0.255,0.527-0.399,0.828-0.399,0.828
		s0.168-0.289,0.461-0.795c0.145-0.256,0.327-0.561,0.503-0.93c0.094-0.182,0.189-0.375,0.294-0.582
		c0.051-0.102,0.104-0.207,0.155-0.314c0.048-0.111,0.097-0.225,0.146-0.34c0.099-0.232,0.202-0.473,0.309-0.723
		c0.108-0.25,0.188-0.52,0.287-0.791c0.097-0.273,0.198-0.553,0.271-0.848c0.04-0.148,0.08-0.295,0.121-0.445
		c0.04-0.15,0.087-0.301,0.111-0.457c0.057-0.312,0.129-0.627,0.176-0.949c0.034-0.326,0.083-0.654,0.098-0.988
		c0.012-0.334,0.015-0.674,0-1.014c0.113-0.039,0.2-0.094,0.232-0.178c0.09-0.24,0.099-1.191,0-1.289
		c-0.055-0.055-0.268-0.062-0.445-0.061l-0.133-0.479c-0.039-0.166-0.115-0.32-0.173-0.48c-0.061-0.158-0.116-0.318-0.198-0.467
		c-0.074-0.15-0.15-0.299-0.227-0.449c-0.088-0.141-0.178-0.281-0.266-0.42c-0.084-0.143-0.19-0.27-0.287-0.398
		c-0.101-0.129-0.193-0.26-0.306-0.375c-0.413-0.49-0.898-0.881-1.368-1.225c-0.47-0.346-0.957-0.604-1.411-0.826
		c-0.455-0.223-0.892-0.379-1.28-0.512c-0.389-0.123-0.733-0.219-1.021-0.281c-0.286-0.068-0.513-0.105-0.667-0.129
		c-0.156-0.023-0.239-0.029-0.239-0.029s0.083,0.012,0.235,0.049c0.152,0.035,0.373,0.096,0.654,0.176
		c0.28,0.082,0.615,0.195,0.992,0.342c0.375,0.154,0.795,0.334,1.232,0.568c0.435,0.238,0.898,0.512,1.346,0.859
		c0.445,0.346,0.898,0.738,1.287,1.213c0.105,0.113,0.192,0.24,0.285,0.365c0.09,0.125,0.191,0.246,0.268,0.385
		c0.082,0.135,0.164,0.27,0.246,0.406c0.07,0.143,0.142,0.287,0.211,0.43c0.078,0.141,0.13,0.293,0.188,0.445
		c0.053,0.152,0.123,0.299,0.16,0.459l0.082,0.303c-0.062,0.006-0.154,0.029-0.29,0.084c-0.481,0.195-0.495,1.186-0.495,1.186
		c-1.139,0.869-2.314,1.324-2.998,2.008c-0.416,0.416-1.045,0.406-1.503,0.549c-0.581,0.18-1.063,0.525-1.491,0.572
		c-0.702,0.08-0.702,0.371-1.099,0.32c-0.554-0.074-0.479-0.496-0.479-0.496s0.479,0.105,0.479-0.15
		c0-0.254-0.007-1.229-0.007-1.633s-0.383-1.123-1.432-1.096c-1.051,0.031-1.141,0.932-1.68,1.471s-0.695,1.678-0.695,1.678
		c-0.638,0.391-1.492,1.23-2.303,2.699s0.119,1.348,0.9,1.348c0.779,0,2.619-1.17,2.619-1.17c0.452,0.646,0.926,0.691,1.099,1.412
		c0.216,0.904-0.392,1.408-0.661,1.918s-0.059,1.229-0.059,1.229s-0.512,1.141-0.512,2.908c0,1.32,1.529,3.854,1.529,3.854
		c-0.584,0-0.471,1.867-0.898,2.295c-0.428,0.426,0.09,1.799-0.719,2.113c-0.811,0.314-0.766,1.258-0.766,1.258
		c-0.15,0.391-0.254,0.451-0.886,0.707c-0.628,0.254-0.628,1.273-0.628,1.273h-1.14v5.471l-1.338,0.441V85.45H41.26v0.904h-8.711
		V85.45h-9.291V73.548h0.924v-0.791H0v238.137h495.236L495.219,35.47z M331.723,2.208c0,0-0.476,0.16-0.725-0.09
		c-0.252-0.25-0.235-0.639-0.119-0.811c0.115-0.17,0.4-0.496,0.686-0.496c0.325,0,0.643,0.191,0.723,0.492
		C332.365,1.606,332.16,2.073,331.723,2.208z M51.933,95.21h1.338v11.404c-0.446,0.023-0.893,0.064-1.338,0.096V95.21z
		 M59.208,109.46c-0.151,0-0.302-0.004-0.452-0.004c-2.275,0-4.552,0.08-6.823,0.24v-1.723c2.272-0.143,4.548-0.217,6.823-0.217
		c0.15,0,0.301,0.002,0.452,0.002V109.46z M72.434,110.425c-4.165-0.596-8.357-0.916-12.553-0.963v-1.699
		c4.337,0.043,8.672,0.348,12.978,0.914L72.434,110.425z M77.646,109.509h-0.635v1.689c-0.01-0.002-0.019-0.006-0.029-0.008
		c-0.053-0.018-0.108-0.033-0.164-0.043l-0.94-0.17c-0.923-0.164-1.849-0.316-2.776-0.455l0.43-1.756
		c1.113,0.152,2.223,0.324,3.33,0.512l0.785,0.135V109.509z M294.438,80.405v-0.326h0.265L294.438,80.405z M353.826,121.72h-2.604
		v-15.326h1.762v-1.523h0.842V121.72z M383.067,91.915v-0.553c0.003-0.002,0.015-0.006,0.015-0.006
		c0.615,0.178,1.127,0.164,1.262,0.156c0.135,0.008,0.646,0.021,1.262-0.156c0,0,0.279,0.08,0.387,0.348
		c0.029,0.078,0.08,0.148,0.139,0.211H383.067z M395.588,121.72h-3.615l0.199-14.342c0.74-0.355,0.8-0.68,0.8-0.68l1.917,0.469
		l0.033,0.773l0.809,0.117c0,0.455,0.671,0.77,0.671,0.77L395.588,121.72z M404.135,121.72h-5.131v-12.863
		c0,0,0.436-0.051,0.707-0.381l1.095-0.062l0.089-0.443l2.307,0.281l0.107,0.693l0.69,0.164c0,0,0.069,0.547,0.651,0.77
		L404.135,121.72z M413.555,121.72h-6.056l-0.14-11.848c0,0,0.601,0.049,0.793-0.543l0.828-0.119l0.074-0.266l3.785,0.281v0.504
		l0.487,0.162c0,0-0.029,0.443,0.562,0.592L413.555,121.72z M422.967,121.72h-6.441l-0.153-11.061c0.725,0,0.872-0.68,0.872-0.68
		l0.414-0.088v-0.518l4.613,0.252l0.018,0.422l0.316,0.08c-0.07,0.443,0.611,0.709,0.611,0.709L422.967,121.72z M426.512,121.72
		h-0.561l-0.104-10.961c0.473-0.139,0.434-0.531,0.434-0.531l0.23-0.078V121.72z M441.014,121.72h-0.606v-11.584l0.275,0.092
		c0,0-0.038,0.393,0.435,0.531L441.014,121.72z M450.439,121.72h-6.441l-0.25-10.883c0,0,0.68-0.266,0.611-0.709l0.314-0.08
		l0.02-0.422l4.613-0.252v0.518l0.413,0.088c0,0,0.148,0.68,0.873,0.68L450.439,121.72z M459.465,121.72h-6.054l-0.336-11.236
		c0.593-0.148,0.562-0.592,0.562-0.592l0.487-0.162v-0.504l3.785-0.281l0.074,0.266l0.826,0.119
		c0.193,0.592,0.795,0.543,0.795,0.543L459.465,121.72z"/>
</g>
</svg>
