<?xml version="1.0" encoding="utf-8"?>
<!-- Generator: Adobe Illustrator 16.0.0, SVG Export Plug-In . SVG Version: 6.00 Build 0)  -->
<!DOCTYPE svg PUBLIC "-//W3C//DTD SVG 1.1//EN" "http://www.w3.org/Graphics/SVG/1.1/DTD/svg11.dtd">
<svg version="1.1" id="Capa_1" xmlns="http://www.w3.org/2000/svg" xmlns:xlink="http://www.w3.org/1999/xlink" x="0px" y="0px"
	 width="414.526px" height="260.225px" viewBox="0 0 414.526 260.225" style="enable-background:new 0 0 414.526 260.225;"
	 xml:space="preserve" preserveAspectRatio="none">
<style type="text/css">
<![CDATA[
	.st0{opacity:0.05;fill:#5D5D5D;}
	.st1{fill:none;stroke:#5D5D5D;stroke-width:0.5;stroke-miterlimit:10;}
	.st2{fill:none;stroke:#020202;stroke-width:1.9835;stroke-miterlimit:10;}
	.st3{fill:#878686;}
	.st4{fill:#ECB43C;}
	.st5{fill:none;stroke:#ECB43C;stroke-width:2;stroke-miterlimit:10;}
	.st6{fill:none;stroke:#FFFFFF;stroke-width:1.9835;stroke-miterlimit:10;}
	.st7{fill-rule:evenodd;clip-rule:evenodd;fill:#887AA8;}
	.st8{fill:#5D5D5D;}
	.st9{fill-rule:evenodd;clip-rule:evenodd;fill:#89898A;}
	.st10{fill-rule:evenodd;clip-rule:evenodd;fill:#ECB43C;}
	.st11{opacity:0;clip-path:url(#SVGID_8_);fill-rule:evenodd;clip-rule:evenodd;fill:#FFFFFF;}
	.st12{clip-path:url(#SVGID_8_);fill:#780068;}
	.st13{fill:#FFB62A;}
	.st14{fill:#FFFFFF;}
	.st15{clip-path:url(#SVGID_2_);fill:#5D5D5D;}
	.st16{fill:#CBD64E;}
	.st17{fill-rule:evenodd;clip-rule:evenodd;fill:#5D5D5D;}
	.st18{fill:none;stroke:#5D5D5D;stroke-miterlimit:10;}
	.st19{opacity:0.1;fill:#5D5D5D;}
	.st20{fill-rule:evenodd;clip-rule:evenodd;fill:#FA494D;}
	.st21{clip-path:url(#SVGID_2_);fill:#FFFFFF;}
	.st22{clip-path:url(#SVGID_4_);fill:#5D5D5D;}
	.st23{fill:#020202;}
	.st24{fill-rule:evenodd;clip-rule:evenodd;fill:#FF8F48;}
	.st25{fill-rule:evenodd;clip-rule:evenodd;fill:#FFB62A;}
	.st26{fill-rule:evenodd;clip-rule:evenodd;fill:#FFFFFF;}
	.st27{fill-rule:evenodd;clip-rule:evenodd;fill:none;stroke:#89898A;stroke-miterlimit:10;}
	.st28{clip-path:url(#SVGID_6_);fill:#5D5D5D;}
	.st29{fill-rule:evenodd;clip-rule:evenodd;fill:none;stroke:#5D5D5D;stroke-miterlimit:10;}
	.st30{fill-rule:evenodd;clip-rule:evenodd;fill:#000033;}
	.st31{fill-rule:evenodd;clip-rule:evenodd;fill:#00A89D;}
	.st32{fill-rule:evenodd;clip-rule:evenodd;fill:#00AA49;}
	.st33{fill-rule:evenodd;clip-rule:evenodd;fill:#00ABE1;}
]]>
</style>
<g>
	<path class="st8" d="M0,260.225h414.526l-0.015-230.535h-4.724v-0.498h-0.176v-0.746c0-0.211-0.171-0.381-0.38-0.381h-0.688
		c-0.211,0-0.381,0.17-0.381,0.381v0.746h-0.176v0.498h-3.688v6.469h-6.645v3.309h-2.479v0.936h1.678v0.938h-1.678v3.629h-0.859
		v2.43h-7.293v4.67h0.881v1.41h-0.881v1.146h0.881v1.189h-0.881v1.146h0.881v1.189h-0.881v1.145h0.881v1.191h-0.881v1.145h0.881
		v1.189h-0.881v1.146h0.881v1.189h-0.881v1.146h0.881v1.189h-0.881v1.146h0.881v1.189h-0.881v1.145h0.881v1.191h-0.881v1.145h0.881
		v1.189h-0.881v1.146h0.881v1.189h-0.881v1.146h0.881v1.189h-0.881v1.146h0.881v1.189h-0.881v1.146h0.881v0.439
		c-0.057-0.02-0.113-0.037-0.175-0.037c-0.323,0-0.586,0.264-0.586,0.586v0.199h-0.12v0.066c-0.279,0.045-0.562,0.092-0.854,0.137
		v-1.037c0-0.406-0.329-0.732-0.734-0.732c-0.404,0-0.733,0.326-0.733,0.732v1.254c-0.408,0.057-0.826,0.111-1.253,0.166v-0.037
		c0-0.324-0.263-0.586-0.586-0.586c-0.324,0-0.586,0.262-0.586,0.586v0.18c-0.399,0.047-0.806,0.092-1.222,0.135v-0.074
		c0-0.324-0.263-0.586-0.585-0.586c-0.324,0-0.586,0.262-0.586,0.586v0.191c-0.412,0.041-0.831,0.078-1.259,0.115v-1.029
		c0-0.406-0.329-0.734-0.734-0.734c-0.404,0-0.733,0.328-0.733,0.734v1.148c-0.398,0.029-0.805,0.059-1.217,0.086v-0.098
		c0-0.322-0.262-0.584-0.586-0.584c-0.323,0-0.586,0.262-0.586,0.584v0.172c-0.449,0.027-0.904,0.053-1.369,0.076v-0.115
		c0-0.322-0.262-0.586-0.586-0.586c-0.322,0-0.585,0.264-0.585,0.586v0.172c-0.354,0.016-0.711,0.031-1.073,0.045v-1.059
		c0-0.404-0.328-0.734-0.734-0.734c-0.405,0-0.733,0.33-0.733,0.734v1.111c-0.348,0.01-0.7,0.02-1.056,0.029v-0.703h0.701v-1.354
		h0.512v-0.494h-2.406v-1.799h0.412v-0.494h0.645v-0.9h-1.057c0,0-0.08-0.742-0.748-1.039s-0.312-3.539-0.198-4.363
		c0.116-0.824,0.445-0.846,0.445-1.354c0-0.506-0.618-1.559-0.717-1.756c-0.099-0.199-0.495-0.158-0.673-0.336
		s-0.16-0.48-0.104-0.637c0.059-0.158,0.207-0.215,0.289-0.463c0.083-0.248-0.041-0.859-0.626-1.098
		c-0.586-0.238-0.826,0.668-0.854,0.912c-0.029,0.244,0.219,0.475,0.17,0.697c-0.05,0.223-0.232,0.164-0.38,0.016
		c-0.148-0.148-0.636-0.709-0.603-1.131c0.033-0.42,0.223-1.021,0.486-1.574s0.322-0.709,0.174-1.057c0,0,0.156-0.148,0.066-0.512
		c-0.091-0.361-0.306-0.658-0.587-0.609c-0.28,0.049,0.154,0.119-0.082,0.676c-0.182,0.43-0.024,0.604,0.194,0.598
		c0,0,0.045,0.244-0.211,0.615s-0.644,1.139-0.758,1.428c0,0,0.041-0.742-0.611-0.883c0,0-0.133-0.42-0.495-0.223
		c-0.303,0.164-0.306,0.412-0.223,0.576c0,0-0.247,0.186-0.247,0.496c0,0.404,0.37,0.703,0,0.768
		c-0.429,0.074-0.742,0.305-0.742,0.305s0.049-1.064-1.312-1.955c-1.362-0.891-2.055-1.213-2.524-1.213
		c-0.471,0,0.238,0.932,0.898,1.344c0,0-0.396,0.629,1.073,1.617c0,0-0.61,1.85,1.386,2.129c0,0,0.334,0.256,0.255,0.527
		c-0.234,0.805-1.323,1.414-0.902,1.943c0,0-0.075,0.557-0.409,0.779s-0.507,0.533,0.421,0.99s0.456,0.203-0.284,1.336
		c-0.396,0.607-0.223,1.447-0.223,1.447s-0.264-0.037-0.373,0.248c-0.11,0.285-0.217,0.754-0.217,0.754h-1.056v0.9h0.643v0.494
		h0.413v1.799h-2.406v0.494h0.512v1.354h0.701v0.701c-0.343-0.008-0.682-0.018-1.018-0.027v-1.111c0-0.404-0.329-0.734-0.734-0.734
		c-0.404,0-0.733,0.33-0.733,0.734v1.059c-0.362-0.014-0.72-0.029-1.073-0.045v-0.172c0-0.322-0.262-0.586-0.586-0.586
		c-0.323,0-0.585,0.264-0.585,0.586v0.115c-0.464-0.023-0.921-0.049-1.369-0.076v-0.172c0-0.322-0.263-0.584-0.586-0.584
		s-0.586,0.262-0.586,0.584v0.098c-0.412-0.027-0.817-0.057-1.217-0.086v-1.148c0-0.406-0.328-0.734-0.734-0.734
		c-0.405,0-0.733,0.328-0.733,0.734v1.029c-0.428-0.037-0.847-0.074-1.259-0.115v-0.191c0-0.324-0.263-0.586-0.585-0.586
		c-0.324,0-0.586,0.262-0.586,0.586v0.074c-0.416-0.043-0.823-0.088-1.223-0.135v-0.18c0-0.324-0.262-0.586-0.585-0.586
		s-0.586,0.262-0.586,0.586v0.037c-0.428-0.055-0.845-0.109-1.253-0.166v-1.254c0-0.406-0.328-0.732-0.734-0.732
		c-0.405,0-0.734,0.326-0.734,0.732v1.037c-0.33-0.051-0.655-0.104-0.973-0.156v-0.246c0-0.322-0.262-0.586-0.586-0.586
		c-0.323,0-0.586,0.264-0.586,0.586v0.041c-0.386-0.07-0.761-0.143-1.125-0.215v-0.238c0-0.322-0.262-0.586-0.585-0.586
		c-0.321,0-0.583,0.26-0.586,0.582c-0.281-0.062-0.555-0.123-0.821-0.186v-1.566c0-0.406-0.329-0.734-0.734-0.734
		s-0.734,0.328-0.734,0.734v1.205c-0.309-0.08-0.605-0.162-0.892-0.242v-0.281c0-0.324-0.261-0.586-0.585-0.586
		c-0.302,0-0.55,0.227-0.582,0.52c-0.26-0.08-0.508-0.16-0.746-0.24v-0.363c0-0.322-0.262-0.584-0.586-0.584
		c-0.305,0-0.554,0.23-0.583,0.527c-0.148-0.057-0.293-0.113-0.432-0.168v-1.586c0-0.406-0.328-0.734-0.733-0.734
		c-0.406,0-0.734,0.328-0.734,0.734v0.936c-0.11-0.055-0.215-0.107-0.313-0.16v-0.201c0-0.324-0.263-0.586-0.586-0.586
		c-0.173,0-0.328,0.076-0.436,0.195c-0.347-0.23-0.489-0.365-0.489-0.365v-1.213l-1.266-1.266c0.033-0.062,0.023-0.131-0.027-0.16
		c-0.084-0.051-0.226-0.023-0.236,0.082h-0.026c-0.029-0.021-0.07-0.078-0.047-0.23c0.036-0.225,0.061-0.43-0.061-0.508
		l-0.001-0.002c0.115-0.064,0.231-0.139,0.345-0.225c1.218-0.934,0.661-1.879,0.351-2.158c-0.311-0.281-0.279-0.604-0.279-0.604
		s0.394-0.203,0.283-0.535c-0.089-0.266-1.469-0.41-2.008-0.455c-0.132-0.012-0.264-0.018-0.396-0.018s-0.264,0.006-0.396,0.018
		c-0.166,0.014-0.412,0.039-0.673,0.072V59.469l-24.476-11.697v39.527h-1.852h-0.327v-0.01l0.327,0.01c0,0,0.112-0.152-0.187-0.219
		c-0.054-0.012-0.097-0.043-0.141-0.072v-3.029h-0.635c-0.194-0.498-0.374-1.029-0.374-1.029s0.117,0.029,0.199,0.113
		c0.084,0.082,0.207,0,0.207,0s0.125,0.092,0.252,0.072c0.126-0.02,0.358-0.186,0.239-0.305c-0.12-0.119-0.272-0.014-0.325-0.133
		c-0.054-0.119-0.632-0.57-0.678-0.857c-0.046-0.285-0.079-1.148-0.112-1.314c-0.034-0.166-0.366-0.492-0.366-0.492
		s0.166,0.053,0.166-0.1c0-0.154,0.246-0.711-0.046-0.908c-0.292-0.199-0.578-0.193-0.754,0.062s-0.017,0.508-0.017,0.621
		s0.037,0.162-0.113,0.412c-0.149,0.248-0.328,0.807-0.179,1.324s0.073,0.641-0.126,1.105c-0.136,0.314-0.16,1.008-0.162,1.428
		h-0.311v-3.234l-1.629-0.148c-0.004-0.082-0.01-0.164-0.014-0.24c0.104-0.293,0.071-0.541-0.023-0.748
		c0.043-0.162-0.077-0.801-0.123-1.277c-0.05-0.518-0.05-1.475-0.329-1.613c-0.386-0.193-0.488-0.363-0.488-0.363l0.016-0.154
		c0,0,0.12,0.031,0.22,0.01c0.099-0.021,0.159-0.395,0.159-0.52c0-0.123,0.015-0.25,0.015-0.25s0.119-0.16,0.039-0.346
		c-0.079-0.188-0.61-0.34-0.833-0.137s-0.202,0.455-0.156,0.66c0.047,0.207,0.026,0.373,0.026,0.373s-0.158,0.227-0.318,0.293
		c-0.024,0.01-0.049,0.02-0.073,0.031l-0.717-28.996c0,0,0.259-0.498,0.259-0.877s0.016-2.061,0.016-2.061
		c0.672-0.088,0.229-1.896,0.229-1.896c1.09-0.645,0.768-1.744,1.063-2.213c0.512-0.809,1.182-0.006,1.281-0.352
		c0.25-0.867-0.524-1.168-0.524-1.168c1.049-1.051,0.797-2.604,0.797-3.826c0-1.221,0.903-1.354,1.089-1.541
		c0.186-0.186-0.982-1.035-0.982-1.035c-1.036,0.346-3.32,0.346-3.32,0.346l0.105-4.809l0.466-0.797v-1.807l-1.275-1.037
		l-0.837-0.086c-0.071-0.162-0.221-0.391-0.544-0.635c-0.599-0.453-0.386-0.971-0.267-1.355c0.12-0.385,0.451-0.531,0.518-1.088
		c0.066-0.559,0-1.768,0-1.768s0.664,0.266,0.943,1.473c0.279,1.211,0.332,1.875,0.691,1.98c0.358,0.105,0.371-0.969,0.252-1.461
		s-0.717-1.09-0.65-1.807s0.598-0.305,0.816-0.512c0.22-0.205,0.498-0.869,0.365-1.254s-0.479-0.611-0.678-1.051
		c-0.199-0.438-0.57-0.531-0.836-0.385c0,0-0.173-0.559-0.572-0.797c0,0-0.112-0.91-0.358-1.154
		c-0.245-0.246-0.544-0.664-0.544-1.236s-0.039-1.234-0.039-1.234s0.77,0.078,1.208-0.094s0.97-0.412,1.149-0.359
		c0.179,0.055,0.238,0.127,0.238,0.412c0,0.287-0.039,0.637,0.14,0.559c0.18-0.08,0.006-0.566,0.183-0.74
		c0.176-0.176,0.109-0.383,0.097-0.754c-0.014-0.373,0.125-0.551-0.066-0.758c-0.192-0.205-0.519-0.072-0.635,0.076
		c-0.116,0.15-0.289,0.541-0.588,0.607s-1.112-0.035-1.188-0.113c-0.076-0.076,0.054-0.889,0.054-1.068s0.61-0.307,0.757-0.797
		c0,0,0.677-0.266,0.677-0.977c0,0,1.118,0.049,1.328-0.338c0.173-0.318-0.072-0.553-0.072-0.553s0.597-0.145,0.729-0.504
		c0.113-0.303-0.082-0.453-0.082-0.453s0.793-0.225,0.939-0.602c0.146-0.379-0.519-0.658-0.519-0.658s0.851-0.459,0.957-0.996
		s-0.438-0.371-0.87-0.225c-0.432,0.145-1.601,0.643-2.783,0.656c-1.182,0.014-1.191,0.148-1.514,0.471s-0.837,1.031-0.937,1.23
		s-0.419,1.705-0.704,1.791c-0.285,0.088-0.604-0.133-0.693-0.342c-0.09-0.209-0.021-0.598,0.043-0.66
		c0.062-0.062,0.504-0.307,0.57-0.678s0.133-1.4-0.458-1.873c-0.591-0.471-1.438,0.037-1.563,0.449s-0.216,1.113-0.017,1.477
		c0.199,0.367,0.372,0.459,0.372,0.605s-0.093,0.637-0.293,0.611c-0.199-0.027-0.551-0.387-0.916-0.639s-0.816-0.764-0.996-1.242
		c-0.18-0.477-0.512-2.502-0.512-2.809c0-0.305,0.37-0.322,0.599-0.725c0.192-0.318,0.146-0.869,0-1.293
		c-0.104-0.301-1.116-0.764-1.634-0.492c-0.432,0.225-0.555,0.488-0.691,0.676c-0.137,0.189-0.12,0.498-0.086,0.852
		c0.043,0.443,0.437,0.92,0.684,0.969c0.232,0.045,0.459-0.053,0.505,0.359c0.047,0.412-0.013,2.092,0.163,2.514
		c0,0-1.183-1.834-3.576-3.207c-2.803-1.604-3.146-2.445-3.494-2.096c-0.35,0.35,0.393,1.467,0.851,1.926c0,0-0.856-0.08-0.02,1.035
		c0,0-0.499,1.535,1.375,1.734c0,0-0.1,1.633,1.812,1.633c0,0-0.199,0.578,0.419,0.877c0,0-0.08,1.016,1.075,0.916
		c0,0-0.06,1.098,1.176,0.857c0,0-0.458,0.996,0.478,1.254c0,0-0.06,0.639,0.599,0.52c0,0-0.12,0.795,0.597,0.578
		c0,0-0.02,0.736,0.777,0.578c0,0-0.479,0.975-0.379,1.494c0.1,0.518,0.538,0.996,0.538,0.996s-0.538,0.578-0.538,1.293
		c0,0.719,0.438,0.719,0.438,1.375c0,0.658-0.159,0.896-0.159,0.896s-0.398,0.221-0.479,0.877c-0.08,0.658,0.817,0.963,0.817,0.963
		s-0.014,0.426,0.292,0.492s0.824-0.066,0.743,0.344c-0.079,0.412-0.185,1.117,0.691,1.037c0,0-0.026,0.451,0.345,0.824
		c0.372,0.371-0.419,0.629-0.783,0.73c-0.533,0.146-0.746,0.523-0.832,0.771l-0.935,0.096l-1.275,1.037v1.807l0.465,0.797
		l0.107,4.809c0,0-2.285,0-3.321-0.346c0,0-1.169,0.85-0.982,1.035c0.186,0.188,1.088,0.32,1.088,1.541
		c0,1.223-0.251,2.775,0.798,3.826c0,0-0.774,0.301-0.524,1.168c0.1,0.346,0.77-0.457,1.281,0.352
		c0.296,0.469-0.026,1.568,1.062,2.213c0,0-0.441,1.809,0.23,1.896c0,0,0.016,1.682,0.016,2.061s0.259,0.877,0.259,0.877
		l-0.006,0.273h-16.25l-14.759,18.201h-1.223v-1.674h1.251v-1.234h-1.251v-1.674h1.251v-1.234h-1.251v-1.674h1.251v-1.234h-1.251
		v-1.674h1.251V54.16h-1.251v-1.676h1.251v-1.232h-1.251v-1.676h1.251v-1.232h-1.251V46.67h1.251v-1.234h-1.251V43.76h1.251v-1.232
		h-1.251v-1.676h1.251v-1.234h-1.251v-1.674h1.251v-1.234h-1.251v-1.674h1.251v-1.234h-1.251V17.85h-6.346l-6.305,13.396
		l-0.041,0.088v2.467h-1.252v1.234h1.252v1.674h-1.252v1.234h1.252v1.674h-1.252v1.234h1.252v1.676h-1.252v1.232h1.252v1.676h-1.252
		v1.234h1.252v1.674h-1.252v1.232h1.252v1.676h-1.252v1.232h1.252v1.676h-1.252v1.234h1.252v1.674h-1.252v1.234h1.252v1.674h-1.252
		v1.234h1.252v1.674h-1.252v1.234h1.252v1.674h-1.252v1.234h1.252v1.674h-1.252v1.234h1.252v1.674h-1.252v1.234h1.252v1.676h-1.252
		v1.232h1.252v1.676h-1.252v1.232h1.252v1.676h-1.252v1.234h1.252v1.379l-0.238,0.295h-1.014v0.781h-8.062V71.549h-0.561
		c-0.878,0-1.59,0.713-1.59,1.59v0.072H218.7c-0.517-6.822-5.448-12.428-11.94-13.961v-0.889c0-0.664-0.541-1.205-1.206-1.205h-0.02
		v-5.234h-0.526v0.857h-0.414v-0.596h-0.526v0.596h-0.274v-0.896c0.26-0.189,0.43-0.492,0.43-0.838c0-0.494-0.347-0.908-0.811-1.01
		c0.276-0.096,0.477-0.354,0.477-0.662c0-0.174-0.064-0.33-0.168-0.451c0.091-0.225-0.043-0.506-0.15-0.613
		c-0.113-0.113-0.104-0.357-0.104-0.357c1.615-0.758,1.804-2.264,1.804-2.264c-1.407,0.781-1.82,1.496-1.82,1.496
		c0.034-0.525-0.264-0.514-0.264-0.514s-0.298-0.012-0.265,0.514c0,0-0.413-0.715-1.82-1.496c0,0,0.188,1.506,1.805,2.264
		c0,0,0.009,0.244-0.104,0.357c-0.108,0.107-0.241,0.389-0.151,0.613c-0.103,0.121-0.168,0.277-0.168,0.451
		c0,0.309,0.2,0.566,0.478,0.662c-0.464,0.102-0.812,0.516-0.812,1.01c0,0.346,0.172,0.648,0.431,0.838v0.896h-0.273v-0.596h-0.526
		v0.596h-0.415v-0.857h-0.526v5.234h-0.021c-0.665,0-1.204,0.541-1.204,1.205v0.889c-6.494,1.531-11.428,7.137-11.944,13.961h-3.599
		v-0.072c0-0.877-0.711-1.59-1.589-1.59h-0.56v12.477H167.64V48.631c0-1.439-1.167-2.607-2.607-2.607h-8.792v3.541l2.799,0.828
		v3.162h-13.058v20.361h-15.026v-2.217h-0.726v-2.576l0.726-0.17V66.52h-0.726v-2.576l0.726-0.17v-2.436h-0.726v-4.715h-15.882
		v-0.922h0.883v-1.145h-0.883v-1.191h0.883v-1.145h-0.883v-1.189h0.883v-1.146h-0.883v-1.189h0.883v-1.145h-0.883v-1.191h0.883
		v-1.146h-0.883v-1.189h0.883v-1.145h-0.883v-1.191h0.883v-1.145h-0.883v-1.41h0.883v-4.67H98.926v4.67h0.881v1.41h-0.881v1.145
		h0.881v1.191h-0.881v1.145h0.881v1.189h-0.881v1.146h0.881v1.191h-0.881v1.145h0.881v1.189h-0.881v1.146h0.881v1.189h-0.881v1.145
		h0.881v1.191h-0.881v1.145h0.881v1.191h-0.881v1.145h0.881v1.189h-0.881v1.146h0.881v1.189h-0.881v1.146h0.881v1.189h-0.881v1.145
		h0.881v1.191h-0.881v1.145h0.881v1.191h-0.881v1.145h0.881v0.643H88.115v1.152h0.52v6.627h-6.782v1.652h-0.922v2.535h0.922v1.115
		h-0.922v2.537h0.922v1.113h-0.922v2.535h0.922v1.115h-0.922v2.535h0.922v1.115h-0.922v2.535h0.922v4.955h-0.928v-8.055h-1.838
		v-2.164h-0.53v-2.166h0.53V87.33h-0.53v-2.164h0.53V83h-0.53v-2.166h0.53V78.67h-0.53v-2.166h0.53v-2.166h-0.53v-2.164h0.53v-2.166
		h-0.53v-2.164h0.53v-2.166h-0.53v-2.166h0.53v-2.164h-0.53v-2.166h0.53v-2.166h-0.53v-2.164h0.53v-2.166h-0.53v-2.164h0.53v-2.166
		h-0.53v-2.164h0.53v-2.166h0.858V40.92h-1.92v-6.25h-2.207l-0.652-6.25h-0.777l-1.729-3.896H72.45V14.451h-0.448l-0.228-7.322
		l-0.228,7.322h-0.449v10.072H70.89L69.16,28.42h-0.777l-0.653,6.25h-2.206v6.25h-1.92v3.105h0.857v2.166h0.531v2.164h-0.531v2.166
		h0.531v2.164h-0.531v2.166h0.531v2.164h-0.531v2.166h0.531v2.166h-0.531v2.164h0.531v2.166h-0.531v2.166h0.531v2.164h-0.531v2.166
		h0.531v2.164h-0.531v2.166h0.531v2.166h-0.531v2.164h0.531V83h-0.531v2.166h0.531v2.164h-0.531v2.166h0.531v1.48
		c-0.154-0.223-0.387-0.396-0.693-0.451l-0.787-0.143c-2.791-0.502-5.602-0.855-8.42-1.059v-9.633h3.89v-0.877l-3.89-1.281v-4.58
		h-0.703c0,0,0.076-0.363-0.363-0.99c-0.439-0.629-0.967-0.34-1.418-0.391c-0.452-0.049-0.615-0.564-0.652-0.99
		c-0.038-0.426-0.565-0.666-0.565-1.129c0-0.465,0.126-0.717,0.126-0.904s-0.214-0.439-0.214-0.439s-0.013-1.404-0.15-1.957
		s-0.527-0.879-0.628-1.104c-0.1-0.227,0.227-0.477,0.628-1.293s0.64-1.455,0.64-1.455c0.54-1.256-0.689-2.549-0.564-3.727
		c0.126-1.18-0.188-1.922-0.188-1.922s0.195-0.197,0.133-0.607c-0.025-0.162,0.244-0.346,0.708-0.584
		c0.465-0.238,1.355-0.828,1.506-0.979s0.729-0.139,1.236-0.521c0.509-0.383,1.475-1.512,1.713-1.586
		c0.076-0.025,0.176-0.043,0.277-0.061c0.011,0.258,0.01,0.514,0.003,0.768c0.003,0.135-0.022,0.27-0.032,0.404
		c-0.012,0.133-0.024,0.266-0.037,0.398c-0.034,0.264-0.088,0.521-0.129,0.777c-0.043,0.256-0.12,0.5-0.174,0.744
		c-0.053,0.246-0.13,0.479-0.201,0.705c-0.075,0.227-0.134,0.453-0.217,0.662c-0.078,0.211-0.155,0.414-0.229,0.609
		c-0.037,0.098-0.072,0.193-0.108,0.287c-0.039,0.092-0.078,0.182-0.116,0.27c-0.075,0.174-0.147,0.34-0.214,0.496
		c-0.129,0.316-0.266,0.58-0.372,0.799c-0.213,0.441-0.334,0.693-0.334,0.693s0.141-0.242,0.386-0.666
		c0.121-0.213,0.273-0.469,0.421-0.777c0.078-0.152,0.158-0.314,0.246-0.486c0.042-0.086,0.086-0.174,0.13-0.266
		c0.04-0.092,0.081-0.186,0.122-0.283c0.082-0.193,0.169-0.396,0.258-0.605c0.091-0.209,0.157-0.436,0.24-0.662
		c0.081-0.229,0.166-0.463,0.228-0.709c0.033-0.123,0.067-0.248,0.102-0.373c0.033-0.125,0.072-0.252,0.093-0.383
		c0.047-0.262,0.107-0.523,0.147-0.795c0.028-0.271,0.069-0.547,0.081-0.826c0.01-0.279,0.013-0.564,0-0.848
		c0.095-0.033,0.168-0.08,0.195-0.15c0.075-0.201,0.082-0.996,0-1.078c-0.046-0.047-0.225-0.053-0.373-0.051l-0.111-0.4
		c-0.033-0.139-0.097-0.268-0.145-0.402c-0.051-0.133-0.098-0.266-0.166-0.391c-0.062-0.125-0.126-0.25-0.189-0.375
		c-0.074-0.119-0.148-0.236-0.223-0.354c-0.07-0.119-0.159-0.225-0.24-0.332c-0.084-0.109-0.162-0.219-0.256-0.314
		c-0.346-0.41-0.752-0.736-1.145-1.025c-0.394-0.289-0.802-0.504-1.182-0.691c-0.381-0.186-0.746-0.316-1.071-0.428
		c-0.326-0.104-0.614-0.184-0.854-0.236c-0.239-0.057-0.429-0.088-0.559-0.107c-0.131-0.02-0.2-0.025-0.2-0.025
		s0.069,0.012,0.197,0.043c0.128,0.027,0.312,0.078,0.548,0.146c0.234,0.068,0.515,0.162,0.83,0.285
		c0.314,0.129,0.666,0.279,1.031,0.477c0.364,0.199,0.753,0.428,1.127,0.719c0.373,0.289,0.752,0.619,1.077,1.016
		c0.088,0.094,0.161,0.201,0.239,0.305c0.075,0.105,0.159,0.207,0.224,0.322c0.068,0.113,0.137,0.227,0.206,0.34
		c0.059,0.119,0.118,0.24,0.177,0.359c0.064,0.119,0.108,0.246,0.156,0.373c0.044,0.129,0.104,0.252,0.135,0.385l0.068,0.254
		c-0.052,0.006-0.129,0.025-0.243,0.07c-0.402,0.164-0.414,0.992-0.414,0.992c-0.953,0.729-1.938,1.107-2.51,1.682
		c-0.348,0.348-0.875,0.34-1.258,0.459c-0.486,0.15-0.89,0.439-1.248,0.479c-0.588,0.066-0.588,0.311-0.92,0.268
		c-0.464-0.062-0.401-0.414-0.401-0.414s0.401,0.088,0.401-0.127c0-0.213-0.006-1.029-0.006-1.367s-0.32-0.939-1.198-0.916
		c-0.879,0.025-0.954,0.779-1.405,1.23c-0.452,0.451-0.583,1.404-0.583,1.404c-0.533,0.326-1.249,1.029-1.927,2.26
		c-0.679,1.229,0.1,1.129,0.753,1.129c0.652,0,2.192-0.98,2.192-0.98c0.379,0.541,0.775,0.578,0.92,1.182
		c0.181,0.758-0.328,1.18-0.553,1.605c-0.227,0.428-0.05,1.029-0.05,1.029s-0.428,0.953-0.428,2.434c0,1.105,1.28,3.225,1.28,3.225
		c-0.489,0-0.395,1.562-0.752,1.922c-0.358,0.357,0.074,1.506-0.603,1.768c-0.679,0.264-0.641,1.055-0.641,1.055
		c-0.126,0.326-0.213,0.377-0.741,0.59c-0.525,0.213-0.525,1.066-0.525,1.066h-0.954v4.58l-1.12,0.369v-6.379h-8.934v0.756h-7.291
		v-0.756h-7.777v-9.963h0.774v-0.662H0V260.225z M277.661,1.848c0,0-0.398,0.133-0.607-0.076c-0.21-0.209-0.196-0.535-0.1-0.678
		s0.336-0.414,0.574-0.414c0.272,0,0.538,0.158,0.604,0.41C278.199,1.344,278.027,1.734,277.661,1.848z M43.469,79.691h1.12v9.547
		c-0.374,0.02-0.747,0.053-1.12,0.08V79.691z M49.559,91.619c-0.127,0-0.252-0.002-0.378-0.002c-1.905,0-3.811,0.066-5.712,0.201
		v-1.443c1.902-0.119,3.807-0.182,5.712-0.18c0.126,0,0.251,0,0.378,0.002V91.619z M60.629,92.428
		c-3.486-0.498-6.996-0.766-10.507-0.805v-1.424c3.63,0.035,7.259,0.291,10.862,0.766L60.629,92.428z M64.992,91.662h-0.531v1.414
		c-0.008-0.002-0.016-0.006-0.024-0.008c-0.045-0.014-0.091-0.027-0.138-0.035l-0.787-0.143c-0.772-0.139-1.547-0.266-2.323-0.381
		l0.359-1.471c0.932,0.129,1.86,0.271,2.787,0.43l0.657,0.111V91.662z M246.453,67.301v-0.273h0.222L246.453,67.301z
		 M296.162,101.881h-2.179V89.053h1.474v-1.275h0.705V101.881z M320.638,76.936v-0.465c0.003,0,0.013-0.004,0.013-0.004
		c0.515,0.148,0.942,0.139,1.056,0.131c0.113,0.008,0.541,0.018,1.056-0.131c0,0,0.234,0.066,0.324,0.291
		c0.024,0.064,0.066,0.125,0.116,0.178H320.638z M331.117,101.881h-3.025l0.167-12.004c0.619-0.297,0.669-0.568,0.669-0.568
		l1.604,0.393l0.028,0.646l0.677,0.1c0,0.379,0.562,0.643,0.562,0.643L331.117,101.881z M338.271,101.881h-4.295V91.115
		c0,0,0.365-0.043,0.592-0.32l0.917-0.051l0.074-0.371l1.931,0.234l0.09,0.582l0.578,0.137c0,0,0.058,0.457,0.545,0.643
		L338.271,101.881z M346.156,101.881h-5.068l-0.117-9.916c0,0,0.503,0.041,0.664-0.453l0.693-0.1l0.062-0.223l3.168,0.234v0.422
		l0.408,0.135c0,0-0.024,0.373,0.47,0.496L346.156,101.881z M354.035,101.881h-5.393l-0.128-9.256c0.606,0,0.73-0.57,0.73-0.57
		l0.347-0.074v-0.432l3.86,0.209l0.016,0.355l0.265,0.066c-0.059,0.371,0.512,0.594,0.512,0.594L354.035,101.881z M357.002,101.881
		h-0.469l-0.087-9.174c0.396-0.115,0.362-0.445,0.362-0.445l0.193-0.064V101.881z M369.141,101.881h-0.508v-9.695l0.23,0.076
		c0,0-0.032,0.33,0.363,0.445L369.141,101.881z M377.03,101.881h-5.392l-0.21-9.107c0,0,0.569-0.223,0.512-0.594l0.264-0.066
		l0.017-0.355l3.861-0.209v0.432l0.346,0.074c0,0,0.124,0.57,0.73,0.57L377.03,101.881z M384.585,101.881h-5.067l-0.281-9.404
		c0.496-0.123,0.471-0.496,0.471-0.496l0.408-0.135v-0.422l3.168-0.234l0.062,0.223l0.691,0.1c0.161,0.494,0.665,0.453,0.665,0.453
		L384.585,101.881z"/>
</g>
</svg>
