<?xml version="1.0" encoding="utf-8"?>
<!-- Generator: Adobe Illustrator 16.0.0, SVG Export Plug-In . SVG Version: 6.00 Build 0)  -->
<!DOCTYPE svg PUBLIC "-//W3C//DTD SVG 1.1//EN" "http://www.w3.org/Graphics/SVG/1.1/DTD/svg11.dtd">
<svg version="1.1" id="Capa_1" xmlns="http://www.w3.org/2000/svg" xmlns:xlink="http://www.w3.org/1999/xlink" x="0px" y="0px"
	 width="53.5px" height="48.5px" viewBox="0 0 53.5 48.5" style="enable-background:new 0 0 53.5 48.5;" xml:space="preserve">
<style type="text/css">
<![CDATA[
	.st0{opacity:0.05;fill:#5D5D5D;}
	.st1{fill:none;stroke:#5D5D5D;stroke-width:0.5;stroke-miterlimit:10;}
	.st2{fill:#878686;}
	.st3{fill:#ECB43C;}
	.st4{fill:none;stroke:#ECB43C;stroke-width:2;stroke-miterlimit:10;}
	.st5{fill-rule:evenodd;clip-rule:evenodd;fill:#887AA8;}
	.st6{fill:#5D5D5D;}
	.st7{fill-rule:evenodd;clip-rule:evenodd;fill:#89898A;}
	.st8{fill-rule:evenodd;clip-rule:evenodd;fill:#ECB43C;}
	.st9{fill:#FFB62A;}
	.st10{fill:#FFFFFF;}
	.st11{clip-path:url(#SVGID_2_);fill:#5D5D5D;}
	.st12{fill:#CBD64E;}
	.st13{fill-rule:evenodd;clip-rule:evenodd;fill:#5D5D5D;}
	.st14{fill:none;stroke:#5D5D5D;stroke-miterlimit:10;}
	.st15{opacity:0.1;fill:#5D5D5D;}
	.st16{fill-rule:evenodd;clip-rule:evenodd;fill:#FA494D;}
	.st17{clip-path:url(#SVGID_2_);fill:#FFFFFF;}
	.st18{clip-path:url(#SVGID_4_);fill:#5D5D5D;}
	.st19{fill-rule:evenodd;clip-rule:evenodd;fill:#FF8F48;}
	.st20{fill-rule:evenodd;clip-rule:evenodd;fill:#FFB62A;}
	.st21{fill-rule:evenodd;clip-rule:evenodd;fill:#FFFFFF;}
	.st22{fill-rule:evenodd;clip-rule:evenodd;fill:none;stroke:#89898A;stroke-miterlimit:10;}
	.st23{clip-path:url(#SVGID_6_);fill:#5D5D5D;}
	.st24{fill-rule:evenodd;clip-rule:evenodd;fill:none;stroke:#5D5D5D;stroke-miterlimit:10;}
	.st25{fill-rule:evenodd;clip-rule:evenodd;fill:#000033;}
	.st26{fill-rule:evenodd;clip-rule:evenodd;fill:#00A89D;}
	.st27{fill-rule:evenodd;clip-rule:evenodd;fill:#00AA49;}
	.st28{fill-rule:evenodd;clip-rule:evenodd;fill:#00ABE1;}
]]>
</style>
<g id="yoxEjp_3_">
	<g>
		<g>
			<path class="st20" d="M27.948,21.121c0.206-0.291,0.414-0.568,0.659-0.818c0.568-0.58,1.247-0.955,2.044-1.105
				c1.134-0.213,2.237-0.115,3.284,0.395c0.786,0.383,1.377,0.975,1.796,1.736c0.59,1.068,0.764,2.236,0.766,3.436
				c0.005,2.35,0,4.699,0.005,7.047c0,0.131-0.04,0.154-0.16,0.154c-1.284-0.004-2.567-0.006-3.852,0
				c-0.137,0.002-0.178-0.027-0.177-0.174c0.005-2.15,0.003-4.303,0.003-6.455c0-0.561-0.042-1.117-0.233-1.65
				c-0.318-0.893-1.084-1.363-2.029-1.281c-1.049,0.092-1.679,0.691-2.03,1.635c-0.12,0.326-0.099,0.674-0.099,1.014
				c-0.003,2.242-0.003,4.484,0.002,6.727c0,0.145-0.032,0.188-0.183,0.188c-1.277-0.008-2.557-0.008-3.835,0
				c-0.147,0-0.17-0.043-0.17-0.178c0.012-3.229,0.02-6.455,0.024-9.684c0.001-0.852-0.011-1.705-0.024-2.557
				c-0.002-0.135,0.035-0.164,0.167-0.164c1.283,0.006,2.567,0.006,3.851,0c0.13,0,0.173,0.029,0.17,0.166
				c-0.009,0.469-0.004,0.938-0.002,1.406C27.925,21.005,27.907,21.06,27.948,21.121z"/>
			<path class="st20" d="M21.425,25.673c0,2.035-0.001,4.07,0.003,6.104c0,0.139-0.024,0.189-0.179,0.189
				c-1.278-0.008-2.557-0.008-3.835-0.002c-0.137,0.002-0.166-0.039-0.166-0.17c0.004-4.08,0.004-8.16,0-12.238
				c0-0.129,0.026-0.172,0.165-0.172c1.283,0.006,2.567,0.006,3.851,0c0.138,0,0.164,0.041,0.164,0.17
				C21.424,21.593,21.425,23.634,21.425,25.673z"/>
			<path class="st20" d="M19.327,17.669c-0.805-0.01-1.497-0.266-1.963-0.959c-0.745-1.105-0.363-2.848,1.23-3.275
				c0.783-0.211,1.55-0.154,2.229,0.328c0.697,0.498,0.957,1.213,0.854,2.041c-0.104,0.832-0.582,1.396-1.363,1.699
				C19.997,17.626,19.666,17.673,19.327,17.669z"/>
		</g>
	</g>
</g>
</svg>
