<?xml version="1.0" encoding="utf-8"?>
<!-- Generator: Adobe Illustrator 16.0.0, SVG Export Plug-In . SVG Version: 6.00 Build 0)  -->
<!DOCTYPE svg PUBLIC "-//W3C//DTD SVG 1.1//EN" "http://www.w3.org/Graphics/SVG/1.1/DTD/svg11.dtd">
<svg version="1.1" id="Capa_1" xmlns="http://www.w3.org/2000/svg" xmlns:xlink="http://www.w3.org/1999/xlink" x="0px" y="0px"
	 width="53.5px" height="48.5px" viewBox="0 0 53.5 48.5" style="enable-background:new 0 0 53.5 48.5;" xml:space="preserve">
<style type="text/css">
<![CDATA[
	.st0{opacity:0.05;fill:#5D5D5D;}
	.st1{fill:none;stroke:#5D5D5D;stroke-width:0.5;stroke-miterlimit:10;}
	.st2{fill:#878686;}
	.st3{fill:#ECB43C;}
	.st4{fill:none;stroke:#ECB43C;stroke-width:2;stroke-miterlimit:10;}
	.st5{fill-rule:evenodd;clip-rule:evenodd;fill:#887AA8;}
	.st6{fill:#5D5D5D;}
	.st7{fill-rule:evenodd;clip-rule:evenodd;fill:#89898A;}
	.st8{fill-rule:evenodd;clip-rule:evenodd;fill:#ECB43C;}
	.st9{fill:#FFB62A;}
	.st10{fill:#FFFFFF;}
	.st11{clip-path:url(#SVGID_2_);fill:#5D5D5D;}
	.st12{fill:#CBD64E;}
	.st13{fill-rule:evenodd;clip-rule:evenodd;fill:#5D5D5D;}
	.st14{fill:none;stroke:#5D5D5D;stroke-miterlimit:10;}
	.st15{opacity:0.1;fill:#5D5D5D;}
	.st16{fill-rule:evenodd;clip-rule:evenodd;fill:#FA494D;}
	.st17{clip-path:url(#SVGID_2_);fill:#FFFFFF;}
	.st18{clip-path:url(#SVGID_4_);fill:#5D5D5D;}
	.st19{fill-rule:evenodd;clip-rule:evenodd;fill:#FF8F48;}
	.st20{fill-rule:evenodd;clip-rule:evenodd;fill:#FFB62A;}
	.st21{fill-rule:evenodd;clip-rule:evenodd;fill:#FFFFFF;}
	.st22{fill-rule:evenodd;clip-rule:evenodd;fill:none;stroke:#89898A;stroke-miterlimit:10;}
	.st23{clip-path:url(#SVGID_6_);fill:#5D5D5D;}
	.st24{fill-rule:evenodd;clip-rule:evenodd;fill:none;stroke:#5D5D5D;stroke-miterlimit:10;}
	.st25{fill-rule:evenodd;clip-rule:evenodd;fill:#000033;}
	.st26{fill-rule:evenodd;clip-rule:evenodd;fill:#00A89D;}
	.st27{fill-rule:evenodd;clip-rule:evenodd;fill:#00AA49;}
	.st28{fill-rule:evenodd;clip-rule:evenodd;fill:#00ABE1;}
]]>
</style>
<g>
	<g>
		<g>
			<g>
				<g>
					<circle class="st9" cx="33.218" cy="18.063" r="1.175"/>
					<path class="st9" d="M26.751,18.585c-3.297,0-5.977,2.68-5.977,5.973c0,3.295,2.68,5.977,5.977,5.977
						c3.295,0,5.975-2.682,5.975-5.977C32.726,21.265,30.046,18.585,26.751,18.585z M26.751,28.9c-2.395,0-4.34-1.949-4.34-4.342
						s1.945-4.34,4.34-4.34c2.393,0,4.338,1.947,4.338,4.34S29.144,28.9,26.751,28.9z"/>
					<path class="st9" d="M31.849,12.156H21.651c-3.994,0-7.244,3.25-7.244,7.244v10.197c0,3.996,3.25,7.246,7.244,7.246h10.197
						c3.994,0,7.244-3.25,7.244-7.246V19.4C39.093,15.406,35.843,12.156,31.849,12.156z M38.526,29.597
						c0,3.684-2.996,6.68-6.678,6.68H21.651c-3.682,0-6.678-2.996-6.678-6.68V19.4c0-3.682,2.996-6.678,6.678-6.678h10.197
						c3.682,0,6.678,2.996,6.678,6.678V29.597z"/>
					<path class="st9" d="M31.966,15.003H21.534c-2.393,0-4.338,1.947-4.338,4.338v10.434c0,2.395,1.945,4.34,4.338,4.34h10.432
						c2.393,0,4.34-1.945,4.34-4.34V19.341C36.306,16.951,34.358,15.003,31.966,15.003z M26.751,31.101
						c-3.607,0-6.543-2.936-6.543-6.543c0-3.605,2.936-6.539,6.543-6.539s6.539,2.934,6.539,6.539
						C33.29,28.166,30.358,31.101,26.751,31.101z M33.218,19.802c-0.961,0-1.742-0.779-1.742-1.74c0-0.959,0.781-1.74,1.742-1.74
						c0.959,0,1.738,0.781,1.738,1.74C34.956,19.023,34.177,19.802,33.218,19.802z"/>
				</g>
			</g>
		</g>
	</g>
</g>
</svg>
