<?xml version="1.0" encoding="utf-8"?>
<!-- Generator: Adobe Illustrator 16.0.0, SVG Export Plug-In . SVG Version: 6.00 Build 0)  -->
<!DOCTYPE svg PUBLIC "-//W3C//DTD SVG 1.1//EN" "http://www.w3.org/Graphics/SVG/1.1/DTD/svg11.dtd">
<svg version="1.1" id="Capa_1" xmlns="http://www.w3.org/2000/svg" xmlns:xlink="http://www.w3.org/1999/xlink" x="0px" y="0px"
	 width="53.5px" height="48.5px" viewBox="0 0 53.5 48.5" style="enable-background:new 0 0 53.5 48.5;" xml:space="preserve">
<style type="text/css">
<![CDATA[
	.st0{opacity:0.05;fill:#5D5D5D;}
	.st1{fill:none;stroke:#5D5D5D;stroke-width:0.5;stroke-miterlimit:10;}
	.st2{fill:#878686;}
	.st3{fill:#ECB43C;}
	.st4{fill:none;stroke:#ECB43C;stroke-width:2;stroke-miterlimit:10;}
	.st5{fill-rule:evenodd;clip-rule:evenodd;fill:#887AA8;}
	.st6{fill:#5D5D5D;}
	.st7{fill-rule:evenodd;clip-rule:evenodd;fill:#89898A;}
	.st8{fill-rule:evenodd;clip-rule:evenodd;fill:#ECB43C;}
	.st9{fill:#FFB62A;}
	.st10{fill:#FFFFFF;}
	.st11{clip-path:url(#SVGID_2_);fill:#5D5D5D;}
	.st12{fill:#CBD64E;}
	.st13{fill-rule:evenodd;clip-rule:evenodd;fill:#5D5D5D;}
	.st14{fill:none;stroke:#5D5D5D;stroke-miterlimit:10;}
	.st15{opacity:0.1;fill:#5D5D5D;}
	.st16{fill-rule:evenodd;clip-rule:evenodd;fill:#FA494D;}
	.st17{clip-path:url(#SVGID_2_);fill:#FFFFFF;}
	.st18{clip-path:url(#SVGID_4_);fill:#5D5D5D;}
	.st19{fill-rule:evenodd;clip-rule:evenodd;fill:#FF8F48;}
	.st20{fill-rule:evenodd;clip-rule:evenodd;fill:#FFB62A;}
	.st21{fill-rule:evenodd;clip-rule:evenodd;fill:#FFFFFF;}
	.st22{fill-rule:evenodd;clip-rule:evenodd;fill:none;stroke:#89898A;stroke-miterlimit:10;}
	.st23{clip-path:url(#SVGID_6_);fill:#5D5D5D;}
	.st24{fill-rule:evenodd;clip-rule:evenodd;fill:none;stroke:#5D5D5D;stroke-miterlimit:10;}
	.st25{fill-rule:evenodd;clip-rule:evenodd;fill:#000033;}
	.st26{fill-rule:evenodd;clip-rule:evenodd;fill:#00A89D;}
	.st27{fill-rule:evenodd;clip-rule:evenodd;fill:#00AA49;}
	.st28{fill-rule:evenodd;clip-rule:evenodd;fill:#00ABE1;}
]]>
</style>
<g id="twHaoL_1_">
	<g>
		<g>
			<g>
				<path class="st20" d="M22.25,27.315c-1.109-0.002-2.223-0.055-3.328,0.01c-1.04,0.061-1.344-0.375-1.187-1.342
					c0.551-3.371,1.077-6.748,1.62-10.121c0.351-2.18,0.786-4.35,1.046-6.539c0.141-1.185,0.664-1.557,1.774-1.467
					c2.186,0.176,4.375-0.127,6.585,0.21c0.847,0.128,1.849-0.093,2.745,0.198c2.252,0.734,2.917,1.93,2.995,5.24
					c-0.643,3.293-2.339,5.678-5.779,6.389c-1.104,0.227-2.277,0.162-3.418,0.141c-1.124-0.021-1.667,0.305-1.925,1.553
					C22.985,23.493,23.081,25.499,22.25,27.315z"/>
			</g>
			<g>
				<path class="st20" d="M23.251,28.315c0.831-1.815,0.735-3.822,1.129-5.729c0.258-1.248,0.801-1.574,1.925-1.553
					c1.141,0.021,2.314,0.087,3.418-0.141c3.44-0.71,5.137-3.096,5.779-6.389c1.202,0.615,1.671,1.657,1.717,2.946
					c0.157,4.466-2.237,7.046-6.762,7.177c-1.127,0.032-1.637,0.441-1.748,1.559c-0.113,1.143-0.428,2.266-0.533,3.409
					c-0.087,0.931-0.584,1.194-1.394,1.183c-0.302-0.004-0.604,0.002-0.905,0.002C23.312,30.784,23.312,30.784,23.251,28.315z"/>
			</g>
			<g>
				<g>
					<path class="st20" d="M15.59,35.127c-0.947,1.121-1.928,2.137-3.61,1.959c-0.861-0.092-0.696,0.734-0.785,1.195
						c-0.153,0.799-0.419,1.371-1.351,1.197c-1.121-0.209-0.496-0.99-0.425-1.533c0.21-1.594,0.521-3.174,0.708-4.771
						c0.089-0.762,0.398-1.076,1.149-1.029c0.501,0.031,1.006-0.004,1.509,0.006c2.115,0.033,2.38,0.283,2.543,2.326
						c0.019,0.236-0.022,0.512,0.243,0.666L15.59,35.127z M11.702,34.809c0.032,0.346-0.209,0.836,0.533,0.738
						c0.638-0.082,1.206-0.164,1.266-0.967c0.049-0.67-0.383-0.873-0.925-0.918C11.721,33.592,11.875,34.321,11.702,34.809z"/>
				</g>
			</g>
			<g>
				<g>
					<path class="st20" d="M30.764,32.159c0.506,0,0.81-0.021,1.11,0.002c1.238,0.096,2.343,0.371,2.371,1.941
						c0.023,1.273-1.158,2.855-2.338,2.857c-1.326,0.004-2.119,0.314-2.109,1.816c0.005,0.818-0.7,0.697-1.246,0.684
						c-0.724-0.018-0.603-0.557-0.538-0.984c0.275-1.844,0.58-3.682,0.875-5.521C29.122,31.504,30.31,32.508,30.764,32.159z
						 M30.449,34.747c0.007,0.338-0.157,0.875,0.59,0.816c0.665-0.051,1.146-0.316,1.186-1.062c0.031-0.59-0.373-0.742-0.847-0.824
						C30.568,33.536,30.486,34.073,30.449,34.747z"/>
				</g>
			</g>
			<g>
				<g>
					<path class="st20" d="M15.571,35.143c0.11,0.064,0.3,0.205,0.321,0.184c1.302-1.346,2.986-0.312,4.444-0.709
						c0.583-0.158,1.096-0.012,0.893,0.879c-0.233,1.027-0.332,2.084-0.489,3.127c-0.053,0.352-0.144,0.9-0.505,0.801
						c-1.268-0.352-2.492,0.428-3.721,0.066c-1.238-0.365-1.639-1.59-1.188-3.127c0.114-0.393,0.909-0.684,0.263-1.236
						L15.571,35.143z M19.271,37.063c0.045-0.93-0.498-1.156-1.14-1.178c-0.871-0.027-1.195,0.576-1.244,1.324
						c-0.044,0.672,0.353,0.988,1.021,0.994C18.767,38.209,19.179,37.749,19.271,37.063z"/>
				</g>
			</g>
			<g>
				<g>
					<path class="st20" d="M37.169,34.534c2.835,0.094,2.812,0.09,2.384,3.309c-0.156,1.17-0.469,2.002-1.885,1.463
						c-0.271-0.104-0.475,0.02-0.714,0.074c-1.831,0.428-2.864-0.09-3.11-1.537c-0.246-1.445,0.961-3.096,2.425-3.305
						C36.465,34.508,36.669,34.534,37.169,34.534z M37.103,35.901c-0.97,0.076-1.454,0.488-1.494,1.33
						c-0.035,0.729,0.421,0.98,1.05,0.957c0.809-0.031,1.337-0.439,1.344-1.291C38.006,36.235,37.596,35.917,37.103,35.901z"/>
				</g>
			</g>
			<g>
				<path class="st20" d="M21.6,41.042c2.356-1.643,1.266-3.324,0.72-5.02c-0.13-0.406-0.87-1.047,0.015-1.375
					c0.798-0.295,1.454-0.012,1.646,0.963c0.093,0.473,0.303,0.92,0.475,1.422c0.692-0.455,0.953-1.135,1.34-1.707
					c0.303-0.447,0.617-0.795,1.197-0.734c0.288,0.029,0.671,0.014,0.833,0.186c0.251,0.266-0.086,0.545-0.243,0.775
					c-1.051,1.529-2.117,3.049-3.181,4.57C23.602,41.264,23.6,41.262,21.6,41.042z"/>
			</g>
			<g>
				<path class="st20" d="M40.297,38.557c0.274-1.84,0.557-3.68,0.821-5.52c0.095-0.662,0.404-0.953,1.108-0.895
					c0.826,0.068,0.654,0.615,0.583,1.092c-0.271,1.84-0.579,3.676-0.853,5.516c-0.12,0.801-0.713,0.752-1.258,0.711
					C40.106,39.417,40.192,38.959,40.297,38.557z"/>
			</g>
		</g>
	</g>
</g>
</svg>
