<?xml version="1.0" encoding="utf-8"?>
<!-- Generator: Adobe Illustrator 16.0.0, SVG Export Plug-In . SVG Version: 6.00 Build 0)  -->
<!DOCTYPE svg PUBLIC "-//W3C//DTD SVG 1.1//EN" "http://www.w3.org/Graphics/SVG/1.1/DTD/svg11.dtd">
<svg version="1.1" id="Capa_1" xmlns="http://www.w3.org/2000/svg" xmlns:xlink="http://www.w3.org/1999/xlink" x="0px" y="0px"
	 width="53.5px" height="48.5px" viewBox="0 0 53.5 48.5" style="enable-background:new 0 0 53.5 48.5;" xml:space="preserve">
<style type="text/css">
<![CDATA[
	.st0{opacity:0.05;fill:#5D5D5D;}
	.st1{fill:none;stroke:#5D5D5D;stroke-width:0.5;stroke-miterlimit:10;}
	.st2{fill:#878686;}
	.st3{fill:#ECB43C;}
	.st4{fill:none;stroke:#ECB43C;stroke-width:2;stroke-miterlimit:10;}
	.st5{fill-rule:evenodd;clip-rule:evenodd;fill:#887AA8;}
	.st6{fill:#5D5D5D;}
	.st7{fill-rule:evenodd;clip-rule:evenodd;fill:#89898A;}
	.st8{fill-rule:evenodd;clip-rule:evenodd;fill:#ECB43C;}
	.st9{fill:#FFB62A;}
	.st10{fill:#FFFFFF;}
	.st11{clip-path:url(#SVGID_2_);fill:#5D5D5D;}
	.st12{fill:#CBD64E;}
	.st13{fill-rule:evenodd;clip-rule:evenodd;fill:#5D5D5D;}
	.st14{fill:none;stroke:#5D5D5D;stroke-miterlimit:10;}
	.st15{opacity:0.1;fill:#5D5D5D;}
	.st16{fill-rule:evenodd;clip-rule:evenodd;fill:#FA494D;}
	.st17{clip-path:url(#SVGID_2_);fill:#FFFFFF;}
	.st18{clip-path:url(#SVGID_4_);fill:#5D5D5D;}
	.st19{fill-rule:evenodd;clip-rule:evenodd;fill:#FF8F48;}
	.st20{fill-rule:evenodd;clip-rule:evenodd;fill:#FFB62A;}
	.st21{fill-rule:evenodd;clip-rule:evenodd;fill:#FFFFFF;}
	.st22{fill-rule:evenodd;clip-rule:evenodd;fill:none;stroke:#89898A;stroke-miterlimit:10;}
	.st23{clip-path:url(#SVGID_6_);fill:#5D5D5D;}
	.st24{fill-rule:evenodd;clip-rule:evenodd;fill:none;stroke:#5D5D5D;stroke-miterlimit:10;}
	.st25{fill-rule:evenodd;clip-rule:evenodd;fill:#000033;}
	.st26{fill-rule:evenodd;clip-rule:evenodd;fill:#00A89D;}
	.st27{fill-rule:evenodd;clip-rule:evenodd;fill:#00AA49;}
	.st28{fill-rule:evenodd;clip-rule:evenodd;fill:#00ABE1;}
]]>
</style>
<g>
	<g>
		<path class="st9" d="M42.229,14.898c-1.137,0.506-2.362,0.846-3.646,1c1.311-0.785,2.317-2.029,2.79-3.512
			c-1.227,0.727-2.585,1.254-4.033,1.539c-1.155-1.233-2.808-2.006-4.637-2.006c-3.505,0-6.347,2.844-6.347,6.352
			c0,0.498,0.054,0.982,0.161,1.445c-5.277-0.264-9.956-2.791-13.09-6.636c-0.547,0.942-0.862,2.032-0.862,3.194
			c0,2.201,1.122,4.146,2.827,5.287c-1.04-0.031-2.021-0.32-2.878-0.793v0.078c0,3.08,2.188,5.646,5.098,6.229
			c-0.534,0.15-1.098,0.223-1.676,0.223c-0.408,0-0.81-0.037-1.195-0.113c0.809,2.523,3.155,4.361,5.932,4.408
			c-2.173,1.705-4.911,2.721-7.888,2.721c-0.513,0-1.018-0.027-1.514-0.086c2.811,1.799,6.149,2.852,9.737,2.852
			c11.681,0,18.069-9.676,18.069-18.07c0-0.277-0.005-0.553-0.017-0.822C40.301,17.292,41.379,16.171,42.229,14.898"/>
	</g>
</g>
</svg>
