<?xml version="1.0" encoding="utf-8"?>
<!-- Generator: Adobe Illustrator 16.0.0, SVG Export Plug-In . SVG Version: 6.00 Build 0)  -->
<!DOCTYPE svg PUBLIC "-//W3C//DTD SVG 1.1//EN" "http://www.w3.org/Graphics/SVG/1.1/DTD/svg11.dtd">
<svg version="1.1" id="Capa_1" xmlns="http://www.w3.org/2000/svg" xmlns:xlink="http://www.w3.org/1999/xlink" x="0px" y="0px"
	 width="164.417px" height="165.192px" viewBox="0 0 164.417 165.192" enable-background="new 0 0 164.417 165.192"
	 xml:space="preserve">
<g>
	<defs>
		<circle id="SVGID_3_" cx="284.616" cy="79.679" r="81.675"/>
	</defs>
	<clipPath id="SVGID_2_">
		<use xlink:href="#SVGID_3_"  overflow="visible"/>
	</clipPath>
	<g clip-path="url(#SVGID_2_)">
		<path fill="#ECB43C" d="M398.133,58.187h-2.743v-0.289h-0.104v-0.434c0-0.122-0.099-0.221-0.22-0.221h-0.4
			c-0.122,0-0.221,0.099-0.221,0.221v0.434h-0.103v0.289h-2.142v3.757h-3.859v1.923h-1.44v0.543h0.975v0.544h-0.975v2.108h-0.5
			v1.411h-4.235v2.713h0.512v0.819h-0.512v0.665h0.512v0.691h-0.512v0.666h0.512v0.69h-0.512v0.666h0.512v0.691h-0.512v0.665h0.512
			v0.691h-0.512v0.665h0.512v0.691h-0.512v0.665h0.512v0.69h-0.512v0.667h0.512v0.69h-0.512v0.665h0.512v0.692h-0.512v0.665h0.512
			v0.69h-0.512v0.666h0.512v0.69h-0.512v0.666h0.512v0.691h-0.512v0.665h0.512v0.691h-0.512v0.666h0.512v0.255
			c-0.032-0.011-0.065-0.021-0.101-0.021c-0.188,0-0.342,0.153-0.342,0.341v0.116h-0.069v0.038
			c-0.163,0.026-0.327,0.053-0.495,0.079v-0.602c0-0.236-0.191-0.427-0.427-0.427s-0.426,0.19-0.426,0.427v0.728
			c-0.237,0.033-0.48,0.065-0.728,0.097v-0.021c0-0.188-0.153-0.341-0.341-0.341c-0.188,0-0.341,0.152-0.341,0.341v0.104
			c-0.231,0.026-0.468,0.053-0.71,0.078v-0.043c0-0.188-0.151-0.341-0.339-0.341c-0.189,0-0.341,0.152-0.341,0.341v0.111
			c-0.239,0.023-0.482,0.045-0.73,0.066v-0.598c0-0.236-0.191-0.427-0.427-0.427c-0.234,0-0.427,0.19-0.427,0.427v0.667
			c-0.23,0.017-0.468,0.034-0.706,0.05v-0.057c0-0.187-0.152-0.339-0.34-0.339c-0.188,0-0.342,0.152-0.342,0.339v0.1
			c-0.26,0.016-0.525,0.031-0.795,0.045v-0.067c0-0.188-0.152-0.341-0.34-0.341s-0.34,0.153-0.34,0.341v0.101
			c-0.206,0.009-0.412,0.019-0.624,0.025v-0.615c0-0.234-0.19-0.426-0.427-0.426c-0.235,0-0.426,0.191-0.426,0.426v0.646
			c-0.201,0.006-0.406,0.012-0.612,0.017v-0.407h0.407v-0.786h0.297v-0.287h-1.397v-1.045h0.239v-0.288h0.374v-0.521h-0.613
			c0,0-0.047-0.431-0.435-0.604c-0.389-0.172-0.182-2.056-0.115-2.534c0.067-0.479,0.259-0.49,0.259-0.785s-0.359-0.905-0.416-1.021
			c-0.059-0.115-0.288-0.092-0.392-0.195c-0.103-0.103-0.093-0.278-0.06-0.37c0.034-0.091,0.12-0.124,0.168-0.269
			c0.047-0.143-0.023-0.498-0.363-0.637c-0.342-0.139-0.481,0.389-0.497,0.529c-0.018,0.142,0.127,0.276,0.099,0.405
			s-0.135,0.096-0.221,0.009c-0.086-0.086-0.369-0.411-0.35-0.656c0.019-0.244,0.129-0.595,0.282-0.915s0.188-0.411,0.101-0.613
			c0,0,0.091-0.086,0.039-0.297c-0.053-0.21-0.177-0.383-0.341-0.354c-0.163,0.028,0.09,0.069-0.048,0.394
			c-0.105,0.248-0.015,0.35,0.112,0.347c0,0,0.026,0.141-0.122,0.357c-0.148,0.215-0.373,0.661-0.439,0.828
			c0,0,0.024-0.431-0.355-0.513c0,0-0.078-0.243-0.287-0.129c-0.177,0.096-0.178,0.239-0.13,0.335c0,0-0.144,0.107-0.144,0.289
			c0,0.233,0.215,0.407,0,0.444c-0.249,0.043-0.431,0.177-0.431,0.177s0.027-0.617-0.763-1.136
			c-0.791-0.517-1.193-0.705-1.466-0.705c-0.273,0,0.139,0.543,0.521,0.782c0,0-0.229,0.364,0.624,0.939
			c0,0-0.354,1.073,0.805,1.236c0,0,0.194,0.148,0.148,0.307c-0.137,0.467-0.77,0.82-0.524,1.128c0,0-0.044,0.324-0.237,0.453
			c-0.195,0.13-0.294,0.31,0.244,0.574c0.538,0.267,0.265,0.118-0.166,0.776c-0.229,0.354-0.128,0.842-0.128,0.842
			s-0.153-0.022-0.217,0.144c-0.065,0.166-0.127,0.438-0.127,0.438h-0.613v0.521h0.373v0.288h0.24v1.045h-1.397v0.287h0.298v0.786
			h0.406v0.407c-0.198-0.005-0.396-0.011-0.59-0.017v-0.646c0-0.234-0.192-0.426-0.427-0.426c-0.235,0-0.427,0.191-0.427,0.426
			v0.615c-0.21-0.007-0.418-0.017-0.624-0.025v-0.101c0-0.188-0.151-0.341-0.34-0.341c-0.187,0-0.34,0.153-0.34,0.341v0.067
			c-0.269-0.014-0.534-0.029-0.795-0.045v-0.1c0-0.187-0.152-0.339-0.34-0.339s-0.341,0.152-0.341,0.339v0.057
			c-0.239-0.016-0.475-0.033-0.707-0.05v-0.667c0-0.236-0.19-0.427-0.427-0.427c-0.234,0-0.425,0.19-0.425,0.427v0.598
			c-0.249-0.021-0.492-0.043-0.731-0.066v-0.111c0-0.188-0.152-0.341-0.34-0.341c-0.188,0-0.341,0.152-0.341,0.341v0.043
			c-0.241-0.025-0.478-0.052-0.71-0.078v-0.104c0-0.188-0.152-0.341-0.339-0.341c-0.188,0-0.342,0.152-0.342,0.341v0.021
			c-0.248-0.031-0.489-0.063-0.727-0.097v-0.728c0-0.236-0.191-0.427-0.427-0.427s-0.427,0.19-0.427,0.427v0.602
			c-0.191-0.029-0.381-0.06-0.565-0.091v-0.143c0-0.188-0.152-0.341-0.341-0.341c-0.187,0-0.34,0.153-0.34,0.341v0.023
			c-0.224-0.041-0.441-0.082-0.653-0.125v-0.138c0-0.188-0.151-0.34-0.339-0.34s-0.34,0.15-0.341,0.337
			c-0.164-0.035-0.322-0.071-0.478-0.107v-0.91c0-0.235-0.19-0.427-0.426-0.427s-0.427,0.191-0.427,0.427v0.7
			c-0.179-0.047-0.353-0.094-0.519-0.14v-0.164c0-0.188-0.15-0.341-0.34-0.341c-0.175,0-0.318,0.132-0.338,0.303
			c-0.15-0.048-0.294-0.094-0.433-0.14v-0.211c0-0.188-0.152-0.34-0.341-0.34c-0.177,0-0.321,0.135-0.339,0.307
			c-0.086-0.032-0.169-0.065-0.25-0.098V87.22c0-0.235-0.191-0.426-0.427-0.426c-0.236,0-0.427,0.19-0.427,0.426v0.544
			c-0.063-0.032-0.125-0.063-0.182-0.093v-0.117c0-0.188-0.152-0.34-0.34-0.34c-0.101,0-0.19,0.043-0.254,0.113
			c-0.201-0.134-0.284-0.212-0.284-0.212V86.41l-0.735-0.735c0.021-0.036,0.015-0.076-0.016-0.093
			c-0.048-0.029-0.131-0.014-0.137,0.048h-0.015c-0.018-0.012-0.041-0.045-0.028-0.135c0.021-0.13,0.035-0.25-0.035-0.295h-0.001
			c0.068-0.037,0.135-0.081,0.2-0.131c0.708-0.542,0.386-1.092,0.204-1.254c-0.18-0.162-0.162-0.351-0.162-0.351
			s0.229-0.118,0.164-0.31c-0.051-0.155-0.852-0.239-1.165-0.266c-0.078-0.007-0.153-0.01-0.231-0.01
			c-0.075,0-0.151,0.003-0.229,0.01c-0.097,0.009-0.239,0.023-0.392,0.042v-7.448l-14.217-6.794v22.96h-1.075h-0.189v-0.006
			l0.189,0.006c0,0,0.066-0.089-0.108-0.127c-0.031-0.006-0.056-0.025-0.081-0.042v-1.759h-0.369
			c-0.112-0.29-0.218-0.599-0.218-0.599s0.068,0.017,0.116,0.065c0.049,0.048,0.121,0,0.121,0s0.072,0.054,0.146,0.042
			c0.072-0.012,0.208-0.107,0.138-0.177c-0.068-0.069-0.158-0.008-0.188-0.077c-0.031-0.069-0.366-0.332-0.394-0.498
			c-0.026-0.165-0.046-0.667-0.065-0.764c-0.02-0.096-0.213-0.286-0.213-0.286s0.097,0.031,0.097-0.058
			c0-0.09,0.144-0.413-0.026-0.527c-0.17-0.116-0.335-0.112-0.438,0.036s-0.011,0.295-0.011,0.36c0,0.066,0.022,0.095-0.065,0.239
			c-0.087,0.146-0.19,0.469-0.104,0.77s0.043,0.373-0.073,0.643c-0.079,0.182-0.093,0.585-0.094,0.83h-0.181v-1.88l-0.946-0.086
			c-0.002-0.048-0.006-0.096-0.008-0.141c0.06-0.17,0.041-0.313-0.014-0.434c0.025-0.095-0.045-0.465-0.071-0.742
			c-0.029-0.301-0.029-0.856-0.191-0.937c-0.224-0.112-0.283-0.211-0.283-0.211l0.009-0.09c0,0,0.069,0.018,0.128,0.005
			c0.057-0.012,0.092-0.229,0.092-0.301s0.009-0.146,0.009-0.146s0.069-0.094,0.022-0.201c-0.045-0.108-0.354-0.196-0.483-0.079
			c-0.13,0.118-0.118,0.264-0.091,0.384s0.015,0.216,0.015,0.216s-0.092,0.132-0.185,0.17c-0.014,0.007-0.027,0.013-0.042,0.019
			l-0.417-16.842c0,0,0.15-0.29,0.15-0.51s0.01-1.196,0.01-1.196c0.39-0.052,0.133-1.103,0.133-1.103
			c0.633-0.374,0.445-1.013,0.617-1.285c0.297-0.47,0.687-0.003,0.745-0.203c0.146-0.505-0.305-0.68-0.305-0.68
			c0.608-0.609,0.463-1.512,0.463-2.221c0-0.711,0.524-0.788,0.632-0.896c0.108-0.108-0.57-0.602-0.57-0.602
			c-0.602,0.201-1.929,0.201-1.929,0.201l0.062-2.793l0.271-0.463v-1.049l-0.741-0.603l-0.485-0.05
			c-0.042-0.094-0.129-0.228-0.316-0.369c-0.348-0.263-0.224-0.563-0.155-0.788c0.07-0.224,0.262-0.309,0.302-0.632
			c0.038-0.324,0-1.025,0-1.025s0.385,0.153,0.547,0.855c0.163,0.703,0.193,1.088,0.401,1.149c0.209,0.062,0.217-0.562,0.147-0.849
			c-0.069-0.285-0.417-0.633-0.379-1.049c0.039-0.417,0.348-0.178,0.475-0.297c0.128-0.12,0.29-0.506,0.213-0.729
			c-0.078-0.224-0.278-0.356-0.395-0.611c-0.116-0.254-0.331-0.308-0.485-0.224c0,0-0.1-0.323-0.332-0.462
			c0,0-0.065-0.528-0.209-0.671c-0.142-0.144-0.315-0.386-0.315-0.718s-0.022-0.718-0.022-0.718s0.447,0.047,0.701-0.054
			c0.255-0.101,0.563-0.24,0.668-0.208c0.104,0.03,0.139,0.073,0.139,0.238c0,0.167-0.022,0.37,0.08,0.324
			c0.105-0.046,0.005-0.329,0.106-0.43c0.103-0.103,0.064-0.223,0.057-0.438c-0.007-0.216,0.073-0.319-0.038-0.439
			c-0.112-0.12-0.302-0.042-0.369,0.045s-0.169,0.313-0.342,0.353c-0.174,0.039-0.646-0.021-0.689-0.065
			c-0.045-0.045,0.03-0.517,0.03-0.621s0.355-0.178,0.439-0.463c0,0,0.393-0.154,0.393-0.567c0,0,0.65,0.028,0.772-0.196
			c0.101-0.186-0.042-0.321-0.042-0.321s0.347-0.084,0.424-0.293c0.065-0.176-0.048-0.263-0.048-0.263s0.46-0.131,0.545-0.35
			c0.086-0.22-0.301-0.382-0.301-0.382s0.494-0.267,0.557-0.579c0.062-0.312-0.256-0.216-0.506-0.131s-0.93,0.374-1.616,0.382
			c-0.688,0.008-0.692,0.087-0.88,0.273c-0.187,0.188-0.485,0.599-0.544,0.714c-0.058,0.116-0.243,0.991-0.409,1.042
			c-0.165,0.05-0.351-0.077-0.402-0.199c-0.052-0.121-0.012-0.348,0.025-0.383c0.036-0.038,0.292-0.179,0.33-0.394
			c0.04-0.217,0.078-0.814-0.266-1.089c-0.342-0.273-0.835,0.022-0.908,0.261c-0.072,0.239-0.125,0.646-0.01,0.858
			c0.116,0.212,0.217,0.267,0.217,0.352s-0.054,0.369-0.17,0.354c-0.117-0.016-0.32-0.225-0.532-0.371s-0.475-0.443-0.579-0.721
			s-0.297-1.454-0.297-1.632s0.215-0.188,0.348-0.421c0.111-0.186,0.085-0.505,0-0.752c-0.061-0.175-0.648-0.442-0.949-0.286
			c-0.251,0.132-0.322,0.284-0.402,0.395c-0.078,0.109-0.068,0.288-0.049,0.493c0.025,0.258,0.254,0.535,0.397,0.563
			c0.135,0.025,0.267-0.031,0.293,0.208c0.026,0.24-0.007,1.216,0.095,1.461c0,0-0.687-1.065-2.077-1.862
			c-1.628-0.932-1.827-1.422-2.029-1.218c-0.203,0.202,0.228,0.852,0.493,1.118c0,0-0.497-0.047-0.011,0.602
			c0,0-0.289,0.892,0.798,1.007c0,0-0.058,0.948,1.053,0.948c0,0-0.114,0.337,0.243,0.51c0,0-0.046,0.591,0.626,0.532
			c0,0-0.035,0.638,0.683,0.498c0,0-0.266,0.578,0.277,0.729c0,0-0.035,0.371,0.347,0.301c0,0-0.068,0.463,0.348,0.336
			c0,0-0.012,0.428,0.451,0.336c0,0-0.277,0.566-0.22,0.868c0.058,0.301,0.312,0.578,0.312,0.578s-0.312,0.336-0.312,0.752
			c0,0.417,0.254,0.417,0.254,0.799s-0.092,0.521-0.092,0.521s-0.231,0.128-0.278,0.51c-0.046,0.382,0.475,0.56,0.475,0.56
			s-0.008,0.246,0.17,0.285c0.178,0.038,0.479-0.039,0.432,0.2c-0.046,0.239-0.107,0.648,0.401,0.602c0,0-0.016,0.262,0.201,0.479
			c0.215,0.215-0.243,0.366-0.455,0.425c-0.31,0.085-0.434,0.304-0.483,0.448l-0.543,0.056l-0.741,0.603v1.049l0.271,0.463
			l0.062,2.793c0,0-1.327,0-1.929-0.201c0,0-0.679,0.493-0.57,0.602c0.107,0.108,0.632,0.186,0.632,0.896
			c0,0.709-0.146,1.611,0.463,2.221c0,0-0.449,0.175-0.305,0.68c0.058,0.2,0.447-0.267,0.744,0.203
			c0.172,0.272-0.015,0.911,0.618,1.285c0,0-0.257,1.051,0.134,1.103c0,0,0.009,0.977,0.009,1.196s0.15,0.51,0.15,0.51l-0.004,0.159
			h-9.438l-8.572,10.572h-0.71v-0.973h0.727v-0.717h-0.727v-0.973h0.727v-0.717h-0.727v-0.973h0.727V74.09h-0.727v-0.973h0.727
			v-0.716h-0.727v-0.975h0.727v-0.716h-0.727v-0.973h0.727v-0.716h-0.727V68.05h0.727v-0.717h-0.727V66.36h0.727v-0.717h-0.727
			V64.67h0.727v-0.717h-0.727v-0.972h0.727v-0.717h-0.727v-0.973h0.727v-0.717h-0.727V51.31h-3.687l-3.662,7.781l-0.024,0.051v1.434
			h-0.727v0.717h0.727v0.973h-0.727v0.717h0.727v0.972h-0.727v0.717h0.727v0.974h-0.727v0.717h0.727v0.973h-0.727v0.717h0.727v0.973
			h-0.727v0.716h0.727v0.973h-0.727v0.716h0.727v0.975h-0.727v0.716h0.727v0.973h-0.727v0.717h0.727v0.973h-0.727v0.717h0.727v0.973
			h-0.727v0.717h0.727v0.973h-0.727v0.717h0.727v0.972h-0.727v0.717h0.727v0.973h-0.727v0.718h0.727v0.973h-0.727v0.716h0.727v0.973
			h-0.727v0.717h0.727v0.974h-0.727v0.716h0.727v0.802l-0.138,0.171h-0.589v0.453h-4.683v-7.246h-0.326
			c-0.509,0-0.923,0.414-0.923,0.924v0.042h-2.089c-0.301-3.964-3.165-7.22-6.937-8.109v-0.516c0-0.387-0.313-0.7-0.7-0.7h-0.012
			v-3.041h-0.307v0.498h-0.239v-0.346h-0.306v0.346h-0.159v-0.521c0.15-0.109,0.249-0.286,0.249-0.486
			c0-0.288-0.2-0.528-0.471-0.587c0.161-0.056,0.277-0.206,0.277-0.385c0-0.102-0.038-0.191-0.098-0.262
			c0.052-0.131-0.025-0.294-0.088-0.356c-0.065-0.065-0.061-0.207-0.061-0.207c0.939-0.441,1.048-1.315,1.048-1.315
			c-0.816,0.453-1.057,0.869-1.057,0.869c0.02-0.306-0.153-0.299-0.153-0.299s-0.174-0.007-0.153,0.299c0,0-0.24-0.416-1.058-0.869
			c0,0,0.108,0.874,1.048,1.315c0,0,0.005,0.142-0.061,0.207c-0.062,0.062-0.14,0.226-0.088,0.356
			c-0.059,0.07-0.097,0.16-0.097,0.262c0,0.179,0.116,0.329,0.277,0.385c-0.271,0.059-0.473,0.299-0.473,0.587
			c0,0.2,0.101,0.377,0.251,0.486v0.521h-0.159v-0.346h-0.306v0.346h-0.242v-0.498h-0.305v3.041h-0.012
			c-0.387,0-0.699,0.313-0.699,0.7v0.516c-3.772,0.889-6.639,4.145-6.938,8.109h-2.09v-0.042c0-0.51-0.413-0.924-0.923-0.924h-0.325
			v7.246h-8.297V69.189c0-0.837-0.677-1.515-1.514-1.515h-5.106v2.057l1.625,0.48v1.837h-7.585v11.827h-8.727v-1.288h-0.422v-1.496
			l0.422-0.099v-1.414h-0.422v-1.496l0.422-0.099v-1.415h-0.422V73.83h-9.226v-0.534h0.513V72.63h-0.513v-0.69h0.513v-0.666h-0.513
			v-0.69h0.513v-0.666h-0.513v-0.69h0.513v-0.665h-0.513V67.87h0.513v-0.666h-0.513v-0.691h0.513v-0.665h-0.513v-0.691h0.513v-0.665
			h-0.513v-0.819h0.513v-2.713h-9.471v2.713h0.513v0.819h-0.513v0.665h0.513v0.691h-0.513v0.665h0.513v0.691h-0.513v0.666h0.513
			v0.691h-0.513v0.665h0.513v0.69h-0.513v0.666h0.513v0.69h-0.513v0.666h0.513v0.69h-0.513v0.666h0.513v0.691h-0.513v0.666h0.513
			v0.691h-0.513v0.664h0.513V76.7h-0.513v0.666h0.513v0.69h-0.513v0.665h0.513v0.692h-0.513v0.665h0.513v0.691h-0.513v0.666h0.513
			v0.372h-6.791v0.669h0.302v3.85h-3.94v0.96h-0.535v1.473h0.535v0.647h-0.535v1.474h0.535v0.647h-0.535V93h0.535v0.647h-0.535
			v1.474h0.535v0.647h-0.535v1.473h0.535v2.879h-0.538v-4.68h-1.068v-1.257h-0.308v-1.259h0.308v-1.257h-0.308V90.41h0.308v-1.258
			h-0.308v-1.258h0.308v-1.258h-0.308V85.38h0.308v-1.259h-0.308v-1.258h0.308v-1.257h-0.308v-1.258h0.308v-1.258h-0.308v-1.258
			h0.308v-1.258h-0.308v-1.257h0.308V74.06h-0.308v-1.258h0.308v-1.257h-0.308v-1.258h0.308v-1.259h-0.308v-1.257h0.308v-1.258h0.5
			V64.71h-1.116v-3.631h-1.282l-0.379-3.63h-0.451l-1.005-2.263h-0.121v-5.852h-0.26l-0.133-4.253l-0.132,4.253h-0.261v5.852h-0.121
			l-1.005,2.263h-0.451l-0.38,3.63h-1.281v3.631h-1.115v1.804h0.498v1.258h0.309v1.257h-0.309v1.259h0.309v1.258h-0.309v1.257h0.309
			v1.258h-0.309v1.259h0.309v1.257h-0.309v1.258h0.309v1.258h-0.309v1.258h0.309v1.258h-0.309v1.257h0.309v1.258h-0.309v1.259h0.309
			v1.257h-0.309v1.258h0.309v1.258h-0.309v1.258h0.309v1.258h-0.309v1.257h0.309v0.86c-0.089-0.13-0.225-0.23-0.402-0.262
			l-0.458-0.083c-1.62-0.292-3.253-0.496-4.891-0.615v-5.594h2.26v-0.51l-2.26-0.745v-2.66h-0.408c0,0,0.044-0.211-0.21-0.575
			c-0.256-0.365-0.562-0.196-0.824-0.227c-0.263-0.029-0.357-0.328-0.379-0.576c-0.022-0.247-0.328-0.386-0.328-0.655
			s0.073-0.415,0.073-0.524s-0.125-0.255-0.125-0.255s-0.007-0.817-0.087-1.138c-0.08-0.321-0.307-0.51-0.364-0.642
			c-0.058-0.13,0.13-0.276,0.364-0.751c0.233-0.474,0.371-0.845,0.371-0.845c0.313-0.729-0.4-1.48-0.327-2.164
			c0.073-0.686-0.11-1.116-0.11-1.116s0.114-0.115,0.078-0.354c-0.016-0.094,0.141-0.2,0.411-0.339
			c0.27-0.139,0.786-0.48,0.874-0.568s0.424-0.081,0.718-0.303c0.296-0.223,0.857-0.878,0.996-0.922
			c0.044-0.015,0.102-0.024,0.161-0.035c0.006,0.15,0.005,0.299,0.001,0.446c0.001,0.078-0.013,0.156-0.019,0.235
			c-0.007,0.076-0.014,0.154-0.021,0.231c-0.02,0.152-0.051,0.303-0.075,0.451c-0.024,0.149-0.069,0.291-0.101,0.433
			s-0.076,0.277-0.117,0.409c-0.043,0.132-0.077,0.263-0.126,0.384c-0.046,0.122-0.09,0.241-0.133,0.354
			c-0.021,0.057-0.042,0.113-0.062,0.166c-0.023,0.054-0.046,0.106-0.067,0.157c-0.044,0.102-0.086,0.198-0.124,0.288
			c-0.075,0.184-0.155,0.337-0.217,0.465c-0.124,0.256-0.193,0.402-0.193,0.402s0.081-0.141,0.224-0.387
			c0.07-0.124,0.158-0.272,0.244-0.452c0.046-0.088,0.093-0.183,0.143-0.282c0.025-0.05,0.051-0.102,0.076-0.153
			c0.023-0.055,0.047-0.109,0.07-0.165c0.048-0.113,0.099-0.23,0.15-0.352c0.053-0.121,0.091-0.253,0.14-0.385
			c0.047-0.133,0.097-0.269,0.132-0.412c0.02-0.072,0.039-0.144,0.059-0.217s0.043-0.146,0.055-0.223
			c0.027-0.151,0.062-0.304,0.086-0.461c0.016-0.158,0.039-0.317,0.047-0.48c0.006-0.162,0.007-0.327,0-0.492
			c0.055-0.02,0.097-0.047,0.113-0.087c0.043-0.117,0.047-0.58,0-0.627c-0.027-0.026-0.13-0.03-0.217-0.029l-0.064-0.233
			c-0.02-0.08-0.057-0.155-0.084-0.232c-0.029-0.077-0.057-0.155-0.097-0.228c-0.036-0.073-0.073-0.146-0.11-0.218
			c-0.043-0.068-0.086-0.137-0.129-0.205c-0.041-0.069-0.093-0.131-0.14-0.192c-0.049-0.063-0.094-0.128-0.148-0.184
			c-0.201-0.238-0.438-0.427-0.665-0.595c-0.229-0.168-0.466-0.293-0.687-0.401s-0.433-0.185-0.622-0.249
			c-0.189-0.06-0.356-0.106-0.496-0.138c-0.14-0.032-0.249-0.051-0.324-0.062c-0.076-0.012-0.116-0.015-0.116-0.015
			s0.04,0.006,0.114,0.024c0.074,0.017,0.182,0.045,0.318,0.085c0.136,0.039,0.299,0.095,0.481,0.166
			c0.183,0.075,0.387,0.162,0.6,0.275c0.211,0.117,0.438,0.25,0.654,0.418c0.217,0.169,0.437,0.36,0.625,0.591
			c0.052,0.055,0.095,0.116,0.14,0.177c0.043,0.062,0.093,0.12,0.13,0.187c0.04,0.066,0.079,0.133,0.12,0.198
			c0.033,0.069,0.068,0.14,0.102,0.209c0.038,0.068,0.063,0.143,0.092,0.216c0.025,0.075,0.06,0.146,0.077,0.224l0.04,0.147
			c-0.029,0.003-0.075,0.015-0.141,0.041c-0.234,0.095-0.241,0.576-0.241,0.576c-0.553,0.423-1.125,0.644-1.458,0.977
			c-0.201,0.202-0.507,0.197-0.73,0.267c-0.282,0.087-0.517,0.256-0.725,0.278c-0.342,0.038-0.342,0.181-0.534,0.155
			c-0.27-0.036-0.232-0.241-0.232-0.241s0.232,0.052,0.232-0.072s-0.003-0.598-0.003-0.795c0-0.196-0.187-0.546-0.696-0.532
			c-0.511,0.016-0.554,0.452-0.816,0.715s-0.339,0.816-0.339,0.816c-0.309,0.189-0.725,0.598-1.119,1.312
			c-0.394,0.715,0.058,0.656,0.438,0.656s1.273-0.57,1.273-0.57c0.221,0.315,0.451,0.337,0.535,0.688
			c0.104,0.439-0.19,0.685-0.322,0.933c-0.131,0.247-0.028,0.597-0.028,0.597s-0.248,0.555-0.248,1.415
			c0,0.642,0.743,1.872,0.743,1.872c-0.284,0-0.229,0.908-0.437,1.116c-0.208,0.207,0.043,0.874-0.35,1.027
			c-0.395,0.153-0.372,0.611-0.372,0.611c-0.073,0.191-0.124,0.22-0.432,0.345c-0.305,0.122-0.305,0.618-0.305,0.618h-0.554v2.66
			l-0.651,0.214v-3.704h-5.188v0.439h-4.235v-0.439h-4.517v-5.787h0.448v-0.384h-11.757v115.778h240.778L398.133,58.187z
			 M318.644,42.015c0,0-0.231,0.078-0.353-0.044c-0.123-0.121-0.114-0.311-0.058-0.394c0.055-0.082,0.194-0.241,0.332-0.241
			c0.158,0,0.312,0.093,0.352,0.239C318.955,41.722,318.856,41.949,318.644,42.015z M182.612,87.231h0.651v5.544
			c-0.218,0.012-0.435,0.031-0.651,0.047V87.231z M186.15,94.159c-0.074,0-0.147-0.002-0.221-0.002
			c-1.105,0-2.213,0.039-3.317,0.116v-0.837c1.105-0.069,2.212-0.105,3.317-0.104c0.073,0,0.146,0,0.221,0V94.159z M192.58,94.628
			c-2.024-0.289-4.063-0.444-6.104-0.468v-0.825c2.109,0.02,4.217,0.168,6.311,0.443L192.58,94.628z M195.114,94.184h-0.309v0.821
			c-0.004-0.001-0.009-0.003-0.014-0.005c-0.026-0.008-0.053-0.016-0.08-0.02l-0.458-0.083c-0.448-0.08-0.898-0.154-1.349-0.221
			l0.208-0.854c0.542,0.074,1.081,0.157,1.62,0.249l0.381,0.065V94.184z M300.517,80.033v-0.158h0.128L300.517,80.033z
			 M329.389,100.12h-1.265v-7.452h0.856v-0.74h0.408V100.12z M343.605,85.63v-0.27c0.003-0.001,0.008-0.003,0.008-0.003
			c0.299,0.086,0.548,0.08,0.612,0.076c0.066,0.004,0.315,0.01,0.614-0.076c0,0,0.136,0.038,0.188,0.169
			c0.014,0.038,0.039,0.072,0.067,0.104H343.605z M349.693,100.12h-1.758l0.097-6.973c0.36-0.173,0.389-0.331,0.389-0.331
			l0.933,0.228l0.017,0.376l0.393,0.058c0,0.221,0.326,0.373,0.326,0.373L349.693,100.12z M353.849,100.12h-2.494v-6.255
			c0,0,0.211-0.024,0.343-0.185l0.533-0.03l0.042-0.216l1.123,0.137l0.052,0.338l0.335,0.078c0,0,0.034,0.268,0.317,0.375
			L353.849,100.12z M358.429,100.12h-2.944l-0.067-5.76c0,0,0.292,0.023,0.385-0.265l0.402-0.058l0.037-0.129l1.84,0.137v0.244
			l0.237,0.079c0,0-0.015,0.216,0.272,0.287L358.429,100.12z M363.005,100.12h-3.132l-0.075-5.378c0.353,0,0.425-0.33,0.425-0.33
			l0.2-0.043v-0.252l2.244,0.123l0.009,0.205l0.153,0.038c-0.034,0.216,0.297,0.346,0.297,0.346L363.005,100.12z M364.728,100.12
			h-0.271l-0.051-5.329c0.23-0.067,0.211-0.259,0.211-0.259l0.111-0.037V100.12z M371.779,100.12h-0.295v-5.633l0.134,0.045
			c0,0-0.02,0.191,0.211,0.259L371.779,100.12z M376.362,100.12h-3.133l-0.121-5.291c0,0,0.33-0.13,0.297-0.346l0.153-0.038
			l0.009-0.205l2.243-0.123v0.252l0.201,0.043c0,0,0.071,0.33,0.424,0.33L376.362,100.12z M380.749,100.12h-2.942l-0.164-5.464
			c0.289-0.071,0.273-0.287,0.273-0.287l0.237-0.079v-0.244l1.84-0.137l0.036,0.129l0.402,0.058
			c0.094,0.288,0.387,0.265,0.387,0.265L380.749,100.12z"/>
	</g>
</g>
<g>
	<defs>
		<circle id="SVGID_7_" cx="83.641" cy="81.597" r="81.598"/>
	</defs>
	<clipPath id="SVGID_4_">
		<use xlink:href="#SVGID_7_"  overflow="visible"/>
	</clipPath>
	<path clip-path="url(#SVGID_4_)" fill-rule="evenodd" clip-rule="evenodd" fill="#ECB43C" d="M295.733,154.142
		c-0.002-0.381,0.102-0.896-0.52-0.903c-1.459-0.015-1.456-1.101-1.571-2.098c-0.214-1.8,0.14-3.596-0.013-5.412
		c-0.174-2.046-0.648-4.088-0.176-6.196c0.105-0.469,0.452-1.853-1.111-1.995c-0.748-0.067-1.282-1.473-0.665-1.755
		c1.861-0.852,0.244-1.273-0.104-1.735c-0.343-0.455-0.717-0.822-0.697-1.452c0.012-0.315-0.182-0.958-0.53-0.602
		c-1.042,1.069-0.864-0.152-1.034-0.511c-0.218-0.458-0.291-0.984-0.477-1.662c-0.546,0.729-0.433,1.308-0.418,1.837
		c0.034,1.166,0.177,2.33,0.225,3.497c0.048,1.125-0.567,2.353-1.481,2.354c-1.929,0.001-3.726,0.943-5.657,0.598
		c-1.394,0.177-2.823,0.421-3.07-1.826c-0.542,3.011-2.748,1.594-4.266,1.904c-1.307,0.269-1.379-0.839-1.802-2.045
		c-0.501,3.018-2.485,1.838-3.964,1.972c-1.781,0.689-1.508-1.08-2.231-2.032c0.324,2.406-1.17,2.137-2.501,2.104
		c-0.251-0.006-0.509,0.029-0.757-0.004c-1.035-0.139-2.116-0.123-2.347-1.586c-0.093-0.592-0.473-0.312-0.62,0.115
		c-0.021,0.15,0.019,0.354-0.067,0.441c-0.912,0.955-4.868,0.534-5.64-0.724c-0.201,1.122-0.931,1.24-1.811,1.19
		c-0.912-0.053-1.83-0.008-2.745-0.017c-0.508-0.004-1.062,0.066-1.096-0.707c-0.015-0.337-0.157-0.535-0.59-0.465
		c-0.841,0.141-1.03-0.693-0.882-1.056c0.616-1.502-0.454-2.568-0.826-3.798c-0.191-0.647-0.348-1.265-0.289-1.933
		c0.253-1.021,1.841-1.407,1.252-3.019c-1.338,1.817-2.774,2.261-4.135,0.111c-0.429,0.602-0.227,1.038-0.167,1.47
		c1.612,1.531,1.74,2.439,0.369,4.949c-0.379,0.694-0.454,1.226-0.326,1.975c0.094,0.539-0.35,0.944-0.819,1.442
		c-1.638,1.739-3.503,0.845-5.241,0.998c-1.869,0.166-3.765,0.028-5.646,0.082c-0.714,0.02-1.137-0.312-1.499-1.103
		c-1.08,2.402-3.052,1.503-4.713,1.604c-1.136,0.068-0.802-1.107-1.361-1.855c-0.23,2.542-2.033,1.956-3.451,1.863
		c-2.03-0.136-4.049,0.02-6.069,0.056c-1.23,0.022-2.21-0.119-2.433-1.719c-0.786,2.766-2.914,1.402-4.462,1.668
		c-1.231,0.211-1.264-0.884-1.539-2.069c-0.551,1.507-1.478,1.694-2.582,1.519c-0.419-0.065-0.836-0.091-0.905-0.618
		c-0.052-0.409-0.104-0.863,0.408-1.021c0.594-0.182,0.793-0.586,0.775-1.151c-0.039-1.368-0.214-2.746,0.891-3.882
		c0.363-0.374,0.072-0.687-0.4-0.614c-0.393,0.062-0.928,0.14-1.115,0.41c-0.591,0.863-1.033,1.905-1.811,0.143
		c-0.065-0.15-0.494-0.139-0.5,0.066c-0.055,1.457-1.1,0.63-1.65,0.694c-0.308,0.365-0.108,0.575,0.094,0.707
		c1.813,1.186,1.273,2.936,1.065,4.568c-0.124,0.978-1.031,0.773-1.598,0.673c-1.552-0.271-1.957,0.917-1.716,1.773
		c0.489,1.718-0.051,3.325-0.051,4.977c0,1.66-0.213,3.32-0.094,4.993c0.053,0.754-0.016,1.536-0.174,2.275
		c-0.145,0.695-0.162,1.66-1.276,1.552c-1.125-0.112-0.762-1.054-0.763-1.68c-0.021-9.213-0.008-18.427-0.005-27.641
		c0-15.781-0.021-31.562,0.028-47.346c0.004-1.431-0.42-1.787-1.805-1.771c-7.278,0.087-14.557,0.101-21.832,0.074
		c-1.208-0.007-1.549,0.358-1.538,1.557c0.048,5.345-0.005,10.688-0.012,16.033c-0.016,10.08-0.021,20.161-0.031,30.24
		c0.007,9.675,0.01,19.35,0.028,29.024c0.002,0.899-0.047,1.613-1.263,1.569c-1.095-0.038-2.183,0.15-2.222-1.495
		c-0.053-2.237-0.212-4.473-0.326-6.71c-0.53-10.417-1.063-20.836-1.587-31.256c-0.04-0.812-0.007-1.63-0.009-2.442
		c-0.038-0.508-0.076-1.013-0.11-1.521c-0.305-4.564-0.316-9.148-0.865-13.697c-0.315-2.62-1.284-5.119-1.265-7.805
		c0.045-6.309-0.013-12.616,0.026-18.925c0.006-1.084-0.196-1.562-1.429-1.455c-1.463,0.125-2.945-0.006-4.42-0.013
		c-0.692-0.002-1.36,0.05-1.234-1.004c0.095-0.802-0.575-0.769-1.043-0.689c-1.279,0.214-3.188-0.793-3.701,0.556
		c-0.459,1.207-0.964,1.127-1.779,1.135c-1.273,0.01-2.551,0.084-3.814-0.021c-1.261-0.104-1.649,0.312-1.639,1.6
		c0.065,6.257,0.038,12.515,0.02,18.773c0,0.756-0.069,1.529-0.237,2.264c-0.945,4.123-1.605,8.28-1.595,12.521
		c-0.569,10.964-1.152,21.927-1.704,32.89c-0.262,5.179-0.465,10.359-0.698,15.54c-0.039,0.88-0.022,1.761-1.309,1.795
		c-1.118,0.031-1.651-0.33-1.707-1.54c-0.576-12.643-1.173-25.282-1.812-37.92c-0.117-2.334-0.383-4.659-0.304-7.001
		c-0.351-0.88-0.234-1.807-0.28-2.717c-0.36-6.91-0.662-13.825-1.076-20.733c-0.646-10.718-1.364-21.432-1.626-32.167
		c-0.068-2.797-0.359-5.316-2.417-7.382c-0.495-0.498-0.845-1.141-1.294-1.691c-0.203-0.25-0.387-0.65-0.901-0.368
		c-0.153,2.741,0.043,5.544-0.505,8.28c-0.154-0.002-0.31-0.003-0.465-0.003c-0.437-7.424-0.871-14.847-1.308-22.27
		c-0.12,0.004-0.24,0.008-0.361,0.012c-0.488,7.438-0.979,14.875-1.468,22.312c-0.204,0.004-0.407,0.008-0.61,0.012
		c-0.106-2.851-0.218-5.703-0.33-8.555c-1.531,1.456-2.628,2.972-3.8,4.425c-0.547,0.681-0.721,1.386-0.733,2.236
		c-0.215,15.019-1.459,29.985-2.281,44.974c-0.246,4.497-0.705,8.985-1.057,13.465c-0.499,6.315-0.29,12.707-0.617,19.062
		c-0.41,8.719-0.83,17.437-1.217,26.157c-0.042,0.935-0.316,1.366-1.332,1.381c-1.115,0.018-1.364-0.487-1.372-1.479
		c-0.077-8.582-0.193-17.169-0.286-25.754c-0.021-1.929,0-3.857,0.002-5.786c-0.041-0.559-0.11-1.114-0.121-1.671
		c-0.195-13.489-0.398-26.979-0.561-40.469c-0.021-1.707,0.074-3.341-1.947-4.098c-0.428-0.16-0.754-0.672-1.056-1.076
		c-0.965-1.294-1.893-2.61-2.904-4.011c-2.558,3.001-5.527,5.426-9.087,7.066c-0.663,0.304-0.64,0.826-0.639,1.395
		c0.002,2.342,0.005,4.686-0.011,7.027c-0.004,0.521,0.113,1.334-0.844,0.805c-1.426-0.79-1.514-0.09-1.51,1.129
		c0.024,8.756-0.004,17.512-0.015,26.266c0.007,13.019,0.007,26.039,0.033,39.058c0.001,0.977-0.041,1.635-1.336,1.614
		c-1.32-0.023-1.314-0.779-1.314-1.703c0.005-10.83,0-21.664,0.004-32.497c0-2.187,0.016-4.373,0.025-6.56
		c-0.002-3.409-0.005-6.816-0.004-10.224c0.001-10.785-0.01-21.57,0.024-32.354c0.002-1.037-0.253-1.475-1.354-1.385
		c-1.164,0.097-2.353,0.159-3.508,0.026c-4.284-0.496-8.027,0.394-10.842,3.927c-0.217,0.272-0.515,0.5-0.81,0.688
		c-0.858,0.543-1.146,1.278-1.115,2.305c0.073,2.439-0.046,4.886,0.051,7.324c0.054,1.309-0.292,2.351-1.176,3.282
		c-1.002,1.056-1.535,2.215-1.52,3.799c0.088,8.343,0.035,16.688,0.031,25.032c0.025,7.372,0.061,14.744,0.078,22.117
		c0.014,4.881-0.002,9.762,0.006,14.646c0.002,0.892-0.059,1.661-1.285,1.53c-0.545-0.058-0.854-0.273-0.894-0.826
		c-0.019-0.253-0.029-0.508-0.033-0.762c-0.119-9.965-0.239-19.929-0.358-29.894c-0.014-1.272-0.006-2.545-0.047-3.818
		c-0.046-1.372,0.384-2.9-1.229-3.793c-0.357-0.197-0.185-0.654-0.168-0.998c0.439-9.313,0.247-18.624-0.058-27.935
		c-0.016-0.501,0.141-1.11-0.268-1.463c-0.915-0.787-0.769-1.805-0.774-2.809c-0.008-1.475-0.08-2.956-0.021-4.426
		c0.054-1.395-0.386-2.622-1.136-3.724c-0.856-1.254-1.567-2.601-2.579-3.76c-1.4-1.6-2.218-3.358-2.01-5.653
		c0.238-2.626-0.042-5.294,0.085-7.935c0.103-2.121-0.502-2.774-2.645-3.067c-0.823-0.112-1.109-0.348-1.147-1.183
		c-0.15-3.253-0.374-6.502-0.568-9.752c0.029-1.014,0.066-2.026-0.424-3.418c-0.149,1.461-0.235,2.462-0.089,3.471
		c-0.264,4.488-0.619,9.003-0.714,13.464c-0.351,16.677-0.146,33.366-0.161,50.05c0,0.688,0.232,1.465-0.402,2.016
		c-0.703,0.613-0.698,1.398-0.697,2.229c0.011,6.003,0,12.008-0.003,18.012c0.001,8.093,0.003,16.185,0.003,24.278
		c0,0.305-0.014,0.609-0.026,0.914c-0.02,0.597-0.393,0.763-0.918,0.771c-0.503,0.008-0.925-0.098-1.001-0.688
		c-0.039-0.3-0.049-0.607-0.049-0.912c0.009-8.449,0.019-16.899,0.028-25.348c0-9.571,0-19.145,0.004-28.716
		c0-0.821,0.054-1.656-0.529-2.322c-0.521-0.589-0.542-1.27-0.542-1.995c0.01-9.773,0.002-19.547,0.008-29.32
		c0.002-0.858-0.331-1.932,1.153-1.955c0.283-0.003,0.354-0.324,0.356-0.593c0.004-0.814,0.006-1.628,0.006-2.443
		c0-0.393-0.119-0.76-0.582-0.712c-1.286,0.133-1.209-0.702-1.18-1.552c0.023-0.713-0.072-1.438,0.023-2.137
		c0.173-1.285-0.427-1.508-1.563-1.494c-4.378,0.055-8.757,0.023-13.135,0.023c-2.023,0-2.001,0.001-2.029,2.097
		c-0.009,0.801,0.341,2.16-0.204,2.307c-2.069,0.558-1.249,2.088-1.377,3.278c-0.092,0.858-0.174,1.799,1.195,1.747
		c0.615-0.022,0.501,0.53,0.502,0.909c0.007,8.555,0.008,17.109-0.004,25.662c0,0.319,0.157,0.85-0.333,0.883
		c-1.17,0.075-0.869,0.915-0.872,1.561c-0.024,6.209-0.03,12.419-0.04,18.627c0.009,13.851,0.022,27.701,0.016,41.551
		c-0.001,0.594,0.277,1.465-0.772,1.511c-1.156,0.05-0.923-0.877-0.923-1.532c-0.013-13.545-0.007-27.088-0.005-40.633
		c0.001-12.979,0.001-25.962,0.002-38.941c0-0.203-0.012-0.408,0.002-0.609c0.046-0.734-0.332-1.057-1.017-0.948
		c-0.606,0.097-1.614-0.445-1.63,0.754c-0.015,1.135-0.727,0.992-1.443,0.99c-4.733-0.004-9.469-0.009-14.203,0.005
		C6.82,72.247,5.92,72.371,6.07,71.001c0.038-0.361-0.298-0.447-0.624-0.517c-1.563-0.326-2.046,0.063-2.047,1.795
		C3.39,91.064,3.39,109.85,3.388,128.635c0.026,2.639,0.069,5.277,0.076,7.917c0.013,4.99,0.015,9.98-0.012,14.972
		c-0.003,0.638,0.297,1.5-0.812,1.67c-1.081,0.165-1.268-0.665-1.512-1.354c-0.164-0.464-0.188-0.998-0.188-1.499
		c-0.014-7.331,0.012-14.663-0.029-21.992c-0.008-1.155,0.401-2.072,1.03-2.955c0.67-0.948,0.558-1.566-0.725-1.479
		c-1.261,0.087-1.6-0.49-1.534-1.629c0.083-1.532-1.143-2.771-1.048-4.322c-0.352-0.221-0.702-0.465-1.098-0.071
		c-0.036,0.094-0.076,0.188-0.108,0.282c-0.922,2.624-0.922,2.622-3.892,2.622c-0.91,0-1.821-0.009-2.729,0.022
		c-0.53,0.019-1.025,0.034-1.269-0.56c-0.325-0.189-0.337-0.481-0.24-0.794c0.257-0.832-0.261-1.734-0.775-1.753
		c-0.768-0.031-0.908,0.934-0.87,1.646c0.058,1.082-0.474,1.455-1.468,1.443c-1.525-0.018-3.057-0.061-4.582,0.012
		c-1.236,0.059-1.988-0.207-1.8-1.665c0.087-0.672-0.302-1.312-0.952-1.331c-0.564-0.018-0.86,0.608-0.939,1.201
		c-0.234,1.707-0.969,2.346-2.53,1.684c-0.713-0.302-2.284-0.61-1.711-2.22c0.097-0.269,0.064-0.634-0.296-0.772
		c-0.338-0.134-0.562,0.123-0.807,0.3c-0.574,0.413-0.449,1.217-0.977,1.737c-1.074-0.985-1.469-2.261-1.818-3.601
		c-0.275-1.054,0.441-1.418,1.026-1.955c0.138-0.126,0.193-0.589,0.081-0.708c-0.782-0.853-0.725-2.144-1.53-3.059
		c-0.161,0.213-0.234,0.339-0.337,0.439c-0.341,0.333,0,1.289-0.948,1.063c-0.857-0.207-0.857-0.843-0.768-1.55
		c0.075-0.589,0.278-1.258-0.358-1.678c-0.615-0.405-0.626-0.981-0.604-1.608c0.053-1.521-0.381-3.159,1.521-4.069
		c0.65-0.312,0.408-1.22,0.152-1.812c-0.145-0.332-0.643-0.093-0.774,0.109c-1.137,1.737-2.135,1.03-3.146-0.117
		c-0.121-0.136-0.32-0.267-0.552-0.077c-0.477,0.929-0.364,1.661,0.586,2.314c1.078,0.738,1.489,4.132,0.581,5.066
		c-0.495,0.514-0.59,0.991-0.575,1.62c0.014,0.662,0.392,1.538-0.626,1.78c-1.06,0.251-0.649-0.956-1.145-1.293
		c-0.07-0.049-0.149-0.088-0.248-0.144c-0.756,0.843-0.713,2.085-1.489,2.926c-0.233,0.255-0.142,0.761,0.194,0.952
		c1.603,0.914,0.883,2.133,0.456,3.292c-0.263,0.709-0.49,1.667-1.219,1.834c-0.628,0.145-0.571-0.921-0.997-1.323
		c-0.253-0.241-0.46-0.581-0.881-0.438c-0.272,0.09-0.454,0.43-0.343,0.606c0.955,1.542-0.782,1.777-1.324,2.284
		c-1.062,0.99-2.841,0.024-2.969-1.435c-0.053-0.645-0.306-1.432-0.859-1.414c-0.661,0.024-1.006,0.812-0.898,1.518
		c0.177,1.179-0.396,1.54-1.44,1.531c-1.631-0.011-3.263-0.033-4.89,0.011c-1.012,0.025-1.575-0.302-1.446-1.398
		c0.096-0.814-0.251-1.605-0.994-1.607c-0.639-0.004-0.929,0.819-0.865,1.545c0.097,1.14-0.45,1.516-1.552,1.468
		c-1.576-0.067-3.157-0.034-4.735-0.011c-1.05,0.015-1.679-0.336-1.536-1.513c0.09-0.733-0.246-1.27-1.001-1.815
		c-0.683,1.546-1.339,3.064-1.442,4.695c-0.076,1.173-0.109,2.019-1.624,1.745c-0.361-0.065-0.864-0.175-1.109,0.263
		c-0.278,0.499,0.131,0.867,0.387,1.226c0.563,0.792,1.035,1.553,1.03,2.623c-0.044,7.485-0.031,14.972-0.012,22.458
		c0.001,0.735,0.002,1.554-0.465,2.032c-1.272,1.299-0.857,2.858-0.89,4.35c-0.04,1.83,0.084,3.673-0.039,5.498
		c-0.098,1.491,0.433,1.865,1.883,1.86c13.44-0.053,26.88-0.032,40.321-0.03c35.697,0.005,71.398,0.016,107.099,0.015
		c71.705-0.001,143.411-0.009,215.117-0.015c0.355,0,0.714-0.024,1.069,0.001c0.758,0.054,1.109-0.229,1.101-1.045
		C295.719,160.15,295.742,157.147,295.733,154.142z M192.115,80.204c-0.547,2.684-1.073,5.37-1.561,8.062
		c-0.132,0.734-0.546,0.87-1.174,0.869c-5.029-0.01-10.058-0.009-15.087-0.006c-0.562,0.002-0.941-0.107-1.062-0.786
		c-0.49-2.744-1.021-5.48-1.567-8.212c-0.211-1.054,0.101-1.435,1.23-1.41c3.045,0.072,6.094,0.024,9.14,0.024
		c2.946-0.001,5.896,0.068,8.84-0.033C192.141,78.67,192.333,79.133,192.115,80.204z"/>
</g>
</svg>
