<?xml version="1.0" encoding="utf-8"?>
<!-- Generator: Adobe Illustrator 16.0.0, SVG Export Plug-In . SVG Version: 6.00 Build 0)  -->
<!DOCTYPE svg PUBLIC "-//W3C//DTD SVG 1.1//EN" "http://www.w3.org/Graphics/SVG/1.1/DTD/svg11.dtd">
<svg version="1.1" id="Capa_1" xmlns="http://www.w3.org/2000/svg" xmlns:xlink="http://www.w3.org/1999/xlink" x="0px" y="0px"
	 width="109.967px" height="123.279px" viewBox="0 0 109.967 123.279" style="enable-background:new 0 0 109.967 123.279;"
	 xml:space="preserve">
<style type="text/css">
<![CDATA[
	.st0{opacity:0.05;fill:#5D5D5D;}
	.st1{fill:none;stroke:#5D5D5D;stroke-width:0.5;stroke-miterlimit:10;}
	.st2{fill:none;stroke:#020202;stroke-width:1.9835;stroke-miterlimit:10;}
	.st3{fill:#878686;}
	.st4{fill:#ECB43C;}
	.st5{fill:none;stroke:#ECB43C;stroke-width:2;stroke-miterlimit:10;}
	.st6{fill:none;stroke:#FFFFFF;stroke-width:1.9835;stroke-miterlimit:10;}
	.st7{fill-rule:evenodd;clip-rule:evenodd;fill:#887AA8;}
	.st8{fill:#5D5D5D;}
	.st9{fill-rule:evenodd;clip-rule:evenodd;fill:#89898A;}
	.st10{fill-rule:evenodd;clip-rule:evenodd;fill:#ECB43C;}
	.st11{opacity:0;clip-path:url(#SVGID_8_);fill-rule:evenodd;clip-rule:evenodd;fill:#FFFFFF;}
	.st12{clip-path:url(#SVGID_8_);fill:#780068;}
	.st13{fill:#FFB62A;}
	.st14{fill:#FFFFFF;}
	.st15{clip-path:url(#SVGID_2_);fill:#5D5D5D;}
	.st16{fill:#CBD64E;}
	.st17{fill-rule:evenodd;clip-rule:evenodd;fill:#5D5D5D;}
	.st18{fill:none;stroke:#5D5D5D;stroke-miterlimit:10;}
	.st19{opacity:0.1;fill:#5D5D5D;}
	.st20{fill-rule:evenodd;clip-rule:evenodd;fill:#FA494D;}
	.st21{clip-path:url(#SVGID_2_);fill:#FFFFFF;}
	.st22{clip-path:url(#SVGID_4_);fill:#5D5D5D;}
	.st23{fill:#009999;}
	.st24{fill:#020202;}
	.st25{fill:#023366;}
	.st26{fill-rule:evenodd;clip-rule:evenodd;fill:#FF8F48;}
	.st27{fill-rule:evenodd;clip-rule:evenodd;fill:#FFB62A;}
	.st28{fill-rule:evenodd;clip-rule:evenodd;fill:#FFFFFF;}
	.st29{fill-rule:evenodd;clip-rule:evenodd;fill:none;stroke:#89898A;stroke-miterlimit:10;}
	.st30{clip-path:url(#SVGID_6_);fill:#5D5D5D;}
	.st31{fill-rule:evenodd;clip-rule:evenodd;fill:none;stroke:#5D5D5D;stroke-miterlimit:10;}
	.st32{fill-rule:evenodd;clip-rule:evenodd;fill:#000033;}
	.st33{fill-rule:evenodd;clip-rule:evenodd;fill:#003366;}
	.st34{fill-rule:evenodd;clip-rule:evenodd;fill:#009999;}
	.st35{fill-rule:evenodd;clip-rule:evenodd;fill:#00A89D;}
	.st36{fill-rule:evenodd;clip-rule:evenodd;fill:#00AA49;}
	.st37{fill-rule:evenodd;clip-rule:evenodd;fill:#00ABE1;}
	.st38{fill-rule:evenodd;clip-rule:evenodd;fill:#023366;}
]]>
</style>
<g>
	<g>
		<circle class="st23" cx="54.983" cy="54.983" r="54.974"/>
		<circle class="st14" cx="54.984" cy="54.983" r="45.149"/>
	</g>
	<path class="st23" d="M77.562,122.983l-9.879-9.696c2.127-0.321,4.256-0.777,6.375-1.365c3.072-0.855,6.02-1.958,8.799-3.283
		l-3.588,13.87C79.075,123.278,78.136,123.54,77.562,122.983z"/>
</g>
<g>
	<path class="st27" d="M55.581,56.361c4.39,1.769,5.363,3.412,4.562,7.814c1.061,0.599,2.15,1.215,3.484,1.969
		c-0.283-1.1-0.561-1.941-0.688-2.805c-0.046-0.319,0.261-0.69,0.407-1.038c0.317,0.21,0.825,0.362,0.916,0.641
		c0.464,1.437,0.868,2.897,1.177,4.371c0.063,0.3-0.292,0.919-0.583,1.008c-1.478,0.462-2.991,0.835-4.514,1.146
		c-0.315,0.063-0.719-0.264-1.081-0.411c0.264-0.316,0.464-0.79,0.805-0.919c0.805-0.306,1.677-0.448,2.818-0.73
		c-1.326-0.767-2.422-1.398-3.507-2.027c-2.951,2.897-6.686,2.704-9.371-0.165c-0.522,0.305-1.064,0.62-1.604,0.938
		c-0.539,0.314-1.075,0.632-1.857,1.091c1.122,0.273,2.01,0.419,2.834,0.725c0.341,0.128,0.548,0.596,0.815,0.909
		c-0.363,0.143-0.759,0.457-1.082,0.397c-1.528-0.281-3.051-0.619-4.542-1.051c-0.285-0.083-0.635-0.714-0.575-1.024
		c0.282-1.479,0.662-2.944,1.089-4.395c0.081-0.275,0.537-0.447,0.82-0.667c0.186,0.327,0.556,0.674,0.522,0.979
		c-0.099,0.867-0.361,1.716-0.634,2.896c1.24-0.73,2.223-1.284,3.17-1.892c0.171-0.11,0.293-0.443,0.271-0.657
		c-0.418-4.032,0.624-5.646,4.546-6.98c0.07-0.023,0.127-0.088,0.229-0.159c0-1.166,0-2.355,0-3.849
		c-0.77,0.718-1.328,1.338-1.993,1.819c-0.336,0.245-0.865,0.243-1.307,0.352c0.105-0.459,0.066-1.039,0.348-1.352
		c0.891-0.99,1.919-1.862,2.86-2.814c0.545-0.551,1.014-0.655,1.605-0.055c0.992,1.009,2.063,1.95,3.023,2.987
		c0.247,0.266,0.203,0.788,0.293,1.189c-0.445-0.08-0.996-0.03-1.313-0.27c-0.646-0.485-1.169-1.129-1.941-1.91
		C55.583,53.945,55.583,55.152,55.581,56.361z"/>
	<path class="st13" d="M67.154,43.148H42.282c-3.31,0-6.003,2.603-6.003,5.8v24.657c0,3.197,2.693,5.8,6.003,5.8h24.872
		c3.31,0,6.003-2.603,6.003-5.8V48.948C73.157,45.751,70.464,43.148,67.154,43.148z M71.442,73.605c0,2.284-1.924,4.143-4.288,4.143
		H42.282c-2.364,0-4.288-1.858-4.288-4.143V48.948c0-2.283,1.924-4.144,4.288-4.144h24.872c2.364,0,4.288,1.86,4.288,4.144V73.605z"
		/>
	<g>
		<path class="st27" d="M37.072,78.271c-0.277,1.815-0.553,3.626-0.836,5.438c-0.087,0.582-0.205,1.162-0.285,1.746
			c-0.043,0.318-0.155,0.471-0.528,0.469c-2.231-0.013-4.466-0.01-6.699-0.003c-0.293,0-0.48-0.01-0.399-0.402
			c0.501-2.442,1.259-4.76,3.316-6.44c1.129-0.923,2.37-1.69,3.725-2.284c0.452-0.199,0.735-0.13,1.087,0.235
			c0.844,0.872,0.584,0.841,1.368,0.034c0.453-0.466,0.804-0.408,1.279-0.199c3.878,1.697,6.256,4.506,6.857,8.639
			c0.051,0.367-0.071,0.42-0.395,0.42c-2.23-0.01-4.463-0.014-6.695,0.003c-0.447,0.006-0.482-0.238-0.534-0.547
			c-0.36-2.287-0.734-4.57-1.104-6.857c-0.011-0.083-0.035-0.163-0.057-0.243C37.14,78.275,37.104,78.273,37.072,78.271z"/>
		<path class="st27" d="M37.169,76.32c-2.591,0.006-4.698-2.009-4.719-4.517c-0.021-2.479,2.104-4.603,4.68-4.558
			c2.896,0.051,4.688,2.174,4.729,4.522C41.903,74.248,39.753,76.31,37.169,76.32z"/>
	</g>
	<g>
		<path class="st27" d="M72.235,78.271c-0.277,1.815-0.553,3.626-0.836,5.438c-0.087,0.582-0.205,1.162-0.285,1.746
			c-0.044,0.318-0.154,0.471-0.528,0.469c-2.231-0.013-4.467-0.01-6.699-0.003c-0.294,0-0.48-0.01-0.399-0.402
			c0.502-2.442,1.26-4.76,3.315-6.44c1.129-0.923,2.371-1.69,3.727-2.284c0.452-0.199,0.733-0.13,1.086,0.235
			c0.845,0.872,0.585,0.841,1.369,0.034c0.452-0.466,0.804-0.408,1.277-0.199c3.88,1.697,6.257,4.506,6.859,8.639
			c0.051,0.367-0.072,0.42-0.396,0.42c-2.23-0.01-4.462-0.014-6.693,0.003c-0.447,0.006-0.484-0.238-0.535-0.547
			c-0.359-2.287-0.733-4.57-1.104-6.857c-0.012-0.083-0.035-0.163-0.056-0.243C72.302,78.275,72.269,78.273,72.235,78.271z"/>
		<path class="st27" d="M72.333,76.32c-2.592,0.006-4.699-2.009-4.719-4.517c-0.021-2.479,2.102-4.603,4.678-4.558
			c2.897,0.051,4.688,2.174,4.729,4.522C77.067,74.248,74.916,76.31,72.333,76.32z"/>
	</g>
	<g>
		<path class="st27" d="M54.653,34.766c-0.277,1.815-0.552,3.625-0.835,5.438c-0.088,0.582-0.205,1.161-0.285,1.747
			c-0.043,0.318-0.156,0.471-0.528,0.469c-2.232-0.014-4.467-0.01-6.7-0.004c-0.293,0-0.48-0.01-0.399-0.402
			c0.501-2.443,1.26-4.759,3.316-6.439c1.13-0.923,2.37-1.691,3.727-2.286c0.451-0.199,0.733-0.129,1.086,0.235
			c0.845,0.875,0.585,0.842,1.368,0.035c0.452-0.466,0.804-0.408,1.277-0.2c3.879,1.698,6.258,4.506,6.859,8.639
			c0.052,0.367-0.072,0.421-0.396,0.421c-2.229-0.009-4.464-0.014-6.694,0.004c-0.447,0.006-0.483-0.239-0.534-0.547
			c-0.36-2.287-0.733-4.571-1.104-6.859c-0.013-0.083-0.037-0.161-0.057-0.243C54.721,34.77,54.687,34.768,54.653,34.766z"/>
		<path class="st27" d="M54.751,32.813c-2.592,0.008-4.698-2.008-4.72-4.513c-0.02-2.48,2.104-4.603,4.68-4.559
			c2.897,0.051,4.688,2.173,4.729,4.521C59.485,30.742,57.334,32.806,54.751,32.813z"/>
	</g>
</g>
</svg>
