<?xml version="1.0" encoding="utf-8"?>
<!-- Generator: Adobe Illustrator 16.0.0, SVG Export Plug-In . SVG Version: 6.00 Build 0)  -->
<!DOCTYPE svg PUBLIC "-//W3C//DTD SVG 1.1//EN" "http://www.w3.org/Graphics/SVG/1.1/DTD/svg11.dtd">
<svg version="1.1" id="Capa_1" xmlns="http://www.w3.org/2000/svg" xmlns:xlink="http://www.w3.org/1999/xlink" x="0px" y="0px"
	 width="109.967px" height="123.279px" viewBox="0 0 109.967 123.279" style="enable-background:new 0 0 109.967 123.279;"
	 xml:space="preserve">
<style type="text/css">
<![CDATA[
	.st0{opacity:0.05;fill:#5D5D5D;}
	.st1{fill:none;stroke:#5D5D5D;stroke-width:0.5;stroke-miterlimit:10;}
	.st2{fill:none;stroke:#020202;stroke-width:1.9835;stroke-miterlimit:10;}
	.st3{fill:#878686;}
	.st4{fill:#ECB43C;}
	.st5{fill:none;stroke:#ECB43C;stroke-width:2;stroke-miterlimit:10;}
	.st6{fill:none;stroke:#FFFFFF;stroke-width:1.9835;stroke-miterlimit:10;}
	.st7{fill-rule:evenodd;clip-rule:evenodd;fill:#887AA8;}
	.st8{fill:#5D5D5D;}
	.st9{fill-rule:evenodd;clip-rule:evenodd;fill:#89898A;}
	.st10{fill-rule:evenodd;clip-rule:evenodd;fill:#ECB43C;}
	.st11{opacity:0;clip-path:url(#SVGID_8_);fill-rule:evenodd;clip-rule:evenodd;fill:#FFFFFF;}
	.st12{clip-path:url(#SVGID_8_);fill:#780068;}
	.st13{fill:#FFB62A;}
	.st14{fill:#FFFFFF;}
	.st15{clip-path:url(#SVGID_2_);fill:#5D5D5D;}
	.st16{fill:#CBD64E;}
	.st17{fill-rule:evenodd;clip-rule:evenodd;fill:#5D5D5D;}
	.st18{fill:none;stroke:#5D5D5D;stroke-miterlimit:10;}
	.st19{opacity:0.1;fill:#5D5D5D;}
	.st20{fill-rule:evenodd;clip-rule:evenodd;fill:#FA494D;}
	.st21{clip-path:url(#SVGID_2_);fill:#FFFFFF;}
	.st22{clip-path:url(#SVGID_4_);fill:#5D5D5D;}
	.st23{fill:#009999;}
	.st24{fill:#020202;}
	.st25{fill:#023366;}
	.st26{fill-rule:evenodd;clip-rule:evenodd;fill:#FF8F48;}
	.st27{fill-rule:evenodd;clip-rule:evenodd;fill:#FFB62A;}
	.st28{fill-rule:evenodd;clip-rule:evenodd;fill:#FFFFFF;}
	.st29{fill-rule:evenodd;clip-rule:evenodd;fill:none;stroke:#89898A;stroke-miterlimit:10;}
	.st30{clip-path:url(#SVGID_6_);fill:#5D5D5D;}
	.st31{fill-rule:evenodd;clip-rule:evenodd;fill:none;stroke:#5D5D5D;stroke-miterlimit:10;}
	.st32{fill-rule:evenodd;clip-rule:evenodd;fill:#000033;}
	.st33{fill-rule:evenodd;clip-rule:evenodd;fill:#003366;}
	.st34{fill-rule:evenodd;clip-rule:evenodd;fill:#009999;}
	.st35{fill-rule:evenodd;clip-rule:evenodd;fill:#00A89D;}
	.st36{fill-rule:evenodd;clip-rule:evenodd;fill:#00AA49;}
	.st37{fill-rule:evenodd;clip-rule:evenodd;fill:#00ABE1;}
	.st38{fill-rule:evenodd;clip-rule:evenodd;fill:#023366;}
]]>
</style>
<g>
	<g>
		<circle class="st13" cx="54.984" cy="68.297" r="54.975"/>
		<circle class="st14" cx="54.983" cy="68.297" r="45.149"/>
	</g>
	<path class="st13" d="M32.405,0.297l9.88,9.696c-2.127,0.321-4.256,0.777-6.375,1.365c-3.072,0.855-6.02,1.958-8.799,3.283
		l3.588-13.87C30.892,0.002,31.831-0.26,32.405,0.297z"/>
</g>
<g id="GCGHM3_1_">
	<g>
		<path class="st34" d="M55.981,93.843c-7.154,0-14.309,0-21.463-0.001c-1.776,0-3.238-0.655-4.303-2.104
			c-0.699-0.953-0.957-2.042-0.957-3.212c0.003-10.819,0.002-21.639,0.002-32.458c0-2.38-0.006-4.76,0.003-7.14
			c0.006-1.743,0.669-3.176,2.083-4.226c0.898-0.665,1.926-0.965,3.032-0.965c11.622-0.005,23.245-0.003,34.868-0.003
			c1,0,1.849,0.367,2.551,1.071c3.285,3.28,6.568,6.563,9.85,9.849c0.727,0.729,1.063,1.609,1.062,2.643
			c-0.006,10.44-0.002,20.88-0.004,31.32c-0.001,2.523-1.426,4.397-3.871,5.078c-0.476,0.133-0.978,0.148-1.477,0.148
			C70.233,93.842,63.107,93.843,55.981,93.843z M55.939,90.506c7.169,0,14.338,0.001,21.507,0c1.251,0,1.923-0.668,1.923-1.915
			c0.001-9.797-0.001-19.594,0.008-29.391c0.001-0.33-0.065-0.438-0.419-0.435c-2.016,0.019-4.03,0.016-6.046,0.006
			c-1.195-0.006-2.308-0.301-3.267-1.051c-1.348-1.054-1.964-2.464-1.973-4.149c-0.011-1.986-0.016-3.973,0.008-5.957
			c0.005-0.421-0.068-0.557-0.533-0.557C56.3,47.074,45.451,47.07,34.603,47.07c-1.367,0-2.005,0.64-2.005,2.01
			c0,13.14,0,26.281,0,39.423c0,1.367,0.638,2.003,2.009,2.003C41.718,90.507,48.828,90.506,55.939,90.506z M69.345,47.161
			c0,0.156,0,0.298,0,0.439c0,1.956-0.001,3.913,0,5.869c0.002,2.236,1.396,3.629,3.637,3.632c1.956,0.003,3.913,0.002,5.869-0.002
			c0.138-0.001,0.287,0.047,0.406-0.032C75.966,53.778,72.678,50.492,69.345,47.161z"/>
		<path class="st34" d="M43.45,65.452c-1.868,0-3.736,0.001-5.604-0.001c-1.241-0.001-1.91-0.677-1.91-1.929
			c-0.002-3.167-0.002-6.334,0-9.503c0-1.27,0.671-1.938,1.946-1.939c3.723-0.001,7.445-0.002,11.166,0.001
			c1.252,0,1.93,0.672,1.932,1.91c0,3.183,0,6.364,0,9.547c-0.002,1.243-0.675,1.912-1.924,1.913
			C47.188,65.453,45.319,65.452,43.45,65.452z M43.498,55.428c-1.255,0-2.511,0.013-3.765-0.008
			c-0.348-0.006-0.472,0.066-0.468,0.445c0.021,1.94,0.02,3.882,0,5.823c-0.003,0.347,0.086,0.437,0.432,0.435
			c2.511-0.015,5.021-0.014,7.53-0.001c0.31,0.001,0.426-0.051,0.422-0.398c-0.019-1.971-0.016-3.941-0.002-5.91
			c0.002-0.303-0.074-0.396-0.384-0.393C46.009,55.438,44.753,55.428,43.498,55.428z"/>
		<path class="st34" d="M55.957,80.475c-6.247,0-12.494,0-18.739,0c-0.161,0-0.322,0.007-0.482-0.01
			c-0.447-0.045-0.774-0.379-0.792-0.794c-0.018-0.397,0.303-0.771,0.738-0.846c0.143-0.024,0.291-0.022,0.436-0.022
			c12.581-0.001,25.162-0.001,37.743-0.001c0.043,0,0.087,0,0.131,0c0.629,0.012,1.029,0.335,1.033,0.836
			c0.006,0.505-0.389,0.835-1.021,0.836c-2.612,0.003-5.225,0.001-7.838,0.001C63.43,80.475,59.693,80.475,55.957,80.475z"/>
		<path class="st34" d="M55.993,85.497c-6.276,0-12.553,0-18.828-0.002c-0.202-0.001-0.414-0.002-0.605-0.055
			c-0.398-0.11-0.603-0.405-0.612-0.81c-0.008-0.373,0.309-0.718,0.698-0.783c0.157-0.026,0.319-0.022,0.48-0.022
			c12.565-0.001,25.132-0.001,37.697-0.001c0.797,0,1.205,0.283,1.201,0.834c-0.003,0.547-0.421,0.838-1.205,0.839
			C68.544,85.497,62.269,85.497,55.993,85.497z"/>
		<path class="st34" d="M55.965,75.462c-6.276,0-12.553,0-18.829,0c-0.789,0-1.201-0.289-1.194-0.838
			c0.007-0.543,0.426-0.83,1.212-0.83c12.552,0,25.104,0,37.656,0c0.188,0,0.383-0.001,0.563,0.041
			c0.39,0.09,0.669,0.463,0.651,0.828c-0.02,0.396-0.334,0.734-0.751,0.787c-0.159,0.02-0.32,0.012-0.48,0.012
			C68.517,75.462,62.24,75.462,55.965,75.462z"/>
		<path class="st34" d="M55.965,70.458c-6.276,0-12.553,0-18.829-0.001c-0.781,0-1.201-0.297-1.194-0.842
			c0.007-0.544,0.42-0.826,1.212-0.826c12.552,0,25.104,0,37.656,0c0.795,0,1.205,0.277,1.217,0.82
			c0.011,0.556-0.414,0.849-1.233,0.849C68.517,70.458,62.24,70.458,55.965,70.458z"/>
		<path class="st34" d="M65.201,63.784c3.21,0,6.421,0,9.632,0c0.145,0,0.292-0.008,0.437,0.01c0.417,0.053,0.733,0.389,0.755,0.785
			c0.02,0.382-0.281,0.761-0.688,0.845c-0.142,0.029-0.289,0.027-0.436,0.027c-6.494,0.001-12.987,0.001-19.482,0
			c-0.131,0-0.264,0.003-0.392-0.021c-0.415-0.076-0.71-0.428-0.706-0.826c0.006-0.423,0.321-0.763,0.767-0.812
			c0.145-0.016,0.292-0.009,0.438-0.009C58.75,63.784,61.976,63.784,65.201,63.784z"/>
		<path class="st34" d="M59.313,55.428c-1.283,0-2.566,0.001-3.85-0.002c-0.174,0-0.355,0.002-0.521-0.043
			c-0.396-0.11-0.618-0.389-0.616-0.8c0.001-0.392,0.218-0.661,0.592-0.775c0.163-0.049,0.346-0.053,0.519-0.053
			c2.597-0.003,5.192-0.003,7.788-0.002c0.117,0,0.235-0.001,0.35,0.019c0.451,0.072,0.752,0.409,0.748,0.829
			c-0.004,0.424-0.309,0.752-0.766,0.812c-0.129,0.018-0.262,0.014-0.393,0.014C61.881,55.428,60.598,55.428,59.313,55.428z"/>
		<path class="st34" d="M59.31,58.775c1.372,0,2.743-0.007,4.114,0.003c0.538,0.004,0.894,0.342,0.899,0.813
			c0.006,0.466-0.348,0.812-0.875,0.851c-0.116,0.009-0.232,0.003-0.35,0.003c-2.144,0-4.287,0-6.433,0
			c-0.495,0-0.992,0.011-1.487-0.007c-0.359-0.013-0.643-0.179-0.791-0.525c-0.126-0.298-0.074-0.574,0.12-0.822
			c0.207-0.268,0.501-0.318,0.821-0.317C56.655,58.777,57.983,58.775,59.31,58.775z"/>
	</g>
</g>
</svg>
