<?xml version="1.0" encoding="utf-8"?>
<!-- Generator: Adobe Illustrator 16.0.0, SVG Export Plug-In . SVG Version: 6.00 Build 0)  -->
<!DOCTYPE svg PUBLIC "-//W3C//DTD SVG 1.1//EN" "http://www.w3.org/Graphics/SVG/1.1/DTD/svg11.dtd">
<svg version="1.1" id="Capa_1" xmlns="http://www.w3.org/2000/svg" xmlns:xlink="http://www.w3.org/1999/xlink" x="0px" y="0px"
	 width="109.967px" height="123.279px" viewBox="0 0 109.967 123.279" style="enable-background:new 0 0 109.967 123.279;"
	 xml:space="preserve">
<style type="text/css">
<![CDATA[
	.st0{opacity:0.05;fill:#5D5D5D;}
	.st1{fill:none;stroke:#5D5D5D;stroke-width:0.5;stroke-miterlimit:10;}
	.st2{fill:none;stroke:#020202;stroke-width:1.9835;stroke-miterlimit:10;}
	.st3{fill:#878686;}
	.st4{fill:#ECB43C;}
	.st5{fill:none;stroke:#ECB43C;stroke-width:2;stroke-miterlimit:10;}
	.st6{fill:none;stroke:#FFFFFF;stroke-width:1.9835;stroke-miterlimit:10;}
	.st7{fill-rule:evenodd;clip-rule:evenodd;fill:#887AA8;}
	.st8{fill:#5D5D5D;}
	.st9{fill-rule:evenodd;clip-rule:evenodd;fill:#89898A;}
	.st10{fill-rule:evenodd;clip-rule:evenodd;fill:#ECB43C;}
	.st11{opacity:0;clip-path:url(#SVGID_8_);fill-rule:evenodd;clip-rule:evenodd;fill:#FFFFFF;}
	.st12{clip-path:url(#SVGID_8_);fill:#780068;}
	.st13{fill:#FFB62A;}
	.st14{fill:#FFFFFF;}
	.st15{clip-path:url(#SVGID_2_);fill:#5D5D5D;}
	.st16{fill:#CBD64E;}
	.st17{fill-rule:evenodd;clip-rule:evenodd;fill:#5D5D5D;}
	.st18{fill:none;stroke:#5D5D5D;stroke-miterlimit:10;}
	.st19{opacity:0.1;fill:#5D5D5D;}
	.st20{fill-rule:evenodd;clip-rule:evenodd;fill:#FA494D;}
	.st21{clip-path:url(#SVGID_2_);fill:#FFFFFF;}
	.st22{clip-path:url(#SVGID_4_);fill:#5D5D5D;}
	.st23{fill:#009999;}
	.st24{fill:#020202;}
	.st25{fill:#023366;}
	.st26{fill-rule:evenodd;clip-rule:evenodd;fill:#FF8F48;}
	.st27{fill-rule:evenodd;clip-rule:evenodd;fill:#FFB62A;}
	.st28{fill-rule:evenodd;clip-rule:evenodd;fill:#FFFFFF;}
	.st29{fill-rule:evenodd;clip-rule:evenodd;fill:none;stroke:#89898A;stroke-miterlimit:10;}
	.st30{clip-path:url(#SVGID_6_);fill:#5D5D5D;}
	.st31{fill-rule:evenodd;clip-rule:evenodd;fill:none;stroke:#5D5D5D;stroke-miterlimit:10;}
	.st32{fill-rule:evenodd;clip-rule:evenodd;fill:#000033;}
	.st33{fill-rule:evenodd;clip-rule:evenodd;fill:#003366;}
	.st34{fill-rule:evenodd;clip-rule:evenodd;fill:#009999;}
	.st35{fill-rule:evenodd;clip-rule:evenodd;fill:#00A89D;}
	.st36{fill-rule:evenodd;clip-rule:evenodd;fill:#00AA49;}
	.st37{fill-rule:evenodd;clip-rule:evenodd;fill:#00ABE1;}
	.st38{fill-rule:evenodd;clip-rule:evenodd;fill:#023366;}
]]>
</style>
<g>
	<g>
		<circle class="st13" cx="54.984" cy="68.297" r="54.975"/>
		<circle class="st14" cx="54.983" cy="68.297" r="45.149"/>
	</g>
	<path class="st13" d="M32.405,0.297l9.88,9.696c-2.127,0.321-4.256,0.777-6.375,1.365c-3.072,0.855-6.02,1.958-8.799,3.283
		l3.588-13.87C30.892,0.002,31.831-0.26,32.405,0.297z"/>
</g>
<g>
	<g>
		<g>
			<path class="st23" d="M40.396,70.332c-1.385,0-2.513,1.127-2.513,2.512c0,1.387,1.128,2.515,2.513,2.515
				c1.386,0,2.515-1.128,2.515-2.515C42.911,71.459,41.782,70.332,40.396,70.332z M40.396,73.701c-0.472,0-0.854-0.386-0.854-0.857
				s0.383-0.854,0.854-0.854s0.856,0.383,0.856,0.854S40.868,73.701,40.396,73.701z"/>
		</g>
	</g>
	<g>
		<g>
			<path class="st23" d="M63.134,86.313c-0.109-0.343-0.427-0.573-0.786-0.573h-4.924l-1.521-4.682
				c-0.11-0.338-0.434-0.574-0.789-0.574c-0.354,0-0.678,0.236-0.788,0.574l-1.521,4.682h-4.923c-0.359,0-0.678,0.23-0.787,0.572
				c-0.112,0.342,0.009,0.717,0.301,0.928l3.982,2.895l-1.521,4.683c-0.106,0.326,0.006,0.694,0.275,0.906
				c0.288,0.229,0.703,0.235,1,0.021l3.982-2.895l3.982,2.895c0.312,0.226,0.749,0.203,1.037-0.052
				c0.244-0.217,0.339-0.565,0.239-0.875l-1.522-4.683l3.983-2.895C63.123,87.03,63.246,86.654,63.134,86.313z"/>
		</g>
	</g>
	<g>
		<g>
			<path class="st23" d="M83.308,86.312c-0.111-0.342-0.43-0.572-0.788-0.572h-4.923l-1.521-4.682
				c-0.111-0.338-0.435-0.574-0.789-0.574c-0.355,0-0.679,0.236-0.788,0.574l-1.521,4.682h-4.923c-0.36,0-0.678,0.23-0.788,0.572
				c-0.111,0.342,0.012,0.717,0.3,0.928l3.983,2.895l-1.521,4.683c-0.105,0.326,0.007,0.694,0.275,0.906
				c0.288,0.229,0.703,0.235,1,0.021l3.983-2.895l3.982,2.895c0.312,0.226,0.75,0.203,1.037-0.052
				c0.245-0.217,0.34-0.565,0.238-0.875l-1.521-4.683l3.982-2.895C83.298,87.029,83.419,86.654,83.308,86.312z"/>
		</g>
	</g>
	<g>
		<g>
			<path class="st23" d="M42.963,86.313c-0.111-0.343-0.43-0.573-0.787-0.573h-4.924l-1.521-4.682
				c-0.112-0.342-0.43-0.574-0.788-0.574s-0.678,0.232-0.79,0.574l-1.521,4.682H27.71c-0.358,0-0.677,0.23-0.789,0.572
				c-0.109,0.342,0.012,0.717,0.303,0.928l3.982,2.895l-1.521,4.683c-0.111,0.341,0.009,0.716,0.3,0.927s0.684,0.211,0.974,0
				l3.984-2.895l3.981,2.895c0.312,0.226,0.75,0.203,1.037-0.052c0.245-0.217,0.34-0.565,0.239-0.875l-1.521-4.683l3.982-2.895
				C42.952,87.03,43.074,86.654,42.963,86.313z"/>
		</g>
	</g>
	<g>
		<g>
			<path class="st23" d="M76.64,60.482c0.856-0.69,1.404-1.746,1.404-2.927c0-2.07-1.686-3.756-3.755-3.756H60.958
				c0.413-0.903,0.892-2.278,1.166-4.192c0.635-4.446-0.325-6.806-1.242-8.003c-0.776-1.013-1.818-1.626-3.014-1.771
				c-1.011-0.122-1.933,0.678-1.959,1.691c-0.156,1.595-0.723,5.968-1.535,7.594c-2.089,4.179-7.068,6.668-8.607,7.358
				c-0.538-0.463-1.236-0.744-2.002-0.744h-6.736c-1.696,0-3.075,1.38-3.075,3.075v16.845c0,1.694,1.379,3.074,3.075,3.074h6.736
				c0.908,0,1.726-0.395,2.287-1.022c0.875,0.553,2.287,1.168,4.236,1.168h21.658c2.071,0,3.755-1.684,3.755-3.756
				c0-0.948-0.353-1.816-0.936-2.479c1.248-0.612,2.106-1.896,2.106-3.375c0-0.95-0.354-1.818-0.936-2.479
				c1.246-0.611,2.107-1.895,2.107-3.374C78.044,62.228,77.495,61.171,76.64,60.482z M43.765,77.068h-6.736
				c-0.782,0-1.418-0.635-1.418-1.416V58.808c0-0.781,0.636-1.418,1.418-1.418h6.736c0.396,0,0.756,0.164,1.013,0.427v18.481
				c0,0.1,0.016,0.197,0.052,0.289C44.568,76.882,44.189,77.068,43.765,77.068z"/>
		</g>
	</g>
</g>
</svg>
