<?xml version="1.0" encoding="utf-8"?>
<!-- Generator: Adobe Illustrator 16.0.0, SVG Export Plug-In . SVG Version: 6.00 Build 0)  -->
<!DOCTYPE svg PUBLIC "-//W3C//DTD SVG 1.1//EN" "http://www.w3.org/Graphics/SVG/1.1/DTD/svg11.dtd">
<svg version="1.1" id="Capa_1" xmlns="http://www.w3.org/2000/svg" xmlns:xlink="http://www.w3.org/1999/xlink" x="0px" y="0px"
	 width="109.967px" height="123.279px" viewBox="0 0 109.967 123.279" style="enable-background:new 0 0 109.967 123.279;"
	 xml:space="preserve">
<style type="text/css">
<![CDATA[
	.st0{opacity:0.05;fill:#5D5D5D;}
	.st1{fill:none;stroke:#5D5D5D;stroke-width:0.5;stroke-miterlimit:10;}
	.st2{fill:none;stroke:#020202;stroke-width:1.9835;stroke-miterlimit:10;}
	.st3{fill:#878686;}
	.st4{fill:#ECB43C;}
	.st5{fill:none;stroke:#ECB43C;stroke-width:2;stroke-miterlimit:10;}
	.st6{fill:none;stroke:#FFFFFF;stroke-width:1.9835;stroke-miterlimit:10;}
	.st7{fill-rule:evenodd;clip-rule:evenodd;fill:#887AA8;}
	.st8{fill:#5D5D5D;}
	.st9{fill-rule:evenodd;clip-rule:evenodd;fill:#89898A;}
	.st10{fill-rule:evenodd;clip-rule:evenodd;fill:#ECB43C;}
	.st11{opacity:0;clip-path:url(#SVGID_8_);fill-rule:evenodd;clip-rule:evenodd;fill:#FFFFFF;}
	.st12{clip-path:url(#SVGID_8_);fill:#780068;}
	.st13{fill:#FFB62A;}
	.st14{fill:#FFFFFF;}
	.st15{clip-path:url(#SVGID_2_);fill:#5D5D5D;}
	.st16{fill:#CBD64E;}
	.st17{fill-rule:evenodd;clip-rule:evenodd;fill:#5D5D5D;}
	.st18{fill:none;stroke:#5D5D5D;stroke-miterlimit:10;}
	.st19{opacity:0.1;fill:#5D5D5D;}
	.st20{fill-rule:evenodd;clip-rule:evenodd;fill:#FA494D;}
	.st21{clip-path:url(#SVGID_2_);fill:#FFFFFF;}
	.st22{clip-path:url(#SVGID_4_);fill:#5D5D5D;}
	.st23{fill:#009999;}
	.st24{fill:#020202;}
	.st25{fill:#023366;}
	.st26{fill-rule:evenodd;clip-rule:evenodd;fill:#FF8F48;}
	.st27{fill-rule:evenodd;clip-rule:evenodd;fill:#FFB62A;}
	.st28{fill-rule:evenodd;clip-rule:evenodd;fill:#FFFFFF;}
	.st29{fill-rule:evenodd;clip-rule:evenodd;fill:none;stroke:#89898A;stroke-miterlimit:10;}
	.st30{clip-path:url(#SVGID_6_);fill:#5D5D5D;}
	.st31{fill-rule:evenodd;clip-rule:evenodd;fill:none;stroke:#5D5D5D;stroke-miterlimit:10;}
	.st32{fill-rule:evenodd;clip-rule:evenodd;fill:#000033;}
	.st33{fill-rule:evenodd;clip-rule:evenodd;fill:#003366;}
	.st34{fill-rule:evenodd;clip-rule:evenodd;fill:#009999;}
	.st35{fill-rule:evenodd;clip-rule:evenodd;fill:#00A89D;}
	.st36{fill-rule:evenodd;clip-rule:evenodd;fill:#00AA49;}
	.st37{fill-rule:evenodd;clip-rule:evenodd;fill:#00ABE1;}
	.st38{fill-rule:evenodd;clip-rule:evenodd;fill:#023366;}
]]>
</style>
<g>
	<g>
		<circle class="st23" cx="54.984" cy="54.983" r="54.975"/>
		<circle class="st14" cx="54.985" cy="54.983" r="45.149"/>
	</g>
	<path class="st23" d="M77.562,122.983l-9.88-9.696c2.127-0.321,4.256-0.777,6.375-1.365c3.072-0.855,6.02-1.958,8.799-3.283
		l-3.588,13.87C79.076,123.278,78.137,123.54,77.562,122.983z"/>
</g>
<g>
	<g>
		<g>
			<g>
				<path class="st13" d="M72.571,66.096l1.496-1.495l-1.18-1.18l-1.496,1.495l-1.574-1.573c1.266-2.277,1.991-4.892,1.991-7.673
					c0-0.237-0.024-0.47-0.036-0.704c3.92-0.922,6.708-4.392,6.708-8.471h-1.667c0,3.221-2.15,5.976-5.203,6.797
					c-1.153-7.612-7.722-13.47-15.649-13.47c-0.237,0-0.468,0.025-0.703,0.035c-0.922-3.919-4.391-6.708-8.471-6.708v1.669
					c3.221,0,5.976,2.149,6.797,5.202c-7.613,1.153-13.471,7.722-13.471,15.649c0,0.237,0.026,0.469,0.038,0.704
					c-3.921,0.922-6.711,4.391-6.711,8.471h1.669c0-3.222,2.151-5.977,5.203-6.797c1.152,7.612,7.721,13.469,15.648,13.469
					c2.783,0,5.397-0.727,7.673-1.991l1.573,1.574l-1.495,1.497l1.179,1.178l1.495-1.495l7.968,7.966
					c0.825,0.826,1.924,1.28,3.092,1.28c2.411,0,4.372-1.962,4.372-4.372c0-1.168-0.453-2.267-1.279-3.092L72.571,66.096z
					 M55.961,44.826c5.98,0,10.844,4.865,10.844,10.844c0,5.978-4.863,10.843-10.844,10.843c-5.978,0-10.842-4.865-10.842-10.843
					C45.119,49.691,49.983,44.826,55.961,44.826z M65.077,68.61c1.483-1.047,2.778-2.341,3.826-3.824l1.31,1.31l-3.826,3.824
					L65.077,68.61z"/>
				<path class="st13" d="M46.787,54.002v4.17v0.833v0.835h18.349v-0.835v-0.833v-7.507h-5.005v7.507h-1.667V47.329H53.46v10.843
					h-1.669v-4.17H46.787z"/>
			</g>
		</g>
	</g>
	<g>
		<path class="st27" d="M69.916,32.669c-0.188,1.28-0.377,2.558-0.57,3.84c-0.06,0.41-0.141,0.819-0.194,1.233
			c-0.029,0.224-0.105,0.331-0.361,0.331c-1.522-0.011-3.047-0.007-4.571-0.003c-0.199,0-0.328-0.008-0.272-0.284
			c0.343-1.726,0.859-3.36,2.265-4.547c0.77-0.653,1.616-1.195,2.54-1.613c0.31-0.142,0.503-0.092,0.742,0.164
			c0.577,0.618,0.4,0.595,0.934,0.025c0.309-0.329,0.548-0.287,0.872-0.141c2.647,1.198,4.27,3.182,4.682,6.099
			c0.034,0.261-0.05,0.299-0.271,0.299c-1.521-0.008-3.045-0.012-4.568,0.001c-0.304,0.005-0.329-0.168-0.364-0.386
			c-0.245-1.615-0.5-3.228-0.754-4.842c-0.008-0.06-0.024-0.114-0.038-0.173C69.961,32.671,69.938,32.67,69.916,32.669z"/>
		<path class="st27" d="M69.981,31.29c-1.768,0.005-3.206-1.418-3.219-3.188c-0.015-1.753,1.436-3.251,3.192-3.219
			c1.978,0.035,3.198,1.535,3.227,3.192C73.214,29.826,71.745,31.283,69.981,31.29z"/>
	</g>
	<g>
		<path class="st27" d="M48.453,80.229c-0.19,1.28-0.377,2.559-0.57,3.841c-0.06,0.41-0.141,0.819-0.194,1.231
			c-0.03,0.226-0.105,0.333-0.361,0.331c-1.523-0.01-3.048-0.007-4.571-0.002c-0.2,0-0.328-0.008-0.273-0.285
			c0.343-1.724,0.86-3.359,2.264-4.547c0.771-0.652,1.617-1.194,2.542-1.613c0.308-0.141,0.501-0.092,0.741,0.165
			c0.577,0.618,0.399,0.596,0.934,0.025c0.309-0.328,0.549-0.287,0.872-0.141c2.648,1.198,4.27,3.182,4.682,6.1
			c0.035,0.26-0.05,0.297-0.271,0.297c-1.521-0.008-3.045-0.01-4.566,0.003c-0.307,0.005-0.33-0.17-0.365-0.386
			c-0.245-1.615-0.502-3.229-0.754-4.844c-0.009-0.059-0.024-0.114-0.038-0.172C48.498,80.231,48.475,80.231,48.453,80.229z"/>
		<path class="st27" d="M48.519,78.851c-1.768,0.005-3.205-1.419-3.22-3.188c-0.014-1.751,1.436-3.25,3.193-3.218
			c1.977,0.036,3.199,1.535,3.227,3.192C51.749,77.388,50.282,78.845,48.519,78.851z"/>
	</g>
	<g>
		<path class="st27" d="M32.548,40.778c-0.189,1.28-0.377,2.559-0.57,3.841c-0.06,0.41-0.14,0.818-0.194,1.232
			c-0.03,0.224-0.106,0.331-0.361,0.33c-1.523-0.009-3.048-0.006-4.572-0.002c-0.199,0-0.327-0.007-0.271-0.284
			c0.342-1.727,0.858-3.36,2.263-4.547c0.771-0.652,1.617-1.195,2.542-1.614c0.309-0.141,0.502-0.091,0.742,0.166
			c0.576,0.617,0.398,0.594,0.933,0.025c0.31-0.33,0.55-0.288,0.872-0.143c2.647,1.199,4.27,3.183,4.682,6.101
			c0.035,0.259-0.05,0.298-0.271,0.298c-1.521-0.007-3.045-0.011-4.566,0.001c-0.307,0.005-0.331-0.168-0.365-0.386
			c-0.246-1.614-0.501-3.229-0.754-4.842c-0.009-0.06-0.024-0.114-0.039-0.173C32.593,40.78,32.569,40.779,32.548,40.778z"/>
		<path class="st27" d="M32.613,39.399c-1.768,0.005-3.205-1.418-3.219-3.187c-0.015-1.753,1.435-3.251,3.192-3.22
			c1.977,0.035,3.199,1.535,3.228,3.193C35.844,37.937,34.376,39.393,32.613,39.399z"/>
	</g>
</g>
</svg>
