<?xml version="1.0" encoding="utf-8"?>
<!-- Generator: Adobe Illustrator 16.0.0, SVG Export Plug-In . SVG Version: 6.00 Build 0)  -->
<!DOCTYPE svg PUBLIC "-//W3C//DTD SVG 1.1//EN" "http://www.w3.org/Graphics/SVG/1.1/DTD/svg11.dtd">
<svg version="1.1" id="Capa_1" xmlns="http://www.w3.org/2000/svg" xmlns:xlink="http://www.w3.org/1999/xlink" x="0px" y="0px"
	 width="109.967px" height="123.279px" viewBox="0 0 109.967 123.279" style="enable-background:new 0 0 109.967 123.279;"
	 xml:space="preserve">
<style type="text/css">
<![CDATA[
	.st0{opacity:0.05;fill:#5D5D5D;}
	.st1{fill:none;stroke:#5D5D5D;stroke-width:0.5;stroke-miterlimit:10;}
	.st2{fill:none;stroke:#020202;stroke-width:1.9835;stroke-miterlimit:10;}
	.st3{fill:#878686;}
	.st4{fill:#ECB43C;}
	.st5{fill:none;stroke:#ECB43C;stroke-width:2;stroke-miterlimit:10;}
	.st6{fill:none;stroke:#FFFFFF;stroke-width:1.9835;stroke-miterlimit:10;}
	.st7{fill-rule:evenodd;clip-rule:evenodd;fill:#887AA8;}
	.st8{fill:#5D5D5D;}
	.st9{fill-rule:evenodd;clip-rule:evenodd;fill:#89898A;}
	.st10{fill-rule:evenodd;clip-rule:evenodd;fill:#ECB43C;}
	.st11{opacity:0;clip-path:url(#SVGID_8_);fill-rule:evenodd;clip-rule:evenodd;fill:#FFFFFF;}
	.st12{clip-path:url(#SVGID_8_);fill:#780068;}
	.st13{fill:#FFB62A;}
	.st14{fill:#FFFFFF;}
	.st15{clip-path:url(#SVGID_2_);fill:#5D5D5D;}
	.st16{fill:#CBD64E;}
	.st17{fill-rule:evenodd;clip-rule:evenodd;fill:#5D5D5D;}
	.st18{fill:none;stroke:#5D5D5D;stroke-miterlimit:10;}
	.st19{opacity:0.1;fill:#5D5D5D;}
	.st20{fill-rule:evenodd;clip-rule:evenodd;fill:#FA494D;}
	.st21{clip-path:url(#SVGID_2_);fill:#FFFFFF;}
	.st22{clip-path:url(#SVGID_4_);fill:#5D5D5D;}
	.st23{fill:#009999;}
	.st24{fill:#020202;}
	.st25{fill:#023366;}
	.st26{fill-rule:evenodd;clip-rule:evenodd;fill:#FF8F48;}
	.st27{fill-rule:evenodd;clip-rule:evenodd;fill:#FFB62A;}
	.st28{fill-rule:evenodd;clip-rule:evenodd;fill:#FFFFFF;}
	.st29{fill-rule:evenodd;clip-rule:evenodd;fill:none;stroke:#89898A;stroke-miterlimit:10;}
	.st30{clip-path:url(#SVGID_6_);fill:#5D5D5D;}
	.st31{fill-rule:evenodd;clip-rule:evenodd;fill:none;stroke:#5D5D5D;stroke-miterlimit:10;}
	.st32{fill-rule:evenodd;clip-rule:evenodd;fill:#000033;}
	.st33{fill-rule:evenodd;clip-rule:evenodd;fill:#003366;}
	.st34{fill-rule:evenodd;clip-rule:evenodd;fill:#009999;}
	.st35{fill-rule:evenodd;clip-rule:evenodd;fill:#00A89D;}
	.st36{fill-rule:evenodd;clip-rule:evenodd;fill:#00AA49;}
	.st37{fill-rule:evenodd;clip-rule:evenodd;fill:#00ABE1;}
	.st38{fill-rule:evenodd;clip-rule:evenodd;fill:#023366;}
]]>
</style>
<g>
	<g>
		<circle class="st23" cx="54.984" cy="54.983" r="54.975"/>
		<circle class="st14" cx="54.985" cy="54.983" r="45.149"/>
	</g>
	<path class="st23" d="M77.562,122.983l-9.88-9.696c2.127-0.321,4.256-0.777,6.375-1.365c3.072-0.855,6.02-1.958,8.799-3.283
		l-3.588,13.87C79.076,123.278,78.137,123.54,77.562,122.983z"/>
</g>
<g id="EAepLw_1_">
	<g>
		<path class="st13" d="M79.907,83.768c-0.553,0-1.104,0-1.657,0c-0.044-0.58-0.608-0.712-0.933-1.041
			c-2.313-2.354-4.663-4.672-6.984-7.018c-0.402-0.405-0.744-0.474-1.217-0.123c-2.092,1.545-4.496,2.266-7.045,2.465
			c-2.225,0.173-4.351-0.321-6.396-1.226c-2.827-1.25-5.013-3.176-6.48-5.909c-0.254-0.475-0.566-0.768-1.214-0.763
			c-5.029,0.034-10.059,0.021-15.087,0.009c-1.31-0.002-2.034-0.745-2.034-2.045c-0.001-12.655,0.004-25.311-0.006-37.966
			c-0.002-0.89,0.009-1.717,0.945-2.183c0.107-0.053,0.09-0.184-0.003-0.277c8.13,0,16.259,0,24.388,0
			c-0.136,0.562,0.45,0.524,0.679,0.756c2.729,2.789,5.48,5.557,8.27,8.286c0.646,0.635,0.886,1.302,0.876,2.188
			c-0.037,3.758-0.014,7.514-0.028,11.27c-0.001,0.602,0.211,0.939,0.797,1.181c2.559,1.053,4.614,2.782,6.115,5.076
			c1.681,2.565,2.442,5.417,2.264,8.52c-0.15,2.56-0.937,4.879-2.388,6.962c-0.352,0.504-0.333,0.81,0.065,1.204
			c0.903,0.894,1.8,1.791,2.688,2.701c1.636,1.679,3.404,3.229,4.912,5.028c0.738,0.882,0.586,1.764-0.311,2.476
			C79.976,83.455,79.746,83.509,79.907,83.768z M68.842,57.188c-0.054-0.187-0.194-0.284-0.36-0.356
			c-0.007-0.14-0.082-0.196-0.217-0.183c-0.741-0.536-0.512,0.166-0.513,0.433c-0.011,4.75-0.007,9.498-0.007,14.247
			c-0.051,0.081-0.1,0.162-0.147,0.243c-0.376,0.31-0.794,0.424-1.291,0.421c-3.533-0.015-7.065-0.005-10.599,0.003
			c-0.226,0-0.558-0.181-0.643,0.151c-0.068,0.265,0.236,0.431,0.426,0.558c1.627,1.082,3.426,1.67,5.37,1.812
			c0.974,0.07,1.907-0.122,2.854-0.354c1.658-0.407,3.13-1.094,4.332-2.323c0.046-0.017,0.077-0.045,0.097-0.09
			c0.197-0.052,0.328-0.17,0.385-0.367l-0.011,0.011c0.533-0.321,0.831-0.848,1.173-1.336l-0.04-0.032l0.03,0.038
			c0.467-0.497,0.781-1.081,0.985-1.729c0.025-0.113,0.048-0.228,0.073-0.342c0.557-0.854,0.777-1.803,0.796-2.809
			c0.123-0.661,0.123-1.324,0-1.987c-0.041-1.446-0.453-2.773-1.26-3.979c0.031-0.262-0.077-0.429-0.332-0.497
			c-0.043-0.421-0.281-0.718-0.601-0.965l-0.021-0.036c-0.081-0.256-0.286-0.401-0.492-0.545L68.842,57.188z M54.196,56.733
			c-0.211,0.116-0.402,0.25-0.479,0.496c-0.057,0.074-0.115,0.147-0.173,0.221c-0.171,0.011-0.269,0.094-0.269,0.273
			c-0.178,0.165-0.442,0.266-0.436,0.572c-0.184,0.199-0.462,0.412-0.365,0.686c0.114,0.329,0.479,0.176,0.734,0.183
			c0.63,0.02,1.261-0.007,1.89,0.013c1.586,0.049,3.178-0.131,4.756,0.121l-0.001,0.061l0.062-0.003
			c-0.001,0.181,0.098,0.266,0.268,0.281c0.047,0.134,0.093,0.27,0.139,0.404c-0.109,0.222-0.097,0.445-0.018,0.668
			c-0.04,0.082-0.079,0.165-0.118,0.247c-0.268,0.025-0.393,0.193-0.448,0.434c-1.067,0.016-2.135,0.023-3.201,0.051
			c-1.608,0.041-3.223-0.102-4.829,0.071c-0.612-0.028-0.64,0.443-0.646,0.842c-0.021,1.188-0.003,2.377,0.011,3.563
			c0.003,0.396,0.12,0.762,0.418,1.046c-0.054,0.135-0.031,0.26,0.049,0.38c-0.152,0.494,0.313,0.742,0.45,1.123
			c-0.084,0.3,0.102,0.43,0.332,0.533c-0.031,0.765,0.515,0.716,1.019,0.716c3.809,0,7.616-0.016,11.425,0.01
			c0.635,0.005,0.727-0.269,0.724-0.795c-0.017-2.125-0.009-4.251-0.009-6.375c0.001-2.346,0.018-4.691-0.008-7.038
			c-0.005-0.364,0.237-0.948-0.499-0.981c-0.103-0.099-0.221-0.108-0.35-0.066c-0.411-0.215-0.776-0.579-1.309-0.412
			c-0.339-0.105-0.682-0.145-1.029-0.051c-0.693-0.308-1.386-0.354-2.08-0.004c-0.351-0.065-0.695-0.056-1.033,0.062
			c-0.528-0.172-0.879,0.237-1.304,0.406c-0.132-0.055-0.251-0.047-0.354,0.062c-0.547,0.231-1.142,0.374-1.561,0.843
			c-0.223-0.035-0.364,0.051-0.416,0.274c-0.181,0.016-0.356,0.039-0.424,0.251c-0.084,0.09-0.17,0.182-0.254,0.274
			c-0.354,0.022-0.477,0.326-0.658,0.553L54.196,56.733z M34.391,48.928c0,0,0.001,0,0.003,0c0,5.584,0.01,11.168-0.011,16.751
			c-0.003,0.691,0.151,0.966,0.921,0.958c3.787-0.041,7.574-0.038,11.36,0.002c0.74,0.007,0.898-0.266,0.862-0.918
			c-0.052-0.883-0.012-1.769-0.048-2.652c-0.046-1.208,0.312-2.343,0.678-3.453c0.263-0.8,0.33-0.838-0.486-0.839
			c-3.07-0.001-6.139,0-9.206-0.001c-0.276,0-0.564,0.043-0.827-0.018c-0.577-0.135-1.076-0.346-1.122-1.092
			c-0.047-0.765,0.275-1.143,1.007-1.22c0.246-0.026,0.495-0.043,0.743-0.043c3.565,0,7.13-0.004,10.695,0.019
			c0.561,0.004,0.93-0.195,1.243-0.641c0.588-0.838,1.253-1.613,2.076-2.229c0.208-0.155,0.46-0.297,0.349-0.576
			c-0.103-0.252-0.391-0.131-0.598-0.131c-4.562-0.004-9.123-0.003-13.683,0c-0.388,0-0.773,0-1.148-0.121
			c-0.721-0.231-0.957-1.266-0.414-1.804c0.381-0.378,0.839-0.45,1.36-0.45c6.192,0.014,12.384-0.021,18.575,0.027
			c1.743,0.014,3.47-0.282,5.21-0.174c0.5,0.032,0.504-0.34,0.504-0.674c0.006-2.931,0-5.86,0.006-8.79
			c0.001-0.516-0.181-0.715-0.743-0.703c-2.018,0.038-4.035,0.021-6.054,0.013c-1.177-0.005-2.084-0.464-2.037-1.983
			c0.059-1.962-0.017-3.927,0.034-5.888c0.021-0.843-0.265-1.078-1.098-1.073c-5.722,0.035-11.445,0.038-17.166-0.004
			c-0.855-0.007-1.003,0.29-0.999,1.04C34.401,37.816,34.391,43.372,34.391,48.928z M58.437,36.685c0.164,0,0.329,0.01,0.492-0.004
			c0.227-0.019,0.535,0.164,0.647-0.16c0.098-0.278-0.164-0.436-0.339-0.604c-0.315-0.306-0.604-0.644-0.951-0.905
			c-0.335-0.254-0.506-0.938-0.936-0.768c-0.437,0.175-0.15,0.793-0.165,1.207C57.141,36.697,57.163,36.698,58.437,36.685z"/>
		<path class="st27" d="M60.187,60.956c-0.059,0.239-0.205,0.385-0.448,0.434C59.794,61.149,59.919,60.981,60.187,60.956z"/>
		<path class="st27" d="M59.916,59.355c0.15,0.037,0.24,0.128,0.268,0.281C60.014,59.621,59.915,59.536,59.916,59.355z"/>
		<path class="st27" d="M48.472,44.736c3.51,0,7.021-0.006,10.531,0.006c1.127,0.004,1.652,0.713,1.274,1.626
			c-0.201,0.487-0.566,0.636-1.052,0.633c-1.299-0.003-2.596,0.003-3.896,0.003c-5.776,0-11.553-0.001-17.329,0.001
			c-0.534,0-1.093,0.03-1.367-0.547c-0.423-0.889,0.165-1.748,1.06-1.733c3.593,0.058,7.187,0.023,10.779,0.023
			C48.472,44.744,48.472,44.741,48.472,44.736z"/>
	</g>
</g>
</svg>
