<?xml version="1.0" encoding="utf-8"?>
<!-- Generator: Adobe Illustrator 16.0.0, SVG Export Plug-In . SVG Version: 6.00 Build 0)  -->
<!DOCTYPE svg PUBLIC "-//W3C//DTD SVG 1.1//EN" "http://www.w3.org/Graphics/SVG/1.1/DTD/svg11.dtd">
<svg version="1.1" id="Capa_1" xmlns="http://www.w3.org/2000/svg" xmlns:xlink="http://www.w3.org/1999/xlink" x="0px" y="0px"
	 width="55.223px" height="55.225px" viewBox="0 0 55.223 55.225" style="enable-background:new 0 0 55.223 55.225;"
	 xml:space="preserve">
<style type="text/css">
<![CDATA[
	.st0{opacity:0.05;fill:#5D5D5D;}
	.st1{fill:none;stroke:#5D5D5D;stroke-width:0.5;stroke-miterlimit:10;}
	.st2{fill:#ECB43C;}
	.st3{fill:none;stroke:#ECB43C;stroke-width:2;stroke-miterlimit:10;}
	.st4{fill-rule:evenodd;clip-rule:evenodd;fill:#887AA8;}
	.st5{fill:#5D5D5D;}
	.st6{fill-rule:evenodd;clip-rule:evenodd;fill:#89898A;}
	.st7{fill-rule:evenodd;clip-rule:evenodd;fill:#ECB43C;}
	.st8{fill:#FFB62A;}
	.st9{fill:#FFFFFF;}
	.st10{fill-rule:evenodd;clip-rule:evenodd;fill:#5D5D5D;}
	.st11{fill:none;stroke:#5D5D5D;stroke-miterlimit:10;}
	.st12{fill-rule:evenodd;clip-rule:evenodd;fill:#FA494D;}
	.st13{fill-rule:evenodd;clip-rule:evenodd;fill:#FF8F48;}
	.st14{fill-rule:evenodd;clip-rule:evenodd;fill:#FFB62A;}
	.st15{fill-rule:evenodd;clip-rule:evenodd;fill:#FFFFFF;}
	.st16{fill-rule:evenodd;clip-rule:evenodd;fill:none;stroke:#89898A;stroke-miterlimit:10;}
	.st17{fill-rule:evenodd;clip-rule:evenodd;fill:none;stroke:#5D5D5D;stroke-miterlimit:10;}
	.st18{fill-rule:evenodd;clip-rule:evenodd;fill:#000033;}
	.st19{fill-rule:evenodd;clip-rule:evenodd;fill:#00A89D;}
	.st20{fill-rule:evenodd;clip-rule:evenodd;fill:#00AA49;}
	.st21{fill-rule:evenodd;clip-rule:evenodd;fill:#00ABE1;}
]]>
</style>
<g>
	<path class="st8" d="M47.673,55.281c-4.098,0-8.197,0-12.296,0c-0.71-0.488-0.769-1.197-0.762-1.984
		c0.026-2.766,0.002-5.533,0.02-8.301c0.003-0.391-0.076-0.508-0.491-0.504c-4.349,0.018-8.698,0.018-13.046-0.002
		c-0.457-0.002-0.508,0.158-0.506,0.545c0.014,2.875-0.007,5.75,0.017,8.623c0.006,0.773-0.232,1.336-0.979,1.623
		c-4.099,0-8.197,0-12.296,0c-0.679-0.416-0.798-1.047-0.798-1.795c0.014-17.213,0.014-34.424,0-51.637
		c0-0.748,0.119-1.379,0.798-1.793c13.446,0,26.893,0,40.339,0c0.775,0.248,1.014,0.801,1.013,1.584
		c-0.012,17.352-0.012,34.703,0,52.055C48.686,54.479,48.45,55.033,47.673,55.281z M35.38,10.15c0,0.826-0.007,1.652,0,2.479
		c0.008,0.756,0.337,1.107,1.076,1.113c1.671,0.01,3.342,0.01,5.013,0c0.721-0.006,1.062-0.336,1.07-1.055
		c0.014-1.689,0.014-3.379,0.001-5.066c-0.008-0.715-0.343-1.049-1.068-1.057c-1.671-0.016-3.342-0.016-5.012,0
		c-0.747,0.008-1.072,0.357-1.08,1.107C35.373,8.498,35.38,9.324,35.38,10.15z M19.846,10.148c0-0.826,0.005-1.652-0.002-2.479
		c-0.007-0.748-0.333-1.098-1.081-1.105c-1.671-0.014-3.343-0.016-5.012,0c-0.725,0.008-1.062,0.344-1.067,1.061
		c-0.014,1.688-0.014,3.377,0.001,5.064c0.006,0.715,0.354,1.047,1.074,1.053c1.671,0.01,3.342,0.01,5.012,0
		c0.736-0.006,1.067-0.363,1.073-1.115C19.851,11.801,19.846,10.975,19.846,10.148z M24.037,10.127c0,0.846-0.006,1.689,0.002,2.533
		c0.007,0.725,0.329,1.074,1.04,1.08c1.689,0.014,3.379,0.014,5.066,0c0.691-0.006,1.032-0.35,1.037-1.027
		c0.01-1.707,0.01-3.414,0-5.121c-0.004-0.658-0.325-1.014-0.986-1.023c-1.724-0.021-3.449-0.021-5.173,0
		c-0.662,0.01-0.974,0.365-0.983,1.027C24.028,8.439,24.037,9.283,24.037,10.127z M27.587,36.43c0.808,0,1.615,0.002,2.423-0.002
		c0.88-0.004,1.173-0.289,1.175-1.15c0.004-1.617,0.004-3.232,0-4.85c-0.002-0.838-0.301-1.146-1.123-1.148
		c-1.635-0.004-3.269-0.004-4.902,0c-0.804,0.004-1.117,0.309-1.12,1.1c-0.006,1.652-0.006,3.305,0,4.955
		c0.004,0.789,0.313,1.086,1.123,1.094C25.97,36.434,26.778,36.43,27.587,36.43z M31.186,21.555c0-0.824,0.004-1.65,0-2.477
		c-0.007-0.842-0.295-1.145-1.125-1.146c-1.636-0.008-3.27-0.008-4.903,0c-0.811,0.004-1.115,0.305-1.118,1.098
		c-0.006,1.652-0.006,3.305,0,4.955c0.003,0.77,0.316,1.094,1.07,1.096c1.669,0.008,3.34,0.008,5.01,0
		c0.732-0.002,1.056-0.322,1.063-1.047C31.193,23.207,31.186,22.381,31.186,21.555z M16.228,36.43c0.862,0,1.725,0.008,2.586-0.004
		c0.693-0.01,1.024-0.34,1.028-1.031c0.011-1.688,0.009-3.377,0.001-5.064c-0.004-0.715-0.346-1.047-1.068-1.049
		c-1.671-0.008-3.341-0.006-5.012,0c-0.734,0.002-1.071,0.312-1.077,1.035c-0.016,1.688-0.016,3.377-0.001,5.064
		c0.006,0.73,0.332,1.037,1.064,1.047C14.575,36.438,15.401,36.43,16.228,36.43z M38.976,36.43c0.845,0,1.688,0.008,2.533-0.004
		c0.678-0.01,1.02-0.311,1.025-0.971c0.02-1.742,0.02-3.484-0.002-5.227c-0.007-0.629-0.358-0.943-0.997-0.947
		c-1.706-0.008-3.413-0.008-5.118,0c-0.688,0.004-1.029,0.34-1.033,1.029c-0.012,1.688-0.011,3.375-0.001,5.064
		c0.004,0.721,0.335,1.043,1.062,1.053C37.289,36.438,38.132,36.43,38.976,36.43z M16.272,17.93c-0.845,0-1.688-0.01-2.533,0.002
		c-0.728,0.012-1.049,0.322-1.055,1.055c-0.015,1.672-0.012,3.342-0.001,5.012c0.005,0.766,0.329,1.08,1.089,1.082
		c1.652,0.008,3.305,0.006,4.957,0.002c0.786-0.004,1.111-0.328,1.113-1.117c0.006-1.633,0.006-3.268,0.001-4.902
		c-0.002-0.818-0.313-1.125-1.147-1.133C17.889,17.924,17.08,17.93,16.272,17.93z M38.937,25.082c0.826,0,1.652,0.006,2.478,0
		c0.797-0.006,1.119-0.309,1.126-1.102c0.01-1.652,0.01-3.305,0-4.955c-0.006-0.773-0.316-1.088-1.072-1.094
		c-1.67-0.01-3.341-0.01-5.01,0c-0.758,0.006-1.073,0.332-1.076,1.094c-0.008,1.652-0.008,3.305,0,4.957
		c0.003,0.777,0.335,1.096,1.13,1.1C37.319,25.086,38.127,25.082,38.937,25.082z"/>
</g>
</svg>
