<?xml version="1.0" encoding="utf-8"?>
<!-- Generator: Adobe Illustrator 16.0.0, SVG Export Plug-In . SVG Version: 6.00 Build 0)  -->
<!DOCTYPE svg PUBLIC "-//W3C//DTD SVG 1.1//EN" "http://www.w3.org/Graphics/SVG/1.1/DTD/svg11.dtd">
<svg version="1.1" id="Capa_1" xmlns="http://www.w3.org/2000/svg" xmlns:xlink="http://www.w3.org/1999/xlink" x="0px" y="0px"
	 width="302px" height="245.714px" viewBox="0 0 302 245.714" enable-background="new 0 0 302 245.714" xml:space="preserve">
<g>
	<path fill="#FFFFFF" d="M167.762,126.325c-3.605-7.719-8.998-10.137-11.3-10.844c2.478-1.889,4.086-4.859,4.086-8.207
		c0-5.693-4.631-10.324-10.323-10.324s-10.323,4.631-10.323,10.324c0,3.352,1.612,6.325,4.095,8.212
		c-2.261,0.715-7.523,3.14-11.12,10.839c-2.357,5.049-1.189,7.573-0.282,8.629c0.815,0.95,1.906,1.33,2.861,1.33
		c0.327,0,0.638-0.044,0.917-0.126c0.238-0.069,0.457-0.167,0.654-0.286c0.101,0.869,0.36,1.578,0.834,2.166
		c1.518,1.883,4.886,2.229,12.357,2.331l0.007-0.51l0.007,0.51c7.472-0.102,10.84-0.448,12.357-2.331
		c0.499-0.618,0.758-1.374,0.846-2.308c0.243,0.179,0.512,0.335,0.831,0.428c0.279,0.082,0.59,0.126,0.917,0.126
		c0.955,0,2.047-0.38,2.863-1.33C168.951,133.898,170.119,131.374,167.762,126.325z M140.921,107.274
		c0-5.131,4.174-9.305,9.304-9.305s9.304,4.174,9.304,9.305c0,5.13-4.174,9.303-9.304,9.303S140.921,112.404,140.921,107.274z
		 M136.993,134.437c-0.204,0.451-0.63,0.662-0.908,0.744c-0.778,0.228-1.918,0.039-2.719-0.891
		c-0.746-0.869-1.682-3.004,0.434-7.533c2.545-5.447,6.004-8.115,8.456-9.404c-1.403,1.718-3.032,4.783-4.145,10.25
		C137.521,130.503,137.074,132.716,136.993,134.437z M161.796,137.398c-1.242,1.542-4.722,1.857-11.571,1.951
		c-6.849-0.094-10.329-0.409-11.57-1.951c-0.516-0.641-0.686-1.563-0.641-2.81c0.034-0.109,0.082-0.213,0.099-0.33l-0.084-0.012
		c0.105-1.602,0.527-3.715,1.099-6.521c1.903-9.354,5.327-11.189,6.024-11.471c1.501,0.85,3.229,1.342,5.073,1.342
		c1.845,0,3.573-0.492,5.072-1.342c0.699,0.282,4.124,2.124,6.043,11.551C162.403,133.036,162.989,135.917,161.796,137.398z
		 M167.271,134.29c-0.799,0.93-1.94,1.118-2.719,0.891c-0.339-0.1-0.92-0.37-1.018-1.063l-0.096,0.014
		c-0.116-1.688-0.553-3.833-1.117-6.608c-1.114-5.475-2.758-8.527-4.167-10.227c2.51,1.266,6.1,3.932,8.683,9.461
		C168.954,131.286,168.018,133.421,167.271,134.29z"/>
	<path fill="#FFFFFF" d="M56.543,176.872c-3.605-7.719-8.998-10.137-11.3-10.844c2.478-1.889,4.086-4.859,4.086-8.208
		c0-5.692-4.631-10.323-10.323-10.323s-10.323,4.631-10.323,10.323c0,3.352,1.612,6.325,4.095,8.212
		c-2.261,0.715-7.523,3.14-11.12,10.84c-2.357,5.048-1.189,7.572-0.282,8.628c0.815,0.95,1.906,1.331,2.861,1.331
		c0.327,0,0.638-0.045,0.917-0.127c0.238-0.068,0.457-0.166,0.654-0.285c0.101,0.868,0.36,1.578,0.834,2.166
		c1.518,1.883,4.886,2.229,12.357,2.33l0.007-0.51l0.007,0.51c7.472-0.102,10.84-0.447,12.357-2.33
		c0.499-0.619,0.758-1.375,0.846-2.309c0.243,0.18,0.512,0.335,0.831,0.428c0.279,0.082,0.59,0.127,0.917,0.127
		c0.955,0,2.047-0.381,2.863-1.331C57.732,184.444,58.9,181.92,56.543,176.872z M29.702,157.82c0-5.13,4.174-9.304,9.304-9.304
		s9.304,4.174,9.304,9.304s-4.174,9.304-9.304,9.304S29.702,162.95,29.702,157.82z M25.774,184.983
		c-0.204,0.451-0.63,0.662-0.908,0.743c-0.778,0.228-1.918,0.04-2.719-0.891c-0.746-0.869-1.682-3.003,0.434-7.532
		c2.545-5.447,6.004-8.116,8.456-9.404c-1.403,1.717-3.032,4.783-4.145,10.25C26.302,181.05,25.855,183.263,25.774,184.983z
		 M50.577,187.944c-1.242,1.543-4.722,1.857-11.571,1.951c-6.849-0.094-10.329-0.408-11.57-1.951
		c-0.516-0.641-0.686-1.562-0.641-2.809c0.034-0.109,0.082-0.214,0.099-0.33l-0.084-0.013c0.105-1.602,0.527-3.714,1.099-6.521
		c1.903-9.354,5.327-11.189,6.024-11.472c1.501,0.851,3.229,1.343,5.073,1.343c1.845,0,3.573-0.492,5.072-1.343
		c0.699,0.282,4.124,2.124,6.043,11.552C51.185,183.582,51.771,186.463,50.577,187.944z M56.053,184.836
		c-0.799,0.931-1.94,1.118-2.719,0.891c-0.339-0.1-0.92-0.37-1.018-1.063l-0.096,0.014c-0.116-1.688-0.553-3.832-1.117-6.607
		c-1.114-5.475-2.758-8.527-4.167-10.227c2.51,1.266,6.1,3.932,8.683,9.461C57.735,181.833,56.799,183.967,56.053,184.836z"/>
	<path fill="#FFFFFF" d="M275.531,176.872c-3.605-7.719-8.998-10.137-11.3-10.844c2.478-1.889,4.086-4.859,4.086-8.208
		c0-5.692-4.631-10.323-10.323-10.323s-10.323,4.631-10.323,10.323c0,3.352,1.612,6.325,4.095,8.212
		c-2.261,0.715-7.523,3.14-11.12,10.84c-2.357,5.048-1.189,7.572-0.282,8.628c0.815,0.95,1.906,1.331,2.861,1.331
		c0.327,0,0.638-0.045,0.917-0.127c0.238-0.068,0.457-0.166,0.654-0.285c0.101,0.868,0.36,1.578,0.834,2.166
		c1.518,1.883,4.886,2.229,12.357,2.33l0.007-0.51l0.007,0.51c7.472-0.102,10.84-0.447,12.357-2.33
		c0.499-0.619,0.758-1.375,0.846-2.309c0.243,0.18,0.512,0.335,0.831,0.428c0.279,0.082,0.59,0.127,0.917,0.127
		c0.955,0,2.047-0.381,2.863-1.331C276.721,184.444,277.889,181.92,275.531,176.872z M248.69,157.82c0-5.13,4.174-9.304,9.304-9.304
		s9.304,4.174,9.304,9.304s-4.174,9.304-9.304,9.304S248.69,162.95,248.69,157.82z M244.763,184.983
		c-0.204,0.451-0.63,0.662-0.908,0.743c-0.778,0.228-1.918,0.04-2.719-0.891c-0.746-0.869-1.682-3.003,0.434-7.532
		c2.545-5.447,6.004-8.116,8.456-9.404c-1.403,1.717-3.032,4.783-4.145,10.25C245.29,181.05,244.844,183.263,244.763,184.983z
		 M269.565,187.944c-1.242,1.543-4.722,1.857-11.571,1.951c-6.849-0.094-10.329-0.408-11.57-1.951
		c-0.516-0.641-0.686-1.562-0.641-2.809c0.034-0.109,0.082-0.214,0.099-0.33l-0.084-0.013c0.105-1.602,0.527-3.714,1.099-6.521
		c1.903-9.354,5.327-11.189,6.024-11.472c1.501,0.851,3.229,1.343,5.073,1.343c1.845,0,3.573-0.492,5.072-1.343
		c0.699,0.282,4.124,2.124,6.043,11.552C270.173,183.582,270.759,186.463,269.565,187.944z M275.041,184.836
		c-0.799,0.931-1.94,1.118-2.719,0.891c-0.339-0.1-0.92-0.37-1.018-1.063l-0.096,0.014c-0.116-1.688-0.553-3.832-1.117-6.607
		c-1.114-5.475-2.758-8.527-4.167-10.227c2.51,1.266,6.1,3.932,8.683,9.461C276.724,181.833,275.787,183.967,275.041,184.836z"/>
	<path fill="#FFFFFF" d="M108.674,126.325c-3.605-7.719-8.998-10.137-11.3-10.844c2.478-1.889,4.086-4.859,4.086-8.207
		c0-5.693-4.631-10.324-10.323-10.324s-10.323,4.631-10.323,10.324c0,3.352,1.612,6.325,4.095,8.212
		c-2.261,0.715-7.523,3.14-11.12,10.839c-2.357,5.049-1.189,7.573-0.282,8.629c0.815,0.95,1.906,1.33,2.861,1.33
		c0.327,0,0.638-0.044,0.917-0.126c0.238-0.069,0.457-0.167,0.654-0.286c0.101,0.869,0.36,1.578,0.834,2.166
		c1.518,1.883,4.886,2.229,12.357,2.331l0.007-0.51l0.007,0.51c7.472-0.102,10.84-0.448,12.357-2.331
		c0.499-0.618,0.758-1.374,0.846-2.308c0.243,0.179,0.512,0.335,0.831,0.428c0.279,0.082,0.59,0.126,0.917,0.126
		c0.955,0,2.047-0.38,2.863-1.33C109.863,133.898,111.031,131.374,108.674,126.325z M81.833,107.274
		c0-5.131,4.174-9.305,9.304-9.305s9.304,4.174,9.304,9.305c0,5.13-4.174,9.303-9.304,9.303S81.833,112.404,81.833,107.274z
		 M77.905,134.437c-0.204,0.451-0.63,0.662-0.908,0.744c-0.778,0.228-1.918,0.039-2.719-0.891c-0.746-0.869-1.682-3.004,0.434-7.533
		c2.545-5.447,6.004-8.115,8.456-9.404c-1.403,1.718-3.032,4.783-4.145,10.25C78.433,130.503,77.986,132.716,77.905,134.437z
		 M102.708,137.398c-1.242,1.542-4.722,1.857-11.571,1.951c-6.849-0.094-10.329-0.409-11.57-1.951
		c-0.516-0.641-0.686-1.563-0.641-2.81c0.034-0.109,0.082-0.213,0.099-0.33l-0.084-0.012c0.105-1.602,0.527-3.715,1.099-6.521
		c1.903-9.354,5.327-11.189,6.024-11.471c1.501,0.85,3.229,1.342,5.073,1.342c1.845,0,3.573-0.492,5.072-1.342
		c0.699,0.282,4.124,2.124,6.043,11.551C103.315,133.036,103.901,135.917,102.708,137.398z M108.184,134.29
		c-0.799,0.93-1.94,1.118-2.719,0.891c-0.339-0.1-0.92-0.37-1.018-1.063l-0.096,0.014c-0.116-1.688-0.553-3.833-1.117-6.608
		c-1.114-5.475-2.758-8.527-4.167-10.227c2.51,1.266,6.1,3.932,8.683,9.461C109.866,131.286,108.93,133.421,108.184,134.29z"/>
	<path fill="#FFFFFF" d="M223.286,126.325c-3.605-7.719-8.998-10.137-11.3-10.844c2.478-1.889,4.086-4.859,4.086-8.207
		c0-5.693-4.631-10.324-10.323-10.324s-10.323,4.631-10.323,10.324c0,3.352,1.612,6.325,4.095,8.212
		c-2.261,0.715-7.523,3.14-11.12,10.839c-2.357,5.049-1.189,7.573-0.282,8.629c0.815,0.95,1.906,1.33,2.861,1.33
		c0.327,0,0.638-0.044,0.917-0.126c0.238-0.069,0.457-0.167,0.654-0.286c0.101,0.869,0.36,1.578,0.834,2.166
		c1.518,1.883,4.886,2.229,12.357,2.331l0.007-0.51l0.007,0.51c7.472-0.102,10.84-0.448,12.357-2.331
		c0.499-0.618,0.758-1.374,0.846-2.308c0.243,0.179,0.512,0.335,0.831,0.428c0.279,0.082,0.59,0.126,0.917,0.126
		c0.955,0,2.047-0.38,2.863-1.33C224.476,133.898,225.644,131.374,223.286,126.325z M196.445,107.274
		c0-5.131,4.174-9.305,9.304-9.305s9.304,4.174,9.304,9.305c0,5.13-4.174,9.303-9.304,9.303S196.445,112.404,196.445,107.274z
		 M192.518,134.437c-0.204,0.451-0.63,0.662-0.908,0.744c-0.778,0.228-1.918,0.039-2.719-0.891
		c-0.746-0.869-1.682-3.004,0.434-7.533c2.545-5.447,6.004-8.115,8.456-9.404c-1.403,1.718-3.032,4.783-4.145,10.25
		C193.045,130.503,192.599,132.716,192.518,134.437z M217.32,137.398c-1.242,1.542-4.722,1.857-11.571,1.951
		c-6.849-0.094-10.329-0.409-11.57-1.951c-0.516-0.641-0.686-1.563-0.641-2.81c0.034-0.109,0.082-0.213,0.099-0.33l-0.084-0.012
		c0.105-1.602,0.527-3.715,1.099-6.521c1.903-9.354,5.327-11.189,6.024-11.471c1.501,0.85,3.229,1.342,5.073,1.342
		c1.845,0,3.573-0.492,5.072-1.342c0.699,0.282,4.124,2.124,6.043,11.551C217.928,133.036,218.514,135.917,217.32,137.398z
		 M222.796,134.29c-0.799,0.93-1.94,1.118-2.719,0.891c-0.339-0.1-0.92-0.37-1.018-1.063l-0.096,0.014
		c-0.116-1.688-0.553-3.833-1.117-6.608c-1.114-5.475-2.758-8.527-4.167-10.227c2.51,1.266,6.1,3.932,8.683,9.461
		C224.479,131.286,223.542,133.421,222.796,134.29z"/>
	<path fill="#FFFFFF" stroke="#FFFFFF" stroke-miterlimit="10" d="M168.104,22.75l-3.888-2.121
		c-4.284-2.821-8.311-5.472-12.333-8.13c-0.478-0.314-0.828-0.316-1.292-0.008c-3.889,2.571-7.781,5.135-11.916,7.859l-4.31,2.399
		l-0.551-0.396l4.311-2.84c4.135-2.723,8.026-5.287,11.914-7.857c0.798-0.529,1.581-0.528,2.395,0.008
		c4.022,2.656,8.049,5.309,12.332,8.129l3.889,2.561L168.104,22.75z"/>
	<path fill-rule="evenodd" clip-rule="evenodd" fill="#FFFFFF" d="M164.299,38.22c-1.032,0.139-2.062,0.352-3.1,0.393
		c-0.84,0.033-1.477-0.431-1.6-1.326c-0.122-0.893,0.349-1.574,1.175-1.707c3.302-0.53,6.616-0.981,9.932-1.424
		c1.549-0.206,1.099,0.935,0.998,1.691c-0.354,2.652-0.765,5.297-1.165,7.943c-0.175,1.162-0.368,2.507-1.909,2.355
		c-1.551-0.152-1.451-1.475-1.373-2.668c0.034-0.525-0.087-1.061-0.212-2.395c-4.243,4.342-8.091,8.146-11.765,12.112
		c-1.385,1.495-2.291,1.78-3.854,0.224c-2.026-2.018-4.426-3.658-6.495-5.637c-1.514-1.445-2.571-1.697-4.114,0.029
		c-1.968,2.204-4.258,4.121-6.39,6.18c-0.969,0.936-2.058,1.691-3.216,0.533c-1.218-1.219-0.294-2.229,0.662-3.146
		c3.24-3.113,6.51-6.2,9.676-9.389c1.006-1.015,1.623-0.842,2.58,0.009c2.573,2.286,5.238,4.468,7.859,6.7
		c0.729,0.621,1.278,1.332,2.335,0.248c3.396-3.477,6.901-6.85,10.363-10.262C164.559,38.53,164.429,38.375,164.299,38.22z"/>
	<rect x="112.485" y="21.916" fill="#FFFFFF" stroke="#FFFFFF" stroke-miterlimit="10" width="77.5" height="1"/>
	<circle fill="none" stroke="#FFFFFF" stroke-miterlimit="10" cx="151.236" cy="10.169" r="1.25"/>
	<polygon fill="#FFFFFF" stroke="#FFFFFF" stroke-miterlimit="10" points="182.859,71.398 119.611,71.398 119.611,22.75 
		120.693,22.75 120.693,70.316 181.777,70.316 181.777,22.75 182.859,22.75 	"/>
</g>
</svg>
