<?xml version="1.0" encoding="utf-8"?>
<!-- Generator: Adobe Illustrator 16.0.0, SVG Export Plug-In . SVG Version: 6.00 Build 0)  -->
<!DOCTYPE svg PUBLIC "-//W3C//DTD SVG 1.1//EN" "http://www.w3.org/Graphics/SVG/1.1/DTD/svg11.dtd">
<svg version="1.1" id="Capa_1" xmlns="http://www.w3.org/2000/svg" xmlns:xlink="http://www.w3.org/1999/xlink" x="0px" y="0px"
	 width="55.223px" height="55.225px" viewBox="0 0 55.223 55.225" style="enable-background:new 0 0 55.223 55.225;"
	 xml:space="preserve">
<style type="text/css">
<![CDATA[
	.st0{opacity:0.05;fill:#5D5D5D;}
	.st1{fill:none;stroke:#5D5D5D;stroke-width:0.5;stroke-miterlimit:10;}
	.st2{fill:#ECB43C;}
	.st3{fill:none;stroke:#ECB43C;stroke-width:2;stroke-miterlimit:10;}
	.st4{fill-rule:evenodd;clip-rule:evenodd;fill:#887AA8;}
	.st5{fill:#5D5D5D;}
	.st6{fill-rule:evenodd;clip-rule:evenodd;fill:#89898A;}
	.st7{fill-rule:evenodd;clip-rule:evenodd;fill:#ECB43C;}
	.st8{fill:#FFB62A;}
	.st9{fill:#FFFFFF;}
	.st10{fill-rule:evenodd;clip-rule:evenodd;fill:#5D5D5D;}
	.st11{fill:none;stroke:#5D5D5D;stroke-miterlimit:10;}
	.st12{fill-rule:evenodd;clip-rule:evenodd;fill:#FA494D;}
	.st13{fill-rule:evenodd;clip-rule:evenodd;fill:#FF8F48;}
	.st14{fill-rule:evenodd;clip-rule:evenodd;fill:#FFB62A;}
	.st15{fill-rule:evenodd;clip-rule:evenodd;fill:#FFFFFF;}
	.st16{fill-rule:evenodd;clip-rule:evenodd;fill:none;stroke:#89898A;stroke-miterlimit:10;}
	.st17{fill-rule:evenodd;clip-rule:evenodd;fill:none;stroke:#5D5D5D;stroke-miterlimit:10;}
	.st18{fill-rule:evenodd;clip-rule:evenodd;fill:#000033;}
	.st19{fill-rule:evenodd;clip-rule:evenodd;fill:#00A89D;}
	.st20{fill-rule:evenodd;clip-rule:evenodd;fill:#00AA49;}
	.st21{fill-rule:evenodd;clip-rule:evenodd;fill:#00ABE1;}
]]>
</style>
<g id="WJxJLT_2_">
	<g>
		<path class="st14" d="M15.906,10.093c2.744,0.638,5.493,1.263,8.116,2.321c0.916,0.369,1.307,0.007,1.292-0.881
			c-0.026-1.555-0.162-3.108-0.147-4.661c0.025-2.946,0.456-4.278,3.916-4.298c2.478-0.013,4.953-0.066,7.43,0.048
			c0.967,0.044,1.852,0.083,1.792-1.366c-0.026-0.65,0.331-1.481,1.188-1.44c0.855,0.042,1.072,0.784,1.005,1.54
			c-0.104,1.198,0.65,1.298,1.536,1.267c2.88-0.101,5.76-0.222,8.64,0.03c2.199,0.191,2.969,1.004,2.973,3.164
			c0.007,4.557,0.006,9.112,0,13.669c-0.003,2.261-0.96,3.274-3.218,3.372c-0.804,0.034-1.618,0.031-2.418-0.052
			c-1.52-0.155-1.943,0.356-1.464,1.86c1.186,3.729,2.284,7.488,3.377,11.246c0.283,0.977,1.052,2.398-0.38,2.777
			c-1.444,0.381-1.478-1.232-1.769-2.244c-1.227-4.262-2.439-8.528-3.679-12.787c-0.479-1.657-1.833-0.623-2.768-0.799
			c-1.024-0.191-0.808,0.718-0.815,1.301c-0.048,2.997-0.07,5.995-0.106,8.992c-0.008,0.645,0.009,1.356-0.88,1.415
			c-0.891,0.061-0.987-0.688-1.078-1.293c-0.413-2.752,0.08-5.526-0.156-8.279c-0.063-0.728,0.746-1.957-0.85-2.129
			c-1.439-0.154-2.585-0.2-3.058,1.752c-1.068,4.416-2.178,8.836-3.831,13.083c-0.253,0.651-0.142,1.002,0.341,1.484
			c2.129,2.127,2.195,4.366,0.16,6.66c-0.697,0.787-0.956,1.194,0.28,1.636c2.134,0.762,3.71,2.232,4.866,4.555
			c1.404-2.521,3.159-4.264,6.053-4.855c-1.497-1.93-2.622-3.785-2.026-6.126c0.256-0.998,0.877-1.742,1.714-2.312
			c1.923-1.309,5.07-0.893,6.654,0.872c1.606,1.788,1.201,4.186-1.295,7.331c1.827,0.749,3.556,1.634,4.877,3.114
			c0.782,0.878,1.504,1.829,1.097,3.093c-0.392,1.225-1.575,1.241-2.572,1.396c-3.54,0.547-7.25,1.176-10.612,0.045
			c-3.471-1.168-6.508,0.216-9.739,0.343c-3.661,0.146-7.369,0.469-10.789-1.347c-0.281-0.149-0.47-0.19-0.775-0.044
			c-4.901,2.34-9.995,1.556-15.054,0.806c-1.816-0.269-2.294-1.793-1.215-3.416c1.086-1.636,2.657-2.71,4.426-3.486
			c0.737-0.323,0.924-0.517,0.369-1.311c-2.007-2.872-1.767-4.921,0.747-7.599c0.231-0.244,0.268-0.419,0.229-0.731
			c-0.515-4.228,0.612-8.362,0.745-12.558c0.108-3.501,0.244-6.997-0.087-10.532c-0.877,1.277-1.111,2.773-1.469,4.214
			c-0.264,1.062-0.371,2.159-0.619,3.226c-0.246,1.059-0.682,2.131-2.017,1.908c-1.404-0.234-1.349-1.463-1.155-2.483
			c0.409-2.146,0.957-4.264,1.438-6.395c0.101-0.449,0.143-0.911,0.242-1.361c0.516-2.385,1.29-3.08,3.714-3.353
			c0.97-0.109,1.964-0.032,2.901-0.384c1.03-0.004,1.166,0.672,1.187,1.494c0.042,1.681-0.457,3.287-0.652,4.935
			c-0.127,1.067-0.067,2.058,0.659,2.914c0.165,0.197,0.412,0.285,0.592,0.092c0.812-0.876,0.891-1.942,0.717-3.058
			c-0.201-1.302-0.444-2.598-0.606-3.905C13.591,10.227,13.67,10.153,15.906,10.093z M39.361,3.898
			c-3.576,0-7.151,0.022-10.728-0.014c-1.291-0.012-1.915,0.478-1.895,1.822c0.031,2.187-0.011,4.374-0.022,6.561
			c-0.002,0.411,0.016,0.802,0.436,1.048c1.575,0.92,1.334,1.748,0.116,2.938c-1.186,1.16-0.599,2.852-0.407,4.259
			c0.163,1.199,1.475,0.896,2.318,0.899c6.863,0.042,13.726,0.01,20.59,0.034c1.522,0.006,2.455-0.559,2.466-2.167
			c0.026-4.431,0.062-8.863,0.01-13.294c-0.018-1.53-0.897-2.165-2.503-2.119C46.285,3.965,42.823,3.896,39.361,3.898z
			 M19.051,51.987c2.224-3.128,2.223-3.2,5.062-4.525c1.016-0.475,0.952-0.767,0.317-1.558c-2.917-3.647-1.485-7.165,3.19-7.939
			c0.524-0.086,0.985-0.092,1.168-0.764c1.209-4.443,2.432-8.882,3.699-13.309c0.237-0.827-0.056-1.053-0.779-1.065
			c-0.46-0.009-0.922-0.018-1.383-0.009c-4.636,0.078-5.436-0.779-5.069-5.456c0.006-0.058,0.018-0.115,0.031-0.171
			c0.243-0.999-0.198-1.462-1.16-1.702c-1.338-0.337-2.644-0.8-3.964-1.205c-2.146-0.658-2.292-0.585-2.31,1.755
			c-0.035,4.493-0.027,8.98,0.508,13.458c0.293,2.455,0.341,4.939,0.519,7.409c0.073,1.017-0.329,1.694-1.338,1.888
			c-0.966,0.186-1.701-0.22-2.095-1.123c-0.299-0.688-0.436-1.418-0.483-2.178c-0.187-3.046-0.386-6.09-0.636-9.13
			c-0.044-0.531,0.366-1.418-0.66-1.489c-1.037-0.073-0.954,0.758-1.011,1.442c-0.296,3.615-0.375,7.253-1.014,10.834
			c-0.146,0.823,0.269,0.936,0.874,1.128c1.514,0.483,2.307,1.584,2.613,3.136c0.43,2.176-0.423,3.92-1.935,5.736
			C15.959,47.813,17.811,49.436,19.051,51.987z"/>
		<path class="st14" d="M12.232,9.508C10.107,8.055,9.34,6.496,9.766,4.721c0.387-1.61,1.431-2.432,2.988-2.645
			c1.698-0.229,3.258,0.127,4.208,1.675c0.826,1.346,0.646,2.751-0.293,4.02c-0.407,0.548-0.882,1.046-1.326,1.566
			C14.328,9.791,13.297,9.942,12.232,9.508z"/>
	</g>
</g>
</svg>
