<?xml version="1.0" encoding="utf-8"?>
<!-- Generator: Adobe Illustrator 16.0.0, SVG Export Plug-In . SVG Version: 6.00 Build 0)  -->
<!DOCTYPE svg PUBLIC "-//W3C//DTD SVG 1.1//EN" "http://www.w3.org/Graphics/SVG/1.1/DTD/svg11.dtd">
<svg version="1.1" id="Capa_1" xmlns="http://www.w3.org/2000/svg" xmlns:xlink="http://www.w3.org/1999/xlink" x="0px" y="0px"
	 width="302px" height="245.714px" viewBox="426 0 302 245.714" enable-background="new 426 0 302 245.714" xml:space="preserve">
<g>
	<path fill="#FFFFFF" d="M484.591,144.214c-3.604-7.719-8.998-10.137-11.299-10.844c2.478-1.889,4.086-4.859,4.086-8.207
		c0-5.693-4.631-10.324-10.324-10.324c-5.691,0-10.322,4.631-10.322,10.324c0,3.354,1.611,6.324,4.095,8.211
		c-2.261,0.715-7.522,3.141-11.12,10.84c-2.356,5.049-1.188,7.572-0.281,8.629c0.814,0.949,1.906,1.33,2.86,1.33
		c0.327,0,0.638-0.045,0.917-0.127c0.238-0.068,0.457-0.166,0.654-0.285c0.102,0.869,0.359,1.578,0.834,2.166
		c1.518,1.883,4.886,2.229,12.357,2.33l0.006-0.51l0.008,0.51c7.472-0.102,10.84-0.447,12.357-2.33
		c0.498-0.619,0.758-1.375,0.846-2.309c0.242,0.18,0.512,0.336,0.83,0.428c0.279,0.082,0.591,0.127,0.918,0.127
		c0.955,0,2.047-0.381,2.863-1.33C485.781,151.789,486.949,149.263,484.591,144.214z M457.751,125.166
		c0-5.13,4.174-9.305,9.305-9.305c5.13,0,9.304,4.175,9.304,9.305c0,5.129-4.174,9.303-9.304,9.303
		C461.925,134.468,457.751,130.294,457.751,125.166z M453.823,152.328c-0.204,0.449-0.63,0.66-0.908,0.742
		c-0.777,0.229-1.918,0.039-2.719-0.891c-0.746-0.869-1.682-3.004,0.434-7.533c2.545-5.447,6.004-8.115,8.457-9.402
		c-1.403,1.717-3.033,4.781-4.146,10.25C454.351,148.392,453.904,150.605,453.823,152.328z M478.626,155.289
		c-1.242,1.543-4.722,1.855-11.57,1.949c-6.85-0.094-10.329-0.406-11.57-1.949c-0.516-0.643-0.686-1.562-0.641-2.811
		c0.033-0.107,0.082-0.213,0.099-0.33l-0.084-0.012c0.104-1.602,0.526-3.715,1.099-6.521c1.903-9.354,5.327-11.188,6.024-11.471
		c1.501,0.852,3.229,1.342,5.073,1.342c1.845,0,3.572-0.49,5.072-1.342c0.698,0.281,4.123,2.123,6.043,11.551
		C479.233,150.925,479.819,153.806,478.626,155.289z M484.102,152.179c-0.8,0.93-1.94,1.117-2.72,0.891
		c-0.338-0.1-0.92-0.369-1.018-1.062l-0.096,0.014c-0.116-1.688-0.553-3.832-1.117-6.607c-1.113-5.475-2.758-8.527-4.167-10.227
		c2.51,1.266,6.101,3.932,8.683,9.461C485.784,149.175,484.847,151.31,484.102,152.179z"/>
	<path fill="#FFFFFF" d="M583.663,144.214c-3.604-7.719-8.998-10.137-11.3-10.844c2.478-1.889,4.086-4.859,4.086-8.207
		c0-5.693-4.631-10.324-10.323-10.324c-5.691,0-10.322,4.631-10.322,10.324c0,3.354,1.611,6.324,4.095,8.211
		c-2.261,0.715-7.522,3.141-11.12,10.84c-2.357,5.049-1.189,7.572-0.281,8.629c0.814,0.949,1.905,1.33,2.86,1.33
		c0.327,0,0.638-0.045,0.917-0.127c0.238-0.068,0.457-0.166,0.654-0.285c0.101,0.869,0.359,1.578,0.834,2.166
		c1.518,1.883,4.886,2.229,12.356,2.33l0.007-0.51l0.008,0.51c7.472-0.102,10.84-0.447,12.356-2.33
		c0.499-0.619,0.759-1.375,0.847-2.309c0.242,0.18,0.512,0.336,0.83,0.428c0.279,0.082,0.59,0.127,0.918,0.127
		c0.955,0,2.047-0.381,2.862-1.33C584.853,151.789,586.021,149.263,583.663,144.214z M556.822,125.166
		c0-5.13,4.175-9.305,9.304-9.305c5.131,0,9.305,4.175,9.305,9.305c0,5.129-4.174,9.303-9.305,9.303
		C560.997,134.468,556.822,130.294,556.822,125.166z M552.895,152.328c-0.204,0.449-0.63,0.66-0.908,0.742
		c-0.778,0.229-1.918,0.039-2.719-0.891c-0.746-0.869-1.683-3.004,0.434-7.533c2.546-5.447,6.005-8.115,8.456-9.402
		c-1.402,1.717-3.031,4.781-4.145,10.25C553.421,148.392,552.976,150.605,552.895,152.328z M577.697,155.289
		c-1.241,1.543-4.722,1.855-11.571,1.949c-6.849-0.094-10.328-0.406-11.569-1.949c-0.517-0.643-0.687-1.562-0.642-2.811
		c0.034-0.107,0.082-0.213,0.1-0.33l-0.084-0.012c0.104-1.602,0.527-3.715,1.099-6.521c1.903-9.354,5.327-11.188,6.024-11.471
		c1.5,0.852,3.229,1.342,5.072,1.342c1.846,0,3.573-0.49,5.072-1.342c0.699,0.281,4.124,2.123,6.043,11.551
		C578.304,150.925,578.891,153.806,577.697,155.289z M583.173,152.179c-0.799,0.93-1.94,1.117-2.719,0.891
		c-0.34-0.1-0.921-0.369-1.019-1.062l-0.097,0.014c-0.115-1.688-0.553-3.832-1.117-6.607c-1.113-5.475-2.758-8.527-4.166-10.227
		c2.51,1.266,6.1,3.932,8.683,9.461C584.855,149.175,583.919,151.31,583.173,152.179z"/>
	<g>
		<path fill="#FFFFFF" d="M680.722,150.871c-2.051,0-4.103-0.014-6.152-0.035c-0.836-0.01-1.525-0.283-1.994-0.791
			c-0.48-0.521-0.703-1.26-0.645-2.141c0.101-1.473,1.076-2.291,2.748-2.301c0.891-0.006,1.779-0.008,2.672-0.008l4.273,0.004
			l1.57-0.006c1.657-0.01,3.314-0.02,4.973,0.008c0.98,0.02,1.767,0.305,2.271,0.83c0.442,0.461,0.659,1.076,0.644,1.83
			c-0.031,1.479-1.107,2.529-2.619,2.551C685.882,150.851,683.302,150.871,680.722,150.871z M677.351,146.595
			c-0.889,0-1.777,0.002-2.666,0.008c-1.475,0.01-1.713,0.736-1.756,1.369c-0.041,0.598,0.091,1.078,0.381,1.393
			c0.281,0.307,0.709,0.465,1.271,0.471c4.621,0.055,9.242,0.049,13.864-0.021c0.974-0.014,1.614-0.631,1.634-1.572
			c0.012-0.479-0.111-0.854-0.363-1.115c-0.398-0.416-1.071-0.514-1.565-0.523c-1.649-0.025-3.302-0.018-4.95-0.008l-1.574,0.006
			L677.351,146.595z M691.196,141.775h-0.152c-1.287-0.02-2.574-0.025-3.861-0.025l-5.575,0.014l-5.252-0.002
			c-1.397,0-2.795,0-4.192,0.004c-1.23,0-2.557-0.068-3.367-0.883c-0.471-0.471-0.707-1.135-0.703-1.973
			c0.002-1.055,0.496-2.82,3.766-2.84c6.436-0.027,12.869-0.025,19.305,0c1.35,0.008,2.346,0.33,2.959,0.969
			c0.479,0.498,0.711,1.166,0.684,1.982C694.744,140.849,693.531,141.775,691.196,141.775z M687.182,140.75
			c1.292,0,2.585,0.008,3.877,0.025h0.138c2.247,0,2.579-0.9,2.607-1.787c0.018-0.545-0.114-0.957-0.404-1.258
			c-0.412-0.428-1.188-0.656-2.242-0.66c-6.432-0.025-12.863-0.027-19.296,0c-2.479,0.016-2.769,1.059-2.771,1.844
			c-0.002,0.568,0.133,0.982,0.41,1.264c0.543,0.543,1.631,0.588,2.607,0.588c1.448-0.004,2.848-0.004,4.245-0.004l5.252,0.002
			L687.182,140.75z M508.979,121.907L508.979,121.907c-0.525,0-1.152-0.315-1.156-1.823c-0.004-1.363-0.003-2.729-0.002-4.095
			v-1.754c-0.001-0.601,0-1.198,0.002-1.799c0.002-1.162,0.006-2.324-0.012-3.485c-0.012-0.847,0.124-1.384,0.43-1.693
			c0.422-0.43,1.096-0.377,2.055,0.219c2.764,1.721,5.541,3.414,8.318,5.107l0.691,0.42c0.516,0.313,1.199,0.809,1.201,1.473
			c0,0.473-0.334,0.908-1.025,1.33l-3.432,2.096c-1.942,1.186-3.887,2.369-5.826,3.561
			C509.734,121.76,509.329,121.907,508.979,121.907z M617.979,121.907L617.979,121.907c-0.525,0-1.152-0.315-1.156-1.823
			c-0.004-1.363-0.003-2.729-0.002-4.095v-1.754c-0.001-0.601,0-1.198,0.002-1.799c0.002-1.162,0.006-2.324-0.012-3.485
			c-0.012-0.847,0.124-1.384,0.43-1.693c0.422-0.43,1.096-0.377,2.055,0.219c2.764,1.721,5.541,3.414,8.318,5.107l0.691,0.42
			c0.516,0.313,1.199,0.809,1.201,1.473c0,0.473-0.334,0.908-1.025,1.33l-3.432,2.096c-1.942,1.186-3.887,2.369-5.826,3.561
			C618.734,121.76,618.329,121.907,617.979,121.907z M563.46,110.731l-0.301-0.479c-0.724-1.149,0.051-2.533,0.731-3.752
			c0.489-0.873,0.993-1.774,0.735-2.217c-0.152-0.258-0.763-0.693-3.145-0.693h-0.344l-0.166-0.319
			c-0.444-1.158,0.06-1.998,0.464-2.673c0.095-0.157,0.188-0.312,0.269-0.473c0.992-1.983,1.647-3.295,1.409-3.766
			c-0.233-0.463-1.692-0.713-3.539-1.031c-0.94-0.162-1.465-0.445-1.698-0.924c-0.297-0.611,0.021-1.295,0.399-2.002l1.146-2.121
			c1.287-2.377,2.617-4.834,3.838-7.291c0.886-1.783,2.356-1.932,3.666-1.932l0.608,0.006c0.796,0.01,1.593,0.014,2.412,0.014
			l4.683-0.008l-0.093,0.578c-0.286,1.795-1.134,3.074-1.952,4.311c-0.229,0.346-0.457,0.688-0.666,1.035
			c-1.205,2.008-2.058,3.426-1.836,3.906c0.223,0.482,1.791,0.746,4.166,1.145l0.764,0.129l-0.416,0.646l-5.365,7.98
			c0.602,0.324,1.21,0.352,1.896,0.381c0.711,0.033,1.518,0.068,2.375,0.463l0.729,0.336L563.46,110.731z M561.817,102.594
			c2.089,0.039,3.217,0.408,3.671,1.185c0.55,0.937-0.099,2.093-0.726,3.211c-0.416,0.744-0.842,1.507-0.889,2.115l8.389-6.812
			c-0.391-0.074-0.779-0.092-1.18-0.109c-0.923-0.041-1.875-0.084-2.856-0.848l-0.367-0.285l5.476-8.144
			c-2.554-0.437-3.756-0.706-4.16-1.588c-0.442-0.961,0.279-2.162,1.859-4.793c0.244-0.405,0.479-0.763,0.717-1.119
			c0.664-1.002,1.35-2.034,1.68-3.336l-3.482,0.009c-0.824,0-1.625-0.004-2.426-0.015l-0.596-0.006
			c-1.385,0-2.191,0.213-2.771,1.377c-1.229,2.474-2.563,4.938-3.854,7.321l-1.146,2.119c-0.131,0.244-0.479,0.89-0.381,1.09
			c0.019,0.037,0.153,0.236,0.968,0.375c2.451,0.422,3.803,0.654,4.264,1.566c0.465,0.92-0.121,2.094-1.407,4.664
			c-0.091,0.18-0.197,0.359-0.306,0.539C561.954,101.68,561.733,102.088,561.817,102.594z"/>
		<path fill="#FFFFFF" stroke="#FFFFFF" stroke-miterlimit="10" d="M553.478,77.356c-2.115,0-4.229-0.009-6.344-0.039
			c-6.474-0.095-11.26-3.58-12.805-9.323c-1.494-5.548,0.911-10.601,6.598-13.863c1.216-0.695,1.623-1.477,1.99-2.765
			c1.4-4.941,5.278-8.135,9.879-8.135c1.938,0,3.869,0.546,5.735,1.624c1.769,1.018,2.175,0.82,3.597-0.806
			c4.225-4.83,9.84-6.408,15.797-4.428c5.768,1.918,9.256,6.259,10.086,12.552l0.021,0.152c0.222,1.691,0.397,3.027,1.712,4.264
			c3.649,3.435,4.574,8.067,2.604,13.045c-1.86,4.707-5.691,7.293-11.385,7.691c-0.125,0.008-0.252,0.012-0.379,0.012l-0.479-0.006
			h-16.481c-1.691,0-3.381,0.006-5.07,0.012C556.859,77.351,555.169,77.356,553.478,77.356z M552.796,44.232
			c-4.203,0-7.621,2.838-8.916,7.408c-0.422,1.479-0.957,2.501-2.455,3.358c-5.262,3.02-7.496,7.662-6.131,12.735
			c1.424,5.287,5.854,8.496,11.854,8.583c3.8,0.055,7.601,0.041,11.399,0.027c1.69-0.006,3.383-0.012,5.074-0.012l16.963,0.006
			c0.103,0,0.205-0.002,0.308-0.01c5.276-0.369,8.817-2.744,10.526-7.061c1.834-4.639,1.019-8.771-2.36-11.95
			c-1.574-1.481-1.79-3.123-2.019-4.862l-0.021-0.151c-0.776-5.887-4.031-9.944-9.41-11.733c-1.597-0.531-3.169-0.801-4.676-0.801
			c-3.806,0-7.188,1.661-10.054,4.938c-1.349,1.542-2.385,2.434-4.849,1.014C556.319,44.733,554.558,44.232,552.796,44.232z"/>
		<path fill="#FFFFFF" stroke="#FFFFFF" stroke-miterlimit="10" d="M686.202,132.708c-0.857,0-1.714-0.006-2.57-0.016
			c-0.836-0.006-1.672-0.014-2.508-0.014h-0.002c-0.918,0-1.75,0.004-2.584,0.01c-1.886,0.008-3.772,0.021-5.658-0.02
			c-4.192-0.092-6.484-2.346-6.453-6.348c0.037-4.428-1.385-8.439-4.756-13.408c-6.092-8.988-5.902-18.966,0.519-27.373
			c4.649-6.09,11.637-9.584,19.166-9.584c2.655,0,5.304,0.438,7.871,1.301c9.76,3.279,16.524,12.596,16.452,22.658
			c-0.035,4.846-1.812,9.521-5.432,14.291c-2.709,3.567-4.1,7.455-4.25,11.88c-0.146,4.348-2.252,6.438-6.621,6.578
			C688.318,132.697,687.259,132.708,686.202,132.708z M681.04,131.679c0.924,0,1.762,0.01,2.6,0.016
			c1.902,0.016,3.805,0.033,5.705-0.029c3.885-0.125,5.521-1.75,5.652-5.611c0.158-4.64,1.615-8.712,4.453-12.453
			c3.483-4.592,5.194-9.07,5.229-13.693c0.068-9.482-6.563-18.609-15.771-21.703c-2.465-0.828-5.006-1.248-7.553-1.248
			c-7.215,0-13.911,3.351-18.371,9.191c-6.144,8.045-6.319,17.596-0.483,26.205c3.491,5.15,4.965,9.33,4.928,13.976
			c-0.034,4.314,2.957,5.285,5.474,5.34c1.877,0.039,3.753,0.029,5.632,0.021C679.368,131.685,680.204,131.679,681.04,131.679z"/>
		<path fill="#FFFFFF" stroke="#FFFFFF" stroke-miterlimit="10" d="M464.921,103.342l0.291-2.02c0.301-2.08,0.109-3.479-0.58-4.275
			c-0.709-0.819-2.037-1.086-4.119-0.821c-1.545,0.192-2.762-0.144-3.575-0.984c-0.741-0.769-1.093-1.901-1.041-3.37
			c0.104-2.986,0.067-6.035,0.032-8.98l-0.01-0.877c-0.018-1.428,0.297-2.447,0.955-3.113c0.631-0.639,1.557-0.949,2.827-0.949
			c6.638,0.074,12.982,0.045,19.433,0.016c1.281,0,2.17,0.289,2.759,0.884c0.563,0.569,0.833,1.389,0.821,2.506
			c-0.033,3.228-0.033,6.651,0,11.106c0.011,1.277-0.334,2.332-0.967,2.97c-0.513,0.519-1.191,0.764-2.021,0.694
			c-0.709-0.055-1.396-0.082-2.04-0.082c-5.125,0-8.803,1.793-11.572,5.644L464.921,103.342z M461.913,95.129
			c1.602,0,2.737,0.414,3.475,1.266c0.666,0.768,0.981,1.885,0.959,3.393c2.837-3.227,6.482-4.742,11.34-4.742
			c0.67,0,1.383,0.029,2.117,0.086c0.529,0.033,0.924-0.092,1.234-0.403c0.438-0.438,0.684-1.263,0.676-2.257
			c-0.033-4.461-0.033-7.893,0-11.125c0.01-0.836-0.166-1.422-0.531-1.793c-0.393-0.395-1.049-0.586-2.01-0.586
			c-6.521,0.029-12.94,0.06-19.395-0.016c-0.001,0-0.002,0-0.003,0c-1.065,0-1.757,0.213-2.19,0.652
			c-0.461,0.467-0.68,1.252-0.666,2.398l0.01,0.875c0.035,2.959,0.072,6.02-0.032,9.028c-0.042,1.188,0.215,2.076,0.761,2.644
			c0.585,0.604,1.535,0.838,2.73,0.686C460.938,95.164,461.451,95.129,461.913,95.129z"/>
		<path fill="#FFFFFF" stroke="#FFFFFF" stroke-miterlimit="10" d="M691.196,141.775h-0.152c-1.287-0.02-2.576-0.025-3.863-0.025
			l-5.573,0.014l-5.247-0.002c-1.398,0-2.798,0-4.197,0.004h-0.001c-1.231,0-2.556-0.068-3.366-0.883
			c-0.471-0.471-0.707-1.135-0.703-1.973c0.002-1.055,0.496-2.82,3.766-2.84c6.436-0.027,12.869-0.025,19.305,0
			c1.35,0.008,2.346,0.33,2.959,0.969c0.479,0.498,0.711,1.166,0.684,1.982C694.744,140.849,693.531,141.775,691.196,141.775z
			 M687.179,140.75c1.293,0,2.587,0.008,3.88,0.025h0.138c2.247,0,2.579-0.9,2.607-1.787c0.018-0.545-0.114-0.957-0.404-1.258
			c-0.412-0.428-1.188-0.656-2.242-0.66c-6.432-0.025-12.863-0.027-19.296,0c-2.479,0.016-2.769,1.059-2.771,1.844
			c-0.002,0.568,0.133,0.982,0.41,1.264c0.543,0.543,1.631,0.588,2.607,0.588c1.45-0.004,2.852-0.004,4.25-0.004l5.247,0.002
			L687.179,140.75z"/>
		<path fill="#FFFFFF" stroke="#FFFFFF" stroke-miterlimit="10" d="M680.722,150.871c-2.051,0-4.102-0.014-6.152-0.035
			c-0.836-0.01-1.525-0.283-1.994-0.791c-0.48-0.521-0.703-1.26-0.645-2.141c0.101-1.473,1.076-2.291,2.748-2.301
			c0.959-0.006,1.922-0.008,2.883-0.008l2.958,0.002l5.08-0.014c0.854,0,1.712,0.004,2.567,0.018c0.98,0.02,1.767,0.305,2.271,0.83
			c0.442,0.461,0.659,1.076,0.644,1.83c-0.031,1.479-1.107,2.529-2.619,2.551C685.882,150.851,683.302,150.871,680.722,150.871z
			 M677.562,146.595c-0.959,0-1.918,0.002-2.877,0.008c-1.475,0.01-1.713,0.736-1.756,1.369c-0.041,0.598,0.091,1.078,0.381,1.393
			c0.281,0.307,0.709,0.465,1.271,0.471c4.623,0.055,9.244,0.049,13.864-0.021c0.974-0.014,1.614-0.631,1.634-1.572
			c0.012-0.479-0.111-0.854-0.363-1.115c-0.398-0.416-1.071-0.514-1.565-0.523c-0.851-0.014-1.7-0.018-2.551-0.018l-5.08,0.014
			L677.562,146.595z"/>
		<path fill="#FFFFFF" d="M693.975,100.782c-0.062-4.62-4.438-10.146-8.935-11.282c-0.845-0.213-1.988-0.818-2.457,0.481
			c-0.424,1.176,0.433,1.625,1.459,1.974c4.303,1.461,6.646,4.569,7.381,8.987c0.166,0.994-0.133,2.483,1.638,2.129
			C694.409,102.799,693.826,101.551,693.975,100.782z"/>
		<path fill="#FFFFFF" stroke="#FFFFFF" stroke-miterlimit="10" d="M693.975,100.782c-0.148,0.771,0.435,2.019-0.914,2.289
			c-1.771,0.354-1.472-1.135-1.638-2.129c-0.734-4.418-3.078-7.526-7.381-8.987c-1.026-0.349-1.883-0.798-1.459-1.974
			c0.469-1.302,1.612-0.694,2.457-0.481C689.536,90.635,693.915,96.162,693.975,100.782z"/>
	</g>
</g>
</svg>
