<?xml version="1.0" encoding="utf-8"?>
<!-- Generator: Adobe Illustrator 16.0.0, SVG Export Plug-In . SVG Version: 6.00 Build 0)  -->
<!DOCTYPE svg PUBLIC "-//W3C//DTD SVG 1.1//EN" "http://www.w3.org/Graphics/SVG/1.1/DTD/svg11.dtd">
<svg version="1.1" id="Capa_1" xmlns="http://www.w3.org/2000/svg" xmlns:xlink="http://www.w3.org/1999/xlink" x="0px" y="0px"
	 width="55.223px" height="55.225px" viewBox="0 0 55.223 55.225" style="enable-background:new 0 0 55.223 55.225;"
	 xml:space="preserve">
<style type="text/css">
<![CDATA[
	.st0{opacity:0.05;fill:#5D5D5D;}
	.st1{fill:none;stroke:#5D5D5D;stroke-width:0.5;stroke-miterlimit:10;}
	.st2{fill:#ECB43C;}
	.st3{fill:none;stroke:#ECB43C;stroke-width:2;stroke-miterlimit:10;}
	.st4{fill-rule:evenodd;clip-rule:evenodd;fill:#887AA8;}
	.st5{fill:#5D5D5D;}
	.st6{fill-rule:evenodd;clip-rule:evenodd;fill:#89898A;}
	.st7{fill-rule:evenodd;clip-rule:evenodd;fill:#ECB43C;}
	.st8{fill:#FFB62A;}
	.st9{fill:#FFFFFF;}
	.st10{fill-rule:evenodd;clip-rule:evenodd;fill:#5D5D5D;}
	.st11{fill:none;stroke:#5D5D5D;stroke-miterlimit:10;}
	.st12{fill-rule:evenodd;clip-rule:evenodd;fill:#FA494D;}
	.st13{fill-rule:evenodd;clip-rule:evenodd;fill:#FF8F48;}
	.st14{fill-rule:evenodd;clip-rule:evenodd;fill:#FFB62A;}
	.st15{fill-rule:evenodd;clip-rule:evenodd;fill:#FFFFFF;}
	.st16{fill-rule:evenodd;clip-rule:evenodd;fill:none;stroke:#89898A;stroke-miterlimit:10;}
	.st17{fill-rule:evenodd;clip-rule:evenodd;fill:none;stroke:#5D5D5D;stroke-miterlimit:10;}
	.st18{fill-rule:evenodd;clip-rule:evenodd;fill:#000033;}
	.st19{fill-rule:evenodd;clip-rule:evenodd;fill:#00A89D;}
	.st20{fill-rule:evenodd;clip-rule:evenodd;fill:#00AA49;}
	.st21{fill-rule:evenodd;clip-rule:evenodd;fill:#00ABE1;}
]]>
</style>
<g id="Lz3EDj_2_">
	<g>
		<path class="st18" d="M0,1.684c0.191-0.273,0.361-0.57,0.579-0.812C1.209,0.168,1.94-0.105,2.814,0.24
			C3.68,0.578,4.155,1.258,4.212,2.275C4.248,2.92,4.228,3.568,4.228,4.215c0.002,14.912,0.011,29.824-0.02,44.734
			c-0.003,1.057,0.188,1.533,1.195,1.375c1.077-0.166,2.53,0.539,3.147-0.307c0.531-0.725,0.167-2.295,0.171-3.49
			c0.009-2.771,0.025-5.541-0.011-8.311c-0.01-0.785,0.077-1.213,0.914-1.072c1.2,0.197,2.197-0.49,3.361-1.316
			c0,1.223,0,2.252,0,3.281c0,3.324,0.028,6.648-0.018,9.973c-0.012,0.92,0.142,1.305,1.053,1.256
			c1.634-0.088,3.28-0.113,4.911,0.004c1.087,0.078,1.24-0.381,1.23-1.473c-0.049-5.678,0.005-11.355-0.047-17.033
			c-0.009-1.016,0.266-1.621,1.035-2.068c0.542-0.314,1.025-0.754,1.548-1.115c0.91-0.629,1.649-0.166,1.652,1.062
			c0.011,4.941,0.004,9.881,0.004,14.82c0,1.615,0.03,3.232-0.013,4.848c-0.02,0.727,0.184,0.959,0.83,0.945
			c1.802-0.043,3.605-0.076,5.404,0.01c0.887,0.043,0.992-0.371,0.989-1.207c-0.027-5.125,0-10.25-0.026-15.373
			c-0.005-0.941,0.031-1.408,1.023-0.824c0.989,0.58,2.103,0.648,3.268,0.312c0,5.305,0.03,10.518-0.024,15.732
			c-0.012,1.096,0.247,1.414,1.214,1.359c1.634-0.092,3.277-0.082,4.912-0.002c0.872,0.041,1.078-0.277,1.073-1.234
			c-0.035-7.201,0.028-14.404-0.06-21.605c-0.017-1.461,0.855-1.955,1.528-2.748c0.049-0.059,0.175-0.121,0.209-0.094
			c0.753,0.609,1.425,1.332,2.325,1.727c0.441,0.191,0.188,0.83,0.189,1.256c0.014,7.016,0.044,14.033-0.021,21.051
			c-0.012,1.328,0.257,1.777,1.462,1.654c1.3-0.131,2.62,0.027,3.928-0.045c1.294-0.072,2.196,0.469,2.72,1.805
			c0,0.463,0,0.924,0,1.385c-0.679,1.242-1.662,1.65-2.95,1.648c-16.461-0.033-32.923-0.033-49.384-0.002
			C1.665,55.137,0.678,54.736,0,53.486C0,36.221,0,18.951,0,1.684z"/>
		<path class="st18" d="M46.11,19.73c-2.201,2.271-4.205,4.334-6.206,6.406c-1.235,1.279-2.482,2.547-3.688,3.863
			c-0.944,1.031-1.915,1.172-3.115,0.545c-3.027-1.584-6.102-3.057-9.131-4.633c-0.675-0.35-1.144-0.301-1.764,0.162
			c-3.642,2.721-7.322,5.369-10.974,8.07c-0.784,0.58-1.566,0.785-2.409,0.297c-1.428-0.822-1.63-2.967-0.267-3.992
			c4.377-3.297,8.809-6.504,13.23-9.729c0.811-0.592,1.635-0.316,2.446,0.096c3.006,1.525,6.014,3.045,9.025,4.555
			c0.34,0.168,0.645,0.521,1.083,0.057c2.709-2.855,5.444-5.68,8.342-8.691c-0.58-0.035-0.926-0.035-1.267-0.084
			c-1.078-0.152-1.854-1.141-1.861-2.352c-0.006-1.184,0.78-2.307,1.855-2.342c2.332-0.08,4.669-0.076,7.001-0.012
			c1.115,0.033,1.903,1.029,1.937,2.422c0.058,2.4,0.059,4.803,0.005,7.203c-0.033,1.49-0.982,2.502-2.163,2.5
			c-1.188-0.002-2.021-1.014-2.077-2.549C46.096,21.033,46.11,20.543,46.11,19.73z"/>
	</g>
</g>
</svg>
