<?xml version="1.0" encoding="utf-8"?>
<!-- Generator: Adobe Illustrator 16.0.0, SVG Export Plug-In . SVG Version: 6.00 Build 0)  -->
<!DOCTYPE svg PUBLIC "-//W3C//DTD SVG 1.1//EN" "http://www.w3.org/Graphics/SVG/1.1/DTD/svg11.dtd">
<svg version="1.1" id="Capa_1" xmlns="http://www.w3.org/2000/svg" xmlns:xlink="http://www.w3.org/1999/xlink" x="0px" y="0px"
	 width="302px" height="245.714px" viewBox="0 0 302 245.714" enable-background="new 0 0 302 245.714" xml:space="preserve">
<g>
	<path fill="#FFFFFF" d="M112.468,133.329c-3.605-7.719-8.998-10.137-11.3-10.844c2.478-1.889,4.086-4.859,4.086-8.208
		c0-5.692-4.631-10.323-10.323-10.323s-10.323,4.631-10.323,10.323c0,3.352,1.612,6.325,4.095,8.212
		c-2.261,0.715-7.523,3.14-11.12,10.84c-2.357,5.048-1.189,7.572-0.282,8.628c0.815,0.95,1.906,1.331,2.861,1.331
		c0.327,0,0.638-0.045,0.917-0.127c0.238-0.068,0.457-0.166,0.654-0.285c0.101,0.868,0.36,1.578,0.834,2.166
		c1.518,1.883,4.886,2.229,12.357,2.33l0.007-0.51l0.007,0.51c7.472-0.102,10.84-0.447,12.357-2.33
		c0.499-0.619,0.758-1.375,0.846-2.309c0.243,0.18,0.512,0.335,0.831,0.428c0.279,0.082,0.59,0.127,0.917,0.127
		c0.955,0,2.047-0.381,2.863-1.331C113.658,140.901,114.826,138.377,112.468,133.329z M85.627,114.277
		c0-5.13,4.174-9.304,9.304-9.304s9.304,4.174,9.304,9.304s-4.174,9.304-9.304,9.304S85.627,119.407,85.627,114.277z M81.7,141.44
		c-0.204,0.451-0.63,0.662-0.908,0.743c-0.778,0.228-1.918,0.04-2.719-0.891c-0.746-0.869-1.682-3.003,0.434-7.532
		c2.545-5.447,6.004-8.116,8.456-9.404c-1.403,1.717-3.032,4.783-4.145,10.25C82.227,137.507,81.781,139.72,81.7,141.44z
		 M106.502,144.401c-1.242,1.543-4.722,1.857-11.571,1.951c-6.849-0.094-10.329-0.408-11.57-1.951
		c-0.516-0.641-0.686-1.562-0.641-2.809c0.034-0.109,0.082-0.214,0.099-0.33l-0.084-0.013c0.105-1.602,0.527-3.714,1.099-6.521
		c1.903-9.354,5.327-11.189,6.024-11.472c1.501,0.851,3.229,1.343,5.073,1.343c1.845,0,3.573-0.492,5.072-1.343
		c0.699,0.282,4.124,2.124,6.043,11.552C107.11,140.039,107.696,142.92,106.502,144.401z M111.978,141.293
		c-0.799,0.931-1.94,1.118-2.719,0.891c-0.339-0.1-0.92-0.37-1.018-1.063l-0.096,0.014c-0.116-1.688-0.553-3.832-1.117-6.607
		c-1.114-5.475-2.758-8.527-4.167-10.227c2.51,1.266,6.1,3.932,8.683,9.461C113.661,138.29,112.724,140.424,111.978,141.293z"/>
	<path fill="#FFFFFF" d="M225.861,133.329c-3.605-7.719-8.998-10.137-11.3-10.844c2.478-1.889,4.086-4.859,4.086-8.208
		c0-5.692-4.631-10.323-10.323-10.323S198,108.585,198,114.277c0,3.352,1.612,6.325,4.095,8.212
		c-2.261,0.715-7.523,3.14-11.12,10.84c-2.357,5.048-1.189,7.572-0.282,8.628c0.815,0.95,1.906,1.331,2.861,1.331
		c0.327,0,0.638-0.045,0.917-0.127c0.238-0.068,0.457-0.166,0.654-0.285c0.101,0.868,0.36,1.578,0.834,2.166
		c1.518,1.883,4.886,2.229,12.357,2.33l0.007-0.51l0.007,0.51c7.472-0.102,10.84-0.447,12.357-2.33
		c0.499-0.619,0.758-1.375,0.846-2.309c0.243,0.18,0.512,0.335,0.831,0.428c0.279,0.082,0.59,0.127,0.917,0.127
		c0.955,0,2.047-0.381,2.863-1.331C227.05,140.901,228.218,138.377,225.861,133.329z M199.02,114.277
		c0-5.13,4.174-9.304,9.304-9.304s9.304,4.174,9.304,9.304s-4.174,9.304-9.304,9.304S199.02,119.407,199.02,114.277z
		 M195.092,141.44c-0.204,0.451-0.63,0.662-0.908,0.743c-0.778,0.228-1.918,0.04-2.719-0.891c-0.746-0.869-1.682-3.003,0.434-7.532
		c2.545-5.447,6.004-8.116,8.456-9.404c-1.403,1.717-3.032,4.783-4.145,10.25C195.62,137.507,195.173,139.72,195.092,141.44z
		 M219.895,144.401c-1.242,1.543-4.722,1.857-11.571,1.951c-6.849-0.094-10.329-0.408-11.57-1.951
		c-0.516-0.641-0.686-1.562-0.641-2.809c0.034-0.109,0.082-0.214,0.099-0.33l-0.084-0.013c0.105-1.602,0.527-3.714,1.099-6.521
		c1.903-9.354,5.327-11.189,6.024-11.472c1.501,0.851,3.229,1.343,5.073,1.343c1.845,0,3.573-0.492,5.072-1.343
		c0.699,0.282,4.124,2.124,6.043,11.552C220.502,140.039,221.088,142.92,219.895,144.401z M225.371,141.293
		c-0.799,0.931-1.94,1.118-2.719,0.891c-0.339-0.1-0.92-0.37-1.018-1.063l-0.096,0.014c-0.116-1.688-0.553-3.832-1.117-6.607
		c-1.114-5.475-2.758-8.527-4.167-10.227c2.51,1.266,6.1,3.932,8.683,9.461C227.053,138.29,226.117,140.424,225.371,141.293z"/>
	
		<rect x="110.809" y="70.091" transform="matrix(0.5972 0.8021 -0.8021 0.5972 116.0333 -53.5267)" fill="#FFFFFF" stroke="#FFFFFF" stroke-miterlimit="10" width="1.001" height="37.343"/>
	
		<rect x="190.646" y="70.091" transform="matrix(-0.5972 0.8021 -0.8021 -0.5972 376.4921 -11.549)" fill="#FFFFFF" stroke="#FFFFFF" stroke-miterlimit="10" width="1.001" height="37.343"/>
	<g>
		<path fill-rule="evenodd" clip-rule="evenodd" fill="#FFFFFF" d="M166.191,48.249c0.345,1.449-0.601,1.799-0.991,2.467
			c-1.423,2.438-1.045,4.552,1.161,6.453c2.36,2.036,1.962,5.057-0.86,5.634c-3.291,0.675-4.185,2.556-4.225,5.56
			c-0.045,3.465-1.766,4.73-4.896,2.823c-2.59-1.577-4.766-0.827-6.53,1.042c-2.915,3.091-4.427,2.193-5.618-1.406
			c-0.848-2.566-2.592-3.935-5.565-3.618c-2.943,0.312-4.644-2.187-3.205-4.646c1.648-2.82,1.415-4.802-1.174-7.174
			c-1.929-1.769-2.284-4.45,1.552-5.31c2.956-0.664,4.334-2.387,3.924-5.625c-0.348-2.746,2.279-4.535,4.541-3.059
			c2.892,1.886,4.923,1.316,7.126-1.092c2.247-2.455,4.339-1.824,5.347,1.234c0.998,3.033,2.665,4.769,5.976,3.94
			C165.708,44.732,164.96,47.804,166.191,48.249z M150.269,46.867c-5.284,0.102-9.356,4.305-9.321,9.62
			c0.036,5.552,4.323,9.703,9.881,9.566c5.233-0.127,9.411-4.395,9.422-9.623C160.26,51.062,155.772,46.762,150.269,46.867z"/>
	</g>
	<path fill="#FFFFFF" stroke="#FFFFFF" stroke-miterlimit="10" d="M150.589,88.698c-17.782,0-32.25-14.468-32.25-32.25
		c0-17.783,14.468-32.25,32.25-32.25s32.25,14.467,32.25,32.25C182.839,74.23,168.372,88.698,150.589,88.698z M150.589,25.198
		c-17.231,0-31.25,14.018-31.25,31.25c0,17.23,14.019,31.25,31.25,31.25s31.25-14.02,31.25-31.25
		C181.839,39.216,167.821,25.198,150.589,25.198z"/>
</g>
</svg>
