<?xml version="1.0" encoding="utf-8"?>
<!-- Generator: Adobe Illustrator 16.0.0, SVG Export Plug-In . SVG Version: 6.00 Build 0)  -->
<!DOCTYPE svg PUBLIC "-//W3C//DTD SVG 1.1//EN" "http://www.w3.org/Graphics/SVG/1.1/DTD/svg11.dtd">
<svg version="1.1" id="Capa_1" xmlns="http://www.w3.org/2000/svg" xmlns:xlink="http://www.w3.org/1999/xlink" x="0px" y="0px"
	 width="55.223px" height="55.225px" viewBox="0 0 55.223 55.225" style="enable-background:new 0 0 55.223 55.225;"
	 xml:space="preserve">
<style type="text/css">
<![CDATA[
	.st0{opacity:0.05;fill:#5D5D5D;}
	.st1{fill:none;stroke:#5D5D5D;stroke-width:0.5;stroke-miterlimit:10;}
	.st2{fill:#ECB43C;}
	.st3{fill:none;stroke:#ECB43C;stroke-width:2;stroke-miterlimit:10;}
	.st4{fill-rule:evenodd;clip-rule:evenodd;fill:#887AA8;}
	.st5{fill:#5D5D5D;}
	.st6{fill-rule:evenodd;clip-rule:evenodd;fill:#89898A;}
	.st7{fill-rule:evenodd;clip-rule:evenodd;fill:#ECB43C;}
	.st8{fill:#FFB62A;}
	.st9{fill:#FFFFFF;}
	.st10{fill-rule:evenodd;clip-rule:evenodd;fill:#5D5D5D;}
	.st11{fill:none;stroke:#5D5D5D;stroke-miterlimit:10;}
	.st12{fill-rule:evenodd;clip-rule:evenodd;fill:#FA494D;}
	.st13{fill-rule:evenodd;clip-rule:evenodd;fill:#FF8F48;}
	.st14{fill-rule:evenodd;clip-rule:evenodd;fill:#FFB62A;}
	.st15{fill-rule:evenodd;clip-rule:evenodd;fill:#FFFFFF;}
	.st16{fill-rule:evenodd;clip-rule:evenodd;fill:none;stroke:#89898A;stroke-miterlimit:10;}
	.st17{fill-rule:evenodd;clip-rule:evenodd;fill:none;stroke:#5D5D5D;stroke-miterlimit:10;}
	.st18{fill-rule:evenodd;clip-rule:evenodd;fill:#000033;}
	.st19{fill-rule:evenodd;clip-rule:evenodd;fill:#00A89D;}
	.st20{fill-rule:evenodd;clip-rule:evenodd;fill:#00AA49;}
	.st21{fill-rule:evenodd;clip-rule:evenodd;fill:#00ABE1;}
]]>
</style>
<g id="ewAorh_2_">
	<g>
		<path class="st18" d="M53.744,47.617c-0.193,0.033-0.386,0.084-0.579,0.097c-0.429,0.026-0.931,0.209-0.935-0.555
			c-0.004-0.772,0.512-0.571,0.935-0.557c0.192,0.006,0.386,0.057,0.579,0.087C53.744,46.998,53.744,47.308,53.744,47.617z"/>
		<path class="st18" d="M41.988,43.229c-3.55,0-7.101-0.037-10.651,0.021c-1.003,0.017-1.313-0.25-1.307-1.279
			c0.043-7.153,0.04-14.305,0.001-21.456c-0.005-0.955,0.266-1.338,1.229-1.487c2.079-0.323,4.13-0.82,6.268-0.515
			c1.117,0.159,1.404,0.725,1.028,1.708c-0.406,1.054-0.856,2.094-0.874,3.249c-0.005,0.358-0.017,0.729,0.059,1.076
			c0.406,1.909,2.73,2.858,5.688,2.341c1.998-0.35,3.143-1.785,2.814-3.716c-0.177-1.054-0.537-2.086-0.912-3.092
			c-0.349-0.939,0.005-1.368,0.886-1.526c2.499-0.451,4.901,0.222,7.322,0.664c0.275,0.052,0.462,0.228,0.511,0.508
			c0.424,2.368,1.098,4.709,0.706,7.166c-0.194,1.216-0.769,1.4-1.83,0.971c-0.85-0.346-1.746-0.623-2.646-0.793
			c-1.935-0.368-3.352,0.552-3.811,2.461c-0.277,1.16-0.278,2.362-0.008,3.521c0.482,2.067,1.982,2.933,4.244,2.442
			c0.846-0.183,1.65-0.554,2.48-0.82c0.838-0.271,1.373-0.065,1.546,0.903c0.433,2.454-0.197,4.802-0.669,7.166
			c-0.153,0.769-0.82,0.47-1.271,0.472C49.191,43.238,45.588,43.229,41.988,43.229z"/>
		<path class="st18" d="M51.645,47.14c0.007,1.66-1.236,2.949-2.882,2.987c-1.723,0.04-3.064-1.25-3.071-2.956
			c-0.009-1.709,1.32-3.015,3.04-2.987C50.381,44.21,51.636,45.484,51.645,47.14z M48.632,45.758
			c-0.812,0.123-1.356,0.577-1.337,1.399c0.021,0.888,0.572,1.432,1.488,1.362c0.828-0.063,1.293-0.597,1.251-1.438
			C49.989,46.23,49.441,45.84,48.632,45.758z"/>
		<path class="st18" d="M26.776,44.183c1.704,0.032,2.977,1.396,2.908,3.113c-0.065,1.635-1.382,2.86-3.035,2.832
			c-1.71-0.029-2.968-1.379-2.9-3.115C23.81,45.372,25.113,44.153,26.776,44.183z M28.115,47.217
			c-0.074-0.818-0.479-1.371-1.31-1.427c-0.83-0.057-1.38,0.408-1.451,1.235c-0.076,0.914,0.436,1.469,1.342,1.501
			C27.54,48.555,27.969,48.011,28.115,47.217z"/>
		<path class="st18" d="M37.775,47.747c-2.238,0-4.479,0.015-6.718-0.017c-0.272-0.004-0.732,0.361-0.764-0.534
			c-0.029-0.912,0.434-0.61,0.716-0.611c4.546-0.017,9.094-0.017,13.641,0c0.285,0.001,0.744-0.293,0.712,0.615
			c-0.031,0.895-0.492,0.526-0.765,0.53C42.323,47.762,40.052,47.747,37.775,47.747z"/>
		<path class="st18" d="M26.237,43.194c0.011,0.546-0.418,0.451-0.662,0.543c-0.586,0.217-0.514-0.307-0.602-0.61
			c-0.539-1.867-1.066-3.738-1.6-5.607c-0.742-2.609-1.496-5.213-2.219-7.825c-0.117-0.423-0.569-1.003,0.288-1.229
			c0.864-0.229,0.727,0.493,0.85,0.925c1.247,4.381,2.48,8.76,3.722,13.143C26.082,42.779,26.176,43.017,26.237,43.194z"/>
		<g>
			<path class="st18" d="M20.482,24.645c-0.918-0.006-1.848-0.112-2.747-0.328c-2.597-0.625-4.795-3.141-5.077-5.703
				c0.26,0.08,0.624,0.473,0.604-0.296c0.852-2.416,0.597-4.763-0.631-5.827c-1.334-1.15-3.609-0.641-5.039,1.167
				c-0.317,0.4-0.608,0.855-0.837,1.339c-1.323,2.777-2.328,5.729-2.69,8.918c-0.271,2.386-0.938,4.916,0.188,7.17
				c1.06,2.122,1.204,4.344,1.084,6.674c-0.277,5.322-2.489,9.509-5.341,13.31c0,0.754,0,1.506,0,2.258
				c1.787,2.698,3.203,2.683,5.063-0.063c2.757-4.067,4.61-8.643,5.25-14.109c0.74,0.995,1.043,2.056,1.389,3.064
				c1.099,3.192,1.694,6.537,1.999,9.982c0.18,2.037,1.331,3.182,2.772,3.006c1.321-0.16,2.354-1.554,2.221-3.262
				c-0.538-6.901-1.931-13.566-5.706-18.88c-1.924-2.706-2.58-5.126-1.538-8.337c0.101-0.016,0.198-0.043,0.292-0.092
				c2.438,2.836,5.373,4.022,8.701,3.874c1.055-0.047,1.977-0.483,1.938-1.988C22.344,25.151,21.58,24.651,20.482,24.645z
				 M11.165,23.919c0.001,0,0.001,0,0.002,0l-0.082,0.093C11.085,24.012,11.167,23.919,11.165,23.919z"/>
			<path class="st18" d="M11.658,10.027c1.949,1.758,4.738,1.308,6.219-0.999C19.164,7.02,19,6.163,17.154,5.272
				c1.674-0.507,3.441,0.085,5.119-0.603c-0.127-0.856-0.736-0.88-1.183-0.998c-1.554-0.409-2.918-0.997-4.173-2.417
				c-1.761-1.986-4.66-1.281-6.148,1.085C9.26,4.736,9.663,8.229,11.658,10.027z"/>
		</g>
	</g>
</g>
</svg>
