<?xml version="1.0" encoding="utf-8"?>
<!-- Generator: Adobe Illustrator 16.0.0, SVG Export Plug-In . SVG Version: 6.00 Build 0)  -->
<!DOCTYPE svg PUBLIC "-//W3C//DTD SVG 1.1//EN" "http://www.w3.org/Graphics/SVG/1.1/DTD/svg11.dtd">
<svg version="1.1" id="Capa_1" xmlns="http://www.w3.org/2000/svg" xmlns:xlink="http://www.w3.org/1999/xlink" x="0px" y="0px"
	 width="302px" height="245.714px" viewBox="0 0 302 245.714" enable-background="new 0 0 302 245.714" xml:space="preserve">
<g>
	<path fill="#FFFFFF" d="M43.247,54.874c-3.605-7.72-8.998-10.137-11.3-10.845c2.478-1.888,4.086-4.859,4.086-8.208
		c0-5.691-4.631-10.322-10.323-10.322S15.387,30.13,15.387,35.821c0,3.352,1.612,6.326,4.095,8.213
		c-2.261,0.715-7.523,3.139-11.12,10.84c-2.357,5.047-1.189,7.572-0.282,8.627c0.815,0.951,1.906,1.332,2.861,1.332
		c0.327,0,0.638-0.045,0.917-0.127c0.238-0.069,0.457-0.166,0.654-0.285c0.101,0.867,0.36,1.577,0.834,2.165
		c1.518,1.884,4.886,2.229,12.357,2.331l0.007-0.51l0.007,0.51c7.472-0.102,10.84-0.447,12.357-2.331
		c0.499-0.618,0.758-1.374,0.846-2.308c0.243,0.18,0.512,0.334,0.831,0.428c0.279,0.082,0.59,0.127,0.917,0.127
		c0.955,0,2.047-0.381,2.863-1.332C44.437,62.446,45.604,59.921,43.247,54.874z M16.406,35.821c0-5.13,4.174-9.303,9.304-9.303
		s9.304,4.173,9.304,9.303c0,5.131-4.174,9.305-9.304,9.305S16.406,40.952,16.406,35.821z M12.479,62.985
		c-0.204,0.45-0.63,0.661-0.908,0.742c-0.778,0.229-1.918,0.041-2.719-0.891c-0.746-0.869-1.682-3.002,0.434-7.532
		c2.545-5.446,6.004-8.116,8.456-9.403c-1.403,1.717-3.032,4.783-4.145,10.249C13.006,59.052,12.56,61.265,12.479,62.985z
		 M37.281,65.946c-1.242,1.542-4.722,1.857-11.571,1.951c-6.849-0.094-10.329-0.409-11.57-1.951
		c-0.516-0.641-0.686-1.563-0.641-2.809c0.034-0.11,0.082-0.215,0.099-0.331l-0.084-0.013c0.105-1.602,0.527-3.713,1.099-6.52
		c1.903-9.355,5.327-11.189,6.024-11.473c1.501,0.852,3.229,1.344,5.073,1.344c1.845,0,3.573-0.492,5.072-1.344
		c0.699,0.283,4.124,2.125,6.043,11.553C37.889,61.583,38.475,64.464,37.281,65.946z M42.757,62.837
		c-0.799,0.932-1.94,1.119-2.719,0.891c-0.339-0.1-0.92-0.369-1.018-1.062l-0.096,0.014c-0.116-1.688-0.553-3.833-1.117-6.607
		c-1.114-5.476-2.758-8.528-4.167-10.227c2.51,1.266,6.1,3.931,8.683,9.46C44.439,59.835,43.503,61.968,42.757,62.837z"/>
	<path fill="#FFFFFF" d="M195.532,54.874c-3.605-7.72-8.998-10.137-11.3-10.845c2.478-1.888,4.086-4.859,4.086-8.208
		c0-5.691-4.631-10.322-10.323-10.322s-10.323,4.631-10.323,10.322c0,3.352,1.612,6.326,4.095,8.213
		c-2.261,0.715-7.523,3.139-11.12,10.84c-2.357,5.047-1.189,7.572-0.282,8.627c0.815,0.951,1.906,1.332,2.861,1.332
		c0.327,0,0.638-0.045,0.917-0.127c0.238-0.069,0.457-0.166,0.654-0.285c0.101,0.867,0.36,1.577,0.834,2.165
		c1.518,1.884,4.886,2.229,12.357,2.331l0.007-0.51l0.007,0.51c7.472-0.102,10.84-0.447,12.357-2.331
		c0.499-0.618,0.758-1.374,0.846-2.308c0.243,0.18,0.512,0.334,0.831,0.428c0.279,0.082,0.59,0.127,0.917,0.127
		c0.955,0,2.047-0.381,2.863-1.332C196.722,62.446,197.89,59.921,195.532,54.874z M168.691,35.821c0-5.13,4.174-9.303,9.304-9.303
		s9.304,4.173,9.304,9.303c0,5.131-4.174,9.305-9.304,9.305S168.691,40.952,168.691,35.821z M164.764,62.985
		c-0.204,0.45-0.63,0.661-0.908,0.742c-0.778,0.229-1.918,0.041-2.719-0.891c-0.746-0.869-1.682-3.002,0.434-7.532
		c2.545-5.446,6.004-8.116,8.456-9.403c-1.403,1.717-3.032,4.783-4.145,10.249C165.291,59.052,164.845,61.265,164.764,62.985z
		 M189.566,65.946c-1.242,1.542-4.722,1.857-11.571,1.951c-6.849-0.094-10.329-0.409-11.57-1.951
		c-0.516-0.641-0.686-1.563-0.641-2.809c0.034-0.11,0.082-0.215,0.099-0.331l-0.084-0.013c0.105-1.602,0.527-3.713,1.099-6.52
		c1.903-9.355,5.327-11.189,6.024-11.473c1.501,0.852,3.229,1.344,5.073,1.344c1.845,0,3.573-0.492,5.072-1.344
		c0.699,0.283,4.124,2.125,6.043,11.553C190.174,61.583,190.76,64.464,189.566,65.946z M195.042,62.837
		c-0.799,0.932-1.94,1.119-2.719,0.891c-0.339-0.1-0.92-0.369-1.018-1.062l-0.096,0.014c-0.116-1.688-0.553-3.833-1.117-6.607
		c-1.114-5.476-2.758-8.528-4.167-10.227c2.51,1.266,6.1,3.931,8.683,9.46C196.725,59.835,195.788,61.968,195.042,62.837z"/>
	<path fill="#FFFFFF" d="M280.026,91.88c-3.605-7.719-8.998-10.137-11.3-10.844c2.478-1.889,4.086-4.859,4.086-8.207
		c0-5.693-4.631-10.324-10.323-10.324s-10.323,4.631-10.323,10.324c0,3.352,1.612,6.325,4.095,8.212
		c-2.261,0.715-7.523,3.14-11.12,10.839c-2.357,5.049-1.189,7.573-0.282,8.629c0.815,0.95,1.906,1.33,2.861,1.33
		c0.327,0,0.638-0.044,0.917-0.126c0.238-0.069,0.457-0.167,0.654-0.286c0.101,0.869,0.36,1.578,0.834,2.166
		c1.518,1.883,4.886,2.229,12.357,2.331l0.007-0.51l0.007,0.51c7.472-0.102,10.84-0.448,12.357-2.331
		c0.499-0.618,0.758-1.374,0.846-2.308c0.243,0.179,0.512,0.335,0.831,0.428c0.279,0.082,0.59,0.126,0.917,0.126
		c0.955,0,2.047-0.38,2.863-1.33C281.216,99.453,282.384,96.929,280.026,91.88z M253.186,72.829c0-5.131,4.174-9.305,9.304-9.305
		s9.304,4.174,9.304,9.305c0,5.13-4.174,9.303-9.304,9.303S253.186,77.959,253.186,72.829z M249.258,99.991
		c-0.204,0.451-0.63,0.662-0.908,0.744c-0.778,0.228-1.918,0.039-2.719-0.891c-0.746-0.869-1.682-3.004,0.434-7.533
		c2.545-5.447,6.004-8.115,8.456-9.404c-1.403,1.718-3.032,4.783-4.145,10.25C249.785,96.058,249.339,98.271,249.258,99.991z
		 M274.061,102.953c-1.242,1.542-4.722,1.857-11.571,1.951c-6.849-0.094-10.329-0.409-11.57-1.951
		c-0.516-0.641-0.686-1.563-0.641-2.81c0.034-0.109,0.082-0.213,0.099-0.33l-0.084-0.012c0.105-1.602,0.527-3.715,1.099-6.521
		c1.903-9.354,5.327-11.189,6.024-11.471c1.501,0.85,3.229,1.342,5.073,1.342c1.845,0,3.573-0.492,5.072-1.342
		c0.699,0.282,4.124,2.124,6.043,11.551C274.668,98.591,275.254,101.472,274.061,102.953z M279.536,99.845
		c-0.799,0.93-1.94,1.118-2.719,0.891c-0.339-0.1-0.92-0.37-1.018-1.063l-0.096,0.014c-0.116-1.688-0.553-3.833-1.117-6.608
		c-1.114-5.475-2.758-8.527-4.167-10.227c2.51,1.266,6.1,3.932,8.683,9.461C281.219,96.841,280.282,98.976,279.536,99.845z"/>
	<path fill="#FFFFFF" d="M261.1,198.829c-3.605-7.719-8.998-10.137-11.3-10.844c2.478-1.889,4.086-4.859,4.086-8.207
		c0-5.693-4.631-10.324-10.323-10.324s-10.323,4.631-10.323,10.324c0,3.352,1.612,6.325,4.095,8.212
		c-2.261,0.715-7.523,3.14-11.12,10.839c-2.357,5.049-1.189,7.573-0.282,8.629c0.815,0.95,1.906,1.33,2.861,1.33
		c0.327,0,0.638-0.044,0.917-0.126c0.238-0.069,0.457-0.167,0.654-0.286c0.101,0.869,0.36,1.578,0.834,2.166
		c1.518,1.883,4.886,2.229,12.357,2.331l0.007-0.51l0.007,0.51c7.472-0.102,10.84-0.448,12.357-2.331
		c0.499-0.618,0.758-1.374,0.846-2.308c0.243,0.179,0.512,0.335,0.831,0.428c0.279,0.082,0.59,0.126,0.917,0.126
		c0.955,0,2.047-0.38,2.863-1.33C262.289,206.402,263.457,203.878,261.1,198.829z M234.259,179.778c0-5.131,4.174-9.305,9.304-9.305
		s9.304,4.174,9.304,9.305c0,5.13-4.174,9.303-9.304,9.303S234.259,184.908,234.259,179.778z M230.331,206.94
		c-0.204,0.451-0.63,0.662-0.908,0.744c-0.778,0.228-1.918,0.039-2.719-0.891c-0.746-0.869-1.682-3.004,0.434-7.533
		c2.545-5.447,6.004-8.115,8.456-9.404c-1.403,1.718-3.032,4.783-4.145,10.25C230.858,203.007,230.412,205.22,230.331,206.94z
		 M255.134,209.902c-1.242,1.542-4.722,1.857-11.571,1.951c-6.849-0.094-10.329-0.409-11.57-1.951
		c-0.516-0.641-0.686-1.563-0.641-2.81c0.034-0.109,0.082-0.213,0.099-0.33l-0.084-0.012c0.105-1.602,0.527-3.715,1.099-6.521
		c1.903-9.354,5.327-11.189,6.024-11.471c1.501,0.85,3.229,1.342,5.073,1.342c1.845,0,3.573-0.492,5.072-1.342
		c0.699,0.282,4.124,2.124,6.043,11.551C255.741,205.54,256.327,208.421,255.134,209.902z M260.609,206.794
		c-0.799,0.93-1.94,1.118-2.719,0.891c-0.339-0.1-0.92-0.37-1.018-1.063l-0.096,0.014c-0.116-1.688-0.553-3.833-1.117-6.608
		c-1.114-5.475-2.758-8.527-4.167-10.227c2.51,1.266,6.1,3.932,8.683,9.461C262.292,203.79,261.355,205.925,260.609,206.794z"/>
	<path fill="#FFFFFF" d="M181.257,160.001c-3.605-7.719-8.998-10.137-11.3-10.844c2.478-1.889,4.086-4.859,4.086-8.208
		c0-5.692-4.631-10.323-10.323-10.323s-10.323,4.631-10.323,10.323c0,3.352,1.612,6.325,4.095,8.212
		c-2.261,0.715-7.523,3.14-11.12,10.84c-2.357,5.048-1.189,7.572-0.282,8.628c0.815,0.95,1.906,1.331,2.861,1.331
		c0.327,0,0.638-0.045,0.917-0.127c0.238-0.068,0.457-0.166,0.654-0.285c0.101,0.868,0.36,1.578,0.834,2.166
		c1.518,1.883,4.886,2.229,12.357,2.33l0.007-0.51l0.007,0.51c7.472-0.102,10.84-0.447,12.357-2.33
		c0.499-0.619,0.758-1.375,0.846-2.309c0.243,0.18,0.512,0.335,0.831,0.428c0.279,0.082,0.59,0.127,0.917,0.127
		c0.955,0,2.047-0.381,2.863-1.331C182.446,167.573,183.614,165.049,181.257,160.001z M154.416,140.949
		c0-5.13,4.174-9.304,9.304-9.304s9.304,4.174,9.304,9.304s-4.174,9.304-9.304,9.304S154.416,146.079,154.416,140.949z
		 M150.488,168.112c-0.204,0.451-0.63,0.662-0.908,0.743c-0.778,0.228-1.918,0.04-2.719-0.891c-0.746-0.869-1.682-3.003,0.434-7.532
		c2.545-5.447,6.004-8.116,8.456-9.404c-1.403,1.717-3.032,4.783-4.145,10.25C151.016,164.179,150.569,166.392,150.488,168.112z
		 M175.291,171.073c-1.242,1.543-4.722,1.857-11.571,1.951c-6.849-0.094-10.329-0.408-11.57-1.951
		c-0.516-0.641-0.686-1.562-0.641-2.809c0.034-0.109,0.082-0.214,0.099-0.33l-0.084-0.013c0.105-1.602,0.527-3.714,1.099-6.521
		c1.903-9.354,5.327-11.189,6.024-11.472c1.501,0.851,3.229,1.343,5.073,1.343c1.845,0,3.573-0.492,5.072-1.343
		c0.699,0.282,4.124,2.124,6.043,11.552C175.898,166.711,176.484,169.592,175.291,171.073z M180.767,167.965
		c-0.799,0.931-1.94,1.118-2.719,0.891c-0.339-0.1-0.92-0.37-1.018-1.063l-0.096,0.014c-0.116-1.688-0.553-3.832-1.117-6.607
		c-1.114-5.475-2.758-8.527-4.167-10.227c2.51,1.266,6.1,3.932,8.683,9.461C182.449,164.962,181.513,167.096,180.767,167.965z"/>
	<path fill="#FFFFFF" d="M108.543,102.271c-3.605-7.72-8.998-10.137-11.3-10.845c2.478-1.888,4.086-4.859,4.086-8.207
		c0-5.692-4.631-10.323-10.323-10.323S80.683,77.527,80.683,83.22c0,3.352,1.612,6.326,4.095,8.213
		c-2.261,0.715-7.523,3.139-11.12,10.839c-2.357,5.048-1.189,7.573-0.282,8.628c0.815,0.951,1.906,1.331,2.861,1.331
		c0.327,0,0.638-0.044,0.917-0.126c0.238-0.07,0.457-0.167,0.654-0.286c0.101,0.868,0.36,1.577,0.834,2.165
		c1.518,1.884,4.886,2.23,12.357,2.332l0.007-0.51l0.007,0.51c7.472-0.102,10.84-0.448,12.357-2.332
		c0.499-0.617,0.758-1.373,0.846-2.307c0.243,0.179,0.512,0.334,0.831,0.428c0.279,0.082,0.59,0.126,0.917,0.126
		c0.955,0,2.047-0.38,2.863-1.331C109.732,109.845,110.9,107.319,108.543,102.271z M81.702,83.22c0-5.131,4.174-9.304,9.304-9.304
		s9.304,4.173,9.304,9.304s-4.174,9.304-9.304,9.304S81.702,88.351,81.702,83.22z M77.774,110.383
		c-0.204,0.45-0.63,0.661-0.908,0.743c-0.778,0.229-1.918,0.04-2.719-0.891c-0.746-0.869-1.682-3.003,0.434-7.533
		c2.545-5.446,6.004-8.115,8.456-9.403c-1.403,1.718-3.032,4.783-4.145,10.249C78.302,106.449,77.855,108.662,77.774,110.383z
		 M102.577,113.345c-1.242,1.541-4.722,1.857-11.571,1.951c-6.849-0.094-10.329-0.41-11.57-1.951
		c-0.516-0.641-0.686-1.564-0.641-2.81c0.034-0.11,0.082-0.214,0.099-0.331l-0.084-0.012c0.105-1.602,0.527-3.714,1.099-6.521
		c1.903-9.354,5.327-11.189,6.024-11.472c1.501,0.851,3.229,1.343,5.073,1.343c1.845,0,3.573-0.492,5.072-1.343
		c0.699,0.283,4.124,2.125,6.043,11.552C103.185,108.981,103.771,111.862,102.577,113.345z M108.053,110.235
		c-0.799,0.931-1.94,1.119-2.719,0.891c-0.339-0.1-0.92-0.369-1.018-1.062l-0.096,0.014c-0.116-1.688-0.553-3.834-1.117-6.608
		c-1.114-5.476-2.758-8.528-4.167-10.227c2.51,1.266,6.1,3.931,8.683,9.46C109.735,107.232,108.799,109.366,108.053,110.235z"/>
	<path fill="#FFFFFF" d="M55.387,171.53c-3.605-7.72-8.998-10.137-11.3-10.845c2.478-1.888,4.086-4.859,4.086-8.208
		c0-5.691-4.631-10.322-10.323-10.322s-10.323,4.631-10.323,10.322c0,3.352,1.612,6.326,4.095,8.213
		c-2.261,0.715-7.523,3.139-11.12,10.84c-2.357,5.047-1.189,7.572-0.282,8.627c0.815,0.951,1.906,1.332,2.861,1.332
		c0.327,0,0.638-0.045,0.917-0.127c0.238-0.069,0.457-0.166,0.654-0.285c0.101,0.867,0.36,1.577,0.834,2.165
		c1.518,1.884,4.886,2.229,12.357,2.331l0.007-0.51l0.007,0.51c7.472-0.102,10.84-0.447,12.357-2.331
		c0.499-0.618,0.758-1.374,0.846-2.308c0.243,0.18,0.512,0.334,0.831,0.428c0.279,0.082,0.59,0.127,0.917,0.127
		c0.955,0,2.047-0.381,2.863-1.332C56.576,179.103,57.744,176.577,55.387,171.53z M28.546,152.478c0-5.13,4.174-9.303,9.304-9.303
		s9.304,4.173,9.304,9.303c0,5.131-4.174,9.305-9.304,9.305S28.546,157.608,28.546,152.478z M24.618,179.642
		c-0.204,0.45-0.63,0.661-0.908,0.742c-0.778,0.229-1.918,0.041-2.719-0.891c-0.746-0.869-1.682-3.002,0.434-7.532
		c2.545-5.446,6.004-8.116,8.456-9.403c-1.403,1.717-3.032,4.783-4.145,10.249C25.146,175.708,24.699,177.921,24.618,179.642z
		 M49.421,182.603c-1.242,1.542-4.722,1.857-11.571,1.951c-6.849-0.094-10.329-0.409-11.57-1.951
		c-0.516-0.641-0.686-1.563-0.641-2.809c0.034-0.11,0.082-0.215,0.099-0.331l-0.084-0.013c0.105-1.602,0.527-3.713,1.099-6.52
		c1.903-9.355,5.327-11.189,6.024-11.473c1.501,0.852,3.229,1.344,5.073,1.344c1.845,0,3.573-0.492,5.072-1.344
		c0.699,0.283,4.124,2.125,6.043,11.553C50.028,178.239,50.614,181.12,49.421,182.603z M54.896,179.493
		c-0.799,0.932-1.94,1.119-2.719,0.891c-0.339-0.1-0.92-0.369-1.018-1.062l-0.096,0.014c-0.116-1.688-0.553-3.833-1.117-6.607
		c-1.114-5.476-2.758-8.528-4.167-10.227c2.51,1.266,6.1,3.931,8.683,9.46C56.579,176.491,55.643,178.624,54.896,179.493z"/>
	<g>
		<path fill="#FFFFFF" stroke="#FFFFFF" stroke-miterlimit="10" d="M149.938,60.225c-10.167,10.583-20.334,21.167-30.5,31.75
			c-0.559,0.581,0.324,1.466,0.883,0.884c10.167-10.584,20.334-21.166,30.5-31.75C151.38,60.527,150.497,59.642,149.938,60.225
			L149.938,60.225z"/>
		<path fill="#FFFFFF" stroke="#FFFFFF" stroke-miterlimit="10" d="M121.402,83.501c-0.917,2.916-1.833,5.832-2.75,8.75
			c-0.123,0.39,0.207,0.791,0.603,0.791c2.417,0,4.833,0,7.25,0c0.806,0,0.806-1.25,0-1.25c-2.417,0-4.833,0-7.25,0
			c0.201,0.264,0.401,0.527,0.603,0.791c0.917-2.917,1.833-5.834,2.75-8.75C122.85,83.062,121.644,82.733,121.402,83.501
			L121.402,83.501z"/>
	</g>
	<g>
		<path fill="#FFFFFF" stroke="#FFFFFF" stroke-miterlimit="10" d="M192.839,72.102c13.837,4.89,27.674,9.78,41.511,14.669
			c0.762,0.27,1.087-0.938,0.332-1.205c-13.837-4.89-27.674-9.779-41.511-14.669C192.409,70.627,192.084,71.835,192.839,72.102
			L192.839,72.102z"/>
		<path fill="#FFFFFF" stroke="#FFFFFF" stroke-miterlimit="10" d="M228.245,79.747c2.129,2.193,4.258,4.389,6.387,6.582
			c0.042-0.326,0.084-0.654,0.126-0.98c-2.159,1.084-4.318,2.17-6.478,3.256c-0.721,0.361-0.087,1.439,0.631,1.078
			c2.159-1.084,4.318-2.17,6.478-3.256c0.368-0.184,0.393-0.707,0.126-0.98c-2.129-2.195-4.258-4.389-6.387-6.584
			C228.566,78.283,227.684,79.168,228.245,79.747L228.245,79.747z"/>
	</g>
	<path fill="#FFFFFF" stroke="#FFFFFF" stroke-miterlimit="10" d="M258.365,114.722c-4.89,13.836-9.78,27.674-14.67,41.51
		c-0.27,0.762,0.938,1.088,1.205,0.332c4.89-13.836,9.78-27.674,14.67-41.51C259.84,114.292,258.632,113.966,258.365,114.722
		L258.365,114.722z"/>
	<g>
		<path fill="#FFFFFF" stroke="#FFFFFF" stroke-miterlimit="10" d="M172.221,74.296c-1.594,14.59-3.188,29.178-4.781,43.767
			c-0.088,0.801,1.163,0.792,1.25,0c1.594-14.589,3.188-29.177,4.781-43.767C173.559,73.495,172.308,73.504,172.221,74.296
			L172.221,74.296z"/>
		<path fill="#FFFFFF" stroke="#FFFFFF" stroke-miterlimit="10" d="M172.872,110.502c-1.648,2.575-3.297,5.149-4.945,7.724
			c0.327-0.042,0.654-0.084,0.982-0.127c-1.551-1.854-3.102-3.707-4.652-5.561c-0.519-0.619-1.397,0.271-0.885,0.885
			c1.551,1.854,3.102,3.707,4.652,5.561c0.271,0.322,0.781,0.188,0.982-0.127c1.648-2.574,3.297-5.148,4.945-7.724
			C174.388,110.452,173.306,109.825,172.872,110.502L172.872,110.502z"/>
	</g>
	<g>
		<path fill="#FFFFFF" stroke="#FFFFFF" stroke-miterlimit="10" d="M46.421,36.353c19.843-5.568,37.389,10.375,45.627,26.713
			c0.363,0.719,1.441,0.086,1.08-0.631c-8.502-16.861-26.635-33.014-47.039-27.287C45.313,35.364,45.644,36.57,46.421,36.353
			L46.421,36.353z"/>
		<path fill="#FFFFFF" stroke="#FFFFFF" stroke-miterlimit="10" d="M94.652,58.251c-0.667,1.77-1.333,3.541-2,5.312
			c0.201-0.154,0.401-0.307,0.603-0.459c-1.263,0.043-2.526,0.077-3.789,0.104c-0.964,0.021-1.928,0.033-2.892,0.034
			c-0.431,0-0.862-0.008-1.293-0.021c-0.502-0.016-0.616-0.23-0.299,0.191c-0.478-0.636-1.564-0.014-1.08,0.631
			c0.655,0.873,2.954,0.451,3.863,0.443c1.83-0.018,3.66-0.07,5.489-0.133c0.299-0.011,0.501-0.188,0.603-0.459
			c0.667-1.771,1.333-3.542,2-5.312C96.142,57.827,94.934,57.503,94.652,58.251L94.652,58.251z"/>
	</g>
	<g>
		<path fill="#FFFFFF" stroke="#FFFFFF" stroke-miterlimit="10" d="M115.859,110.217c14.066,0.435,28.339,7.322,37.485,17.874
			c0.528,0.61,1.408-0.277,0.883-0.884c-9.365-10.806-23.984-17.796-38.368-18.24C115.053,108.942,115.056,110.192,115.859,110.217
			L115.859,110.217z"/>
		<path fill="#FFFFFF" stroke="#FFFFFF" stroke-miterlimit="10" d="M155.184,122.171c-0.667,1.77-1.333,3.541-2,5.312
			c0.201-0.154,0.401-0.307,0.603-0.459c-1.263,0.043-2.526,0.077-3.789,0.104c-0.964,0.021-1.928,0.033-2.892,0.034
			c-0.431,0-0.862-0.008-1.293-0.021c-0.502-0.016-0.616-0.23-0.299,0.191c-0.478-0.636-1.564-0.014-1.08,0.631
			c0.655,0.873,2.954,0.451,3.863,0.443c1.83-0.018,3.66-0.07,5.489-0.133c0.299-0.011,0.501-0.188,0.603-0.459
			c0.667-1.771,1.333-3.542,2-5.312C156.673,121.747,155.465,121.423,155.184,122.171L155.184,122.171z"/>
	</g>
	<g>
		<path fill="#FFFFFF" stroke="#FFFFFF" stroke-miterlimit="10" d="M180.479,138.729c12.604-12.516,29.593-25.239,47.566-27.691
			c0.796-0.107,0.456-1.312-0.332-1.205c-18.198,2.482-35.36,15.344-48.117,28.012C179.023,138.413,179.907,139.298,180.479,138.729
			L180.479,138.729z"/>
		<path fill="#FFFFFF" stroke="#FFFFFF" stroke-miterlimit="10" d="M223.987,106.171c0.652,0.891,1.304,1.78,1.955,2.67
			c0.383,0.523,0.767,1.048,1.149,1.571c0.411,0.562,0.448-0.62-0.007,0.129c-0.764,1.257-1.538,2.507-2.322,3.752
			c-0.39,0.618-0.786,1.23-1.188,1.84c-0.298,0.45-1.136,1.136-0.516,1.056c-0.787,0.103-0.798,1.354,0,1.25
			c1.115-0.146,2.017-2.312,2.533-3.119c0.964-1.51,1.901-3.036,2.828-4.568c0.105-0.176,0.126-0.457,0-0.631
			c-1.118-1.526-2.235-3.053-3.353-4.58C224.597,104.897,223.511,105.519,223.987,106.171L223.987,106.171z"/>
	</g>
	<g>
		<path fill="#FFFFFF" stroke="#FFFFFF" stroke-miterlimit="10" d="M23.652,76.708c3.583,17.041,7.167,34.083,10.75,51.125
			c0.166,0.788,1.37,0.453,1.205-0.332c-3.583-17.043-7.167-34.084-10.75-51.125C24.691,75.587,23.487,75.921,23.652,76.708
			L23.652,76.708z"/>
		<path fill="#FFFFFF" stroke="#FFFFFF" stroke-miterlimit="10" d="M28.024,126.373c2.222,1.083,4.443,2.167,6.665,3.25
			c0.296,0.144,0.688,0.093,0.855-0.224c1.556-2.945,3.111-5.89,4.668-8.834c0.376-0.712-0.703-1.344-1.08-0.631
			c-1.556,2.944-3.111,5.889-4.668,8.834c0.285-0.075,0.57-0.15,0.855-0.225c-2.222-1.084-4.443-2.167-6.665-3.25
			C27.934,124.942,27.3,126.021,28.024,126.373L28.024,126.373z"/>
	</g>
	<g>
		<path fill="#FFFFFF" stroke="#FFFFFF" stroke-miterlimit="10" d="M55.854,149.948c7.363-9.057,14.727-18.113,22.09-27.17
			c0.504-0.619-0.375-1.51-0.883-0.884c-7.363,9.057-14.727,18.112-22.09,27.169C54.468,149.684,55.347,150.573,55.854,149.948
			L55.854,149.948z"/>
		<path fill="#FFFFFF" stroke="#FFFFFF" stroke-miterlimit="10" d="M80.908,128.483c-0.805-2.336-1.61-4.674-2.415-7.01
			c-0.108-0.314-0.428-0.543-0.769-0.438c-3.183,0.982-6.364,1.964-9.547,2.945c-0.768,0.237-0.44,1.443,0.332,1.205
			c3.183-0.98,6.364-1.963,9.547-2.945c-0.256-0.145-0.513-0.291-0.769-0.436c0.805,2.336,1.609,4.674,2.415,7.01
			C79.964,129.573,81.172,129.248,80.908,128.483L80.908,128.483z"/>
	</g>
</g>
</svg>
