<?xml version="1.0" encoding="utf-8"?>
<!-- Generator: Adobe Illustrator 16.0.0, SVG Export Plug-In . SVG Version: 6.00 Build 0)  -->
<!DOCTYPE svg PUBLIC "-//W3C//DTD SVG 1.1//EN" "http://www.w3.org/Graphics/SVG/1.1/DTD/svg11.dtd">
<svg version="1.1" id="Capa_1" xmlns="http://www.w3.org/2000/svg" xmlns:xlink="http://www.w3.org/1999/xlink" x="0px" y="0px"
	 width="302px" height="245.715px" viewBox="0 0 302 245.715" enable-background="new 0 0 302 245.715" xml:space="preserve">
<g>
	<path fill="#FFFFFF" d="M173.171,56.924c-3.605-7.719-8.998-10.137-11.3-10.844c2.478-1.889,4.086-4.859,4.086-8.209
		c0-5.691-4.631-10.322-10.323-10.322s-10.323,4.631-10.323,10.322c0,3.352,1.612,6.326,4.095,8.213
		c-2.261,0.715-7.523,3.139-11.12,10.84c-2.357,5.047-1.189,7.572-0.282,8.627c0.815,0.951,1.906,1.332,2.861,1.332
		c0.327,0,0.638-0.045,0.917-0.127c0.238-0.068,0.457-0.166,0.654-0.285c0.101,0.867,0.36,1.578,0.834,2.166
		c1.518,1.883,4.886,2.229,12.357,2.33l0.007-0.51l0.007,0.51c7.472-0.102,10.84-0.447,12.357-2.33
		c0.499-0.619,0.758-1.375,0.846-2.309c0.243,0.18,0.512,0.334,0.831,0.428c0.279,0.082,0.59,0.127,0.917,0.127
		c0.955,0,2.047-0.381,2.863-1.332C174.36,64.496,175.528,61.971,173.171,56.924z M146.33,37.871c0-5.129,4.174-9.303,9.304-9.303
		s9.304,4.174,9.304,9.303c0,5.131-4.174,9.305-9.304,9.305S146.33,43.002,146.33,37.871z M142.402,65.035
		c-0.204,0.451-0.63,0.662-0.908,0.742c-0.778,0.229-1.918,0.041-2.719-0.891c-0.746-0.869-1.682-3.002,0.434-7.531
		c2.545-5.447,6.004-8.117,8.456-9.404c-1.403,1.717-3.032,4.783-4.145,10.25C142.93,61.102,142.483,63.314,142.402,65.035z
		 M167.205,67.996c-1.242,1.543-4.722,1.857-11.571,1.951c-6.849-0.094-10.329-0.408-11.57-1.951
		c-0.516-0.641-0.686-1.562-0.641-2.809c0.034-0.109,0.082-0.215,0.099-0.33l-0.084-0.014c0.105-1.602,0.527-3.713,1.099-6.52
		c1.903-9.355,5.327-11.189,6.024-11.473c1.501,0.852,3.229,1.344,5.073,1.344c1.845,0,3.573-0.492,5.072-1.344
		c0.699,0.283,4.124,2.125,6.043,11.553C167.812,63.633,168.398,66.514,167.205,67.996z M172.681,64.887
		c-0.799,0.932-1.94,1.119-2.719,0.891c-0.339-0.1-0.92-0.369-1.018-1.062l-0.096,0.014c-0.116-1.688-0.553-3.832-1.117-6.607
		c-1.114-5.475-2.758-8.527-4.167-10.227c2.51,1.266,6.1,3.932,8.683,9.461C174.363,61.885,173.427,64.018,172.681,64.887z"/>
	<g id="u5YYNY_1_">
		<g>
			<path fill-rule="evenodd" clip-rule="evenodd" fill="#FFFFFF" d="M103.802,145.801c-5.829,0-11.667-0.203-17.483,0.078
				c-3.414,0.164-4.371-1.09-4.072-4.256c0.234-2.477-0.09-5.004,0.111-7.486c0.641-7.918,6.162-13.107,14.1-13.262
				c4.994-0.098,9.994-0.125,14.986,0.012c7.885,0.213,13.393,5.787,13.646,13.611c0.369,11.303,0.369,11.303-10.797,11.303
				C110.796,145.801,107.299,145.801,103.802,145.801z"/>
			<path fill-rule="evenodd" clip-rule="evenodd" fill="#FFFFFF" d="M50.843,145.801c-5.829,0-11.667-0.203-17.483,0.078
				c-3.414,0.164-4.371-1.09-4.072-4.256c0.234-2.477-0.09-5.004,0.111-7.486c0.641-7.918,6.162-13.107,14.1-13.262
				c4.994-0.098,9.994-0.125,14.986,0.012c7.885,0.213,13.393,5.787,13.646,13.611c0.369,11.303,0.369,11.303-10.797,11.303
				C57.837,145.801,54.34,145.801,50.843,145.801z"/>
			<path fill-rule="evenodd" clip-rule="evenodd" fill="#FFFFFF" d="M207.148,145.801c-5.828,0-11.664-0.152-17.484,0.064
				c-2.896,0.107-3.848-0.854-3.568-3.662c0.212-2.145,0.027-4.326,0.045-6.49c0.077-9.391,5.475-14.773,14.927-14.852
				c4.497-0.037,8.994-0.064,13.489,0.008c7.844,0.127,13.268,4.936,14.277,12.549c1.607,12.129,1.389,12.383-10.693,12.383
				C214.477,145.801,210.812,145.801,207.148,145.801z"/>
			<path fill-rule="evenodd" clip-rule="evenodd" fill="#FFFFFF" d="M258.905,145.801c-5.828,0-11.664-0.152-17.484,0.064
				c-2.896,0.107-3.848-0.854-3.568-3.662c0.212-2.145,0.027-4.326,0.045-6.49c0.077-9.391,5.475-14.773,14.927-14.852
				c4.497-0.037,8.994-0.064,13.489,0.008c7.844,0.127,13.268,4.936,14.277,12.549c1.607,12.129,1.389,12.383-10.693,12.383
				C266.233,145.801,262.569,145.801,258.905,145.801z"/>
			<path fill-rule="evenodd" clip-rule="evenodd" fill="#FFFFFF" d="M155.885,145.801c-6.162-0.002-12.328-0.084-18.488,0.041
				c-2.35,0.047-3.312-0.68-3.164-3.115c0.17-2.82-0.09-5.668,0.076-8.49c0.447-7.637,5.927-13.107,13.48-13.342
				c5.325-0.166,10.665-0.184,15.988,0.01c7.534,0.271,12.949,5.898,13.294,13.494c0.517,11.402,0.517,11.402-10.692,11.402
				C162.881,145.801,159.383,145.801,155.885,145.801z"/>
			<path fill-rule="evenodd" clip-rule="evenodd" fill="#FFFFFF" d="M155.078,116.629c-4.165,0-8.33-0.002-12.495,0.002
				c-1.351,0-2.511,0.039-3.024-1.762c-2.08-7.279,1.997-14.092,9.332-14.771c4.293-0.398,8.686-0.416,12.977-0.006
				c7.285,0.695,11.953,8.895,9.125,15.332c-0.672,1.531-1.855,1.166-2.92,1.18C163.741,116.66,159.409,116.627,155.078,116.629z"/>
			<path fill-rule="evenodd" clip-rule="evenodd" fill="#FFFFFF" d="M116.791,116.631c-2.824,0-5.662,0.178-8.467-0.055
				c-2.352-0.193-6.037,1.432-6.782-1.002c-1.053-3.439-1.345-7.545,0.851-11.08c0.26-0.418,0.593-0.799,0.93-1.164
				c4.72-5.111,22.395-4.959,26.945,0.221c3.135,3.568,2.062,7.834,1.836,11.893c-0.089,1.598-1.777,1.152-2.854,1.166
				C125.098,116.658,120.944,116.629,116.791,116.631z"/>
			<path fill-rule="evenodd" clip-rule="evenodd" fill="#FFFFFF" d="M74.286,116.631c-2.824,0-5.662,0.178-8.467-0.055
				c-2.352-0.193-6.037,1.432-6.782-1.002c-1.053-3.439-1.345-7.545,0.851-11.08c0.26-0.418,0.593-0.799,0.93-1.164
				c4.72-5.111,22.395-4.959,26.945,0.221c3.135,3.568,2.062,7.834,1.836,11.893c-0.089,1.598-1.777,1.152-2.854,1.166
				C82.593,116.658,78.439,116.629,74.286,116.631z"/>
			<path fill-rule="evenodd" clip-rule="evenodd" fill="#FFFFFF" d="M194.726,116.631c-2.824,0-5.665,0.184-8.468-0.057
				c-2.343-0.199-6.03,1.447-6.76-1.047c-1.062-3.629-1.402-7.92,1.207-11.482c1.097-1.494,2.523-2.76,4.35-3.178
				c6.383-1.459,12.881-1.684,19.178,0.033c5.158,1.404,8.293,9.943,5.945,14.621c-0.727,1.447-1.921,1.072-2.991,1.086
				C203.033,116.662,198.879,116.629,194.726,116.631z"/>
			<path fill-rule="evenodd" clip-rule="evenodd" fill="#FFFFFF" d="M236.726,116.631c-2.824,0-5.665,0.184-8.468-0.057
				c-2.343-0.199-6.03,1.447-6.76-1.047c-1.062-3.629-1.402-7.92,1.207-11.482c1.097-1.494,2.523-2.76,4.35-3.178
				c6.383-1.459,12.881-1.684,19.178,0.033c5.158,1.404,8.293,9.943,5.945,14.621c-0.727,1.447-1.921,1.072-2.991,1.086
				C245.033,116.662,240.879,116.629,236.726,116.631z"/>
			<path fill-rule="evenodd" clip-rule="evenodd" fill="#FFFFFF" d="M155.611,74.074c8.297,0.256,7.637-1.871,7.23,7.68
				c-0.064,1.49-0.414,2.977-0.376,4.459c0.081,3.109-1.542,4.322-4.424,4.613c-8.383,0.848-8.422,0.852-9.33-7.59
				c-0.054-0.494-0.134-0.986-0.186-1.48C147.715,74.074,147.716,74.074,155.611,74.074z"/>
			<path fill-rule="evenodd" clip-rule="evenodd" fill="#FFFFFF" d="M156.111,67.924c4.997,0,9.994-0.039,14.99,0.029
				c1.172,0.016,2.857-0.717,3.18,1.346c0.217,1.391-0.032,2.676-1.398,3.451c-2.422,1.375-4.963,4.918-7.037-0.455
				c-0.154-0.402-1.513-0.469-2.312-0.475c-5.33-0.039-10.66-0.043-15.989,0.008c-0.759,0.008-2.042,0.195-2.191,0.615
				c-1.939,5.443-4.406,1.83-6.708,0.451c-1.497-0.896-1.866-2.359-1.408-3.904c0.549-1.855,2.23-1,3.387-1.023
				C145.784,67.867,150.949,67.924,156.111,67.924z"/>
		</g>
	</g>
	<path fill-rule="evenodd" clip-rule="evenodd" fill="#FFFFFF" d="M232.518,37.064c-1.032,0.137-2.062,0.35-3.1,0.391
		c-0.84,0.033-1.477-0.43-1.6-1.326c-0.122-0.891,0.349-1.574,1.175-1.707c3.302-0.529,6.616-0.98,9.932-1.424
		c1.549-0.205,1.099,0.936,0.998,1.691c-0.354,2.654-0.765,5.299-1.165,7.943c-0.175,1.164-0.368,2.508-1.909,2.355
		c-1.551-0.152-1.451-1.473-1.373-2.668c0.034-0.525-0.087-1.059-0.212-2.395c-4.243,4.344-8.091,8.148-11.765,12.113
		c-1.385,1.494-2.291,1.781-3.854,0.225c-2.026-2.02-4.426-3.658-6.495-5.637c-1.514-1.447-2.571-1.699-4.114,0.029
		c-1.968,2.203-4.258,4.119-6.39,6.178c-0.969,0.938-2.058,1.691-3.216,0.533c-1.218-1.219-0.294-2.229,0.662-3.146
		c3.24-3.113,6.51-6.199,9.676-9.389c1.006-1.014,1.623-0.84,2.58,0.01c2.573,2.285,5.238,4.467,7.859,6.699
		c0.729,0.621,1.278,1.332,2.335,0.25c3.396-3.479,6.901-6.85,10.363-10.262C232.777,37.373,232.647,37.219,232.518,37.064z"/>
	<path fill="#FFFFFF" stroke="#FFFFFF" stroke-miterlimit="10" d="M237.574,19.141l-3.888-2.121
		c-4.284-2.82-8.311-5.473-12.333-8.131c-0.478-0.314-0.828-0.316-1.292-0.008c-3.889,2.572-7.781,5.137-11.916,7.859l-4.31,2.4
		l-0.551-0.396l4.311-2.84c4.135-2.723,8.026-5.285,11.914-7.857c0.798-0.529,1.581-0.527,2.395,0.008
		c4.022,2.658,8.049,5.309,12.332,8.129l3.889,2.561L237.574,19.141z"/>
	<rect x="181.955" y="18.307" fill="#FFFFFF" stroke="#FFFFFF" stroke-miterlimit="10" width="77.5" height="1"/>
	<circle fill="none" stroke="#FFFFFF" stroke-miterlimit="10" cx="220.706" cy="6.559" r="1.25"/>
	<polygon fill="#FFFFFF" stroke="#FFFFFF" stroke-miterlimit="10" points="252.329,67.789 189.081,67.789 189.081,19.141 
		190.163,19.141 190.163,66.707 251.247,66.707 251.247,19.141 252.329,19.141 	"/>
</g>
</svg>
