<?xml version="1.0" encoding="utf-8"?>
<!-- Generator: Adobe Illustrator 16.0.0, SVG Export Plug-In . SVG Version: 6.00 Build 0)  -->
<!DOCTYPE svg PUBLIC "-//W3C//DTD SVG 1.1//EN" "http://www.w3.org/Graphics/SVG/1.1/DTD/svg11.dtd">
<svg version="1.1" id="Capa_1" xmlns="http://www.w3.org/2000/svg" xmlns:xlink="http://www.w3.org/1999/xlink" x="0px" y="0px"
	 width="55.222px" height="55.225px" viewBox="0 0 55.222 55.225" style="enable-background:new 0 0 55.222 55.225;"
	 xml:space="preserve">
<style type="text/css">
<![CDATA[
	.st0{opacity:0.05;fill:#5D5D5D;}
	.st1{fill:none;stroke:#5D5D5D;stroke-width:0.5;stroke-miterlimit:10;}
	.st2{fill:#ECB43C;}
	.st3{fill:none;stroke:#ECB43C;stroke-width:2;stroke-miterlimit:10;}
	.st4{fill-rule:evenodd;clip-rule:evenodd;fill:#887AA8;}
	.st5{fill:#5D5D5D;}
	.st6{fill-rule:evenodd;clip-rule:evenodd;fill:#89898A;}
	.st7{fill-rule:evenodd;clip-rule:evenodd;fill:#ECB43C;}
	.st8{fill:#FFB62A;}
	.st9{fill:#FFFFFF;}
	.st10{fill-rule:evenodd;clip-rule:evenodd;fill:#5D5D5D;}
	.st11{fill:none;stroke:#5D5D5D;stroke-miterlimit:10;}
	.st12{fill-rule:evenodd;clip-rule:evenodd;fill:#FA494D;}
	.st13{fill-rule:evenodd;clip-rule:evenodd;fill:#FF8F48;}
	.st14{fill-rule:evenodd;clip-rule:evenodd;fill:#FFB62A;}
	.st15{fill-rule:evenodd;clip-rule:evenodd;fill:#FFFFFF;}
	.st16{fill-rule:evenodd;clip-rule:evenodd;fill:none;stroke:#89898A;stroke-miterlimit:10;}
	.st17{fill-rule:evenodd;clip-rule:evenodd;fill:none;stroke:#5D5D5D;stroke-miterlimit:10;}
	.st18{fill-rule:evenodd;clip-rule:evenodd;fill:#000033;}
	.st19{fill-rule:evenodd;clip-rule:evenodd;fill:#00A89D;}
	.st20{fill-rule:evenodd;clip-rule:evenodd;fill:#00AA49;}
	.st21{fill-rule:evenodd;clip-rule:evenodd;fill:#00ABE1;}
]]>
</style>
<path class="st18" d="M52.023,39.772c0.18,2.156-2.561,4.301-4.027,3.594c-1.415-0.682-2.492-0.734-3.463,0.695
	c-0.437,0.643-1.078,1.209-1.742,1.625c-1.331,0.838-1.553,1.883-0.865,3.209c0.761,1.469,0.52,2.41-1.152,3.117
	c-1.383,0.586-2.586,1.488-3.512-0.477c-1.101-2.334-2.803-1.119-4.465-0.924c-1.77,0.207-2.035,1.293-2.077,2.623
	c-0.047,1.516-0.674,2.172-2.231,1.945c-1.285-0.188-3.062,0.619-3.087-1.775c-0.017-1.637-0.608-2.73-2.526-2.682
	c-0.689,0.018-1.443-0.225-2.071-0.541c-1.452-0.73-2.608-0.549-3.374,0.926c-1.201,2.312-2.474,0.76-3.859,0.225
	c-1.648-0.637-1.414-1.607-0.818-2.783c0.687-1.355,0.536-2.277-0.754-3.428c-1.823-1.627-3.131-3.238-6.017-1.734
	c-1.499,0.779-1.637-1.656-2.512-2.52c-0.62-0.611-0.483-1.154,0.185-1.775c0.786-0.732,2.292-1.18,2.122-2.385
	C5.5,34.759,4.908,32.812,4.15,30.989c-0.307-0.736-1.564-0.697-2.414-0.709c-1.789-0.027-1.779-1.17-1.713-2.439
	c0.063-1.193-0.487-2.773,1.559-2.771c2.199,0.002,3.076-1.146,3.246-3.197c0.063-0.775,0.311-1.605,0.711-2.27
	c0.908-1.5,0.425-2.512-0.909-3.334c-1.396-0.863-1.402-1.814-0.434-3.09c0.844-1.111,1.292-2.734,3.18-1.496
	c1.553,1.018,2.588,0.449,3.837-0.791c1.674-1.66,3.341-2.861,1.886-5.705c-0.85-1.66,1.492-1.578,2.343-2.326
	c0.752-0.66,1.501-0.703,2.207,0.26c0.593,0.807,1.014,2.18,2.072,2.127c1.642-0.078,3.316-0.523,4.865-1.109
	c0.854-0.322,0.777-1.531,0.801-2.363c0.06-2.195,1.606-1.688,2.896-1.756c1.291-0.068,2.354-0.041,2.421,1.734
	c0.045,1.191-0.035,2.686,1.837,2.791c2.102,0.121,4.427,2.674,6.203-0.629c1.005-1.869,2.105-0.514,3.127,0.008
	c1.03,0.527,2.25,0.912,1.386,2.607c-0.399,0.783-1.269,1.838-0.675,2.631c1.088,1.453,2.401,2.801,3.845,3.898
	c0.764,0.58,1.833-0.271,2.65-0.658c2.171-1.021,2.022,1.129,2.802,1.949c0.777,0.818,1.059,1.6-0.137,2.537
	c-0.866,0.682-2.605,1.186-1.792,2.893c0.939,1.971,0.058,5.283,3.856,5.24c1.993-0.023,1.282,1.629,1.332,2.68
	c0.048,1.021,0.481,2.471-1.326,2.43c-2.219-0.049-3.112,1.08-3.243,3.137c-0.034,0.545-0.193,1.125-0.452,1.605
	c-0.971,1.795-0.893,3.289,1.05,4.367C51.58,39.468,51.968,39.739,52.023,39.772z M14.685,17.905
	c-3.212,4.686-4.117,9.479-2.389,14.674c1.601,4.811,1.604,4.768,5.213,1.26c1.102-1.07,1.76-1.938,1.041-3.633
	c-0.822-1.939-0.708-4.064,0.165-6.057c0.287-0.656,0.679-1.195-0.033-1.906C17.339,20.903,16.104,19.458,14.685,17.905z
	 M43.874,27.474c-0.044-1.918-0.261-3.803-0.975-5.611c-1.351-3.422-1.318-3.346-3.991-0.957c-1.729,1.545-2.859,2.967-1.745,5.412
	c0.491,1.076,0.297,2.438-0.191,3.512c-0.929,2.041-0.167,3.422,1.354,4.693c0.546,0.455,1.042,0.994,1.471,1.562
	c0.767,1.014,1.302,0.846,1.918-0.164C43.3,33.317,43.843,30.466,43.874,27.474z M18.494,40.948
	c4.438,2.859,8.733,3.418,13.273,2.326c4.901-1.18,4.982-1.443,1.625-5.041c-0.641-0.688-0.997-2.08-2.348-1.639
	c-2.284,0.744-4.535,0.609-6.788-0.006c-0.673-0.184-1.046,0.125-1.47,0.51C21.431,38.329,20.063,39.544,18.494,40.948z
	 M37.332,14.532c-4.922-3.123-9.513-3.805-14.364-2.389c-4.143,1.211-4.051,1.213-1.31,4.428c1.294,1.518,2.482,2.328,4.598,1.672
	c1.498-0.463,3.168-0.242,4.707,0.354c0.561,0.215,1.075,0.604,1.73-0.012C34.133,17.233,35.664,15.978,37.332,14.532z
	 M24.891,27.53c0.246,1.842,1.216,2.977,3.069,3.102c1.646,0.111,3.293-1.604,3.092-3.254c-0.218-1.781-1.244-2.955-3.153-2.904
	C25.982,24.526,25.132,25.774,24.891,27.53z"/>
</svg>
