<?xml version="1.0" encoding="utf-8"?>
<!-- Generator: Adobe Illustrator 22.0.1, SVG Export Plug-In . SVG Version: 6.00 Build 0)  -->
<svg version="1.1" xmlns="http://www.w3.org/2000/svg" xmlns:xlink="http://www.w3.org/1999/xlink" x="0px" y="0px"
	 viewBox="0 0 47 47" style="enable-background:new 0 0 47 47;" xml:space="preserve">
<style type="text/css">
	.st0{fill:#ECBB3C;}
	.st1{fill:#003366;}
	.st2{fill-rule:evenodd;clip-rule:evenodd;fill:#003366;}
	.st3{fill-rule:evenodd;clip-rule:evenodd;fill:#ECBB3C;}
	.st4{fill-rule:evenodd;clip-rule:evenodd;fill:#FFFFFF;}
	.st5{fill:#EAB856;}
	.st6{fill:#FCFCFC;}
	.st7{fill:#E9BB53;}
	.st8{fill:#FFFFFF;}
</style>
<g id="Capa_1">
	<g>
		<g>
			<g>
				<path class="st3" d="M29.5,16.4c2-0.1,4.4,2.6,4.2,4.3c-0.2,1.5-2.4,2.5-3.8,1.7c-1.1-0.7-2.2-1.2-3.5-1.5
					c-1.4-0.3-1.6-1.4-0.5-2.4C26.9,17.4,28.1,16.6,29.5,16.4z"/>
				<path class="st2" d="M18.8,15.4c0-1.9,1.5-3.4,3.4-4c1.4-0.4,2.1,0.3,2.8,1.4c0.3,0.5,0.5,1.1,0.2,1.5c-0.8,1.6-2.1,3-2.3,5
					c0,0.3-0.8,1-1.5,0.4C20.1,18.3,19,17,18.8,15.4z"/>
				<path class="st3" d="M17.6,26.5c-2.1,0-4.4-2.4-4.2-4.1c0.1-1.6,2.4-2.7,3.8-1.8c1.2,0.7,2.3,1.3,3.7,1.5c1,0.1,1.7,0.9,0.7,2
					C20.3,25.2,19.1,26.3,17.6,26.5z"/>
				<path class="st2" d="M28.2,27.8c0,1.6-1.8,3.3-3.7,3.7c-1.4,0.3-2.1-0.6-2.6-1.7c-0.3-0.6-0.4-1.2,0-1.7c0.9-1.3,1.7-2.5,2.1-4
					c0.2-0.7,1.3-1.4,2.2-0.3C27.2,25,28.2,26.1,28.2,27.8z"/>
			</g>
			<path class="st2" d="M25,21.6c0,0.8-0.6,1.4-1.4,1.4c-0.8,0-1.4-0.6-1.4-1.4c0-0.8,0.6-1.4,1.4-1.4C24.3,20.2,25,20.8,25,21.6z"
				/>
		</g>
	</g>
</g>
<g id="Capa_2">
</g>
</svg>
