<?xml version="1.0" encoding="utf-8"?>
<!-- Generator: Adobe Illustrator 22.0.1, SVG Export Plug-In . SVG Version: 6.00 Build 0)  -->
<svg version="1.1" xmlns="http://www.w3.org/2000/svg" xmlns:xlink="http://www.w3.org/1999/xlink" x="0px" y="0px"
	 viewBox="0 0 160.6 160.6" style="enable-background:new 0 0 160.6 160.6;" xml:space="preserve">
<style type="text/css">
	.st0{fill:#ECBB3C;}
	.st1{fill:#003366;}
	.st2{fill-rule:evenodd;clip-rule:evenodd;fill:#003366;}
	.st3{fill-rule:evenodd;clip-rule:evenodd;fill:#ECBB3C;}
	.st4{fill-rule:evenodd;clip-rule:evenodd;fill:#FFFFFF;}
	.st5{fill:#EAB856;}
	.st6{fill:#FCFCFC;}
	.st7{fill:#E9BB53;}
	.st8{fill:#FFFFFF;}
</style>
<g id="Capa_1">
	<g>
		<path class="st2" d="M153.2,79.8c0,40.6-32.9,73.6-73.6,73.6C39,153.4,6,120.5,6,79.8C6,39.2,39,6.2,79.6,6.2
			C120.3,6.2,153.2,39.2,153.2,79.8z"/>
		<g>
			<path class="st8" d="M46.8,74.8c2,0,3.7-1.6,3.7-3.7c0-2-1.6-3.7-3.7-3.7c-2,0-3.7,1.6-3.7,3.7C43.1,73.1,44.8,74.8,46.8,74.8"/>
			<path class="st8" d="M98.5,74.6c2,0,3.7-1.6,3.7-3.7c0-2-1.6-3.7-3.7-3.7c-2,0-3.7,1.6-3.7,3.7C94.8,73,96.4,74.6,98.5,74.6"/>
			<path class="st8" d="M46.8,107.3c2,0,3.7-1.6,3.7-3.7c0-2-1.6-3.7-3.7-3.7c-2,0-3.7,1.6-3.7,3.7
				C43.1,105.7,44.8,107.3,46.8,107.3"/>
			<path class="st8" d="M98.5,107.2c2,0,3.7-1.6,3.7-3.7c0-2-1.6-3.7-3.7-3.7c-2,0-3.7,1.6-3.7,3.7
				C94.8,105.6,96.4,107.2,98.5,107.2"/>
			<path class="st8" d="M46.8,64.5c2,0,3.7-1.6,3.7-3.7c0-2-1.6-3.7-3.7-3.7c-2,0-3.7,1.6-3.7,3.7C43.1,62.8,44.8,64.5,46.8,64.5"/>
			<path class="st8" d="M98.5,64.4c2,0,3.7-1.6,3.7-3.7c0-2-1.6-3.7-3.7-3.7c-2,0-3.7,1.6-3.7,3.7C94.8,62.7,96.4,64.4,98.5,64.4"/>
			<path class="st8" d="M46.8,97.1c2,0,3.7-1.6,3.7-3.7c0-2-1.6-3.7-3.7-3.7c-2,0-3.7,1.6-3.7,3.7C43.1,95.4,44.8,97.1,46.8,97.1"/>
			<path class="st8" d="M98.5,97c2,0,3.7-1.6,3.7-3.7c0-2-1.6-3.7-3.7-3.7c-2,0-3.7,1.6-3.7,3.7C94.8,95.3,96.4,97,98.5,97"/>
			<path class="st8" d="M46.8,85.8c2,0,3.7-1.6,3.7-3.7c0-2-1.6-3.7-3.7-3.7c-2,0-3.7,1.6-3.7,3.7C43.1,84.1,44.8,85.8,46.8,85.8"/>
			<path class="st8" d="M98.5,85.7c2,0,3.7-1.6,3.7-3.7c0-2-1.6-3.7-3.7-3.7c-2,0-3.7,1.6-3.7,3.7C94.8,84,96.4,85.7,98.5,85.7"/>
			<path class="st8" d="M70.7,74.8c2,0,3.7-1.6,3.7-3.7c0-2-1.6-3.7-3.7-3.7c-2,0-3.7,1.6-3.7,3.7C67.1,73.1,68.7,74.8,70.7,74.8"/>
			<path class="st8" d="M70.7,107.3c2,0,3.7-1.6,3.7-3.7c0-2-1.6-3.7-3.7-3.7c-2,0-3.7,1.6-3.7,3.7
				C67.1,105.7,68.7,107.3,70.7,107.3"/>
			<path class="st8" d="M70.7,64.5c2,0,3.7-1.6,3.7-3.7c0-2-1.6-3.7-3.7-3.7c-2,0-3.7,1.6-3.7,3.7C67.1,62.8,68.7,64.5,70.7,64.5"/>
			<path class="st8" d="M70.7,97.1c2,0,3.7-1.6,3.7-3.7c0-2-1.6-3.7-3.7-3.7c-2,0-3.7,1.6-3.7,3.7C67.1,95.4,68.7,97.1,70.7,97.1"/>
			<path class="st8" d="M70.7,85.8c2,0,3.7-1.6,3.7-3.7c0-2-1.6-3.7-3.7-3.7c-2,0-3.7,1.6-3.7,3.7C67.1,84.1,68.7,85.8,70.7,85.8"/>
			<path class="st8" d="M58.8,74.8c2,0,3.7-1.6,3.7-3.7c0-2-1.6-3.7-3.7-3.7c-2,0-3.7,1.6-3.7,3.7C55.1,73.1,56.7,74.8,58.8,74.8"/>
			<path class="st8" d="M110.4,74.6c2,0,3.7-1.6,3.7-3.7c0-2-1.6-3.7-3.7-3.7c-2,0-3.7,1.6-3.7,3.7C106.7,73,108.4,74.6,110.4,74.6"
				/>
			<path class="st8" d="M58.8,107.3c2,0,3.7-1.6,3.7-3.7c0-2-1.6-3.7-3.7-3.7c-2,0-3.7,1.6-3.7,3.7
				C55.1,105.7,56.7,107.3,58.8,107.3"/>
			<path class="st8" d="M110.4,107.2c2,0,3.7-1.6,3.7-3.7c0-2-1.6-3.7-3.7-3.7c-2,0-3.7,1.6-3.7,3.7
				C106.7,105.6,108.4,107.2,110.4,107.2"/>
			<path class="st8" d="M58.8,64.5c2,0,3.7-1.6,3.7-3.7c0-2-1.6-3.7-3.7-3.7c-2,0-3.7,1.6-3.7,3.7C55.1,62.8,56.7,64.5,58.8,64.5"/>
			<path class="st8" d="M110.4,64.4c2,0,3.7-1.6,3.7-3.7c0-2-1.6-3.7-3.7-3.7c-2,0-3.7,1.6-3.7,3.7
				C106.7,62.7,108.4,64.4,110.4,64.4"/>
			<path class="st8" d="M58.8,97.1c2,0,3.7-1.6,3.7-3.7c0-2-1.6-3.7-3.7-3.7c-2,0-3.7,1.6-3.7,3.7C55.1,95.4,56.7,97.1,58.8,97.1"/>
			<path class="st8" d="M110.4,97c2,0,3.7-1.6,3.7-3.7c0-2-1.6-3.7-3.7-3.7c-2,0-3.7,1.6-3.7,3.7C106.7,95.3,108.4,97,110.4,97"/>
			<path class="st8" d="M58.8,85.8c2,0,3.7-1.6,3.7-3.7c0-2-1.6-3.7-3.7-3.7c-2,0-3.7,1.6-3.7,3.7C55.1,84.1,56.7,85.8,58.8,85.8"/>
			<path class="st8" d="M110.4,85.7c2,0,3.7-1.6,3.7-3.7c0-2-1.6-3.7-3.7-3.7c-2,0-3.7,1.6-3.7,3.7C106.7,84,108.4,85.7,110.4,85.7"
				/>
			<path class="st8" d="M82.7,74.8c2,0,3.7-1.6,3.7-3.7c0-2-1.6-3.7-3.7-3.7c-2,0-3.7,1.6-3.7,3.7C79,73.1,80.7,74.8,82.7,74.8"/>
			<path class="st8" d="M82.7,107.3c2,0,3.7-1.6,3.7-3.7c0-2-1.6-3.7-3.7-3.7c-2,0-3.7,1.6-3.7,3.7C79,105.7,80.7,107.3,82.7,107.3"
				/>
			<path class="st8" d="M82.7,64.5c2,0,3.7-1.6,3.7-3.7c0-2-1.6-3.7-3.7-3.7c-2,0-3.7,1.6-3.7,3.7C79,62.8,80.7,64.5,82.7,64.5"/>
			<path class="st8" d="M82.7,97.1c2,0,3.7-1.6,3.7-3.7c0-2-1.6-3.7-3.7-3.7c-2,0-3.7,1.6-3.7,3.7C79,95.4,80.7,97.1,82.7,97.1"/>
			<path class="st8" d="M82.7,85.8c2,0,3.7-1.6,3.7-3.7c0-2-1.6-3.7-3.7-3.7c-2,0-3.7,1.6-3.7,3.7C79,84.1,80.7,85.8,82.7,85.8"/>
		</g>
	</g>
</g>
<g id="Capa_2">
</g>
</svg>
