<?xml version="1.0" encoding="utf-8"?>
<!-- Generator: Adobe Illustrator 22.0.1, SVG Export Plug-In . SVG Version: 6.00 Build 0)  -->
<svg version="1.1" xmlns="http://www.w3.org/2000/svg" xmlns:xlink="http://www.w3.org/1999/xlink" x="0px" y="0px"
	 viewBox="0 0 47 47" style="enable-background:new 0 0 47 47;" xml:space="preserve">
<style type="text/css">
	.st0{fill:#ECBB3C;}
	.st1{fill:#003366;}
	.st2{fill-rule:evenodd;clip-rule:evenodd;fill:#003366;}
	.st3{fill-rule:evenodd;clip-rule:evenodd;fill:#ECBB3C;}
	.st4{fill-rule:evenodd;clip-rule:evenodd;fill:#FFFFFF;}
	.st5{fill:#EAB856;}
	.st6{fill:#FCFCFC;}
	.st7{fill:#E9BB53;}
	.st8{fill:#FFFFFF;}
</style>
<g id="Capa_1">
	<g>
		<g>
			<path class="st2" d="M10.5,23.1c0-2.5,0-4.9,0-7.4c0-1.8,0.7-2.7,2.5-2.6c2.1,0,4.3,0,6.4,0c1.8,0,2.6,0.8,2.6,2.6
				c0,3.6,0,7.3,0,10.9c0,1.1,0.1,1.8,1.5,1.8c1.4,0,1.4-0.7,1.4-1.7c0-3.6,0-7.1,0-10.7c0-2.2,0.6-2.8,2.8-2.8c2.1,0,4.3,0,6.4,0
				c1.6,0,2.4,0.8,2.4,2.4c0,5.1,0,10.2,0,15.3c0,1.7-0.9,2.5-2.6,2.5c-2.1,0-4.3,0-6.4,0c-1.6,0-2.7-0.7-2.6-2.4
				c0-1.1-0.5-1.3-1.4-1.2c-0.8,0-1.5,0-1.5,1.2c0.1,1.9-1.1,2.5-2.8,2.5c-2.1,0-4.1,0-6.2,0c-1.7,0-2.6-0.8-2.6-2.6
				C10.5,28.2,10.5,25.7,10.5,23.1z M20.6,23.1c0-2.3,0-4.7,0-7c0-1.2-0.4-1.6-1.6-1.6c-1.9,0-3.7,0.1-5.6,0c-1.2,0-1.6,0.4-1.6,1.6
				c0,4.8,0,9.6,0,14.4c0,1.1,0.4,1.5,1.5,1.5c1.9,0,3.9-0.1,5.8,0c1.2,0,1.5-0.6,1.5-1.7C20.6,27.9,20.6,25.5,20.6,23.1z
				 M26.4,23.2c0,2.4,0,4.8,0,7.2c0,1,0.3,1.6,1.4,1.6c2-0.1,4,0,6,0c0.9,0,1.3-0.4,1.3-1.3c0-4.9,0-9.9,0-14.8c0-1-0.4-1.4-1.4-1.4
				c-1.9,0-3.8,0.1-5.6,0c-1.3-0.1-1.7,0.4-1.7,1.7C26.4,18.5,26.4,20.8,26.4,23.2z"/>
			<path class="st2" d="M19.8,21c0-1.9-1.7-3.5-3.6-3.5c-2,0-3.7,1.7-3.6,3.7c0.1,2,1.7,3.5,3.7,3.4C18.3,24.6,19.9,23,19.8,21z"/>
			<path class="st2" d="M34.3,21.2c0.1-2-1.4-3.6-3.4-3.7c-2.1-0.1-3.8,1.5-3.8,3.5c0,2,1.5,3.6,3.5,3.6
				C32.6,24.7,34.2,23.2,34.3,21.2z"/>
			<path class="st3" d="M19.8,21c0,2-1.5,3.6-3.5,3.6c-2,0-3.6-1.5-3.7-3.4c-0.1-2,1.6-3.7,3.6-3.7C18.2,17.5,19.8,19.1,19.8,21z"/>
			<path class="st3" d="M34.3,21.2c-0.1,2-1.7,3.5-3.7,3.4c-2,0-3.6-1.7-3.5-3.6c0-2,1.8-3.6,3.8-3.5C32.9,17.6,34.4,19.2,34.3,21.2
				z"/>
		</g>
	</g>
</g>
<g id="Capa_2">
</g>
</svg>
