<?xml version="1.0" encoding="utf-8"?>
<!-- Generator: Adobe Illustrator 22.0.1, SVG Export Plug-In . SVG Version: 6.00 Build 0)  -->
<svg version="1.1" xmlns="http://www.w3.org/2000/svg" xmlns:xlink="http://www.w3.org/1999/xlink" x="0px" y="0px"
	 viewBox="0 0 47 47" style="enable-background:new 0 0 47 47;" xml:space="preserve">
<style type="text/css">
	.st0{fill:#ECBB3C;}
	.st1{fill:#003366;}
	.st2{fill-rule:evenodd;clip-rule:evenodd;fill:#003366;}
	.st3{fill-rule:evenodd;clip-rule:evenodd;fill:#ECBB3C;}
	.st4{fill-rule:evenodd;clip-rule:evenodd;fill:#FFFFFF;}
	.st5{fill:#EAB856;}
	.st6{fill:#FCFCFC;}
	.st7{fill:#E9BB53;}
	.st8{fill:#FFFFFF;}
</style>
<g id="Capa_1">
	<g>
		<path class="st5" d="M24.1,16.2c-1.9,0.6-3.5,2.8-4,5.4c-0.1,0.4-0.2,0.9-0.2,1.3c0,0.6-0.3,0.8-0.9,0.8c-0.7,0-0.6-0.5-0.6-0.9
			c-0.1-3.3,2.4-6.7,5.7-7.6c0.6-0.2,1.2-0.2,1-1.2c-0.2-0.7,0.4-1.3,1.2-1.3c0.9,0,1.5,0.5,1.3,1.3c-0.2,0.9,0.3,0.9,0.9,1.1
			c3.3,1,5.7,4.1,5.8,7.6c0,0.7-0.2,1-1,1c-3.8,0-7.6,0-11.4,0c-0.7,0-0.9-0.3-0.8-0.9c0.2-2.2,0.9-4.2,2.5-5.8
			C23.8,16.7,24.1,16.6,24.1,16.2z"/>
		<path class="st1" d="M16.2,32.1c-0.2-1.5-0.4-2.7-0.6-3.9c-0.1-0.5,0.1-0.7,0.6-1c2.1-1,4.3-0.8,6.6-0.9c0.4,0,0.6,0.2,0.7,0.5
			c0.1,0.4-0.2,0.6-0.5,0.7c-0.6,0.2-1.3,0.4-2.2,0.6c1.5,0.4,2.8,0.5,4,0c1-0.4,2.1-0.8,3.1-1.2c0.4-0.2,0.8-0.2,1.1,0.2
			c0.3,0.5,0,0.8-0.4,1c-1.5,1-2.9,2.1-4.5,2.8c-1.6,0.8-3.5,0.3-5.2,0.3C17.9,31.1,17,31,16.2,32.1z"/>
		<path class="st1" d="M26.4,24.1c2.8,0,5.5,0,8.3,0c0.6,0,1,0.1,0.9,0.8c0,0.7-0.4,0.8-1,0.8c-5.5,0-11.1,0-16.6,0
			c-0.7,0-1-0.1-1-0.9c0-0.8,0.5-0.7,1-0.7C20.8,24.1,23.6,24.1,26.4,24.1z"/>
		<path class="st5" d="M11.8,30.8c0-0.5,0.1-1,0-1.5c-0.2-1.1,0.3-1.5,1.4-1.6c1.8-0.2,1.8-0.3,2.1,1.5c0,0.2,0.1,0.5,0.1,0.7
			c0.6,3.4,0.6,3.4-2.8,3.9c-0.7,0.1-0.8-0.1-0.8-0.7C11.8,32.3,11.8,31.6,11.8,30.8z"/>
	</g>
</g>
<g id="Capa_2">
</g>
</svg>
