<?xml version="1.0" encoding="utf-8"?>
<!-- Generator: Adobe Illustrator 22.0.1, SVG Export Plug-In . SVG Version: 6.00 Build 0)  -->
<svg version="1.1" xmlns="http://www.w3.org/2000/svg" xmlns:xlink="http://www.w3.org/1999/xlink" x="0px" y="0px"
	 viewBox="0 0 47 47" style="enable-background:new 0 0 47 47;" xml:space="preserve">
<style type="text/css">
	.st0{fill:#ECBB3C;}
	.st1{fill:#003366;}
	.st2{fill-rule:evenodd;clip-rule:evenodd;fill:#003366;}
	.st3{fill-rule:evenodd;clip-rule:evenodd;fill:#ECBB3C;}
	.st4{fill-rule:evenodd;clip-rule:evenodd;fill:#FFFFFF;}
	.st5{fill:#EAB856;}
	.st6{fill:#FCFCFC;}
	.st7{fill:#E9BB53;}
	.st8{fill:#FFFFFF;}
</style>
<g id="Capa_1">
	<g>
		<g id="KMU2Pv_2_">
			<g>
				<path class="st2" d="M20.7,27.3c-0.1,0-0.1,0-0.2,0c-1.4,0-2.9,0-4.3,0c-0.6,0-1.1-0.4-1.2-0.9c0-0.1,0-0.2,0-0.4
					c0-3.8,0-7.6,0-11.4c0-0.7,0.5-1.2,1-1.3c0.1,0,0.2,0,0.3,0c4.9,0,9.8,0,14.7,0c0.7,0,1.2,0.5,1.2,1.2c0,3.8,0,7.6,0,11.4
					c0,0.7-0.5,1.3-1.3,1.3c-1.5,0-2.9,0-4.4,0c-0.1,0-0.1,0-0.1,0c0,0.5,0.4,1.1,0.8,1.2c0.1,0,0.2,0,0.2,0c0.2,0,0.2,0.1,0.2,0.3
					c0,0.1-0.1,0.2-0.2,0.2c0,0-0.1,0-0.1,0c-2.4,0-4.9,0-7.3,0c-0.1,0-0.2,0-0.3,0c-0.1,0-0.1-0.1-0.1-0.2c0.1-0.2,0.2-0.2,0.4-0.3
					c0.5-0.2,0.7-0.5,0.8-1C20.7,27.4,20.7,27.4,20.7,27.3z M16.9,19.4c0,1.3,0,2.6,0,3.9c0,0.1,0,0.1,0.1,0.1c0.9,0,1.8,0,2.7,0
					c0.6,0,1.2,0,1.8,0c1.8,0,3.7,0,5.5,0c1,0,2,0,2.9,0c0.2,0,0.2,0,0.2-0.2c0-1.1,0-2.2,0-3.3c0-0.7,0-1.3,0-2c0-0.9,0-1.7,0-2.6
					c0-0.1,0-0.1-0.1-0.1c-0.4,0-0.7,0-1.1,0c-0.6,0-1.2,0-1.8,0c-1.8,0-3.6,0-5.4,0c-0.6,0-1.2,0-1.7,0c-1,0-1.9,0-2.9,0
					c-0.2,0-0.2,0-0.2,0.2C16.9,16.8,16.9,18.1,16.9,19.4z M23.5,25.8c0.3,0,0.5-0.2,0.5-0.5c0-0.3-0.2-0.5-0.5-0.5
					c-0.3,0-0.5,0.2-0.5,0.5C23,25.6,23.2,25.8,23.5,25.8z"/>
				<path class="st3" d="M11.8,33.6c0-0.2,0-0.5,0-0.7c0,0,0-0.1,0.1-0.1c0.9-0.9,1.8-1.8,2.8-2.8c0,0,0.1-0.1,0.2-0.1
					c5.8,0,11.7,0,17.5,0c0.1,0,0.1,0,0.1,0.1c0.9,0.9,1.7,1.8,2.6,2.7c0.1,0.1,0.1,0.1,0.1,0.2c0,0.2,0,0.4,0,0.6
					C27.4,33.6,19.6,33.6,11.8,33.6z M19.4,31.5c-0.2,0.1-0.3,0.1-0.5,0.2c-0.2,0.1-0.2,0.3,0,0.4c0.3,0.2,0.6,0.2,1,0
					c0.2-0.1,0.2-0.3,0-0.4C19.7,31.6,19.5,31.6,19.4,31.5z M31.1,31.5c-0.2,0.1-0.3,0.1-0.5,0.2c-0.2,0.1-0.2,0.2,0,0.4
					c0.2,0.2,0.8,0.2,1,0c0.1-0.1,0.2-0.3,0-0.3C31.5,31.6,31.3,31.6,31.1,31.5z M29.5,31.5c-0.2,0-0.3,0.1-0.5,0.1
					c-0.1,0-0.1,0.1-0.1,0.2c0,0.1,0.1,0.2,0.1,0.2c0.3,0.2,0.6,0.2,0.9,0c0.2-0.1,0.2-0.3,0-0.4C29.8,31.6,29.6,31.6,29.5,31.5z
					 M14.3,32.2c0.2-0.1,0.3-0.1,0.5-0.2c0.2-0.1,0.2-0.2,0-0.4c-0.2-0.2-0.7-0.2-1,0c-0.2,0.1-0.2,0.3,0,0.4
					C14,32.1,14.1,32.1,14.3,32.2z M26.1,31.5c-0.2,0-0.3,0.1-0.5,0.1c-0.2,0.1-0.2,0.3,0,0.4c0.3,0.2,0.6,0.2,0.9,0
					c0.1,0,0.1-0.1,0.1-0.2c0-0.1-0.1-0.2-0.1-0.2C26.4,31.6,26.3,31.6,26.1,31.5z M24.4,31.5c-0.2,0.1-0.3,0.1-0.5,0.2
					c-0.2,0.1-0.2,0.3,0,0.4c0.3,0.2,0.6,0.2,1,0c0.2-0.1,0.2-0.3,0-0.4C24.8,31.6,24.6,31.6,24.4,31.5z M17.7,31.5
					c-0.2,0.1-0.3,0.1-0.5,0.2c-0.2,0.1-0.2,0.3,0,0.4c0.2,0.2,0.7,0.2,1,0c0.2-0.1,0.2-0.3,0-0.4C18,31.6,17.9,31.6,17.7,31.5z
					 M32.7,31.5c-0.2,0-0.3,0.1-0.5,0.1c-0.1,0-0.1,0.1-0.2,0.2c0,0.1,0.1,0.2,0.1,0.2c0.3,0.2,0.6,0.2,0.9,0c0.2-0.1,0.2-0.3,0-0.4
					C33,31.6,32.8,31.6,32.7,31.5z M27.8,31.5c-0.2,0.1-0.3,0.1-0.5,0.2c-0.2,0.1-0.2,0.3,0,0.4c0.3,0.2,0.6,0.2,1,0
					c0.2-0.1,0.2-0.3,0-0.4C28.1,31.6,28,31.6,27.8,31.5z M22.7,31.5c-0.2,0-0.3,0.1-0.5,0.1c-0.2,0.1-0.2,0.3,0,0.4
					c0.3,0.2,0.6,0.2,1,0c0.2-0.1,0.2-0.3,0-0.4C23.1,31.6,22.9,31.6,22.7,31.5z M21.1,32.2c0.2-0.1,0.3-0.1,0.5-0.2
					c0.2-0.1,0.2-0.3,0-0.4c-0.3-0.2-0.7-0.2-1,0c-0.2,0.1-0.2,0.3,0,0.4C20.7,32.1,20.9,32.1,21.1,32.2z M16,32.2
					c0.2-0.1,0.3-0.1,0.5-0.2c0.2-0.1,0.2-0.3,0-0.4c-0.3-0.2-0.7-0.2-1,0c-0.2,0.1-0.2,0.3,0,0.4C15.7,32.1,15.8,32.1,16,32.2z
					 M20.2,31.3C20.2,31.2,20.2,31.2,20.2,31.3c0.2,0,0.4-0.1,0.5-0.2c0.2-0.1,0.2-0.2,0-0.4c-0.2-0.2-0.7-0.2-1,0
					c-0.2,0.1-0.2,0.3,0,0.4C19.8,31.2,20,31.2,20.2,31.3z M18.5,31.2c0.2,0,0.3,0,0.5-0.1c0.2-0.1,0.2-0.2,0-0.4
					c-0.2-0.2-0.8-0.2-1,0c-0.2,0.1-0.2,0.2,0,0.4C18.1,31.2,18.3,31.2,18.5,31.2z M30.3,31.2c0.2,0,0.3,0,0.5-0.1
					c0.2-0.1,0.2-0.2,0-0.4c-0.2-0.2-0.8-0.2-1,0c-0.1,0.1-0.1,0.2,0,0.3C29.9,31.2,30.1,31.2,30.3,31.2z M28.6,31.2
					c0.2,0,0.4,0,0.5-0.1c0.2-0.1,0.2-0.2,0-0.4c-0.2-0.2-0.8-0.2-1,0c-0.2,0.1-0.2,0.2,0,0.4C28.2,31.2,28.4,31.2,28.6,31.2z
					 M26.9,31.2c0.2,0,0.4,0,0.5-0.1c0.1-0.1,0.2-0.2,0-0.3c-0.2-0.2-0.8-0.2-1,0c-0.2,0.1-0.2,0.2,0,0.4
					C26.6,31.2,26.7,31.2,26.9,31.2z M21.8,31.3C21.9,31.2,21.9,31.2,21.8,31.3c0.2,0,0.4-0.1,0.5-0.2c0.2-0.1,0.2-0.2,0-0.4
					c-0.2-0.2-0.7-0.2-1,0c-0.2,0.1-0.2,0.3,0,0.4C21.5,31.2,21.7,31.2,21.8,31.3z M16.8,31.3C16.8,31.2,16.8,31.2,16.8,31.3
					c0.2,0,0.4-0.1,0.5-0.2c0.2-0.1,0.2-0.2,0-0.4c-0.2-0.2-0.8-0.2-1,0c-0.2,0.1-0.2,0.3,0,0.4C16.5,31.2,16.6,31.2,16.8,31.3z
					 M15.1,31.2C15.1,31.2,15.1,31.2,15.1,31.2c0.2,0,0.3-0.1,0.5-0.1c0.2-0.1,0.2-0.2,0-0.4c-0.2-0.2-0.7-0.2-1,0
					c-0.2,0.1-0.2,0.2,0,0.4C14.8,31.2,14.9,31.2,15.1,31.2z M31.9,31.3c0.2-0.1,0.3-0.1,0.5-0.2c0.2-0.1,0.2-0.3,0-0.4
					c-0.3-0.2-0.6-0.2-1,0c-0.2,0.1-0.2,0.3,0,0.4C31.5,31.2,31.7,31.2,31.9,31.3z M25.2,31.3c0.2-0.1,0.3-0.1,0.5-0.2
					c0.2-0.1,0.2-0.3,0-0.4c-0.3-0.2-0.6-0.2-1,0c-0.2,0.1-0.2,0.3,0,0.4C24.9,31.2,25.1,31.2,25.2,31.3z M23.5,31.3
					c0.2-0.1,0.3-0.1,0.5-0.2c0.2-0.1,0.2-0.3,0-0.4c-0.2-0.2-0.7-0.2-1,0c-0.2,0.1-0.2,0.3,0,0.4C23.2,31.2,23.4,31.2,23.5,31.3z"
					/>
			</g>
		</g>
	</g>
</g>
<g id="Capa_2">
</g>
</svg>
