<?xml version="1.0" encoding="utf-8"?>
<!-- Generator: Adobe Illustrator 22.0.1, SVG Export Plug-In . SVG Version: 6.00 Build 0)  -->
<svg version="1.1" xmlns="http://www.w3.org/2000/svg" xmlns:xlink="http://www.w3.org/1999/xlink" x="0px" y="0px"
	 viewBox="0 0 160.6 160.6" style="enable-background:new 0 0 160.6 160.6;" xml:space="preserve">
<style type="text/css">
	.st0{fill:#ECBB3C;}
	.st1{fill:#003366;}
	.st2{fill-rule:evenodd;clip-rule:evenodd;fill:#003366;}
	.st3{fill-rule:evenodd;clip-rule:evenodd;fill:#ECBB3C;}
	.st4{fill-rule:evenodd;clip-rule:evenodd;fill:#FFFFFF;}
	.st5{fill:#EAB856;}
	.st6{fill:#FCFCFC;}
	.st7{fill:#E9BB53;}
	.st8{fill:#FFFFFF;}
</style>
<g id="Capa_1">
	<g>
		<path class="st2" d="M153.2,79.8c0,40.6-32.9,73.6-73.6,73.6C38.9,153.4,6,120.5,6,79.8C6,39.2,38.9,6.2,79.6,6.2
			C120.2,6.2,153.2,39.2,153.2,79.8z"/>
		<g>
			<path class="st6" d="M92.9,48.5c1.2,0,2.2-1,2.2-2.2c0-1.2-1-2.2-2.2-2.2c-1.2,0-2.2,1-2.2,2.2C90.7,47.5,91.7,48.5,92.9,48.5"/>
			<path class="st6" d="M92.9,88c1.2,0,2.2-1,2.2-2.2c0-1.2-1-2.2-2.2-2.2c-1.2,0-2.2,1-2.2,2.2C90.7,87,91.7,88,92.9,88"/>
			<path class="st6" d="M92.9,67.5c1.2,0,2.2-1,2.2-2.2c0-1.2-1-2.2-2.2-2.2c-1.2,0-2.2,1-2.2,2.2C90.7,66.5,91.7,67.5,92.9,67.5"/>
			<path class="st6" d="M93,106.9c1.2,0,2.2-1,2.2-2.2c0-1.2-1-2.2-2.2-2.2c-1.2,0-2.2,1-2.2,2.2C90.8,106,91.8,106.9,93,106.9"/>
			<path class="st6" d="M92,126.9c1.2,0,2.2-1,2.2-2.2c0-1.2-1-2.2-2.2-2.2c-1.2,0-2.2,1-2.2,2.2C89.8,126,90.8,126.9,92,126.9"/>
			<path class="st6" d="M59,48.5c1.2,0,2.2-1,2.2-2.2c0-1.2-1-2.2-2.2-2.2c-1.2,0-2.2,1-2.2,2.2C56.8,47.5,57.8,48.5,59,48.5"/>
			<path class="st6" d="M100,48.5c1.2,0,2.2-1,2.2-2.2c0-1.2-1-2.2-2.2-2.2c-1.2,0-2.2,1-2.2,2.2C97.8,47.5,98.8,48.5,100,48.5"/>
			<path class="st6" d="M100,88c1.2,0,2.2-1,2.2-2.2c0-1.2-1-2.2-2.2-2.2c-1.2,0-2.2,1-2.2,2.2C97.8,87,98.8,88,100,88"/>
			<path class="st6" d="M100,67.5c1.2,0,2.2-1,2.2-2.2c0-1.2-1-2.2-2.2-2.2c-1.2,0-2.2,1-2.2,2.2C97.8,66.5,98.8,67.5,100,67.5"/>
			<path class="st6" d="M100.1,106.9c1.2,0,2.2-1,2.2-2.2c0-1.2-1-2.2-2.2-2.2c-1.2,0-2.2,1-2.2,2.2
				C97.9,106,98.9,106.9,100.1,106.9"/>
			<path class="st6" d="M99.1,126.9c1.2,0,2.2-1,2.2-2.2c0-1.2-1-2.2-2.2-2.2c-1.2,0-2.2,1-2.2,2.2C96.9,126,97.8,126.9,99.1,126.9"
				/>
			<path class="st6" d="M59.4,87.5c1.2,0,2.2-1,2.2-2.2c0-1.2-1-2.2-2.2-2.2c-1.2,0-2.2,1-2.2,2.2C57.2,86.6,58.2,87.5,59.4,87.5"/>
			<path class="st6" d="M59.8,67.3c1.2,0,2.2-1,2.2-2.2c0-1.2-1-2.2-2.2-2.2c-1.2,0-2.2,1-2.2,2.2C57.6,66.4,58.6,67.3,59.8,67.3"/>
			<path class="st6" d="M59.5,107.9c1.2,0,2.2-1,2.2-2.2c0-1.2-1-2.2-2.2-2.2c-1.2,0-2.2,1-2.2,2.2
				C57.3,106.9,58.3,107.9,59.5,107.9"/>
			<path class="st6" d="M59.9,127c1.2,0,2.2-1,2.2-2.2c0-1.2-1-2.2-2.2-2.2c-1.2,0-2.2,1-2.2,2.2C57.7,126,58.7,127,59.9,127"/>
			<path class="st6" d="M66.1,48.5c1.2,0,2.2-1,2.2-2.2c0-1.2-1-2.2-2.2-2.2c-1.2,0-2.2,1-2.2,2.2C63.9,47.5,64.9,48.5,66.1,48.5"/>
			<path class="st6" d="M66.5,87.5c1.2,0,2.2-1,2.2-2.2c0-1.2-1-2.2-2.2-2.2c-1.2,0-2.2,1-2.2,2.2C64.3,86.6,65.3,87.5,66.5,87.5"/>
			<path class="st6" d="M66.8,67.3c1.2,0,2.2-1,2.2-2.2c0-1.2-1-2.2-2.2-2.2c-1.2,0-2.2,1-2.2,2.2C64.7,66.4,65.6,67.3,66.8,67.3"/>
			<path class="st6" d="M66.6,107.9c1.2,0,2.2-1,2.2-2.2c0-1.2-1-2.2-2.2-2.2c-1.2,0-2.2,1-2.2,2.2
				C64.4,106.9,65.4,107.9,66.6,107.9"/>
			<path class="st6" d="M67,127c1.2,0,2.2-1,2.2-2.2c0-1.2-1-2.2-2.2-2.2c-1.2,0-2.2,1-2.2,2.2C64.8,126,65.8,127,67,127"/>
			<rect x="50.4" y="33.1" class="st6" width="25.1" height="8.7"/>
			<rect x="82.8" y="33.1" class="st6" width="25.1" height="8.7"/>
			<rect x="83.6" y="72.6" class="st6" width="25.1" height="8.7"/>
			<rect x="83.6" y="52.1" class="st6" width="25.1" height="8.7"/>
			<rect x="83.7" y="91.5" class="st6" width="25.1" height="8.7"/>
			<rect x="83.4" y="111.5" class="st6" width="25.1" height="8.7"/>
			<rect x="50.8" y="72.1" class="st6" width="25.1" height="8.7"/>
			<rect x="51.2" y="51.9" class="st6" width="25.1" height="8.7"/>
			<rect x="50.9" y="92.5" class="st6" width="25.1" height="8.7"/>
			<rect x="51.3" y="111.6" class="st6" width="25.1" height="8.7"/>
		</g>
	</g>
</g>
<g id="Capa_2">
</g>
</svg>
