<?xml version="1.0" encoding="utf-8"?>
<!-- Generator: Adobe Illustrator 22.0.1, SVG Export Plug-In . SVG Version: 6.00 Build 0)  -->
<svg version="1.1" xmlns="http://www.w3.org/2000/svg" xmlns:xlink="http://www.w3.org/1999/xlink" x="0px" y="0px"
	 viewBox="0 0 160.6 160.6" style="enable-background:new 0 0 160.6 160.6;" xml:space="preserve">
<style type="text/css">
	.st0{fill:#ECBB3C;}
	.st1{fill:#003366;}
	.st2{fill-rule:evenodd;clip-rule:evenodd;fill:#003366;}
	.st3{fill-rule:evenodd;clip-rule:evenodd;fill:#ECBB3C;}
	.st4{fill-rule:evenodd;clip-rule:evenodd;fill:#FFFFFF;}
	.st5{fill:#EAB856;}
	.st6{fill:#FCFCFC;}
	.st7{fill:#E9BB53;}
	.st8{fill:#FFFFFF;}
</style>
<g id="Capa_1">
	<g>
		<path class="st2" d="M153.9,79.8c0,40.6-32.9,73.6-73.6,73.6c-40.6,0-73.6-32.9-73.6-73.6c0-40.7,32.9-73.6,73.6-73.6
			C120.9,6.2,153.9,39.2,153.9,79.8z"/>
		<g>
			<rect x="47.1" y="82.7" class="st7" width="11" height="18.9"/>
			<rect x="47.2" y="104.1" class="st7" width="11" height="18.9"/>
			<rect x="103.4" y="83.3" class="st7" width="11" height="18.9"/>
			<rect x="103.6" y="104.7" class="st7" width="11" height="18.9"/>
			<rect x="47.4" y="45.6" class="st7" width="31.5" height="11"/>
			<rect x="47.2" y="61.5" class="st7" width="11" height="18.9"/>
			<rect x="103.2" y="62.1" class="st7" width="11" height="18.9"/>
			<rect x="82.8" y="45.3" class="st7" width="31.5" height="11"/>
			<path class="st7" d="M36.4,66.4c0,1.5,1.2,2.7,2.7,2.7c1.5,0,2.7-1.2,2.7-2.7c0-1.5-1.2-2.7-2.7-2.7
				C37.6,63.6,36.4,64.9,36.4,66.4"/>
			<path class="st7" d="M120.3,67.4c0,1.5,1.2,2.7,2.7,2.7c1.5,0,2.7-1.2,2.7-2.7c0-1.5-1.2-2.7-2.7-2.7
				C121.5,64.7,120.3,65.9,120.3,67.4"/>
			<path class="st7" d="M102.9,32c-1.5,0-2.7,1.2-2.7,2.7c0,1.5,1.2,2.7,2.7,2.7c1.5,0,2.7-1.2,2.7-2.7
				C105.7,33.2,104.4,32,102.9,32"/>
			<path class="st7" d="M36.5,110.8c0,1.5,1.2,2.7,2.7,2.7c1.5,0,2.7-1.2,2.7-2.7c0-1.5-1.2-2.7-2.7-2.7
				C37.7,108.1,36.5,109.3,36.5,110.8"/>
			<path class="st7" d="M120.4,111.2c0,1.5,1.2,2.7,2.7,2.7c1.5,0,2.7-1.2,2.7-2.7c0-1.5-1.2-2.7-2.7-2.7
				C121.6,108.5,120.4,109.7,120.4,111.2"/>
			<path class="st7" d="M67.3,32.1c-1.5,0-2.7,1.2-2.7,2.7c0,1.5,1.2,2.7,2.7,2.7c1.5,0,2.7-1.2,2.7-2.7
				C70,33.3,68.8,32.1,67.3,32.1"/>
			<path class="st7" d="M36.4,88.9c0,1.5,1.2,2.7,2.7,2.7c1.5,0,2.7-1.2,2.7-2.7c0-1.5-1.2-2.7-2.7-2.7
				C37.6,86.2,36.4,87.4,36.4,88.9"/>
			<path class="st7" d="M120.3,87.3c0,1.5,1.2,2.7,2.7,2.7c1.5,0,2.7-1.2,2.7-2.7c0-1.5-1.2-2.7-2.7-2.7
				C121.5,84.6,120.3,85.8,120.3,87.3"/>
			<path class="st7" d="M36.4,75.3c0,1.5,1.2,2.7,2.7,2.7c1.5,0,2.7-1.2,2.7-2.7c0-1.5-1.2-2.7-2.7-2.7
				C37.6,72.5,36.4,73.8,36.4,75.3"/>
			<path class="st7" d="M120.3,76.4c0,1.5,1.2,2.7,2.7,2.7c1.5,0,2.7-1.2,2.7-2.7c0-1.5-1.2-2.7-2.7-2.7
				C121.5,73.6,120.3,74.8,120.3,76.4"/>
			<path class="st7" d="M94,32c-1.5,0-2.7,1.2-2.7,2.7c0,1.5,1.2,2.7,2.7,2.7c1.5,0,2.7-1.2,2.7-2.7C96.8,33.2,95.5,32,94,32"/>
			<path class="st7" d="M36.5,119.8c0,1.5,1.2,2.7,2.7,2.7c1.5,0,2.7-1.2,2.7-2.7c0-1.5-1.2-2.7-2.7-2.7
				C37.7,117,36.5,118.2,36.5,119.8"/>
			<path class="st7" d="M120.4,120.2c0,1.5,1.2,2.7,2.7,2.7c1.5,0,2.7-1.2,2.7-2.7c0-1.5-1.2-2.7-2.7-2.7
				C121.6,117.4,120.4,118.6,120.4,120.2"/>
			<path class="st7" d="M58.4,32.1c-1.5,0-2.7,1.2-2.7,2.7c0,1.5,1.2,2.7,2.7,2.7c1.5,0,2.7-1.2,2.7-2.7
				C61.1,33.3,59.9,32.1,58.4,32.1"/>
			<path class="st7" d="M36.4,97.9c0,1.5,1.2,2.7,2.7,2.7c1.5,0,2.7-1.2,2.7-2.7c0-1.5-1.2-2.7-2.7-2.7
				C37.6,95.1,36.4,96.3,36.4,97.9"/>
			<path class="st7" d="M120.3,96.2c0,1.5,1.2,2.7,2.7,2.7c1.5,0,2.7-1.2,2.7-2.7c0-1.5-1.2-2.7-2.7-2.7
				C121.5,93.5,120.3,94.7,120.3,96.2"/>
		</g>
	</g>
</g>
<g id="Capa_2">
</g>
</svg>
