<?xml version="1.0" encoding="utf-8"?>
<!-- Generator: Adobe Illustrator 22.0.1, SVG Export Plug-In . SVG Version: 6.00 Build 0)  -->
<svg version="1.1" xmlns="http://www.w3.org/2000/svg" xmlns:xlink="http://www.w3.org/1999/xlink" x="0px" y="0px"
	 viewBox="0 0 160.6 160.6" style="enable-background:new 0 0 160.6 160.6;" xml:space="preserve">
<style type="text/css">
	.st0{fill:#ECBB3C;}
	.st1{fill:#003366;}
	.st2{fill-rule:evenodd;clip-rule:evenodd;fill:#003366;}
	.st3{fill-rule:evenodd;clip-rule:evenodd;fill:#ECBB3C;}
	.st4{fill-rule:evenodd;clip-rule:evenodd;fill:#FFFFFF;}
	.st5{fill:#EAB856;}
	.st6{fill:#FCFCFC;}
	.st7{fill:#E9BB53;}
	.st8{fill:#FFFFFF;}
</style>
<g id="Capa_1">
	<g>
		<path class="st2" d="M154,79.8c0,40.6-32.9,73.6-73.6,73.6c-40.6,0-73.6-32.9-73.6-73.6c0-40.7,32.9-73.6,73.6-73.6
			C121,6.2,154,39.2,154,79.8z"/>
		<g>
			<g>
				<rect x="49.1" y="65.2" class="st7" width="64.5" height="27.9"/>
				<path class="st7" d="M62.7,53.6c-2,0-3.7,1.6-3.7,3.7c0,2,1.6,3.7,3.7,3.7c2,0,3.7-1.6,3.7-3.7C66.4,55.2,64.7,53.6,62.7,53.6"
					/>
				<path class="st7" d="M79,53.6c-2,0-3.7,1.6-3.7,3.7c0,2,1.6,3.7,3.7,3.7c2,0,3.7-1.6,3.7-3.7C82.7,55.2,81.1,53.6,79,53.6"/>
				<path class="st7" d="M96.5,53.6c-2,0-3.7,1.6-3.7,3.7c0,2,1.6,3.7,3.7,3.7c2,0,3.7-1.6,3.7-3.7C100.1,55.2,98.5,53.6,96.5,53.6"
					/>
				<path class="st7" d="M121.5,76.1c-2,0-3.7,1.6-3.7,3.7c0,2,1.6,3.7,3.7,3.7c2,0,3.7-1.6,3.7-3.7
					C125.2,77.8,123.6,76.1,121.5,76.1"/>
				<path class="st7" d="M41.5,76.1c-2,0-3.7,1.6-3.7,3.7c0,2,1.6,3.7,3.7,3.7c2,0,3.7-1.6,3.7-3.7C45.1,77.8,43.5,76.1,41.5,76.1"
					/>
				<path class="st7" d="M62.7,97.9c-2,0-3.7,1.6-3.7,3.7c0,2,1.6,3.7,3.7,3.7c2,0,3.7-1.6,3.7-3.7C66.4,99.6,64.7,97.9,62.7,97.9"
					/>
				<path class="st7" d="M79,97.9c-2,0-3.7,1.6-3.7,3.7c0,2,1.6,3.7,3.7,3.7c2,0,3.7-1.6,3.7-3.7C82.7,99.6,81.1,97.9,79,97.9"/>
				<path class="st7" d="M96.5,97.9c-2,0-3.7,1.6-3.7,3.7c0,2,1.6,3.7,3.7,3.7c2,0,3.7-1.6,3.7-3.7C100.1,99.6,98.5,97.9,96.5,97.9"
					/>
			</g>
		</g>
	</g>
</g>
<g id="Capa_2">
</g>
</svg>
