<?xml version="1.0" encoding="utf-8"?>
<!-- Generator: Adobe Illustrator 22.0.1, SVG Export Plug-In . SVG Version: 6.00 Build 0)  -->
<svg version="1.1" xmlns="http://www.w3.org/2000/svg" xmlns:xlink="http://www.w3.org/1999/xlink" x="0px" y="0px"
	 viewBox="0 0 47 47" style="enable-background:new 0 0 47 47;" xml:space="preserve">
<style type="text/css">
	.st0{fill:#ECBB3C;}
	.st1{fill:#003366;}
	.st2{fill-rule:evenodd;clip-rule:evenodd;fill:#003366;}
	.st3{fill-rule:evenodd;clip-rule:evenodd;fill:#ECBB3C;}
	.st4{fill-rule:evenodd;clip-rule:evenodd;fill:#FFFFFF;}
	.st5{fill:#EAB856;}
	.st6{fill:#FCFCFC;}
	.st7{fill:#E9BB53;}
	.st8{fill:#FFFFFF;}
</style>
<g id="Capa_1">
	<g>
		<g id="iWo1Gl_2_">
			<g>
				<path class="st2" d="M13.3,20.5c0.1-0.2,0.1-0.3,0.1-0.5c0.2-0.9,0.5-1.6,1.2-2.3c0.1-0.1,0.2-0.3,0.4-0.4
					c0.5-0.4,1.2-0.4,1.7,0.1c0.8,0.8,1.6,1.7,2.5,2.5c0.5,0.5,0.5,1.2,0,1.7c-0.4,0.4-0.9,0.9-1.3,1.3c-0.1,0.1-0.1,0.1,0,0.2
					c0.8,1.5,1.7,2.8,2.9,3.9c0.8,0.7,1.6,1.2,2.5,1.7c0.2,0.1,0.3,0.2,0.5,0.3c0.1,0.1,0.2,0.1,0.3,0c0.4-0.4,0.8-0.8,1.2-1.2
					c0.5-0.5,1.3-0.6,1.8,0c0.8,0.8,1.6,1.7,2.5,2.5c0.5,0.5,0.5,1.2,0,1.7c-0.4,0.5-0.9,0.9-1.5,1.2c-0.8,0.4-1.5,0.5-2.4,0.4
					c-1.4-0.2-2.7-0.7-4-1.4c-0.9-0.5-1.7-1.1-2.4-1.7c-0.9-0.8-1.8-1.6-2.6-2.6c-0.5-0.6-1-1.2-1.5-1.8c-0.6-0.8-1.1-1.7-1.5-2.7
					c-0.2-0.4-0.3-0.9-0.3-1.4c0-0.1,0-0.2-0.1-0.2C13.3,21.3,13.3,20.9,13.3,20.5z"/>
				<path class="st3" d="M33.8,25.6c-0.3,0-0.7,0-1,0.1c-0.1,0-0.2,0-0.2-0.2c0-0.9-0.2-1.8-0.5-2.6c-0.3-1.1-0.8-2.2-1.5-3.1
					c-0.6-0.9-1.4-1.8-2.2-2.5c-0.9-0.8-1.9-1.4-3-1.8c-0.8-0.3-1.7-0.6-2.6-0.7c-0.5-0.1-1.1-0.1-1.7-0.2c-0.1,0-0.2,0-0.1-0.2
					c0-0.3,0-0.6,0-0.9c0-0.1,0-0.1,0.1-0.1c1.2,0,2.3,0.2,3.5,0.5c1.1,0.3,2.1,0.8,3,1.3c0.6,0.4,1.2,0.8,1.8,1.3
					c0.8,0.7,1.5,1.5,2.1,2.4c0.8,1.1,1.3,2.4,1.7,3.7c0.2,0.8,0.4,1.5,0.4,2.3c0,0.1,0,0.1,0,0.2C33.8,25.3,33.8,25.4,33.8,25.6z"
					/>
				<path class="st3" d="M30.2,25.9c-0.2,0-0.3,0.1-0.4,0c-0.1-0.1-0.1-0.3-0.1-0.4c-0.1-0.6-0.1-1.1-0.3-1.6
					c-0.3-1.1-0.8-2.1-1.5-3c-0.7-0.9-1.5-1.6-2.4-2.1c-1.2-0.7-2.6-1.1-4-1.2c-0.1,0-0.1-0.1-0.2-0.2c-0.1-0.3-0.1-0.6-0.2-1
					c0-0.1,0-0.1,0.1-0.1c1,0.1,2,0.2,2.9,0.5c1.1,0.4,2.2,0.9,3.1,1.7c1,0.8,1.8,1.7,2.4,2.8c0.5,0.9,0.9,1.9,1.1,3
					c0.1,0.5,0.2,1,0.2,1.5c0,0.1,0,0.2-0.1,0.2C30.6,25.8,30.4,25.8,30.2,25.9C30.2,25.9,30.2,25.9,30.2,25.9z"/>
				<path class="st3" d="M27.7,25.9c-0.2,0-0.4,0-0.6-0.1c-0.1,0-0.1,0-0.1-0.1c-0.1-0.7-0.2-1.3-0.5-1.9c-0.3-0.7-0.7-1.2-1.2-1.8
					c-0.9-0.9-2-1.5-3.3-1.7c-0.1,0-0.2-0.1-0.2-0.2c0-0.3-0.1-0.6-0.1-0.9c0-0.1,0-0.1,0.1-0.1c1.1,0.2,2.1,0.5,3,1
					c0.7,0.4,1.3,1,1.9,1.7c0.3,0.4,0.6,0.8,0.8,1.2c0.3,0.7,0.6,1.5,0.7,2.2c0,0.2,0,0.4,0.1,0.6c0,0.1,0,0.1-0.1,0.1
					C27.9,25.9,27.8,25.9,27.7,25.9z"/>
				<path class="st3" d="M25.5,25.6c-0.4,0-0.8-0.1-1.2-0.1c-0.1,0-0.1-0.1-0.1-0.1c-0.1-0.5-0.3-0.9-0.6-1.3
					c-0.4-0.5-0.9-0.9-1.6-1.1c-0.2-0.1-0.4-0.1-0.6-0.2c-0.1,0-0.1-0.1-0.1-0.1c0.2-0.3,0.3-0.6,0.4-1c0-0.1,0.1-0.1,0.2,0
					c0.4,0.1,0.7,0.2,1.1,0.4c0.8,0.4,1.5,1,1.9,1.8C25.2,24.4,25.4,25,25.5,25.6z"/>
			</g>
		</g>
	</g>
</g>
<g id="Capa_2">
</g>
</svg>
