<?xml version="1.0" encoding="utf-8"?>
<!-- Generator: Adobe Illustrator 22.0.1, SVG Export Plug-In . SVG Version: 6.00 Build 0)  -->
<svg version="1.1" xmlns="http://www.w3.org/2000/svg" xmlns:xlink="http://www.w3.org/1999/xlink" x="0px" y="0px"
	 viewBox="0 0 47 47" style="enable-background:new 0 0 47 47;" xml:space="preserve">
<style type="text/css">
	.st0{fill:#ECBB3C;}
	.st1{fill:#003366;}
	.st2{fill-rule:evenodd;clip-rule:evenodd;fill:#003366;}
	.st3{fill-rule:evenodd;clip-rule:evenodd;fill:#ECBB3C;}
	.st4{fill-rule:evenodd;clip-rule:evenodd;fill:#FFFFFF;}
	.st5{fill:#EAB856;}
	.st6{fill:#FCFCFC;}
	.st7{fill:#E9BB53;}
	.st8{fill:#FFFFFF;}
</style>
<g id="Capa_1">
	<g>
		<g id="xMWOc5_2_">
			<g>
				<path class="st2" d="M15.3,33.6c-0.2-0.1-0.3-0.1-0.5-0.1c-0.7-0.1-1.2-0.6-1.5-1.2c-0.2-0.6-0.2-1.1,0.1-1.7
					c0.2-0.5,0.6-0.9,1-1.3c0.1-0.1,0.1-0.1,0.1-0.2c0-0.4,0.1-0.7,0.3-1.1c0.4-0.5,0.8-1,1.2-1.4c0.6-0.7,1.1-1.4,1.7-2.1
					c0.6-0.7,1.2-1.5,1.8-2.2c0.5-0.6,1-1.3,1.6-1.9c0.3-0.4,0.6-0.8,1-1.2c0.7,1.6,1.8,2.7,3.4,3.4c-0.2,0.2-0.4,0.3-0.6,0.5
					c-0.7,0.6-1.4,1.1-2.1,1.7c-0.7,0.6-1.5,1.2-2.2,1.8c-0.6,0.5-1.2,1-1.9,1.5c-0.7,0.6-1.5,1.2-2.2,1.8c-0.3,0.2-0.6,0.3-0.9,0.2
					c-0.2,0-0.3,0-0.5,0.2c-0.2,0.2-0.4,0.5-0.6,0.7c-0.2,0.4-0.2,0.7,0.2,0.9c0.1,0.1,0.3,0.1,0.4,0.1c0.7,0.1,1.4,0,2-0.4
					c0.7-0.4,1.3-0.9,1.9-1.4c0.6-0.6,1.3-1.1,2-1.6c1.3-0.8,2.7-0.9,4.2-0.5c0.9,0.3,1.7,0.7,2.5,1.2c0.8,0.6,1.6,1.3,2.2,2
					c0.2,0.2,0.4,0.5,0.6,0.7c0.2,0.3,0.2,0.7-0.1,0.9c-0.3,0.2-0.7,0.2-1-0.1c-0.7-0.9-1.5-1.7-2.5-2.4c-0.9-0.6-1.8-1-2.8-1.2
					c-0.8-0.1-1.6,0-2.4,0.4c-0.7,0.4-1.3,0.9-1.9,1.4c-0.6,0.5-1.2,1-1.8,1.4c-0.6,0.4-1.2,0.6-1.9,0.7c0,0-0.1,0-0.1,0
					C15.9,33.6,15.6,33.6,15.3,33.6z"/>
				<path class="st3" d="M27,13.4c0.1,0.1,0.3,0.1,0.4,0.1c0.9,0.2,1.7,0.6,2.4,1.3c0.6,0.5,1,1.2,1.3,1.9c0.4,1,0.4,2,0.1,3
					c-0.1,0.2-0.2,0.3-0.2,0.5c0,0.1-0.1,0.1-0.2,0.1c-0.8-0.1-1.5-0.4-2.2-0.8c-0.7-0.4-1.3-0.8-1.9-1.4c-1.1-1.1-1.8-2.4-2.1-4
					c0-0.1,0-0.1,0.1-0.2c0.4-0.2,0.8-0.4,1.2-0.4c0,0,0.1,0,0.1-0.1C26.4,13.4,26.7,13.4,27,13.4z"/>
				<path class="st3" d="M23.5,15c1,3.2,3.1,5.3,6.3,6.3c-0.5,0.3-1.1,0.5-1.7,0.5c-1.7,0.1-3-0.6-4.1-1.9c-0.5-0.6-0.9-1.4-1-2.2
					C22.9,16.8,23,15.9,23.5,15C23.5,15.1,23.5,15,23.5,15z"/>
			</g>
		</g>
	</g>
</g>
<g id="Capa_2">
</g>
</svg>
