<?xml version="1.0" encoding="utf-8"?>
<!-- Generator: Adobe Illustrator 22.0.1, SVG Export Plug-In . SVG Version: 6.00 Build 0)  -->
<svg version="1.1" xmlns="http://www.w3.org/2000/svg" xmlns:xlink="http://www.w3.org/1999/xlink" x="0px" y="0px"
	 viewBox="0 0 26.3 28.9" style="enable-background:new 0 0 26.3 28.9;" xml:space="preserve">
<style type="text/css">
	.st0{fill:#ECBB3C;}
	.st1{fill:#003366;}
	.st2{fill-rule:evenodd;clip-rule:evenodd;fill:#003366;}
	.st3{fill-rule:evenodd;clip-rule:evenodd;fill:#ECBB3C;}
	.st4{fill-rule:evenodd;clip-rule:evenodd;fill:#FFFFFF;}
	.st5{fill:#EAB856;}
	.st6{fill:#FCFCFC;}
	.st7{fill:#E9BB53;}
	.st8{fill:#FFFFFF;}
</style>
<g id="Capa_1">
	<g>
		<path class="st1" d="M16,21.3c0-1,0-1.9,0-2.9c0-0.2,0-0.2,0.2-0.3c0.8-0.2,1.4-0.9,1.4-1.8c0-1.6,0-3.2,0-4.8
			c0-0.8-0.5-1.5-1.3-1.8c-0.1,0-0.2,0-0.3,0.1c-0.7,0.8-1.6,1.3-2.7,1.3c-1.2,0-2.2-0.4-2.9-1.3c-0.1-0.1-0.2-0.1-0.4-0.1
			c-0.7,0.3-1.2,1-1.2,1.8c0,1.6,0,3.2,0,4.8c0,0.9,0.6,1.6,1.5,1.8c0.1,0,0.1,0.1,0.1,0.2c0,0.9,0,1.8,0,2.8c0,1,0,2,0,3
			c0,0.6,0.4,1,1,1c1.2,0,2.4,0,3.6,0c0.6,0,1-0.4,1-1V21.3"/>
		<path class="st1" d="M13.2,3.7c-1.7,0-3.1,1.4-3.1,3.1c0,1.7,1.4,3.1,3.1,3.1c1.7,0,3.1-1.4,3.1-3.1C16.3,5,14.9,3.6,13.2,3.7"/>
	</g>
</g>
<g id="Capa_2">
</g>
</svg>
