<?xml version="1.0" encoding="utf-8"?>
<!-- Generator: Adobe Illustrator 22.0.1, SVG Export Plug-In . SVG Version: 6.00 Build 0)  -->
<svg version="1.1" xmlns="http://www.w3.org/2000/svg" xmlns:xlink="http://www.w3.org/1999/xlink" x="0px" y="0px"
	 viewBox="0 0 47 47" style="enable-background:new 0 0 47 47;" xml:space="preserve">
<style type="text/css">
	.st0{fill:#ECBB3C;}
	.st1{fill:#003366;}
	.st2{fill-rule:evenodd;clip-rule:evenodd;fill:#003366;}
	.st3{fill-rule:evenodd;clip-rule:evenodd;fill:#ECBB3C;}
	.st4{fill-rule:evenodd;clip-rule:evenodd;fill:#FFFFFF;}
	.st5{fill:#EAB856;}
	.st6{fill:#FCFCFC;}
	.st7{fill:#E9BB53;}
	.st8{fill:#FFFFFF;}
</style>
<g id="Capa_1">
	<g>
		<g>
			<path class="st0" d="M35.1,32.6H11.9c-1,0-1.7-0.8-1.7-1.7V16.3c0-1,0.8-1.7,1.7-1.7h23.2c1,0,1.7,0.8,1.7,1.7v14.5
				C36.8,31.8,36,32.6,35.1,32.6z M11.9,14.9c-0.8,0-1.4,0.6-1.4,1.4v14.5c0,0.8,0.6,1.4,1.4,1.4h23.2c0.8,0,1.4-0.6,1.4-1.4V16.3
				c0-0.8-0.6-1.4-1.4-1.4H11.9z"/>
			<path class="st1" d="M35.2,29.6c0,0.7-0.6,1.3-1.4,1.3H13.1c-0.8,0-1.4-0.6-1.4-1.3V17.4c0-0.7,0.6-1.3,1.4-1.3h20.7
				c0.8,0,1.4,0.6,1.4,1.3V29.6z"/>
			<path class="st0" d="M26.4,14.9h-5.8c-0.3,0-0.4-0.1-0.4-0.3v-1.9c0-0.2,0.2-0.3,0.4-0.3h5.8c0.3,0,0.4,0.2,0.4,0.3v1.9
				C26.8,14.7,26.7,14.9,26.4,14.9z M20.6,12.6c-0.1,0-0.2,0.1-0.2,0.1v1.9c0,0,0.1,0.1,0.2,0.1h5.8c0.1,0,0.2-0.1,0.2-0.1v-1.9
				c0,0-0.1-0.1-0.2-0.1H20.6z"/>
			<g>
				<path class="st0" d="M29.1,18.7C29.1,18.7,29.1,18.7,29.1,18.7l1.2-0.2c0.1,0,0.1,0.1,0.1,0.1c0,0,0,0.1-0.1,0.1
					c0,0.1,0,0.2,0.1,0.2c0,0,0,0,0,0l1.5-0.2l0.2,0l0.5-0.1c0.1,0,0.1-0.1,0.1-0.1c0,0,0,0,0-0.1c0,0,0,0-0.1,0c0,0,0,0,0,0
					l-1.8,0.3c-0.1,0-0.1-0.1-0.1-0.1c0,0,0,0,0,0c0,0,0-0.1,0-0.2c0,0,0,0-0.1,0c0,0,0,0,0,0h0h0l-1.6,0.2h0h0c0,0-0.1,0-0.1,0
					c0,0,0,0.1,0,0.1C29,18.7,29,18.7,29.1,18.7z"/>
				<path class="st0" d="M32.8,18.7C32.8,18.7,32.8,18.7,32.8,18.7L32.8,18.7l0.2,0.2c0,0,0,0,0,0c0,0,0,0,0,0l0.2-0.3c0,0,0,0,0,0
					L32.8,18.7C32.8,18.6,32.8,18.6,32.8,18.7L32.8,18.7z"/>
				<path class="st0" d="M32.6,20l0.4-0.9c0,0,0-0.1,0-0.1c0,0,0,0,0,0l-0.2-0.2c0,0,0,0,0,0c0,0,0,0-0.1,0c0,0,0,0-0.1,0l-0.8,0.5
					c0,0,0,0,0,0L32.6,20C32.5,20,32.5,20,32.6,20z"/>
				<path class="st0" d="M32.5,20.4c0.1-0.1,0.1-0.1,0.1-0.2c0,0,0-0.1,0-0.1c0,0,0,0,0,0l-0.7-0.6c0,0,0,0-0.1,0c0,0-0.1,0-0.1,0
					c0,0,0,0,0,0c-0.1,0-0.1,0-0.2,0.1l-0.1,0.1l-1.6,2.2c-0.1,0.1-0.1,0.2,0,0.3l0.6,0.4c0,0,0.1,0.1,0.1,0.1c0.1,0,0.1,0,0.2-0.1
					L32.5,20.4L32.5,20.4z"/>
			</g>
		</g>
	</g>
</g>
<g id="Capa_2">
</g>
</svg>
