<?xml version="1.0" encoding="utf-8"?>
<!-- Generator: Adobe Illustrator 22.0.1, SVG Export Plug-In . SVG Version: 6.00 Build 0)  -->
<svg version="1.1" xmlns="http://www.w3.org/2000/svg" xmlns:xlink="http://www.w3.org/1999/xlink" x="0px" y="0px"
	 viewBox="0 0 47 47" style="enable-background:new 0 0 47 47;" xml:space="preserve">
<style type="text/css">
	.st0{fill:#ECBB3C;}
	.st1{fill:#003366;}
	.st2{fill-rule:evenodd;clip-rule:evenodd;fill:#003366;}
	.st3{fill-rule:evenodd;clip-rule:evenodd;fill:#ECBB3C;}
	.st4{fill-rule:evenodd;clip-rule:evenodd;fill:#FFFFFF;}
	.st5{fill:#EAB856;}
	.st6{fill:#FCFCFC;}
	.st7{fill:#E9BB53;}
	.st8{fill:#FFFFFF;}
</style>
<g id="Capa_1">
	<g>
		<g>
			<path class="st0" d="M16.7,33.1c0,0,0-0.1,0-0.1l0,0l-1-0.8c0,0,0,0,0,0c0,0-0.1,0-0.1,0l-1.1,1.3c0,0.1,0,0.1,0.1,0.1l1.9-0.2
				c0,0,0,0,0.1,0L16.7,33.1z"/>
			<path class="st1" d="M17.8,26.6L16,30.9c-0.1,0.2-0.1,0.4,0.1,0.6c0,0,0.1,0.1,0.1,0.1l1,0.8c0,0,0,0,0.1,0
				c0.1,0.1,0.2,0.1,0.3,0.1c0.1,0,0.2,0,0.3-0.1l3.8-2.7c0,0-0.1-0.1-0.1-0.1L17.8,26.6C17.9,26.7,17.8,26.6,17.8,26.6z"/>
			<path class="st0" d="M18.2,24.4c-0.3,0.3-0.3,0.6-0.3,1c0,0.2,0.1,0.3,0.2,0.5c0.1,0.1,0.1,0.2,0.2,0.2l3.7,3
				c0.1,0.1,0.2,0.1,0.3,0.2c0.1,0.1,0.3,0.1,0.4,0.1c0,0,0,0,0,0c0.3,0,0.7-0.2,0.9-0.5l0.3-0.4l8.2-11.1c0.4-0.5,0.3-1.2-0.2-1.6
				l-2.7-2.2c-0.2-0.2-0.5-0.3-0.7-0.3c-0.3,0-0.6,0.1-0.9,0.4l-9.2,10.3L18.2,24.4z"/>
		</g>
	</g>
</g>
<g id="Capa_2">
</g>
</svg>
