<?xml version="1.0" encoding="utf-8"?>
<!-- Generator: Adobe Illustrator 22.0.1, SVG Export Plug-In . SVG Version: 6.00 Build 0)  -->
<svg version="1.1" xmlns="http://www.w3.org/2000/svg" xmlns:xlink="http://www.w3.org/1999/xlink" x="0px" y="0px"
	 viewBox="0 0 47 47" style="enable-background:new 0 0 47 47;" xml:space="preserve">
<style type="text/css">
	.st0{fill:#ECBB3C;}
	.st1{fill:#003366;}
	.st2{fill-rule:evenodd;clip-rule:evenodd;fill:#003366;}
	.st3{fill-rule:evenodd;clip-rule:evenodd;fill:#ECBB3C;}
	.st4{fill-rule:evenodd;clip-rule:evenodd;fill:#FFFFFF;}
	.st5{fill:#EAB856;}
	.st6{fill:#FCFCFC;}
	.st7{fill:#E9BB53;}
	.st8{fill:#FFFFFF;}
</style>
<g id="Capa_1">
	<g>
		<g>
			<path class="st2" d="M19.2,22.7c0.4,0,0.8,0,1.2,0c1.2,0,2.6,0.4,3.6-0.1c1.1-0.6,0.3-2.2,0.5-3.3c0.3-1.9,1.5-2.3,3.2-2.3
				c1.6,0,2.7,0.6,2.9,2.3c0.1,0.6,0.1,1.2,0,1.8c-0.1,1.1,0.1,1.8,1.5,1.6c0.5-0.1,1,0.1,0.9,0.7c0,0.7-0.5,0.7-1,0.7
				c-1.9-0.2-2.4,0.9-2.6,2.5c-0.2,1.9-0.5,3.7-0.8,5.6c-0.1,0.6-0.2,1.2-1,1.2c-0.9,0-1.2-0.4-1.3-1.2c-0.3-2.1-0.6-4.1-0.9-6.2
				c-0.2-1.4-0.8-2-2.3-2c-2.7,0.1-5.4,0-8.1,0c-0.6,0-1.3,0.1-1.3-0.8c0-0.8,0.8-0.6,1.2-0.6C16.5,22.7,17.9,22.7,19.2,22.7z"/>
			<path class="st2" d="M19.3,21.7c-0.3,0-0.5,0-0.8,0c-0.9-0.2-2.3,0.7-2.3-1.3c0-1.7,0.2-3.2,2.2-3.4c1.4-0.2,3-0.4,3.8,1.4
				C23.3,21.9,22.5,21.7,19.3,21.7z"/>
			<path class="st2" d="M27.6,15.9c-0.8,0-1.4-0.5-1.4-1.3c0-0.9,0.5-1.4,1.3-1.4c0.9,0,1.4,0.5,1.5,1.3
				C29,15.3,28.5,15.8,27.6,15.9z"/>
			<path class="st2" d="M19.4,15.9c-0.9-0.1-1.4-0.6-1.4-1.5c0-0.8,0.6-1.3,1.5-1.3c0.9,0,1.4,0.6,1.3,1.4
				C20.8,15.4,20.2,15.9,19.4,15.9z"/>
		</g>
	</g>
</g>
<g id="Capa_2">
</g>
</svg>
