<?xml version="1.0" encoding="utf-8"?>
<!-- Generator: Adobe Illustrator 22.0.1, SVG Export Plug-In . SVG Version: 6.00 Build 0)  -->
<svg version="1.1" xmlns="http://www.w3.org/2000/svg" xmlns:xlink="http://www.w3.org/1999/xlink" x="0px" y="0px"
	 viewBox="0 0 47 47" style="enable-background:new 0 0 47 47;" xml:space="preserve">
<style type="text/css">
	.st0{fill:#ECBB3C;}
	.st1{fill:#003366;}
	.st2{fill-rule:evenodd;clip-rule:evenodd;fill:#003366;}
	.st3{fill-rule:evenodd;clip-rule:evenodd;fill:#ECBB3C;}
	.st4{fill-rule:evenodd;clip-rule:evenodd;fill:#FFFFFF;}
	.st5{fill:#EAB856;}
	.st6{fill:#FCFCFC;}
	.st7{fill:#E9BB53;}
	.st8{fill:#FFFFFF;}
</style>
<g id="Capa_1">
	<g>
		<g id="tRUCH5_2_">
			<g>
				<path class="st1" d="M23.2,13.1c0.2,0,0.4,0,0.6,0c0,0,0,0,0,0c0.1,0,0.2,0,0.2,0c0.2,0,0.5,0,0.7,0.1c0.2,0,0.4,0,0.6,0.1
					c0.3,0.1,0.5,0.1,0.8,0.2c0.6,0.1,1.1,0.4,1.7,0.6c0.5,0.2,1,0.5,1.5,0.9c0.4,0.3,0.8,0.6,1.2,1c0.3,0.2,0.5,0.5,0.7,0.8
					c0.2,0.3,0.4,0.6,0.6,0.8c0.3,0.4,0.6,0.9,0.8,1.4c0.1,0.3,0.3,0.6,0.4,0.9c0.2,0.4,0.3,0.8,0.4,1.2c0.1,0.4,0.1,0.7,0.2,1.1
					c0,0.2,0,0.4,0,0.6c0,0,0,0,0,0c0,0.3,0,0.6,0,0.9c0,0,0,0,0,0c0,0.1,0,0.1,0,0.2c0,0.2,0,0.4-0.1,0.5c0,0.2-0.1,0.5-0.1,0.7
					c-0.1,0.4-0.2,0.7-0.3,1.1c-0.2,0.6-0.4,1.2-0.7,1.8c-0.3,0.5-0.6,1-0.9,1.4c-0.2,0.3-0.5,0.6-0.8,0.9c-0.1,0.1-0.3,0.3-0.4,0.4
					c-0.2,0.2-0.4,0.4-0.6,0.5c-0.4,0.3-0.8,0.6-1.2,0.8c-0.4,0.2-0.7,0.4-1.1,0.5c-0.5,0.2-1,0.4-1.5,0.5c-0.4,0.1-0.8,0.2-1.2,0.2
					c-0.2,0-0.4,0-0.6,0c-0.2,0-0.4,0-0.5,0c-0.2,0-0.4,0-0.6,0c-0.1,0-0.3,0-0.4,0c-0.2,0-0.4,0-0.6-0.1c-0.3,0-0.5-0.1-0.8-0.2
					c-0.7-0.2-1.3-0.4-2-0.7c-0.4-0.2-0.8-0.4-1.2-0.6c-0.5-0.3-1-0.7-1.5-1.2c-0.3-0.2-0.5-0.5-0.7-0.8c-0.2-0.3-0.5-0.6-0.7-0.9
					c-0.3-0.4-0.5-0.9-0.8-1.3c-0.2-0.4-0.3-0.7-0.5-1.1c-0.1-0.4-0.2-0.7-0.3-1.1c0-0.2-0.1-0.5-0.1-0.7c0-0.1,0-0.3-0.1-0.4
					c0-0.2,0-0.3,0-0.5c0-0.1,0-0.2,0-0.3c0,0,0,0,0,0c0-0.2,0-0.4,0-0.6c0,0,0,0,0,0c0-0.1,0-0.3,0-0.4c0-0.2,0-0.4,0.1-0.6
					c0-0.2,0.1-0.4,0.1-0.6c0.1-0.4,0.2-0.8,0.3-1.1c0.2-0.6,0.4-1.1,0.7-1.7c0.3-0.5,0.6-1,1-1.5c0.2-0.3,0.5-0.6,0.8-0.9
					c0.1-0.2,0.3-0.3,0.5-0.4c0.2-0.2,0.4-0.3,0.6-0.5c0.4-0.3,0.8-0.5,1.2-0.8c0.4-0.2,0.8-0.4,1.2-0.6c0.4-0.2,0.8-0.3,1.2-0.4
					c0.3-0.1,0.6-0.2,1-0.2c0.2,0,0.4-0.1,0.6-0.1c0.2,0,0.3,0,0.5,0C23,13.2,23.1,13.1,23.2,13.1C23.2,13.1,23.2,13.1,23.2,13.1z
					 M25.4,28.4C25.4,28.4,25.4,28.3,25.4,28.4C25.4,28.3,25.3,28.3,25.4,28.4c-0.4-0.4-0.8-0.8-1.1-1.1c0,0-0.1,0-0.1,0
					c-0.4,0.1-0.8,0.1-1.2,0C22,27,21.3,26.6,20.7,26c-0.9-0.9-1.2-2.1-1-3.4c0.1-0.8,0.5-1.6,1.1-2.2c1-1,2.5-1.5,3.9-1.1
					c1.2,0.3,2,1,2.6,2.1c0.4,0.8,0.5,1.6,0.3,2.5c0,0,0,0.1,0,0.1c0.4,0.4,0.7,0.7,1.1,1.1c0,0,0,0,0,0c0.1-0.2,0.1-0.4,0.2-0.6
					c0,0,0,0,0.1-0.1c0.4-0.1,0.8-0.1,1.2-0.2c0.2,0,0.3-0.2,0.3-0.4c0-0.5,0-1,0-1.5c0-0.2-0.1-0.3-0.3-0.4
					c-0.4-0.1-0.8-0.1-1.2-0.2c0,0,0,0-0.1-0.1c-0.1-0.5-0.3-1-0.6-1.5c0,0,0,0,0-0.1c0.2-0.3,0.5-0.7,0.7-1c0.1-0.1,0.1-0.3,0-0.5
					c-0.3-0.3-0.7-0.7-1-1c0,0-0.1-0.1-0.1-0.1c-0.1-0.1-0.3,0-0.4,0c-0.3,0.2-0.6,0.5-1,0.7c0,0,0,0-0.1,0c-0.5-0.3-1-0.5-1.5-0.6
					c0,0,0,0,0,0c-0.1-0.4-0.1-0.8-0.2-1.2c0-0.2-0.2-0.3-0.3-0.3c-0.5,0-1,0-1.5,0c-0.2,0-0.3,0.1-0.3,0.3
					c-0.1,0.4-0.1,0.8-0.2,1.2c0,0,0,0.1-0.1,0.1c-0.5,0.1-1,0.3-1.5,0.6c0,0-0.1,0-0.1,0c-0.3-0.2-0.7-0.5-1-0.7
					c-0.1-0.1-0.3-0.1-0.5,0c-0.3,0.3-0.7,0.7-1,1c-0.1,0.1-0.1,0.3,0,0.5c0.2,0.3,0.5,0.7,0.7,1c0,0,0,0.1,0,0.1
					c-0.3,0.5-0.5,0.9-0.6,1.5c0,0,0,0-0.1,0.1c-0.4,0.1-0.8,0.1-1.2,0.2c-0.2,0-0.3,0.2-0.3,0.3c0,0.5,0,1,0,1.5
					c0,0.2,0.1,0.3,0.3,0.3c0.4,0.1,0.8,0.1,1.2,0.2c0,0,0,0,0.1,0c0.1,0.5,0.3,1,0.6,1.5c0,0,0,0.1,0,0.1c-0.2,0.3-0.5,0.7-0.7,1
					c-0.1,0.2-0.1,0.3,0,0.5c0.3,0.3,0.7,0.7,1,1c0.1,0.1,0.3,0.2,0.5,0c0.3-0.2,0.6-0.5,1-0.7c0,0,0.1,0,0.1,0
					c0.5,0.3,0.9,0.5,1.5,0.6c0,0,0.1,0,0.1,0.1c0.1,0.4,0.1,0.8,0.2,1.2c0,0.2,0.2,0.3,0.3,0.3c0.5,0,1,0,1.5,0
					c0.2,0,0.3-0.1,0.3-0.3c0.1-0.4,0.1-0.8,0.2-1.2c0,0,0-0.1,0.1-0.1C25,28.5,25.2,28.4,25.4,28.4z M23.6,20.8
					c-0.3,0-0.5,0-0.8,0.1c0,0-0.1,0-0.1,0.1c0,0,0,0.1,0,0.1c0.5,0.5,1,1,1.5,1.5c0.2,0.2,0.2,0.5,0,0.8c-0.2,0.2-0.4,0.4-0.6,0.6
					c-0.2,0.2-0.5,0.2-0.8,0c-0.5-0.5-1-1-1.5-1.5c-0.1-0.1-0.2-0.1-0.2,0.1c-0.2,0.7-0.2,1.3,0.2,2c0.5,1,1.6,1.5,2.7,1.3
					c0,0,0.1,0,0.1,0c0.9,0.9,1.7,1.7,2.6,2.6c0.3,0.3,0.7,0.4,1.1,0.4c0.7-0.1,1.2-0.6,1.2-1.3c0-0.4-0.1-0.7-0.4-1
					c-0.8-0.9-1.7-1.7-2.5-2.5c0,0,0-0.1,0-0.1c0.1-0.3,0.1-0.6,0-1C25.8,21.7,24.8,20.8,23.6,20.8z"/>
				<path class="st4" d="M25.4,28.4c-0.2,0-0.3,0.1-0.5,0.1c0,0-0.1,0-0.1,0.1c-0.1,0.4-0.1,0.8-0.2,1.2c0,0.2-0.2,0.3-0.3,0.3
					c-0.5,0-1,0-1.5,0c-0.2,0-0.3-0.1-0.3-0.3c-0.1-0.4-0.1-0.8-0.2-1.2c0,0,0-0.1-0.1-0.1c-0.5-0.1-1-0.3-1.5-0.6c0,0-0.1,0-0.1,0
					c-0.3,0.2-0.6,0.5-1,0.7c-0.2,0.1-0.4,0.1-0.5,0c-0.3-0.3-0.7-0.7-1-1c-0.1-0.1-0.2-0.3,0-0.5c0.2-0.3,0.5-0.7,0.7-1
					c0,0,0-0.1,0-0.1c-0.3-0.5-0.5-0.9-0.6-1.5c0,0,0,0-0.1,0c-0.4-0.1-0.8-0.1-1.2-0.2c-0.2,0-0.3-0.2-0.3-0.3c0-0.5,0-1,0-1.5
					c0-0.2,0.1-0.3,0.3-0.3c0.4-0.1,0.8-0.1,1.2-0.2c0,0,0,0,0.1-0.1c0.1-0.5,0.3-1,0.6-1.5c0,0,0-0.1,0-0.1c-0.2-0.3-0.5-0.7-0.7-1
					c-0.1-0.1-0.1-0.3,0-0.5c0.3-0.3,0.7-0.7,1-1c0.1-0.1,0.3-0.1,0.5,0c0.3,0.2,0.7,0.5,1,0.7c0,0,0.1,0,0.1,0
					c0.5-0.3,0.9-0.5,1.5-0.6c0,0,0,0,0.1-0.1c0.1-0.4,0.1-0.8,0.2-1.2c0-0.2,0.2-0.3,0.3-0.3c0.5,0,1,0,1.5,0
					c0.2,0,0.3,0.1,0.3,0.3c0.1,0.4,0.1,0.8,0.2,1.2c0,0,0,0,0,0c0.5,0.1,1,0.3,1.5,0.6c0,0,0.1,0,0.1,0c0.3-0.2,0.6-0.5,1-0.7
					c0.1-0.1,0.3-0.1,0.4,0c0,0,0.1,0,0.1,0.1c0.3,0.3,0.7,0.7,1,1c0.1,0.1,0.1,0.3,0,0.5c-0.2,0.3-0.5,0.7-0.7,1c0,0,0,0,0,0.1
					c0.3,0.5,0.5,1,0.6,1.5c0,0,0,0,0.1,0.1c0.4,0.1,0.8,0.1,1.2,0.2c0.2,0,0.3,0.2,0.3,0.4c0,0.5,0,1,0,1.5c0,0.2-0.1,0.3-0.3,0.4
					c-0.4,0.1-0.8,0.1-1.2,0.2c0,0,0,0-0.1,0.1c-0.1,0.2-0.1,0.4-0.2,0.6c0,0,0,0,0,0c-0.4-0.4-0.7-0.7-1.1-1.1c0,0,0,0,0-0.1
					c0.2-0.9,0.1-1.7-0.3-2.5c-0.5-1.1-1.4-1.8-2.6-2.1c-1.4-0.4-2.9,0-3.9,1.1c-0.6,0.6-0.9,1.3-1.1,2.2c-0.2,1.3,0.2,2.4,1,3.4
					c0.6,0.7,1.4,1,2.3,1.2c0.4,0.1,0.8,0.1,1.2,0c0,0,0.1,0,0.1,0C24.6,27.6,25,27.9,25.4,28.4C25.3,28.3,25.4,28.3,25.4,28.4
					C25.4,28.3,25.4,28.4,25.4,28.4z"/>
				<path class="st3" d="M23.6,20.8c1.2,0,2.2,0.9,2.5,2c0.1,0.3,0.1,0.6,0,1c0,0,0,0.1,0,0.1c0.9,0.8,1.7,1.7,2.5,2.5
					c0.3,0.3,0.4,0.6,0.4,1c0,0.7-0.5,1.2-1.2,1.3c-0.4,0.1-0.8-0.1-1.1-0.4c-0.9-0.8-1.7-1.7-2.6-2.6c0,0,0,0-0.1,0
					c-1.1,0.2-2.2-0.3-2.7-1.3c-0.3-0.6-0.4-1.3-0.2-2c0-0.1,0.1-0.1,0.2-0.1c0.5,0.5,1,1,1.5,1.5c0.2,0.2,0.5,0.2,0.8,0
					c0.2-0.2,0.4-0.4,0.6-0.6c0.2-0.2,0.2-0.5,0-0.8c-0.5-0.5-1-1-1.5-1.5c0,0,0-0.1,0-0.1c0-0.1,0-0.1,0.1-0.1
					C23,20.9,23.3,20.8,23.6,20.8z"/>
			</g>
		</g>
	</g>
</g>
<g id="Capa_2">
</g>
</svg>
